%TF.GenerationSoftware,KiCad,Pcbnew,(7.0.0-rc1-56-g82a1175d72)*%
%TF.CreationDate,2023-05-08T22:11:16+09:00*%
%TF.ProjectId,E_Load,455f4c6f-6164-42e6-9b69-6361645f7063,rev?*%
%TF.SameCoordinates,Original*%
%TF.FileFunction,Copper,L2,Bot*%
%TF.FilePolarity,Positive*%
%FSLAX46Y46*%
G04 Gerber Fmt 4.6, Leading zero omitted, Abs format (unit mm)*
G04 Created by KiCad (PCBNEW (7.0.0-rc1-56-g82a1175d72)) date 2023-05-08 22:11:16*
%MOMM*%
%LPD*%
G01*
G04 APERTURE LIST*
G04 Aperture macros list*
%AMRoundRect*
0 Rectangle with rounded corners*
0 $1 Rounding radius*
0 $2 $3 $4 $5 $6 $7 $8 $9 X,Y pos of 4 corners*
0 Add a 4 corners polygon primitive as box body*
4,1,4,$2,$3,$4,$5,$6,$7,$8,$9,$2,$3,0*
0 Add four circle primitives for the rounded corners*
1,1,$1+$1,$2,$3*
1,1,$1+$1,$4,$5*
1,1,$1+$1,$6,$7*
1,1,$1+$1,$8,$9*
0 Add four rect primitives between the rounded corners*
20,1,$1+$1,$2,$3,$4,$5,0*
20,1,$1+$1,$4,$5,$6,$7,0*
20,1,$1+$1,$6,$7,$8,$9,0*
20,1,$1+$1,$8,$9,$2,$3,0*%
G04 Aperture macros list end*
%TA.AperFunction,ComponentPad*%
%ADD10R,1.700000X1.700000*%
%TD*%
%TA.AperFunction,ComponentPad*%
%ADD11O,1.700000X1.700000*%
%TD*%
%TA.AperFunction,ComponentPad*%
%ADD12C,2.000000*%
%TD*%
%TA.AperFunction,ComponentPad*%
%ADD13R,2.000000X4.500000*%
%TD*%
%TA.AperFunction,ComponentPad*%
%ADD14O,2.000000X4.000000*%
%TD*%
%TA.AperFunction,ComponentPad*%
%ADD15O,4.000000X2.000000*%
%TD*%
%TA.AperFunction,ComponentPad*%
%ADD16R,2.500000X4.500000*%
%TD*%
%TA.AperFunction,ComponentPad*%
%ADD17O,2.500000X4.500000*%
%TD*%
%TA.AperFunction,ComponentPad*%
%ADD18C,1.600000*%
%TD*%
%TA.AperFunction,ComponentPad*%
%ADD19C,3.500000*%
%TD*%
%TA.AperFunction,ComponentPad*%
%ADD20RoundRect,0.250000X-0.625000X0.350000X-0.625000X-0.350000X0.625000X-0.350000X0.625000X0.350000X0*%
%TD*%
%TA.AperFunction,ComponentPad*%
%ADD21O,1.750000X1.200000*%
%TD*%
%TA.AperFunction,ComponentPad*%
%ADD22C,1.400000*%
%TD*%
%TA.AperFunction,ComponentPad*%
%ADD23O,1.400000X1.400000*%
%TD*%
%TA.AperFunction,ComponentPad*%
%ADD24C,2.500000*%
%TD*%
%TA.AperFunction,ViaPad*%
%ADD25C,0.800000*%
%TD*%
%TA.AperFunction,Conductor*%
%ADD26C,1.000000*%
%TD*%
%TA.AperFunction,Conductor*%
%ADD27C,0.200000*%
%TD*%
%TA.AperFunction,Conductor*%
%ADD28C,0.500000*%
%TD*%
G04 APERTURE END LIST*
D10*
%TO.P,J4,1,Pin_1*%
%TO.N,/GPIO35*%
X157459999Y-105299999D03*
D11*
%TO.P,J4,2,Pin_2*%
%TO.N,GND*%
X159999999Y-105299999D03*
%TO.P,J4,3,Pin_3*%
%TO.N,/GPIO36*%
X157459999Y-107839999D03*
%TO.P,J4,4,Pin_4*%
%TO.N,GND*%
X159999999Y-107839999D03*
%TO.P,J4,5,Pin_5*%
%TO.N,/EN*%
X157459999Y-110379999D03*
%TO.P,J4,6,Pin_6*%
%TO.N,GND*%
X159999999Y-110379999D03*
%TO.P,J4,7,Pin_7*%
%TO.N,/GPIO25*%
X157459999Y-112919999D03*
%TO.P,J4,8,Pin_8*%
%TO.N,/GPIO23*%
X159999999Y-112919999D03*
%TO.P,J4,9,Pin_9*%
%TO.N,/GPIO26*%
X157459999Y-115459999D03*
%TO.P,J4,10,Pin_10*%
%TO.N,/GPIO19*%
X159999999Y-115459999D03*
%TO.P,J4,11,Pin_11*%
%TO.N,+3.3V*%
X157459999Y-117999999D03*
%TO.P,J4,12,Pin_12*%
%TO.N,/GPIO18*%
X159999999Y-117999999D03*
%TO.P,J4,13,Pin_13*%
%TO.N,/GPIO1*%
X157459999Y-120539999D03*
%TO.P,J4,14,Pin_14*%
%TO.N,/GPIO3*%
X159999999Y-120539999D03*
%TO.P,J4,15,Pin_15*%
%TO.N,/GPIO17*%
X157459999Y-123079999D03*
%TO.P,J4,16,Pin_16*%
%TO.N,/GPIO16*%
X159999999Y-123079999D03*
%TO.P,J4,17,Pin_17*%
%TO.N,/GPIO22*%
X157459999Y-125619999D03*
%TO.P,J4,18,Pin_18*%
%TO.N,/GPIO21*%
X159999999Y-125619999D03*
%TO.P,J4,19,Pin_19*%
%TO.N,/GPIO5*%
X157459999Y-128159999D03*
%TO.P,J4,20,Pin_20*%
%TO.N,/GPIO2*%
X159999999Y-128159999D03*
%TO.P,J4,21,Pin_21*%
%TO.N,/GPIO13*%
X157459999Y-130699999D03*
%TO.P,J4,22,Pin_22*%
%TO.N,/GPIO12*%
X159999999Y-130699999D03*
%TO.P,J4,23,Pin_23*%
%TO.N,/ENC_B*%
X157459999Y-133239999D03*
%TO.P,J4,24,Pin_24*%
%TO.N,/GPIO15*%
X159999999Y-133239999D03*
%TO.P,J4,25,Pin_25*%
%TO.N,/ENC_A*%
X157459999Y-135779999D03*
%TO.P,J4,26,Pin_26*%
%TO.N,unconnected-(J4-Pin_26-Pad26)*%
X159999999Y-135779999D03*
%TO.P,J4,27,Pin_27*%
%TO.N,+5V*%
X157459999Y-138319999D03*
%TO.P,J4,28,Pin_28*%
%TO.N,unconnected-(J4-Pin_28-Pad28)*%
X159999999Y-138319999D03*
%TO.P,J4,29,Pin_29*%
%TO.N,unconnected-(J4-Pin_29-Pad29)*%
X157459999Y-140859999D03*
%TO.P,J4,30,Pin_30*%
%TO.N,unconnected-(J4-Pin_30-Pad30)*%
X159999999Y-140859999D03*
%TD*%
D12*
%TO.P,TP5,1,1*%
%TO.N,/GPIO22*%
X167750000Y-120000000D03*
%TD*%
%TO.P,TP6,1,1*%
%TO.N,/GPIO21*%
X167750000Y-126750000D03*
%TD*%
%TO.P,TP2,1,1*%
%TO.N,/Voltage*%
X172750000Y-101500000D03*
%TD*%
%TO.P,TP4,1,1*%
%TO.N,/NTC*%
X180250000Y-101500000D03*
%TD*%
D13*
%TO.P,J2,1*%
%TO.N,+12V*%
X185799999Y-96499999D03*
D14*
%TO.P,J2,2*%
%TO.N,GND*%
X191999999Y-96499999D03*
D15*
%TO.P,J2,3*%
X188999999Y-91799999D03*
%TD*%
D16*
%TO.P,Q3,1,G*%
%TO.N,Net-(Q3-G)*%
X162169999Y-65499999D03*
D17*
%TO.P,Q3,2,D*%
%TO.N,/Vin*%
X156719999Y-65499999D03*
%TO.P,Q3,3,S*%
%TO.N,Net-(Q2-S)*%
X151269999Y-65499999D03*
%TD*%
D18*
%TO.P,SW1,1,R*%
%TO.N,Net-(SW1-R)*%
X175250000Y-125750000D03*
%TO.P,SW1,2,G*%
%TO.N,Net-(SW1-G)*%
X177250000Y-125750000D03*
%TO.P,SW1,3,S1*%
%TO.N,/GPIO13*%
X179250000Y-125750000D03*
%TO.P,SW1,4,B*%
%TO.N,Net-(R22-Pad1)*%
X181250000Y-125750000D03*
%TO.P,SW1,5,S2*%
%TO.N,+3.3V*%
X183250000Y-125750000D03*
D12*
%TO.P,SW1,A,A*%
%TO.N,/ENC_A*%
X176750000Y-140250000D03*
%TO.P,SW1,B,B*%
%TO.N,/ENC_B*%
X181750000Y-140250000D03*
%TO.P,SW1,C,C*%
%TO.N,GND*%
X179250000Y-140250000D03*
D19*
%TO.P,SW1,NC*%
%TO.N,N/C*%
X172650000Y-132750000D03*
X184850000Y-132750000D03*
%TD*%
D16*
%TO.P,Q2,1,G*%
%TO.N,Net-(Q2-G)*%
X135449999Y-65424999D03*
D17*
%TO.P,Q2,2,D*%
%TO.N,/Vin*%
X129999999Y-65424999D03*
%TO.P,Q2,3,S*%
%TO.N,Net-(Q2-S)*%
X124549999Y-65424999D03*
%TD*%
D16*
%TO.P,Q4,1,G*%
%TO.N,Net-(Q4-G)*%
X188699999Y-65499999D03*
D17*
%TO.P,Q4,2,D*%
%TO.N,/Vin*%
X183249999Y-65499999D03*
%TO.P,Q4,3,S*%
%TO.N,Net-(Q2-S)*%
X177799999Y-65499999D03*
%TD*%
D20*
%TO.P,J3,1,Pin_1*%
%TO.N,+12V*%
X196550000Y-132250000D03*
D21*
%TO.P,J3,2,Pin_2*%
%TO.N,Net-(J3-Pin_2)*%
X196549999Y-134249999D03*
%TD*%
D22*
%TO.P,TH1,1*%
%TO.N,+3.3V*%
X197970000Y-60250000D03*
D23*
%TO.P,TH1,2*%
%TO.N,/NTC*%
X195429999Y-60249999D03*
%TD*%
D12*
%TO.P,TP1,1,1*%
%TO.N,/Current_ref*%
X169000000Y-101500000D03*
%TD*%
%TO.P,TP3,1,1*%
%TO.N,/Current*%
X176500000Y-101500000D03*
%TD*%
%TO.P,J1,*%
%TO.N,*%
X101500000Y-84125000D03*
X101500000Y-73125000D03*
D24*
%TO.P,J1,1,Pin_1*%
%TO.N,/Vin*%
X111500000Y-81125000D03*
%TO.P,J1,2,Pin_2*%
%TO.N,GND*%
X111500000Y-76125000D03*
%TD*%
D25*
%TO.N,GND*%
X169500000Y-106250000D03*
X167750000Y-148250000D03*
X191000000Y-121750000D03*
%TO.N,+12V*%
X177000000Y-92750000D03*
%TO.N,GND*%
X163000000Y-122000000D03*
X184750000Y-135250000D03*
X185500000Y-88250000D03*
X101250000Y-139250000D03*
X163000000Y-106750000D03*
X108500000Y-69250000D03*
X173250000Y-103750000D03*
X113000000Y-70250000D03*
X107500000Y-69250000D03*
X132750000Y-96500000D03*
X175500000Y-131750000D03*
X185750000Y-101500000D03*
X111000000Y-68250000D03*
X114000000Y-68250000D03*
X185000000Y-145250000D03*
X178000000Y-115250000D03*
X110000000Y-68250000D03*
X162000000Y-138250000D03*
X152500000Y-109000000D03*
X101250000Y-109750000D03*
X159250000Y-144000000D03*
X101250000Y-102250000D03*
X181250000Y-134000000D03*
X169250000Y-124500000D03*
X174750000Y-95750000D03*
X114000000Y-70250000D03*
X112000000Y-68250000D03*
X129500000Y-148250000D03*
X171500000Y-103750000D03*
X182000000Y-127250000D03*
X108000000Y-68250000D03*
X106500000Y-67250000D03*
X177250000Y-138000000D03*
X198250000Y-101250000D03*
X178000000Y-112500000D03*
X174500000Y-119750000D03*
X113000000Y-68250000D03*
X171250000Y-91500000D03*
X170250000Y-119500000D03*
X149000000Y-99750000D03*
X152500000Y-114500000D03*
X106500000Y-88250000D03*
X198250000Y-89000000D03*
X163000000Y-100250000D03*
X159500000Y-92250000D03*
X113500000Y-69250000D03*
X115000000Y-68250000D03*
X101250000Y-95000000D03*
X173250000Y-106250000D03*
X112000000Y-70250000D03*
X139250000Y-148250000D03*
X112500000Y-69250000D03*
X105500000Y-67250000D03*
X191750000Y-128500000D03*
X172500000Y-144750000D03*
X101250000Y-117000000D03*
X114500000Y-69250000D03*
X167750000Y-116250000D03*
X169500000Y-113250000D03*
X120000000Y-148250000D03*
X111000000Y-70250000D03*
X106000000Y-68250000D03*
X162250000Y-96000000D03*
X185750000Y-105000000D03*
X178250000Y-98750000D03*
X165750000Y-106500000D03*
X197250000Y-124000000D03*
X155750000Y-109250000D03*
X110500000Y-69250000D03*
X190000000Y-136500000D03*
X101000000Y-67250000D03*
X174750000Y-92750000D03*
X111500000Y-69250000D03*
X181250000Y-105500000D03*
X177250000Y-108500000D03*
X152000000Y-103250000D03*
X193000000Y-121750000D03*
X107000000Y-68250000D03*
X107500000Y-67250000D03*
X111000000Y-148250000D03*
X119119622Y-68130378D03*
X143000000Y-96500000D03*
X179500000Y-129500000D03*
X112000000Y-93750000D03*
X108750000Y-90000000D03*
X160000000Y-148250000D03*
X179000000Y-121250000D03*
X181250000Y-117750000D03*
X189000000Y-148750000D03*
X189500000Y-145250000D03*
X195250000Y-139500000D03*
X176000000Y-118000000D03*
X169000000Y-136000000D03*
X177750000Y-144750000D03*
X166750000Y-108250000D03*
X169000000Y-138250000D03*
X153000000Y-96500000D03*
X181750000Y-137500000D03*
X109000000Y-68250000D03*
X106500000Y-69250000D03*
X184750000Y-137750000D03*
X101250000Y-78500000D03*
X174500000Y-114500000D03*
X120750000Y-96500000D03*
X137750000Y-99750000D03*
X187250000Y-128500000D03*
X158750000Y-100250000D03*
X175500000Y-133750000D03*
X198250000Y-117500000D03*
X194000000Y-132250000D03*
X109000000Y-70250000D03*
X110000000Y-70250000D03*
X108000000Y-70250000D03*
X116500000Y-100000000D03*
X169750000Y-103500000D03*
X181250000Y-131750000D03*
X115000000Y-70250000D03*
X155250000Y-120000000D03*
X177000000Y-90500000D03*
X197500000Y-129250000D03*
X154250000Y-100000000D03*
X168000000Y-98750000D03*
X173500000Y-98000000D03*
X182000000Y-94750000D03*
X180000000Y-93250000D03*
X126000000Y-100000000D03*
X163000000Y-114250000D03*
X107000000Y-70250000D03*
X155750000Y-114500000D03*
X176250000Y-104500000D03*
X198250000Y-96250000D03*
X109500000Y-69250000D03*
X115500000Y-69250000D03*
X181250000Y-111000000D03*
X149500000Y-148250000D03*
X188500000Y-104500000D03*
X165000000Y-92250000D03*
X171750000Y-112250000D03*
X163000000Y-127250000D03*
X155000000Y-136500000D03*
X182500000Y-98750000D03*
X155250000Y-127000000D03*
X166250000Y-88500000D03*
X162000000Y-136000000D03*
X101250000Y-124500000D03*
X163250000Y-88500000D03*
X101250000Y-132500000D03*
X195000000Y-89000000D03*
X169500000Y-93250000D03*
%TO.N,+5V*%
X186000000Y-116500000D03*
X186000000Y-108500000D03*
X191500000Y-109750000D03*
X191500000Y-112500000D03*
X191500000Y-107250000D03*
X188250000Y-112500000D03*
X186000000Y-112500000D03*
X190250000Y-115250000D03*
%TO.N,+3.3V*%
X166500000Y-102000000D03*
X176000000Y-111000000D03*
X171750000Y-108750000D03*
X114000000Y-92750000D03*
X183500000Y-144250000D03*
X176000000Y-115750000D03*
%TO.N,/Vin*%
X107500000Y-89490000D03*
%TO.N,/GPIO21*%
X173750000Y-112000000D03*
X165250000Y-115000000D03*
X165250000Y-125500000D03*
%TO.N,Net-(Q2-S)*%
X112500000Y-61750000D03*
X110000000Y-60750000D03*
X113500000Y-61750000D03*
X114500000Y-61750000D03*
X115000000Y-60750000D03*
X108500000Y-61750000D03*
X113000000Y-60750000D03*
X107000000Y-62750000D03*
X115000000Y-62750000D03*
X114000000Y-60750000D03*
X108000000Y-62750000D03*
X107000000Y-60750000D03*
X111000000Y-60750000D03*
X112000000Y-62750000D03*
X110000000Y-62750000D03*
X115500000Y-61750000D03*
X114000000Y-62750000D03*
X110500000Y-61750000D03*
X108000000Y-60750000D03*
X111000000Y-62750000D03*
X111500000Y-61750000D03*
X109000000Y-62750000D03*
X107500000Y-61750000D03*
X112000000Y-60750000D03*
X116000000Y-62750000D03*
X109000000Y-60750000D03*
X109500000Y-61750000D03*
X113000000Y-62750000D03*
%TD*%
D26*
%TO.N,+12V*%
X185800000Y-96500000D02*
X180750000Y-96500000D01*
X177500000Y-93250000D02*
X177000000Y-92750000D01*
X180750000Y-96500000D02*
X177500000Y-93250000D01*
D27*
%TO.N,GND*%
X119119622Y-68130378D02*
X117750000Y-69500000D01*
X117750000Y-69500000D02*
X117500000Y-69500000D01*
D28*
%TO.N,+3.3V*%
X171750000Y-107500000D02*
X171750000Y-108750000D01*
X182650000Y-130350000D02*
X183250000Y-129750000D01*
X183250000Y-129750000D02*
X183250000Y-125750000D01*
D26*
X155750000Y-118000000D02*
X157460000Y-118000000D01*
D28*
X166500000Y-102000000D02*
X172000000Y-107500000D01*
D26*
X166500000Y-98250000D02*
X166500000Y-102000000D01*
X178000000Y-86750000D02*
X166500000Y-98250000D01*
D28*
X119500000Y-98250000D02*
X150000000Y-98250000D01*
X183250000Y-123000000D02*
X176000000Y-115750000D01*
X174000000Y-111000000D02*
X171750000Y-108750000D01*
D26*
X154250000Y-102500000D02*
X154250000Y-116500000D01*
D28*
X114000000Y-92750000D02*
X119500000Y-98250000D01*
D26*
X154250000Y-116500000D02*
X155750000Y-118000000D01*
D28*
X176000000Y-115750000D02*
X176000000Y-111000000D01*
X150000000Y-98250000D02*
X154250000Y-102500000D01*
D26*
X197970000Y-78030000D02*
X189250000Y-86750000D01*
X197970000Y-60250000D02*
X197970000Y-78030000D01*
D28*
X183250000Y-125750000D02*
X183250000Y-123000000D01*
X183500000Y-144250000D02*
X183500000Y-134511270D01*
X182650000Y-133661270D02*
X182650000Y-130350000D01*
X176000000Y-111000000D02*
X174250000Y-111000000D01*
D26*
X189250000Y-86750000D02*
X178000000Y-86750000D01*
X166500000Y-98250000D02*
X158500000Y-98250000D01*
D28*
X183500000Y-134511270D02*
X182650000Y-133661270D01*
D26*
X158500000Y-98250000D02*
X154250000Y-102500000D01*
D27*
%TO.N,/Vin*%
X107500000Y-89490000D02*
X111500000Y-85490000D01*
X111500000Y-85490000D02*
X111500000Y-81125000D01*
%TO.N,/GPIO21*%
X173750000Y-112000000D02*
X171500000Y-114250000D01*
X171500000Y-114250000D02*
X166000000Y-114250000D01*
X165250000Y-115000000D02*
X165250000Y-125500000D01*
X166000000Y-114250000D02*
X165250000Y-115000000D01*
%TD*%
%TA.AperFunction,Conductor*%
%TO.N,GND*%
G36*
X114746193Y-66259334D02*
G01*
X114786734Y-66285953D01*
X119182133Y-70587938D01*
X119210148Y-70629142D01*
X119220000Y-70677985D01*
X119220000Y-74448214D01*
X119210541Y-74496113D01*
X119183583Y-74536817D01*
X118590948Y-75135990D01*
X116536987Y-77212605D01*
X116495941Y-77240276D01*
X116447404Y-77250000D01*
X113098683Y-77250000D01*
X113035683Y-77233119D01*
X112989564Y-77187000D01*
X112972683Y-77124000D01*
X112989564Y-77061000D01*
X113085985Y-76893994D01*
X113090068Y-76885514D01*
X113182883Y-76649026D01*
X113185657Y-76640033D01*
X113242189Y-76392352D01*
X113243592Y-76383045D01*
X113262578Y-76129697D01*
X113262578Y-76120303D01*
X113243592Y-75866954D01*
X113242189Y-75857647D01*
X113185657Y-75609966D01*
X113182883Y-75600973D01*
X113090068Y-75364485D01*
X113085985Y-75356005D01*
X112958961Y-75135994D01*
X112953657Y-75128214D01*
X112921420Y-75087790D01*
X112910001Y-75079688D01*
X112897748Y-75086460D01*
X111589094Y-76395114D01*
X111532610Y-76427726D01*
X111467388Y-76427726D01*
X111410904Y-76395114D01*
X110102250Y-75086460D01*
X110089997Y-75079688D01*
X110078579Y-75087789D01*
X110046339Y-75128219D01*
X110041040Y-75135990D01*
X109914014Y-75356005D01*
X109909931Y-75364485D01*
X109817116Y-75600973D01*
X109814342Y-75609966D01*
X109757810Y-75857647D01*
X109756407Y-75866954D01*
X109737422Y-76120303D01*
X109737422Y-76129697D01*
X109756407Y-76383045D01*
X109757810Y-76392352D01*
X109814342Y-76640033D01*
X109817116Y-76649026D01*
X109909931Y-76885514D01*
X109914014Y-76893994D01*
X110010436Y-77061000D01*
X110027317Y-77124000D01*
X110010436Y-77187000D01*
X109964317Y-77233119D01*
X109901317Y-77250000D01*
X108500000Y-77250000D01*
X108491227Y-77258772D01*
X108491224Y-77258775D01*
X106008775Y-79741224D01*
X106008772Y-79741227D01*
X106000000Y-79750000D01*
X106000000Y-86000000D01*
X108282514Y-88282514D01*
X107815028Y-88750000D01*
X100500500Y-88750000D01*
X100500500Y-85123671D01*
X100513709Y-85067508D01*
X100550568Y-85023121D01*
X100603348Y-84999816D01*
X100660982Y-85002481D01*
X100711385Y-85030555D01*
X100773438Y-85087124D01*
X100962599Y-85204247D01*
X101170060Y-85284618D01*
X101388757Y-85325500D01*
X101605416Y-85325500D01*
X101611243Y-85325500D01*
X101829940Y-85284618D01*
X102037401Y-85204247D01*
X102226562Y-85087124D01*
X102390981Y-84937236D01*
X102525058Y-84759689D01*
X102624229Y-84560528D01*
X102685115Y-84346536D01*
X102705643Y-84125000D01*
X102685115Y-83903464D01*
X102624229Y-83689472D01*
X102525058Y-83490311D01*
X102390981Y-83312764D01*
X102386677Y-83308841D01*
X102386675Y-83308838D01*
X102230864Y-83166798D01*
X102230865Y-83166798D01*
X102226562Y-83162876D01*
X102037401Y-83045753D01*
X102005129Y-83033251D01*
X101835375Y-82967487D01*
X101835369Y-82967485D01*
X101829940Y-82965382D01*
X101824220Y-82964312D01*
X101824214Y-82964311D01*
X101616967Y-82925570D01*
X101616966Y-82925569D01*
X101611243Y-82924500D01*
X101388757Y-82924500D01*
X101383034Y-82925569D01*
X101383032Y-82925570D01*
X101175785Y-82964311D01*
X101175776Y-82964313D01*
X101170060Y-82965382D01*
X101164632Y-82967484D01*
X101164624Y-82967487D01*
X100968037Y-83043646D01*
X100968034Y-83043647D01*
X100962599Y-83045753D01*
X100957643Y-83048821D01*
X100957638Y-83048824D01*
X100778391Y-83159809D01*
X100773438Y-83162876D01*
X100769139Y-83166794D01*
X100769135Y-83166798D01*
X100711386Y-83219444D01*
X100660982Y-83247519D01*
X100603348Y-83250184D01*
X100550568Y-83226879D01*
X100513709Y-83182492D01*
X100500500Y-83126329D01*
X100500500Y-74714585D01*
X110452253Y-74714585D01*
X110458267Y-74724057D01*
X111488270Y-75754060D01*
X111500000Y-75760832D01*
X111511729Y-75754060D01*
X112541731Y-74724057D01*
X112547745Y-74714585D01*
X112540076Y-74706397D01*
X112385359Y-74600913D01*
X112377215Y-74596211D01*
X112148320Y-74485981D01*
X112139563Y-74482544D01*
X111896790Y-74407658D01*
X111887633Y-74405568D01*
X111636405Y-74367702D01*
X111627028Y-74367000D01*
X111372972Y-74367000D01*
X111363594Y-74367702D01*
X111112366Y-74405568D01*
X111103209Y-74407658D01*
X110860436Y-74482544D01*
X110851679Y-74485981D01*
X110622783Y-74596212D01*
X110614638Y-74600914D01*
X110459920Y-74706399D01*
X110452253Y-74714585D01*
X100500500Y-74714585D01*
X100500500Y-74123671D01*
X100513709Y-74067508D01*
X100550568Y-74023121D01*
X100603348Y-73999816D01*
X100660982Y-74002481D01*
X100711385Y-74030555D01*
X100773438Y-74087124D01*
X100962599Y-74204247D01*
X101170060Y-74284618D01*
X101388757Y-74325500D01*
X101605416Y-74325500D01*
X101611243Y-74325500D01*
X101829940Y-74284618D01*
X102037401Y-74204247D01*
X102226562Y-74087124D01*
X102390981Y-73937236D01*
X102525058Y-73759689D01*
X102624229Y-73560528D01*
X102685115Y-73346536D01*
X102705643Y-73125000D01*
X102685115Y-72903464D01*
X102624229Y-72689472D01*
X102525058Y-72490311D01*
X102390981Y-72312764D01*
X102386677Y-72308841D01*
X102386675Y-72308838D01*
X102230864Y-72166798D01*
X102230865Y-72166798D01*
X102226562Y-72162876D01*
X102037401Y-72045753D01*
X102005129Y-72033251D01*
X101835375Y-71967487D01*
X101835369Y-71967485D01*
X101829940Y-71965382D01*
X101824220Y-71964312D01*
X101824214Y-71964311D01*
X101616967Y-71925570D01*
X101616966Y-71925569D01*
X101611243Y-71924500D01*
X101388757Y-71924500D01*
X101383034Y-71925569D01*
X101383032Y-71925570D01*
X101175785Y-71964311D01*
X101175776Y-71964313D01*
X101170060Y-71965382D01*
X101164632Y-71967484D01*
X101164624Y-71967487D01*
X100968037Y-72043646D01*
X100968034Y-72043647D01*
X100962599Y-72045753D01*
X100957643Y-72048821D01*
X100957638Y-72048824D01*
X100778391Y-72159809D01*
X100773438Y-72162876D01*
X100769139Y-72166794D01*
X100769135Y-72166798D01*
X100711386Y-72219444D01*
X100660982Y-72247519D01*
X100603348Y-72250184D01*
X100550568Y-72226879D01*
X100513709Y-72182492D01*
X100500500Y-72126329D01*
X100500500Y-66376000D01*
X100517381Y-66313000D01*
X100563500Y-66266881D01*
X100626500Y-66250000D01*
X114698601Y-66250000D01*
X114746193Y-66259334D01*
G37*
%TD.AperFunction*%
%TD*%
%TA.AperFunction,Conductor*%
%TO.N,Net-(Q2-S)*%
G36*
X172246028Y-50759591D02*
G01*
X172286905Y-50786905D01*
X179713095Y-58213095D01*
X179740409Y-58253972D01*
X179750000Y-58302190D01*
X179750000Y-64024843D01*
X179735399Y-64083719D01*
X179694978Y-64128949D01*
X179638108Y-64150051D01*
X179577967Y-64142133D01*
X179528496Y-64107031D01*
X179501159Y-64052881D01*
X179485657Y-63984966D01*
X179482883Y-63975973D01*
X179390068Y-63739485D01*
X179385985Y-63731005D01*
X179258956Y-63510986D01*
X179253665Y-63503225D01*
X179095253Y-63304583D01*
X179088869Y-63297702D01*
X178902624Y-63124891D01*
X178895270Y-63119028D01*
X178685361Y-62975914D01*
X178677216Y-62971212D01*
X178448320Y-62860981D01*
X178439564Y-62857544D01*
X178314136Y-62818855D01*
X178302662Y-62818103D01*
X178300000Y-62829287D01*
X178300000Y-65874000D01*
X178283119Y-65937000D01*
X178237000Y-65983119D01*
X178174000Y-66000000D01*
X176058590Y-66000000D01*
X176045506Y-66003506D01*
X176042000Y-66016590D01*
X176042000Y-66563435D01*
X176042175Y-66568130D01*
X176056407Y-66758045D01*
X176057810Y-66767352D01*
X176114342Y-67015033D01*
X176117116Y-67024026D01*
X176209931Y-67260514D01*
X176214014Y-67268994D01*
X176341043Y-67489013D01*
X176346334Y-67496774D01*
X176504746Y-67695416D01*
X176511130Y-67702297D01*
X176697375Y-67875108D01*
X176704729Y-67880971D01*
X176908491Y-68019894D01*
X176950205Y-68067638D01*
X176963386Y-68129653D01*
X176944699Y-68190236D01*
X176898874Y-68234049D01*
X176837513Y-68250000D01*
X163932615Y-68250000D01*
X163866397Y-68231197D01*
X163819942Y-68180399D01*
X163807117Y-68112769D01*
X163831745Y-68048492D01*
X163870889Y-67996204D01*
X163921989Y-67859201D01*
X163928500Y-67798638D01*
X163928500Y-64983410D01*
X176042000Y-64983410D01*
X176045506Y-64996493D01*
X176058590Y-65000000D01*
X177283410Y-65000000D01*
X177296493Y-64996493D01*
X177300000Y-64983410D01*
X177300000Y-62829287D01*
X177297337Y-62818103D01*
X177285863Y-62818855D01*
X177160435Y-62857544D01*
X177151679Y-62860981D01*
X176922783Y-62971212D01*
X176914638Y-62975914D01*
X176704729Y-63119028D01*
X176697375Y-63124891D01*
X176511130Y-63297702D01*
X176504746Y-63304583D01*
X176346334Y-63503225D01*
X176341043Y-63510986D01*
X176214014Y-63731005D01*
X176209931Y-63739485D01*
X176117116Y-63975973D01*
X176114342Y-63984966D01*
X176057810Y-64232647D01*
X176056407Y-64241954D01*
X176042175Y-64431869D01*
X176042000Y-64436565D01*
X176042000Y-64983410D01*
X163928500Y-64983410D01*
X163928500Y-63201362D01*
X163921989Y-63140799D01*
X163870889Y-63003796D01*
X163783261Y-62886739D01*
X163776049Y-62881340D01*
X163673417Y-62804510D01*
X163673414Y-62804508D01*
X163666204Y-62799111D01*
X163657766Y-62795964D01*
X163657763Y-62795962D01*
X163536580Y-62750763D01*
X163536578Y-62750762D01*
X163529201Y-62748011D01*
X163521373Y-62747169D01*
X163521367Y-62747168D01*
X163471988Y-62741860D01*
X163471985Y-62741859D01*
X163468638Y-62741500D01*
X161043690Y-62741500D01*
X160995472Y-62731909D01*
X160954595Y-62704595D01*
X160008775Y-61758775D01*
X160008775Y-61758774D01*
X160000000Y-61750000D01*
X159987590Y-61750000D01*
X154262410Y-61750000D01*
X154250000Y-61750000D01*
X154241227Y-61758772D01*
X154241224Y-61758775D01*
X153008775Y-62991224D01*
X153008772Y-62991227D01*
X153000000Y-63000000D01*
X153000000Y-63012410D01*
X153000000Y-63510209D01*
X152983119Y-63573209D01*
X152937000Y-63619328D01*
X152874000Y-63636209D01*
X152811000Y-63619328D01*
X152764881Y-63573209D01*
X152728956Y-63510985D01*
X152723665Y-63503225D01*
X152565253Y-63304583D01*
X152558869Y-63297702D01*
X152372624Y-63124891D01*
X152365270Y-63119028D01*
X152155361Y-62975914D01*
X152147216Y-62971212D01*
X151918320Y-62860981D01*
X151909564Y-62857544D01*
X151784136Y-62818855D01*
X151772662Y-62818103D01*
X151770000Y-62829287D01*
X151770000Y-65874000D01*
X151753119Y-65937000D01*
X151707000Y-65983119D01*
X151644000Y-66000000D01*
X149528590Y-66000000D01*
X149515506Y-66003506D01*
X149512000Y-66016590D01*
X149512000Y-66563435D01*
X149512175Y-66568130D01*
X149526407Y-66758045D01*
X149527810Y-66767352D01*
X149584342Y-67015033D01*
X149587116Y-67024026D01*
X149679931Y-67260514D01*
X149684014Y-67268994D01*
X149811043Y-67489013D01*
X149816334Y-67496774D01*
X149974746Y-67695416D01*
X149981130Y-67702297D01*
X150167375Y-67875108D01*
X150174729Y-67880971D01*
X150378491Y-68019894D01*
X150420205Y-68067638D01*
X150433386Y-68129653D01*
X150414699Y-68190236D01*
X150368874Y-68234049D01*
X150307513Y-68250000D01*
X137153899Y-68250000D01*
X137096696Y-68236267D01*
X137051963Y-68198061D01*
X137029450Y-68143711D01*
X137034066Y-68085064D01*
X137062312Y-68038971D01*
X137063261Y-68038261D01*
X137150889Y-67921204D01*
X137201989Y-67784201D01*
X137208500Y-67723638D01*
X137208500Y-64983410D01*
X149512000Y-64983410D01*
X149515506Y-64996493D01*
X149528590Y-65000000D01*
X150753410Y-65000000D01*
X150766493Y-64996493D01*
X150770000Y-64983410D01*
X150770000Y-62829287D01*
X150767337Y-62818103D01*
X150755863Y-62818855D01*
X150630435Y-62857544D01*
X150621679Y-62860981D01*
X150392783Y-62971212D01*
X150384638Y-62975914D01*
X150174729Y-63119028D01*
X150167375Y-63124891D01*
X149981130Y-63297702D01*
X149974746Y-63304583D01*
X149816334Y-63503225D01*
X149811043Y-63510986D01*
X149684014Y-63731005D01*
X149679931Y-63739485D01*
X149587116Y-63975973D01*
X149584342Y-63984966D01*
X149527810Y-64232647D01*
X149526407Y-64241954D01*
X149512175Y-64431869D01*
X149512000Y-64436565D01*
X149512000Y-64983410D01*
X137208500Y-64983410D01*
X137208500Y-63126362D01*
X137201989Y-63065799D01*
X137150889Y-62928796D01*
X137119405Y-62886739D01*
X137068659Y-62818950D01*
X137063261Y-62811739D01*
X137046392Y-62799111D01*
X136953417Y-62729510D01*
X136953414Y-62729508D01*
X136946204Y-62724111D01*
X136937766Y-62720964D01*
X136937763Y-62720962D01*
X136816580Y-62675763D01*
X136816578Y-62675762D01*
X136809201Y-62673011D01*
X136801373Y-62672169D01*
X136801367Y-62672168D01*
X136751988Y-62666860D01*
X136751985Y-62666859D01*
X136748638Y-62666500D01*
X134151362Y-62666500D01*
X134148015Y-62666859D01*
X134148011Y-62666860D01*
X134098632Y-62672168D01*
X134098625Y-62672169D01*
X134090799Y-62673011D01*
X134083423Y-62675761D01*
X134083419Y-62675763D01*
X133962236Y-62720962D01*
X133962230Y-62720965D01*
X133953796Y-62724111D01*
X133946588Y-62729506D01*
X133946582Y-62729510D01*
X133843950Y-62806340D01*
X133843946Y-62806343D01*
X133836739Y-62811739D01*
X133831343Y-62818946D01*
X133831340Y-62818950D01*
X133754510Y-62921582D01*
X133754506Y-62921588D01*
X133749111Y-62928796D01*
X133745965Y-62937230D01*
X133745962Y-62937236D01*
X133700763Y-63058419D01*
X133700761Y-63058423D01*
X133698011Y-63065799D01*
X133697169Y-63073625D01*
X133697168Y-63073632D01*
X133693257Y-63110018D01*
X133691500Y-63126362D01*
X133691500Y-63129731D01*
X133691500Y-63478530D01*
X133674205Y-63542243D01*
X133627067Y-63588464D01*
X133563027Y-63604506D01*
X133499666Y-63585963D01*
X133454379Y-63537927D01*
X133418829Y-63471420D01*
X133418825Y-63471413D01*
X133417364Y-63468680D01*
X133390050Y-63427803D01*
X133370347Y-63403795D01*
X133328152Y-63352381D01*
X133328145Y-63352373D01*
X133326194Y-63349996D01*
X132400004Y-62423806D01*
X132397627Y-62421855D01*
X132397618Y-62421847D01*
X132324600Y-62361922D01*
X132324598Y-62361920D01*
X132322197Y-62359950D01*
X132281320Y-62332636D01*
X132278587Y-62331175D01*
X132197997Y-62288097D01*
X132197993Y-62288095D01*
X132192539Y-62285180D01*
X132186619Y-62283384D01*
X132186614Y-62283382D01*
X132099170Y-62256856D01*
X132099161Y-62256853D01*
X132096205Y-62255957D01*
X132093171Y-62255353D01*
X132093169Y-62255353D01*
X132051026Y-62246970D01*
X132051016Y-62246968D01*
X132047987Y-62246366D01*
X132044916Y-62246063D01*
X132044899Y-62246061D01*
X131950892Y-62236803D01*
X131950881Y-62236802D01*
X131947810Y-62236500D01*
X131072492Y-62236500D01*
X131068522Y-62237007D01*
X131068515Y-62237008D01*
X130947264Y-62252511D01*
X130947261Y-62252511D01*
X130943300Y-62253018D01*
X130939436Y-62254022D01*
X130939428Y-62254024D01*
X130885808Y-62267963D01*
X130885804Y-62267964D01*
X130881939Y-62268969D01*
X130878240Y-62270452D01*
X130878230Y-62270456D01*
X130768508Y-62314469D01*
X130768506Y-62314469D01*
X130761062Y-62317456D01*
X130754608Y-62322219D01*
X130754603Y-62322222D01*
X130659502Y-62392409D01*
X130659488Y-62392420D01*
X130656271Y-62394795D01*
X130653375Y-62397563D01*
X130653370Y-62397568D01*
X130623641Y-62425992D01*
X130610446Y-62438608D01*
X130607929Y-62441715D01*
X130607919Y-62441727D01*
X130533528Y-62533593D01*
X130528481Y-62539826D01*
X130525165Y-62547124D01*
X130525165Y-62547126D01*
X130488579Y-62627673D01*
X130456285Y-62670863D01*
X130408891Y-62696596D01*
X130355080Y-62700156D01*
X130324751Y-62695585D01*
X130136442Y-62667202D01*
X130136434Y-62667201D01*
X130131781Y-62666500D01*
X129868219Y-62666500D01*
X129863566Y-62667201D01*
X129863557Y-62667202D01*
X129644919Y-62700157D01*
X129591108Y-62696596D01*
X129543714Y-62670863D01*
X129511420Y-62627672D01*
X129474836Y-62547128D01*
X129474834Y-62547126D01*
X129471519Y-62539826D01*
X129389554Y-62438608D01*
X129343729Y-62394795D01*
X129340503Y-62392414D01*
X129340497Y-62392409D01*
X129245396Y-62322222D01*
X129245394Y-62322221D01*
X129238938Y-62317456D01*
X129158475Y-62285180D01*
X129121769Y-62270456D01*
X129121763Y-62270454D01*
X129118061Y-62268969D01*
X129110674Y-62267048D01*
X129060571Y-62254024D01*
X129060566Y-62254023D01*
X129056700Y-62253018D01*
X129052735Y-62252511D01*
X128931484Y-62237008D01*
X128931478Y-62237007D01*
X128927508Y-62236500D01*
X128802190Y-62236500D01*
X128799119Y-62236802D01*
X128799107Y-62236803D01*
X128705100Y-62246061D01*
X128705080Y-62246063D01*
X128702013Y-62246366D01*
X128698986Y-62246967D01*
X128698973Y-62246970D01*
X128656830Y-62255353D01*
X128656823Y-62255354D01*
X128653795Y-62255957D01*
X128650842Y-62256852D01*
X128650829Y-62256856D01*
X128563385Y-62283382D01*
X128563376Y-62283385D01*
X128557461Y-62285180D01*
X128552010Y-62288093D01*
X128552002Y-62288097D01*
X128471412Y-62331175D01*
X128471401Y-62331181D01*
X128468680Y-62332636D01*
X128466113Y-62334350D01*
X128466100Y-62334359D01*
X128430390Y-62358221D01*
X128430384Y-62358224D01*
X128427803Y-62359950D01*
X128425411Y-62361913D01*
X128425399Y-62361922D01*
X128352381Y-62421847D01*
X128352361Y-62421864D01*
X128349996Y-62423806D01*
X128347819Y-62425982D01*
X128347809Y-62425992D01*
X126925992Y-63847809D01*
X126925982Y-63847819D01*
X126923806Y-63849996D01*
X126921864Y-63852361D01*
X126921847Y-63852381D01*
X126861922Y-63925399D01*
X126861913Y-63925411D01*
X126859950Y-63927803D01*
X126858224Y-63930384D01*
X126858221Y-63930390D01*
X126834359Y-63966100D01*
X126834350Y-63966113D01*
X126832636Y-63968680D01*
X126831181Y-63971401D01*
X126831175Y-63971412D01*
X126788097Y-64052002D01*
X126788093Y-64052010D01*
X126785180Y-64057461D01*
X126783385Y-64063376D01*
X126783382Y-64063385D01*
X126756856Y-64150829D01*
X126756852Y-64150842D01*
X126755957Y-64153795D01*
X126755354Y-64156823D01*
X126755353Y-64156830D01*
X126746970Y-64198973D01*
X126746967Y-64198986D01*
X126746366Y-64202013D01*
X126746063Y-64205080D01*
X126746061Y-64205100D01*
X126736803Y-64299107D01*
X126736802Y-64299119D01*
X126736500Y-64302190D01*
X126736500Y-64305284D01*
X126736500Y-67985112D01*
X126726909Y-68033330D01*
X126699595Y-68074207D01*
X126560707Y-68213095D01*
X126519830Y-68240409D01*
X126471612Y-68250000D01*
X125364168Y-68250000D01*
X125299543Y-68232165D01*
X125253213Y-68183708D01*
X125238295Y-68118347D01*
X125259012Y-68054587D01*
X125309498Y-68010478D01*
X125427221Y-67953785D01*
X125435361Y-67949085D01*
X125645270Y-67805971D01*
X125652624Y-67800108D01*
X125838869Y-67627297D01*
X125845253Y-67620416D01*
X126003665Y-67421774D01*
X126008956Y-67414013D01*
X126135985Y-67193994D01*
X126140068Y-67185514D01*
X126232883Y-66949026D01*
X126235657Y-66940033D01*
X126292189Y-66692352D01*
X126293592Y-66683045D01*
X126307824Y-66493130D01*
X126308000Y-66488435D01*
X126308000Y-65941590D01*
X126304493Y-65928506D01*
X126291410Y-65925000D01*
X124176000Y-65925000D01*
X124113000Y-65908119D01*
X124066881Y-65862000D01*
X124050000Y-65799000D01*
X124050000Y-64908410D01*
X125050000Y-64908410D01*
X125053506Y-64921493D01*
X125066590Y-64925000D01*
X126291410Y-64925000D01*
X126304493Y-64921493D01*
X126308000Y-64908410D01*
X126308000Y-64361565D01*
X126307824Y-64356869D01*
X126293592Y-64166954D01*
X126292189Y-64157647D01*
X126235657Y-63909966D01*
X126232883Y-63900973D01*
X126140068Y-63664485D01*
X126135985Y-63656005D01*
X126008956Y-63435986D01*
X126003665Y-63428225D01*
X125845253Y-63229583D01*
X125838869Y-63222702D01*
X125652624Y-63049891D01*
X125645270Y-63044028D01*
X125435361Y-62900914D01*
X125427216Y-62896212D01*
X125198320Y-62785981D01*
X125189564Y-62782544D01*
X125064136Y-62743855D01*
X125052662Y-62743103D01*
X125050000Y-62754287D01*
X125050000Y-64908410D01*
X124050000Y-64908410D01*
X124050000Y-62754287D01*
X124047337Y-62743103D01*
X124035863Y-62743855D01*
X123910435Y-62782544D01*
X123901679Y-62785981D01*
X123672783Y-62896212D01*
X123664638Y-62900914D01*
X123454729Y-63044028D01*
X123447375Y-63049891D01*
X123261130Y-63222702D01*
X123254746Y-63229582D01*
X123224511Y-63267497D01*
X123175521Y-63304797D01*
X123114706Y-63314430D01*
X123056587Y-63294093D01*
X123015045Y-63248644D01*
X123000000Y-63188937D01*
X123000000Y-63052190D01*
X123009591Y-63003972D01*
X123036905Y-62963095D01*
X128963095Y-57036905D01*
X129003972Y-57009591D01*
X129052190Y-57000000D01*
X143233410Y-57000000D01*
X143250000Y-57000000D01*
X143250000Y-56750000D01*
X143233410Y-56750000D01*
X128762410Y-56750000D01*
X128750000Y-56750000D01*
X128741227Y-56758772D01*
X128741224Y-56758775D01*
X121536905Y-63963095D01*
X121496028Y-63990409D01*
X121447810Y-64000000D01*
X115500000Y-64000000D01*
X115491227Y-64008772D01*
X115491224Y-64008775D01*
X114786905Y-64713095D01*
X114746028Y-64740409D01*
X114697810Y-64750000D01*
X107802190Y-64750000D01*
X107753972Y-64740409D01*
X107713095Y-64713095D01*
X106036905Y-63036905D01*
X106009591Y-62996028D01*
X106000000Y-62947810D01*
X106000000Y-54802190D01*
X106009591Y-54753972D01*
X106036905Y-54713095D01*
X109963095Y-50786905D01*
X110003972Y-50759591D01*
X110052190Y-50750000D01*
X172197810Y-50750000D01*
X172246028Y-50759591D01*
G37*
%TD.AperFunction*%
%TD*%
%TA.AperFunction,Conductor*%
%TO.N,GND*%
G36*
X199436500Y-87516881D02*
G01*
X199482619Y-87563000D01*
X199499500Y-87626000D01*
X199499500Y-140448310D01*
X199489909Y-140496528D01*
X199462595Y-140537405D01*
X190537405Y-149462595D01*
X190496528Y-149489909D01*
X190448310Y-149499500D01*
X109551690Y-149499500D01*
X109503472Y-149489909D01*
X109462595Y-149462595D01*
X100860000Y-140860000D01*
X156404417Y-140860000D01*
X156405024Y-140866163D01*
X156424092Y-141059768D01*
X156424093Y-141059774D01*
X156424700Y-141065934D01*
X156426496Y-141071856D01*
X156426497Y-141071859D01*
X156482972Y-141258035D01*
X156482973Y-141258039D01*
X156484768Y-141263954D01*
X156487680Y-141269402D01*
X156487683Y-141269409D01*
X156579398Y-141440993D01*
X156582315Y-141446450D01*
X156647952Y-141526430D01*
X156708072Y-141599687D01*
X156713590Y-141606410D01*
X156873550Y-141737685D01*
X156964798Y-141786458D01*
X157050590Y-141832316D01*
X157050592Y-141832317D01*
X157056046Y-141835232D01*
X157254066Y-141895300D01*
X157460000Y-141915583D01*
X157665934Y-141895300D01*
X157863954Y-141835232D01*
X158046450Y-141737685D01*
X158206410Y-141606410D01*
X158337685Y-141446450D01*
X158435232Y-141263954D01*
X158495300Y-141065934D01*
X158515583Y-140860000D01*
X158944417Y-140860000D01*
X158945024Y-140866163D01*
X158964092Y-141059768D01*
X158964093Y-141059774D01*
X158964700Y-141065934D01*
X158966496Y-141071856D01*
X158966497Y-141071859D01*
X159022972Y-141258035D01*
X159022973Y-141258039D01*
X159024768Y-141263954D01*
X159027680Y-141269402D01*
X159027683Y-141269409D01*
X159119398Y-141440993D01*
X159122315Y-141446450D01*
X159187952Y-141526430D01*
X159248072Y-141599687D01*
X159253590Y-141606410D01*
X159413550Y-141737685D01*
X159504798Y-141786458D01*
X159590590Y-141832316D01*
X159590592Y-141832317D01*
X159596046Y-141835232D01*
X159794066Y-141895300D01*
X160000000Y-141915583D01*
X160205934Y-141895300D01*
X160403954Y-141835232D01*
X160586450Y-141737685D01*
X160746410Y-141606410D01*
X160848002Y-141482619D01*
X178380183Y-141482619D01*
X178388286Y-141490565D01*
X178559044Y-141595206D01*
X178567839Y-141599687D01*
X178777987Y-141686733D01*
X178787373Y-141689783D01*
X179008554Y-141742884D01*
X179018300Y-141744428D01*
X179245070Y-141762275D01*
X179254930Y-141762275D01*
X179481699Y-141744428D01*
X179491445Y-141742884D01*
X179712626Y-141689783D01*
X179722012Y-141686733D01*
X179932162Y-141599686D01*
X179940957Y-141595205D01*
X180111708Y-141490568D01*
X180119814Y-141482619D01*
X180113787Y-141472997D01*
X179261729Y-140620939D01*
X179249999Y-140614167D01*
X179238271Y-140620938D01*
X178386208Y-141473000D01*
X178380183Y-141482619D01*
X160848002Y-141482619D01*
X160877685Y-141446450D01*
X160975232Y-141263954D01*
X161035300Y-141065934D01*
X161055583Y-140860000D01*
X161035300Y-140654066D01*
X160975232Y-140456046D01*
X160877685Y-140273550D01*
X160858358Y-140250000D01*
X175544357Y-140250000D01*
X175564885Y-140471536D01*
X175625771Y-140685528D01*
X175628367Y-140690741D01*
X175628368Y-140690744D01*
X175709579Y-140853837D01*
X175724942Y-140884689D01*
X175728452Y-140889337D01*
X175855506Y-141057585D01*
X175855510Y-141057589D01*
X175859019Y-141062236D01*
X175863321Y-141066158D01*
X175863324Y-141066161D01*
X175915572Y-141113791D01*
X176023438Y-141212124D01*
X176212599Y-141329247D01*
X176420060Y-141409618D01*
X176638757Y-141450500D01*
X176855416Y-141450500D01*
X176861243Y-141450500D01*
X177079940Y-141409618D01*
X177287401Y-141329247D01*
X177476562Y-141212124D01*
X177640981Y-141062236D01*
X177716244Y-140962570D01*
X177763383Y-140924384D01*
X177822904Y-140912651D01*
X177881008Y-140930094D01*
X177924227Y-140972668D01*
X178009433Y-141111712D01*
X178017379Y-141119816D01*
X178026997Y-141113791D01*
X178879059Y-140261730D01*
X178885832Y-140249999D01*
X178879060Y-140238270D01*
X178026999Y-139386209D01*
X178017378Y-139380183D01*
X178009430Y-139388288D01*
X177924225Y-139527331D01*
X177881007Y-139569905D01*
X177822902Y-139587348D01*
X177763381Y-139575615D01*
X177716244Y-139537428D01*
X177640981Y-139437764D01*
X177636677Y-139433841D01*
X177636675Y-139433838D01*
X177480864Y-139291798D01*
X177480865Y-139291798D01*
X177476562Y-139287876D01*
X177287401Y-139170753D01*
X177255129Y-139158251D01*
X177085375Y-139092487D01*
X177085369Y-139092485D01*
X177079940Y-139090382D01*
X177074220Y-139089312D01*
X177074214Y-139089311D01*
X176866967Y-139050570D01*
X176866966Y-139050569D01*
X176861243Y-139049500D01*
X176638757Y-139049500D01*
X176633034Y-139050569D01*
X176633032Y-139050570D01*
X176425785Y-139089311D01*
X176425776Y-139089313D01*
X176420060Y-139090382D01*
X176414632Y-139092484D01*
X176414624Y-139092487D01*
X176218037Y-139168646D01*
X176218034Y-139168647D01*
X176212599Y-139170753D01*
X176207643Y-139173821D01*
X176207638Y-139173824D01*
X176028391Y-139284809D01*
X176023438Y-139287876D01*
X176019139Y-139291794D01*
X176019135Y-139291798D01*
X175863324Y-139433838D01*
X175863316Y-139433846D01*
X175859019Y-139437764D01*
X175855514Y-139442404D01*
X175855506Y-139442414D01*
X175728452Y-139610662D01*
X175728448Y-139610667D01*
X175724942Y-139615311D01*
X175722347Y-139620521D01*
X175722344Y-139620527D01*
X175628368Y-139809255D01*
X175628365Y-139809261D01*
X175625771Y-139814472D01*
X175624177Y-139820073D01*
X175624177Y-139820074D01*
X175578016Y-139982315D01*
X175564885Y-140028464D01*
X175564348Y-140034256D01*
X175564348Y-140034258D01*
X175556997Y-140113590D01*
X175544357Y-140250000D01*
X160858358Y-140250000D01*
X160746410Y-140113590D01*
X160586450Y-139982315D01*
X160580993Y-139979398D01*
X160409409Y-139887683D01*
X160409402Y-139887680D01*
X160403954Y-139884768D01*
X160398039Y-139882973D01*
X160398035Y-139882972D01*
X160211859Y-139826497D01*
X160211856Y-139826496D01*
X160205934Y-139824700D01*
X160199774Y-139824093D01*
X160199768Y-139824092D01*
X160006163Y-139805024D01*
X160000000Y-139804417D01*
X159993837Y-139805024D01*
X159800231Y-139824092D01*
X159800223Y-139824093D01*
X159794066Y-139824700D01*
X159788145Y-139826495D01*
X159788140Y-139826497D01*
X159601964Y-139882972D01*
X159601956Y-139882975D01*
X159596046Y-139884768D01*
X159590600Y-139887678D01*
X159590590Y-139887683D01*
X159419006Y-139979398D01*
X159419000Y-139979401D01*
X159413550Y-139982315D01*
X159408773Y-139986235D01*
X159408769Y-139986238D01*
X159258369Y-140109667D01*
X159258363Y-140109672D01*
X159253590Y-140113590D01*
X159249672Y-140118363D01*
X159249667Y-140118369D01*
X159126238Y-140268769D01*
X159126235Y-140268773D01*
X159122315Y-140273550D01*
X159119401Y-140279000D01*
X159119398Y-140279006D01*
X159027683Y-140450590D01*
X159027678Y-140450600D01*
X159024768Y-140456046D01*
X159022975Y-140461956D01*
X159022972Y-140461964D01*
X158966497Y-140648140D01*
X158966495Y-140648145D01*
X158964700Y-140654066D01*
X158964093Y-140660223D01*
X158964092Y-140660231D01*
X158953934Y-140763370D01*
X158944417Y-140860000D01*
X158515583Y-140860000D01*
X158495300Y-140654066D01*
X158435232Y-140456046D01*
X158337685Y-140273550D01*
X158206410Y-140113590D01*
X158046450Y-139982315D01*
X158040993Y-139979398D01*
X157869409Y-139887683D01*
X157869402Y-139887680D01*
X157863954Y-139884768D01*
X157858039Y-139882973D01*
X157858035Y-139882972D01*
X157671859Y-139826497D01*
X157671856Y-139826496D01*
X157665934Y-139824700D01*
X157659774Y-139824093D01*
X157659768Y-139824092D01*
X157466163Y-139805024D01*
X157460000Y-139804417D01*
X157453837Y-139805024D01*
X157260231Y-139824092D01*
X157260223Y-139824093D01*
X157254066Y-139824700D01*
X157248145Y-139826495D01*
X157248140Y-139826497D01*
X157061964Y-139882972D01*
X157061956Y-139882975D01*
X157056046Y-139884768D01*
X157050600Y-139887678D01*
X157050590Y-139887683D01*
X156879006Y-139979398D01*
X156879000Y-139979401D01*
X156873550Y-139982315D01*
X156868773Y-139986235D01*
X156868769Y-139986238D01*
X156718369Y-140109667D01*
X156718363Y-140109672D01*
X156713590Y-140113590D01*
X156709672Y-140118363D01*
X156709667Y-140118369D01*
X156586238Y-140268769D01*
X156586235Y-140268773D01*
X156582315Y-140273550D01*
X156579401Y-140279000D01*
X156579398Y-140279006D01*
X156487683Y-140450590D01*
X156487678Y-140450600D01*
X156484768Y-140456046D01*
X156482975Y-140461956D01*
X156482972Y-140461964D01*
X156426497Y-140648140D01*
X156426495Y-140648145D01*
X156424700Y-140654066D01*
X156424093Y-140660223D01*
X156424092Y-140660231D01*
X156413934Y-140763370D01*
X156404417Y-140860000D01*
X100860000Y-140860000D01*
X100537405Y-140537405D01*
X100510091Y-140496528D01*
X100500500Y-140448310D01*
X100500500Y-138320000D01*
X156404417Y-138320000D01*
X156405024Y-138326163D01*
X156424092Y-138519768D01*
X156424093Y-138519774D01*
X156424700Y-138525934D01*
X156426496Y-138531856D01*
X156426497Y-138531859D01*
X156482972Y-138718035D01*
X156482973Y-138718039D01*
X156484768Y-138723954D01*
X156487680Y-138729402D01*
X156487683Y-138729409D01*
X156579034Y-138900312D01*
X156582315Y-138906450D01*
X156586238Y-138911230D01*
X156700590Y-139050570D01*
X156713590Y-139066410D01*
X156873550Y-139197685D01*
X156964798Y-139246458D01*
X157050590Y-139292316D01*
X157050592Y-139292317D01*
X157056046Y-139295232D01*
X157254066Y-139355300D01*
X157460000Y-139375583D01*
X157665934Y-139355300D01*
X157863954Y-139295232D01*
X158046450Y-139197685D01*
X158206410Y-139066410D01*
X158337685Y-138906450D01*
X158435232Y-138723954D01*
X158495300Y-138525934D01*
X158515583Y-138320000D01*
X158944417Y-138320000D01*
X158945024Y-138326163D01*
X158964092Y-138519768D01*
X158964093Y-138519774D01*
X158964700Y-138525934D01*
X158966496Y-138531856D01*
X158966497Y-138531859D01*
X159022972Y-138718035D01*
X159022973Y-138718039D01*
X159024768Y-138723954D01*
X159027680Y-138729402D01*
X159027683Y-138729409D01*
X159119034Y-138900312D01*
X159122315Y-138906450D01*
X159126238Y-138911230D01*
X159240590Y-139050570D01*
X159253590Y-139066410D01*
X159413550Y-139197685D01*
X159504798Y-139246458D01*
X159590590Y-139292316D01*
X159590592Y-139292317D01*
X159596046Y-139295232D01*
X159794066Y-139355300D01*
X160000000Y-139375583D01*
X160205934Y-139355300D01*
X160403954Y-139295232D01*
X160586450Y-139197685D01*
X160746410Y-139066410D01*
X160786649Y-139017378D01*
X178380183Y-139017378D01*
X178386209Y-139026999D01*
X179238270Y-139879060D01*
X179249999Y-139885832D01*
X179261730Y-139879059D01*
X180113791Y-139026997D01*
X180119816Y-139017379D01*
X180111712Y-139009433D01*
X179940955Y-138904793D01*
X179932160Y-138900312D01*
X179722012Y-138813266D01*
X179712626Y-138810216D01*
X179491445Y-138757115D01*
X179481699Y-138755571D01*
X179254930Y-138737725D01*
X179245070Y-138737725D01*
X179018300Y-138755571D01*
X179008554Y-138757115D01*
X178787373Y-138810216D01*
X178777987Y-138813266D01*
X178567839Y-138900312D01*
X178559044Y-138904793D01*
X178388285Y-139009433D01*
X178380183Y-139017378D01*
X160786649Y-139017378D01*
X160877685Y-138906450D01*
X160975232Y-138723954D01*
X161035300Y-138525934D01*
X161055583Y-138320000D01*
X161035300Y-138114066D01*
X160975232Y-137916046D01*
X160877685Y-137733550D01*
X160746410Y-137573590D01*
X160586450Y-137442315D01*
X160580993Y-137439398D01*
X160409409Y-137347683D01*
X160409402Y-137347680D01*
X160403954Y-137344768D01*
X160398039Y-137342973D01*
X160398035Y-137342972D01*
X160211859Y-137286497D01*
X160211856Y-137286496D01*
X160205934Y-137284700D01*
X160199774Y-137284093D01*
X160199768Y-137284092D01*
X160006163Y-137265024D01*
X160000000Y-137264417D01*
X159993837Y-137265024D01*
X159800231Y-137284092D01*
X159800223Y-137284093D01*
X159794066Y-137284700D01*
X159788145Y-137286495D01*
X159788140Y-137286497D01*
X159601964Y-137342972D01*
X159601956Y-137342975D01*
X159596046Y-137344768D01*
X159590600Y-137347678D01*
X159590590Y-137347683D01*
X159419006Y-137439398D01*
X159419000Y-137439401D01*
X159413550Y-137442315D01*
X159408773Y-137446235D01*
X159408769Y-137446238D01*
X159258369Y-137569667D01*
X159258363Y-137569672D01*
X159253590Y-137573590D01*
X159249672Y-137578363D01*
X159249667Y-137578369D01*
X159126238Y-137728769D01*
X159126235Y-137728773D01*
X159122315Y-137733550D01*
X159119401Y-137739000D01*
X159119398Y-137739006D01*
X159027683Y-137910590D01*
X159027678Y-137910600D01*
X159024768Y-137916046D01*
X159022975Y-137921956D01*
X159022972Y-137921964D01*
X158966497Y-138108140D01*
X158966495Y-138108145D01*
X158964700Y-138114066D01*
X158964093Y-138120223D01*
X158964092Y-138120231D01*
X158945024Y-138313837D01*
X158944417Y-138320000D01*
X158515583Y-138320000D01*
X158495300Y-138114066D01*
X158435232Y-137916046D01*
X158337685Y-137733550D01*
X158206410Y-137573590D01*
X158046450Y-137442315D01*
X158040993Y-137439398D01*
X157869409Y-137347683D01*
X157869402Y-137347680D01*
X157863954Y-137344768D01*
X157858039Y-137342973D01*
X157858035Y-137342972D01*
X157671859Y-137286497D01*
X157671856Y-137286496D01*
X157665934Y-137284700D01*
X157659774Y-137284093D01*
X157659768Y-137284092D01*
X157466163Y-137265024D01*
X157460000Y-137264417D01*
X157453837Y-137265024D01*
X157260231Y-137284092D01*
X157260223Y-137284093D01*
X157254066Y-137284700D01*
X157248145Y-137286495D01*
X157248140Y-137286497D01*
X157061964Y-137342972D01*
X157061956Y-137342975D01*
X157056046Y-137344768D01*
X157050600Y-137347678D01*
X157050590Y-137347683D01*
X156879006Y-137439398D01*
X156879000Y-137439401D01*
X156873550Y-137442315D01*
X156868773Y-137446235D01*
X156868769Y-137446238D01*
X156718369Y-137569667D01*
X156718363Y-137569672D01*
X156713590Y-137573590D01*
X156709672Y-137578363D01*
X156709667Y-137578369D01*
X156586238Y-137728769D01*
X156586235Y-137728773D01*
X156582315Y-137733550D01*
X156579401Y-137739000D01*
X156579398Y-137739006D01*
X156487683Y-137910590D01*
X156487678Y-137910600D01*
X156484768Y-137916046D01*
X156482975Y-137921956D01*
X156482972Y-137921964D01*
X156426497Y-138108140D01*
X156426495Y-138108145D01*
X156424700Y-138114066D01*
X156424093Y-138120223D01*
X156424092Y-138120231D01*
X156405024Y-138313837D01*
X156404417Y-138320000D01*
X100500500Y-138320000D01*
X100500500Y-135780000D01*
X156404417Y-135780000D01*
X156405024Y-135786163D01*
X156424092Y-135979768D01*
X156424093Y-135979774D01*
X156424700Y-135985934D01*
X156426496Y-135991856D01*
X156426497Y-135991859D01*
X156482972Y-136178035D01*
X156482973Y-136178039D01*
X156484768Y-136183954D01*
X156487680Y-136189402D01*
X156487683Y-136189409D01*
X156579398Y-136360993D01*
X156582315Y-136366450D01*
X156713590Y-136526410D01*
X156873550Y-136657685D01*
X156964798Y-136706458D01*
X157050590Y-136752316D01*
X157050592Y-136752317D01*
X157056046Y-136755232D01*
X157254066Y-136815300D01*
X157460000Y-136835583D01*
X157665934Y-136815300D01*
X157863954Y-136755232D01*
X158046450Y-136657685D01*
X158206410Y-136526410D01*
X158337685Y-136366450D01*
X158435232Y-136183954D01*
X158495300Y-135985934D01*
X158515583Y-135780000D01*
X158944417Y-135780000D01*
X158945024Y-135786163D01*
X158964092Y-135979768D01*
X158964093Y-135979774D01*
X158964700Y-135985934D01*
X158966496Y-135991856D01*
X158966497Y-135991859D01*
X159022972Y-136178035D01*
X159022973Y-136178039D01*
X159024768Y-136183954D01*
X159027680Y-136189402D01*
X159027683Y-136189409D01*
X159119398Y-136360993D01*
X159122315Y-136366450D01*
X159253590Y-136526410D01*
X159413550Y-136657685D01*
X159504798Y-136706458D01*
X159590590Y-136752316D01*
X159590592Y-136752317D01*
X159596046Y-136755232D01*
X159794066Y-136815300D01*
X160000000Y-136835583D01*
X160205934Y-136815300D01*
X160403954Y-136755232D01*
X160586450Y-136657685D01*
X160746410Y-136526410D01*
X160877685Y-136366450D01*
X160975232Y-136183954D01*
X161035300Y-135985934D01*
X161055583Y-135780000D01*
X161035300Y-135574066D01*
X160975232Y-135376046D01*
X160877685Y-135193550D01*
X160746410Y-135033590D01*
X160586450Y-134902315D01*
X160580993Y-134899398D01*
X160409409Y-134807683D01*
X160409402Y-134807680D01*
X160403954Y-134804768D01*
X160398039Y-134802973D01*
X160398035Y-134802972D01*
X160211859Y-134746497D01*
X160211856Y-134746496D01*
X160205934Y-134744700D01*
X160199774Y-134744093D01*
X160199768Y-134744092D01*
X160006163Y-134725024D01*
X160000000Y-134724417D01*
X159993837Y-134725024D01*
X159800231Y-134744092D01*
X159800223Y-134744093D01*
X159794066Y-134744700D01*
X159788145Y-134746495D01*
X159788140Y-134746497D01*
X159601964Y-134802972D01*
X159601956Y-134802975D01*
X159596046Y-134804768D01*
X159590600Y-134807678D01*
X159590590Y-134807683D01*
X159419006Y-134899398D01*
X159419000Y-134899401D01*
X159413550Y-134902315D01*
X159408773Y-134906235D01*
X159408769Y-134906238D01*
X159258369Y-135029667D01*
X159258363Y-135029672D01*
X159253590Y-135033590D01*
X159249672Y-135038363D01*
X159249667Y-135038369D01*
X159126238Y-135188769D01*
X159126235Y-135188773D01*
X159122315Y-135193550D01*
X159119401Y-135199000D01*
X159119398Y-135199006D01*
X159027683Y-135370590D01*
X159027678Y-135370600D01*
X159024768Y-135376046D01*
X159022975Y-135381956D01*
X159022972Y-135381964D01*
X158966497Y-135568140D01*
X158966495Y-135568145D01*
X158964700Y-135574066D01*
X158964093Y-135580223D01*
X158964092Y-135580231D01*
X158945024Y-135773837D01*
X158944417Y-135780000D01*
X158515583Y-135780000D01*
X158495300Y-135574066D01*
X158435232Y-135376046D01*
X158337685Y-135193550D01*
X158206410Y-135033590D01*
X158046450Y-134902315D01*
X158040993Y-134899398D01*
X157869409Y-134807683D01*
X157869402Y-134807680D01*
X157863954Y-134804768D01*
X157858039Y-134802973D01*
X157858035Y-134802972D01*
X157671859Y-134746497D01*
X157671856Y-134746496D01*
X157665934Y-134744700D01*
X157659774Y-134744093D01*
X157659768Y-134744092D01*
X157466163Y-134725024D01*
X157460000Y-134724417D01*
X157453837Y-134725024D01*
X157260231Y-134744092D01*
X157260223Y-134744093D01*
X157254066Y-134744700D01*
X157248145Y-134746495D01*
X157248140Y-134746497D01*
X157061964Y-134802972D01*
X157061956Y-134802975D01*
X157056046Y-134804768D01*
X157050600Y-134807678D01*
X157050590Y-134807683D01*
X156879006Y-134899398D01*
X156879000Y-134899401D01*
X156873550Y-134902315D01*
X156868773Y-134906235D01*
X156868769Y-134906238D01*
X156718369Y-135029667D01*
X156718363Y-135029672D01*
X156713590Y-135033590D01*
X156709672Y-135038363D01*
X156709667Y-135038369D01*
X156586238Y-135188769D01*
X156586235Y-135188773D01*
X156582315Y-135193550D01*
X156579401Y-135199000D01*
X156579398Y-135199006D01*
X156487683Y-135370590D01*
X156487678Y-135370600D01*
X156484768Y-135376046D01*
X156482975Y-135381956D01*
X156482972Y-135381964D01*
X156426497Y-135568140D01*
X156426495Y-135568145D01*
X156424700Y-135574066D01*
X156424093Y-135580223D01*
X156424092Y-135580231D01*
X156405024Y-135773837D01*
X156404417Y-135780000D01*
X100500500Y-135780000D01*
X100500500Y-133240000D01*
X156404417Y-133240000D01*
X156405024Y-133246163D01*
X156424092Y-133439768D01*
X156424093Y-133439774D01*
X156424700Y-133445934D01*
X156426496Y-133451856D01*
X156426497Y-133451859D01*
X156482972Y-133638035D01*
X156482973Y-133638039D01*
X156484768Y-133643954D01*
X156487680Y-133649402D01*
X156487683Y-133649409D01*
X156572435Y-133807966D01*
X156582315Y-133826450D01*
X156713590Y-133986410D01*
X156873550Y-134117685D01*
X156964797Y-134166458D01*
X157050590Y-134212316D01*
X157050592Y-134212317D01*
X157056046Y-134215232D01*
X157254066Y-134275300D01*
X157460000Y-134295583D01*
X157665934Y-134275300D01*
X157863954Y-134215232D01*
X158046450Y-134117685D01*
X158206410Y-133986410D01*
X158337685Y-133826450D01*
X158435232Y-133643954D01*
X158495300Y-133445934D01*
X158515583Y-133240000D01*
X158944417Y-133240000D01*
X158945024Y-133246163D01*
X158964092Y-133439768D01*
X158964093Y-133439774D01*
X158964700Y-133445934D01*
X158966496Y-133451856D01*
X158966497Y-133451859D01*
X159022972Y-133638035D01*
X159022973Y-133638039D01*
X159024768Y-133643954D01*
X159027680Y-133649402D01*
X159027683Y-133649409D01*
X159112435Y-133807966D01*
X159122315Y-133826450D01*
X159253590Y-133986410D01*
X159413550Y-134117685D01*
X159504797Y-134166458D01*
X159590590Y-134212316D01*
X159590592Y-134212317D01*
X159596046Y-134215232D01*
X159794066Y-134275300D01*
X160000000Y-134295583D01*
X160205934Y-134275300D01*
X160403954Y-134215232D01*
X160586450Y-134117685D01*
X160746410Y-133986410D01*
X160877685Y-133826450D01*
X160975232Y-133643954D01*
X161035300Y-133445934D01*
X161055583Y-133240000D01*
X161035300Y-133034066D01*
X160975232Y-132836046D01*
X160962850Y-132812882D01*
X160929239Y-132750000D01*
X170694518Y-132750000D01*
X170694839Y-132754488D01*
X170714100Y-133023802D01*
X170714101Y-133023812D01*
X170714422Y-133028294D01*
X170715379Y-133032697D01*
X170715380Y-133032698D01*
X170761816Y-133246163D01*
X170773729Y-133300923D01*
X170775303Y-133305143D01*
X170869657Y-133558119D01*
X170869661Y-133558128D01*
X170871231Y-133562337D01*
X170873386Y-133566284D01*
X170873389Y-133566290D01*
X170967726Y-133739053D01*
X171004944Y-133807213D01*
X171007640Y-133810815D01*
X171007643Y-133810819D01*
X171139089Y-133986410D01*
X171172145Y-134030568D01*
X171369432Y-134227855D01*
X171592787Y-134395056D01*
X171837663Y-134528769D01*
X172099077Y-134626271D01*
X172371706Y-134685578D01*
X172650000Y-134705482D01*
X172928294Y-134685578D01*
X173200923Y-134626271D01*
X173462337Y-134528769D01*
X173707213Y-134395056D01*
X173930568Y-134227855D01*
X174127855Y-134030568D01*
X174295056Y-133807213D01*
X174428769Y-133562337D01*
X174526271Y-133300923D01*
X174585578Y-133028294D01*
X174605482Y-132750000D01*
X174585578Y-132471706D01*
X174526271Y-132199077D01*
X174428769Y-131937663D01*
X174295056Y-131692787D01*
X174127855Y-131469432D01*
X173930568Y-131272145D01*
X173713178Y-131109409D01*
X173710819Y-131107643D01*
X173710815Y-131107640D01*
X173707213Y-131104944D01*
X173679531Y-131089828D01*
X173466290Y-130973389D01*
X173466284Y-130973386D01*
X173462337Y-130971231D01*
X173458128Y-130969661D01*
X173458119Y-130969657D01*
X173205143Y-130875303D01*
X173200923Y-130873729D01*
X173196520Y-130872771D01*
X173196516Y-130872770D01*
X172932698Y-130815380D01*
X172932697Y-130815379D01*
X172928294Y-130814422D01*
X172923812Y-130814101D01*
X172923802Y-130814100D01*
X172654488Y-130794839D01*
X172650000Y-130794518D01*
X172645512Y-130794839D01*
X172376197Y-130814100D01*
X172376185Y-130814101D01*
X172371706Y-130814422D01*
X172367304Y-130815379D01*
X172367301Y-130815380D01*
X172103483Y-130872770D01*
X172103476Y-130872772D01*
X172099077Y-130873729D01*
X172094860Y-130875301D01*
X172094856Y-130875303D01*
X171841880Y-130969657D01*
X171841866Y-130969663D01*
X171837663Y-130971231D01*
X171833720Y-130973383D01*
X171833709Y-130973389D01*
X171596740Y-131102785D01*
X171596734Y-131102788D01*
X171592787Y-131104944D01*
X171589190Y-131107635D01*
X171589180Y-131107643D01*
X171373035Y-131269447D01*
X171373027Y-131269453D01*
X171369432Y-131272145D01*
X171366253Y-131275323D01*
X171366246Y-131275330D01*
X171175330Y-131466246D01*
X171175323Y-131466253D01*
X171172145Y-131469432D01*
X171169453Y-131473027D01*
X171169447Y-131473035D01*
X171007643Y-131689180D01*
X171007635Y-131689190D01*
X171004944Y-131692787D01*
X171002788Y-131696734D01*
X171002785Y-131696740D01*
X170873389Y-131933709D01*
X170873383Y-131933720D01*
X170871231Y-131937663D01*
X170869663Y-131941866D01*
X170869657Y-131941880D01*
X170778970Y-132185024D01*
X170773729Y-132199077D01*
X170772772Y-132203476D01*
X170772770Y-132203483D01*
X170737365Y-132366238D01*
X170714422Y-132471706D01*
X170714101Y-132476185D01*
X170714100Y-132476197D01*
X170701758Y-132648769D01*
X170694518Y-132750000D01*
X160929239Y-132750000D01*
X160898204Y-132691938D01*
X160877685Y-132653550D01*
X160746410Y-132493590D01*
X160725216Y-132476197D01*
X160591230Y-132366238D01*
X160591231Y-132366238D01*
X160586450Y-132362315D01*
X160580993Y-132359398D01*
X160409409Y-132267683D01*
X160409402Y-132267680D01*
X160403954Y-132264768D01*
X160398039Y-132262973D01*
X160398035Y-132262972D01*
X160211859Y-132206497D01*
X160211856Y-132206496D01*
X160205934Y-132204700D01*
X160199774Y-132204093D01*
X160199768Y-132204092D01*
X160006163Y-132185024D01*
X160000000Y-132184417D01*
X159993837Y-132185024D01*
X159800231Y-132204092D01*
X159800223Y-132204093D01*
X159794066Y-132204700D01*
X159788145Y-132206495D01*
X159788140Y-132206497D01*
X159601964Y-132262972D01*
X159601956Y-132262975D01*
X159596046Y-132264768D01*
X159590600Y-132267678D01*
X159590590Y-132267683D01*
X159419006Y-132359398D01*
X159419000Y-132359401D01*
X159413550Y-132362315D01*
X159408773Y-132366235D01*
X159408769Y-132366238D01*
X159258369Y-132489667D01*
X159258363Y-132489672D01*
X159253590Y-132493590D01*
X159249672Y-132498363D01*
X159249667Y-132498369D01*
X159126238Y-132648769D01*
X159126235Y-132648773D01*
X159122315Y-132653550D01*
X159119401Y-132659000D01*
X159119398Y-132659006D01*
X159027683Y-132830590D01*
X159027678Y-132830600D01*
X159024768Y-132836046D01*
X159022975Y-132841956D01*
X159022972Y-132841964D01*
X158966497Y-133028140D01*
X158966495Y-133028145D01*
X158964700Y-133034066D01*
X158964093Y-133040223D01*
X158964092Y-133040231D01*
X158963081Y-133050500D01*
X158944417Y-133240000D01*
X158515583Y-133240000D01*
X158495300Y-133034066D01*
X158435232Y-132836046D01*
X158422850Y-132812882D01*
X158358204Y-132691938D01*
X158337685Y-132653550D01*
X158206410Y-132493590D01*
X158185216Y-132476197D01*
X158051230Y-132366238D01*
X158051231Y-132366238D01*
X158046450Y-132362315D01*
X158040993Y-132359398D01*
X157869409Y-132267683D01*
X157869402Y-132267680D01*
X157863954Y-132264768D01*
X157858039Y-132262973D01*
X157858035Y-132262972D01*
X157671859Y-132206497D01*
X157671856Y-132206496D01*
X157665934Y-132204700D01*
X157659774Y-132204093D01*
X157659768Y-132204092D01*
X157466163Y-132185024D01*
X157460000Y-132184417D01*
X157453837Y-132185024D01*
X157260231Y-132204092D01*
X157260223Y-132204093D01*
X157254066Y-132204700D01*
X157248145Y-132206495D01*
X157248140Y-132206497D01*
X157061964Y-132262972D01*
X157061956Y-132262975D01*
X157056046Y-132264768D01*
X157050600Y-132267678D01*
X157050590Y-132267683D01*
X156879006Y-132359398D01*
X156879000Y-132359401D01*
X156873550Y-132362315D01*
X156868773Y-132366235D01*
X156868769Y-132366238D01*
X156718369Y-132489667D01*
X156718363Y-132489672D01*
X156713590Y-132493590D01*
X156709672Y-132498363D01*
X156709667Y-132498369D01*
X156586238Y-132648769D01*
X156586235Y-132648773D01*
X156582315Y-132653550D01*
X156579401Y-132659000D01*
X156579398Y-132659006D01*
X156487683Y-132830590D01*
X156487678Y-132830600D01*
X156484768Y-132836046D01*
X156482975Y-132841956D01*
X156482972Y-132841964D01*
X156426497Y-133028140D01*
X156426495Y-133028145D01*
X156424700Y-133034066D01*
X156424093Y-133040223D01*
X156424092Y-133040231D01*
X156423081Y-133050500D01*
X156404417Y-133240000D01*
X100500500Y-133240000D01*
X100500500Y-130700000D01*
X156404417Y-130700000D01*
X156405024Y-130706163D01*
X156424092Y-130899768D01*
X156424093Y-130899774D01*
X156424700Y-130905934D01*
X156426496Y-130911856D01*
X156426497Y-130911859D01*
X156482972Y-131098035D01*
X156482973Y-131098039D01*
X156484768Y-131103954D01*
X156487680Y-131109402D01*
X156487683Y-131109409D01*
X156574669Y-131272145D01*
X156582315Y-131286450D01*
X156713590Y-131446410D01*
X156873550Y-131577685D01*
X156964798Y-131626458D01*
X157050590Y-131672316D01*
X157050592Y-131672317D01*
X157056046Y-131675232D01*
X157254066Y-131735300D01*
X157460000Y-131755583D01*
X157665934Y-131735300D01*
X157863954Y-131675232D01*
X158046450Y-131577685D01*
X158206410Y-131446410D01*
X158337685Y-131286450D01*
X158435232Y-131103954D01*
X158495300Y-130905934D01*
X158515583Y-130700000D01*
X158944417Y-130700000D01*
X158945024Y-130706163D01*
X158964092Y-130899768D01*
X158964093Y-130899774D01*
X158964700Y-130905934D01*
X158966496Y-130911856D01*
X158966497Y-130911859D01*
X159022972Y-131098035D01*
X159022973Y-131098039D01*
X159024768Y-131103954D01*
X159027680Y-131109402D01*
X159027683Y-131109409D01*
X159114669Y-131272145D01*
X159122315Y-131286450D01*
X159253590Y-131446410D01*
X159413550Y-131577685D01*
X159504798Y-131626458D01*
X159590590Y-131672316D01*
X159590592Y-131672317D01*
X159596046Y-131675232D01*
X159794066Y-131735300D01*
X160000000Y-131755583D01*
X160205934Y-131735300D01*
X160403954Y-131675232D01*
X160586450Y-131577685D01*
X160746410Y-131446410D01*
X160877685Y-131286450D01*
X160975232Y-131103954D01*
X161035300Y-130905934D01*
X161055583Y-130700000D01*
X161035300Y-130494066D01*
X160975232Y-130296046D01*
X160958798Y-130265301D01*
X160880601Y-130119006D01*
X160877685Y-130113550D01*
X160746410Y-129953590D01*
X160586450Y-129822315D01*
X160560526Y-129808458D01*
X160409409Y-129727683D01*
X160409402Y-129727680D01*
X160403954Y-129724768D01*
X160398039Y-129722973D01*
X160398035Y-129722972D01*
X160211859Y-129666497D01*
X160211856Y-129666496D01*
X160205934Y-129664700D01*
X160199774Y-129664093D01*
X160199768Y-129664092D01*
X160006163Y-129645024D01*
X160000000Y-129644417D01*
X159993837Y-129645024D01*
X159800231Y-129664092D01*
X159800223Y-129664093D01*
X159794066Y-129664700D01*
X159788145Y-129666495D01*
X159788140Y-129666497D01*
X159601964Y-129722972D01*
X159601956Y-129722975D01*
X159596046Y-129724768D01*
X159590600Y-129727678D01*
X159590590Y-129727683D01*
X159419006Y-129819398D01*
X159419000Y-129819401D01*
X159413550Y-129822315D01*
X159408773Y-129826235D01*
X159408769Y-129826238D01*
X159258369Y-129949667D01*
X159258363Y-129949672D01*
X159253590Y-129953590D01*
X159249672Y-129958363D01*
X159249667Y-129958369D01*
X159126238Y-130108769D01*
X159126235Y-130108773D01*
X159122315Y-130113550D01*
X159119401Y-130119000D01*
X159119398Y-130119006D01*
X159027683Y-130290590D01*
X159027678Y-130290600D01*
X159024768Y-130296046D01*
X159022975Y-130301956D01*
X159022972Y-130301964D01*
X158966497Y-130488140D01*
X158966495Y-130488145D01*
X158964700Y-130494066D01*
X158964093Y-130500223D01*
X158964092Y-130500231D01*
X158945024Y-130693837D01*
X158944417Y-130700000D01*
X158515583Y-130700000D01*
X158495300Y-130494066D01*
X158435232Y-130296046D01*
X158418798Y-130265301D01*
X158340601Y-130119006D01*
X158337685Y-130113550D01*
X158206410Y-129953590D01*
X158046450Y-129822315D01*
X158020526Y-129808458D01*
X157869409Y-129727683D01*
X157869402Y-129727680D01*
X157863954Y-129724768D01*
X157858039Y-129722973D01*
X157858035Y-129722972D01*
X157671859Y-129666497D01*
X157671856Y-129666496D01*
X157665934Y-129664700D01*
X157659774Y-129664093D01*
X157659768Y-129664092D01*
X157466163Y-129645024D01*
X157460000Y-129644417D01*
X157453837Y-129645024D01*
X157260231Y-129664092D01*
X157260223Y-129664093D01*
X157254066Y-129664700D01*
X157248145Y-129666495D01*
X157248140Y-129666497D01*
X157061964Y-129722972D01*
X157061956Y-129722975D01*
X157056046Y-129724768D01*
X157050600Y-129727678D01*
X157050590Y-129727683D01*
X156879006Y-129819398D01*
X156879000Y-129819401D01*
X156873550Y-129822315D01*
X156868773Y-129826235D01*
X156868769Y-129826238D01*
X156718369Y-129949667D01*
X156718363Y-129949672D01*
X156713590Y-129953590D01*
X156709672Y-129958363D01*
X156709667Y-129958369D01*
X156586238Y-130108769D01*
X156586235Y-130108773D01*
X156582315Y-130113550D01*
X156579401Y-130119000D01*
X156579398Y-130119006D01*
X156487683Y-130290590D01*
X156487678Y-130290600D01*
X156484768Y-130296046D01*
X156482975Y-130301956D01*
X156482972Y-130301964D01*
X156426497Y-130488140D01*
X156426495Y-130488145D01*
X156424700Y-130494066D01*
X156424093Y-130500223D01*
X156424092Y-130500231D01*
X156405024Y-130693837D01*
X156404417Y-130700000D01*
X100500500Y-130700000D01*
X100500500Y-128160000D01*
X156404417Y-128160000D01*
X156405024Y-128166163D01*
X156424092Y-128359768D01*
X156424093Y-128359774D01*
X156424700Y-128365934D01*
X156426496Y-128371856D01*
X156426497Y-128371859D01*
X156482972Y-128558035D01*
X156482973Y-128558039D01*
X156484768Y-128563954D01*
X156487680Y-128569402D01*
X156487683Y-128569409D01*
X156579398Y-128740993D01*
X156582315Y-128746450D01*
X156713590Y-128906410D01*
X156873550Y-129037685D01*
X156964798Y-129086458D01*
X157050590Y-129132316D01*
X157050592Y-129132317D01*
X157056046Y-129135232D01*
X157254066Y-129195300D01*
X157460000Y-129215583D01*
X157665934Y-129195300D01*
X157863954Y-129135232D01*
X158046450Y-129037685D01*
X158206410Y-128906410D01*
X158337685Y-128746450D01*
X158435232Y-128563954D01*
X158495300Y-128365934D01*
X158515583Y-128160000D01*
X158944417Y-128160000D01*
X158945024Y-128166163D01*
X158964092Y-128359768D01*
X158964093Y-128359774D01*
X158964700Y-128365934D01*
X158966496Y-128371856D01*
X158966497Y-128371859D01*
X159022972Y-128558035D01*
X159022973Y-128558039D01*
X159024768Y-128563954D01*
X159027680Y-128569402D01*
X159027683Y-128569409D01*
X159119398Y-128740993D01*
X159122315Y-128746450D01*
X159253590Y-128906410D01*
X159413550Y-129037685D01*
X159504798Y-129086458D01*
X159590590Y-129132316D01*
X159590592Y-129132317D01*
X159596046Y-129135232D01*
X159794066Y-129195300D01*
X160000000Y-129215583D01*
X160205934Y-129195300D01*
X160403954Y-129135232D01*
X160586450Y-129037685D01*
X160746410Y-128906410D01*
X160877685Y-128746450D01*
X160975232Y-128563954D01*
X161035300Y-128365934D01*
X161055583Y-128160000D01*
X161035300Y-127954066D01*
X160975232Y-127756046D01*
X160877685Y-127573550D01*
X160746410Y-127413590D01*
X160716857Y-127389337D01*
X160591230Y-127286238D01*
X160591231Y-127286238D01*
X160586450Y-127282315D01*
X160580993Y-127279398D01*
X160409409Y-127187683D01*
X160409402Y-127187680D01*
X160403954Y-127184768D01*
X160398039Y-127182973D01*
X160398035Y-127182972D01*
X160211859Y-127126497D01*
X160211856Y-127126496D01*
X160205934Y-127124700D01*
X160199774Y-127124093D01*
X160199768Y-127124092D01*
X160006163Y-127105024D01*
X160000000Y-127104417D01*
X159993837Y-127105024D01*
X159800231Y-127124092D01*
X159800223Y-127124093D01*
X159794066Y-127124700D01*
X159788145Y-127126495D01*
X159788140Y-127126497D01*
X159601964Y-127182972D01*
X159601956Y-127182975D01*
X159596046Y-127184768D01*
X159590600Y-127187678D01*
X159590590Y-127187683D01*
X159419006Y-127279398D01*
X159419000Y-127279401D01*
X159413550Y-127282315D01*
X159408773Y-127286235D01*
X159408769Y-127286238D01*
X159258369Y-127409667D01*
X159258363Y-127409672D01*
X159253590Y-127413590D01*
X159249672Y-127418363D01*
X159249667Y-127418369D01*
X159126238Y-127568769D01*
X159126235Y-127568773D01*
X159122315Y-127573550D01*
X159119401Y-127579000D01*
X159119398Y-127579006D01*
X159027683Y-127750590D01*
X159027678Y-127750600D01*
X159024768Y-127756046D01*
X159022975Y-127761956D01*
X159022972Y-127761964D01*
X158966497Y-127948140D01*
X158966495Y-127948145D01*
X158964700Y-127954066D01*
X158964093Y-127960223D01*
X158964092Y-127960231D01*
X158945024Y-128153837D01*
X158944417Y-128160000D01*
X158515583Y-128160000D01*
X158495300Y-127954066D01*
X158435232Y-127756046D01*
X158337685Y-127573550D01*
X158206410Y-127413590D01*
X158176857Y-127389337D01*
X158051230Y-127286238D01*
X158051231Y-127286238D01*
X158046450Y-127282315D01*
X158040993Y-127279398D01*
X157869409Y-127187683D01*
X157869402Y-127187680D01*
X157863954Y-127184768D01*
X157858039Y-127182973D01*
X157858035Y-127182972D01*
X157671859Y-127126497D01*
X157671856Y-127126496D01*
X157665934Y-127124700D01*
X157659774Y-127124093D01*
X157659768Y-127124092D01*
X157466163Y-127105024D01*
X157460000Y-127104417D01*
X157453837Y-127105024D01*
X157260231Y-127124092D01*
X157260223Y-127124093D01*
X157254066Y-127124700D01*
X157248145Y-127126495D01*
X157248140Y-127126497D01*
X157061964Y-127182972D01*
X157061956Y-127182975D01*
X157056046Y-127184768D01*
X157050600Y-127187678D01*
X157050590Y-127187683D01*
X156879006Y-127279398D01*
X156879000Y-127279401D01*
X156873550Y-127282315D01*
X156868773Y-127286235D01*
X156868769Y-127286238D01*
X156718369Y-127409667D01*
X156718363Y-127409672D01*
X156713590Y-127413590D01*
X156709672Y-127418363D01*
X156709667Y-127418369D01*
X156586238Y-127568769D01*
X156586235Y-127568773D01*
X156582315Y-127573550D01*
X156579401Y-127579000D01*
X156579398Y-127579006D01*
X156487683Y-127750590D01*
X156487678Y-127750600D01*
X156484768Y-127756046D01*
X156482975Y-127761956D01*
X156482972Y-127761964D01*
X156426497Y-127948140D01*
X156426495Y-127948145D01*
X156424700Y-127954066D01*
X156424093Y-127960223D01*
X156424092Y-127960231D01*
X156405024Y-128153837D01*
X156404417Y-128160000D01*
X100500500Y-128160000D01*
X100500500Y-126750000D01*
X166544357Y-126750000D01*
X166564885Y-126971536D01*
X166625771Y-127185528D01*
X166724942Y-127384689D01*
X166728452Y-127389337D01*
X166855506Y-127557585D01*
X166855510Y-127557589D01*
X166859019Y-127562236D01*
X166863321Y-127566158D01*
X166863324Y-127566161D01*
X166959428Y-127653771D01*
X167023438Y-127712124D01*
X167212599Y-127829247D01*
X167420060Y-127909618D01*
X167638757Y-127950500D01*
X167855416Y-127950500D01*
X167861243Y-127950500D01*
X168079940Y-127909618D01*
X168287401Y-127829247D01*
X168476562Y-127712124D01*
X168640981Y-127562236D01*
X168775058Y-127384689D01*
X168874229Y-127185528D01*
X168935115Y-126971536D01*
X168955643Y-126750000D01*
X168935115Y-126528464D01*
X168874229Y-126314472D01*
X168775058Y-126115311D01*
X168651778Y-125952061D01*
X168644493Y-125942414D01*
X168644490Y-125942410D01*
X168640981Y-125937764D01*
X168636677Y-125933841D01*
X168636675Y-125933838D01*
X168480864Y-125791798D01*
X168480865Y-125791798D01*
X168476562Y-125787876D01*
X168287401Y-125670753D01*
X168230148Y-125648573D01*
X168085375Y-125592487D01*
X168085369Y-125592485D01*
X168079940Y-125590382D01*
X168074220Y-125589312D01*
X168074214Y-125589311D01*
X167866967Y-125550570D01*
X167866966Y-125550569D01*
X167861243Y-125549500D01*
X167638757Y-125549500D01*
X167633034Y-125550569D01*
X167633032Y-125550570D01*
X167425785Y-125589311D01*
X167425776Y-125589313D01*
X167420060Y-125590382D01*
X167414632Y-125592484D01*
X167414624Y-125592487D01*
X167218037Y-125668646D01*
X167218034Y-125668647D01*
X167212599Y-125670753D01*
X167207643Y-125673821D01*
X167207638Y-125673824D01*
X167074656Y-125756163D01*
X167023438Y-125787876D01*
X167019139Y-125791794D01*
X167019135Y-125791798D01*
X166863324Y-125933838D01*
X166863316Y-125933846D01*
X166859019Y-125937764D01*
X166855514Y-125942404D01*
X166855506Y-125942414D01*
X166728452Y-126110662D01*
X166728448Y-126110667D01*
X166724942Y-126115311D01*
X166722347Y-126120521D01*
X166722344Y-126120527D01*
X166628368Y-126309255D01*
X166628365Y-126309261D01*
X166625771Y-126314472D01*
X166624177Y-126320073D01*
X166624177Y-126320074D01*
X166572813Y-126500601D01*
X166564885Y-126528464D01*
X166544357Y-126750000D01*
X100500500Y-126750000D01*
X100500500Y-125620000D01*
X156404417Y-125620000D01*
X156405024Y-125626163D01*
X156424092Y-125819768D01*
X156424093Y-125819774D01*
X156424700Y-125825934D01*
X156426496Y-125831856D01*
X156426497Y-125831859D01*
X156482972Y-126018035D01*
X156482973Y-126018039D01*
X156484768Y-126023954D01*
X156487680Y-126029402D01*
X156487683Y-126029409D01*
X156579398Y-126200993D01*
X156582315Y-126206450D01*
X156713590Y-126366410D01*
X156873550Y-126497685D01*
X156920656Y-126522864D01*
X157050590Y-126592316D01*
X157050592Y-126592317D01*
X157056046Y-126595232D01*
X157254066Y-126655300D01*
X157460000Y-126675583D01*
X157665934Y-126655300D01*
X157863954Y-126595232D01*
X158046450Y-126497685D01*
X158206410Y-126366410D01*
X158337685Y-126206450D01*
X158435232Y-126023954D01*
X158495300Y-125825934D01*
X158515583Y-125620000D01*
X158944417Y-125620000D01*
X158945024Y-125626163D01*
X158964092Y-125819768D01*
X158964093Y-125819774D01*
X158964700Y-125825934D01*
X158966496Y-125831856D01*
X158966497Y-125831859D01*
X159022972Y-126018035D01*
X159022973Y-126018039D01*
X159024768Y-126023954D01*
X159027680Y-126029402D01*
X159027683Y-126029409D01*
X159119398Y-126200993D01*
X159122315Y-126206450D01*
X159253590Y-126366410D01*
X159413550Y-126497685D01*
X159460656Y-126522864D01*
X159590590Y-126592316D01*
X159590592Y-126592317D01*
X159596046Y-126595232D01*
X159794066Y-126655300D01*
X160000000Y-126675583D01*
X160205934Y-126655300D01*
X160403954Y-126595232D01*
X160586450Y-126497685D01*
X160746410Y-126366410D01*
X160877685Y-126206450D01*
X160975232Y-126023954D01*
X161035300Y-125825934D01*
X161055583Y-125620000D01*
X161035300Y-125414066D01*
X160975232Y-125216046D01*
X160969214Y-125204788D01*
X160898086Y-125071718D01*
X160877685Y-125033550D01*
X160746410Y-124873590D01*
X160712301Y-124845598D01*
X160591230Y-124746238D01*
X160591231Y-124746238D01*
X160586450Y-124742315D01*
X160580993Y-124739398D01*
X160409409Y-124647683D01*
X160409402Y-124647680D01*
X160403954Y-124644768D01*
X160398039Y-124642973D01*
X160398035Y-124642972D01*
X160211859Y-124586497D01*
X160211856Y-124586496D01*
X160205934Y-124584700D01*
X160199774Y-124584093D01*
X160199768Y-124584092D01*
X160006163Y-124565024D01*
X160000000Y-124564417D01*
X159993837Y-124565024D01*
X159800231Y-124584092D01*
X159800223Y-124584093D01*
X159794066Y-124584700D01*
X159788145Y-124586495D01*
X159788140Y-124586497D01*
X159601964Y-124642972D01*
X159601956Y-124642975D01*
X159596046Y-124644768D01*
X159590600Y-124647678D01*
X159590590Y-124647683D01*
X159419006Y-124739398D01*
X159419000Y-124739401D01*
X159413550Y-124742315D01*
X159408773Y-124746235D01*
X159408769Y-124746238D01*
X159258369Y-124869667D01*
X159258363Y-124869672D01*
X159253590Y-124873590D01*
X159249672Y-124878363D01*
X159249667Y-124878369D01*
X159126238Y-125028769D01*
X159126235Y-125028773D01*
X159122315Y-125033550D01*
X159119401Y-125039000D01*
X159119398Y-125039006D01*
X159027683Y-125210590D01*
X159027678Y-125210600D01*
X159024768Y-125216046D01*
X159022975Y-125221956D01*
X159022972Y-125221964D01*
X158966497Y-125408140D01*
X158966495Y-125408145D01*
X158964700Y-125414066D01*
X158964093Y-125420223D01*
X158964092Y-125420231D01*
X158950323Y-125560033D01*
X158944417Y-125620000D01*
X158515583Y-125620000D01*
X158495300Y-125414066D01*
X158435232Y-125216046D01*
X158429214Y-125204788D01*
X158358086Y-125071718D01*
X158337685Y-125033550D01*
X158206410Y-124873590D01*
X158172301Y-124845598D01*
X158051230Y-124746238D01*
X158051231Y-124746238D01*
X158046450Y-124742315D01*
X158040993Y-124739398D01*
X157869409Y-124647683D01*
X157869402Y-124647680D01*
X157863954Y-124644768D01*
X157858039Y-124642973D01*
X157858035Y-124642972D01*
X157671859Y-124586497D01*
X157671856Y-124586496D01*
X157665934Y-124584700D01*
X157659774Y-124584093D01*
X157659768Y-124584092D01*
X157466163Y-124565024D01*
X157460000Y-124564417D01*
X157453837Y-124565024D01*
X157260231Y-124584092D01*
X157260223Y-124584093D01*
X157254066Y-124584700D01*
X157248145Y-124586495D01*
X157248140Y-124586497D01*
X157061964Y-124642972D01*
X157061956Y-124642975D01*
X157056046Y-124644768D01*
X157050600Y-124647678D01*
X157050590Y-124647683D01*
X156879006Y-124739398D01*
X156879000Y-124739401D01*
X156873550Y-124742315D01*
X156868773Y-124746235D01*
X156868769Y-124746238D01*
X156718369Y-124869667D01*
X156718363Y-124869672D01*
X156713590Y-124873590D01*
X156709672Y-124878363D01*
X156709667Y-124878369D01*
X156586238Y-125028769D01*
X156586235Y-125028773D01*
X156582315Y-125033550D01*
X156579401Y-125039000D01*
X156579398Y-125039006D01*
X156487683Y-125210590D01*
X156487678Y-125210600D01*
X156484768Y-125216046D01*
X156482975Y-125221956D01*
X156482972Y-125221964D01*
X156426497Y-125408140D01*
X156426495Y-125408145D01*
X156424700Y-125414066D01*
X156424093Y-125420223D01*
X156424092Y-125420231D01*
X156410323Y-125560033D01*
X156404417Y-125620000D01*
X100500500Y-125620000D01*
X100500500Y-123080000D01*
X156404417Y-123080000D01*
X156405024Y-123086163D01*
X156424092Y-123279768D01*
X156424093Y-123279774D01*
X156424700Y-123285934D01*
X156426496Y-123291856D01*
X156426497Y-123291859D01*
X156482972Y-123478035D01*
X156482973Y-123478039D01*
X156484768Y-123483954D01*
X156487680Y-123489402D01*
X156487683Y-123489409D01*
X156579398Y-123660993D01*
X156582315Y-123666450D01*
X156713590Y-123826410D01*
X156873550Y-123957685D01*
X156964798Y-124006458D01*
X157050590Y-124052316D01*
X157050592Y-124052317D01*
X157056046Y-124055232D01*
X157254066Y-124115300D01*
X157460000Y-124135583D01*
X157665934Y-124115300D01*
X157863954Y-124055232D01*
X158046450Y-123957685D01*
X158206410Y-123826410D01*
X158337685Y-123666450D01*
X158435232Y-123483954D01*
X158495300Y-123285934D01*
X158515583Y-123080000D01*
X158944417Y-123080000D01*
X158945024Y-123086163D01*
X158964092Y-123279768D01*
X158964093Y-123279774D01*
X158964700Y-123285934D01*
X158966496Y-123291856D01*
X158966497Y-123291859D01*
X159022972Y-123478035D01*
X159022973Y-123478039D01*
X159024768Y-123483954D01*
X159027680Y-123489402D01*
X159027683Y-123489409D01*
X159119398Y-123660993D01*
X159122315Y-123666450D01*
X159253590Y-123826410D01*
X159413550Y-123957685D01*
X159504798Y-124006458D01*
X159590590Y-124052316D01*
X159590592Y-124052317D01*
X159596046Y-124055232D01*
X159794066Y-124115300D01*
X160000000Y-124135583D01*
X160205934Y-124115300D01*
X160403954Y-124055232D01*
X160586450Y-123957685D01*
X160746410Y-123826410D01*
X160877685Y-123666450D01*
X160975232Y-123483954D01*
X161035300Y-123285934D01*
X161055583Y-123080000D01*
X161035300Y-122874066D01*
X160975232Y-122676046D01*
X160958483Y-122644712D01*
X160880601Y-122499006D01*
X160877685Y-122493550D01*
X160746410Y-122333590D01*
X160586450Y-122202315D01*
X160580993Y-122199398D01*
X160409409Y-122107683D01*
X160409402Y-122107680D01*
X160403954Y-122104768D01*
X160398039Y-122102973D01*
X160398035Y-122102972D01*
X160211859Y-122046497D01*
X160211856Y-122046496D01*
X160205934Y-122044700D01*
X160199774Y-122044093D01*
X160199768Y-122044092D01*
X160006163Y-122025024D01*
X160000000Y-122024417D01*
X159993837Y-122025024D01*
X159800231Y-122044092D01*
X159800223Y-122044093D01*
X159794066Y-122044700D01*
X159788145Y-122046495D01*
X159788140Y-122046497D01*
X159601964Y-122102972D01*
X159601956Y-122102975D01*
X159596046Y-122104768D01*
X159590600Y-122107678D01*
X159590590Y-122107683D01*
X159419006Y-122199398D01*
X159419000Y-122199401D01*
X159413550Y-122202315D01*
X159408773Y-122206235D01*
X159408769Y-122206238D01*
X159258369Y-122329667D01*
X159258363Y-122329672D01*
X159253590Y-122333590D01*
X159249672Y-122338363D01*
X159249667Y-122338369D01*
X159126238Y-122488769D01*
X159126235Y-122488773D01*
X159122315Y-122493550D01*
X159119401Y-122499000D01*
X159119398Y-122499006D01*
X159027683Y-122670590D01*
X159027678Y-122670600D01*
X159024768Y-122676046D01*
X159022975Y-122681956D01*
X159022972Y-122681964D01*
X158966497Y-122868140D01*
X158966495Y-122868145D01*
X158964700Y-122874066D01*
X158964093Y-122880223D01*
X158964092Y-122880231D01*
X158954888Y-122973687D01*
X158944417Y-123080000D01*
X158515583Y-123080000D01*
X158495300Y-122874066D01*
X158435232Y-122676046D01*
X158418483Y-122644712D01*
X158340601Y-122499006D01*
X158337685Y-122493550D01*
X158206410Y-122333590D01*
X158046450Y-122202315D01*
X158040993Y-122199398D01*
X157869409Y-122107683D01*
X157869402Y-122107680D01*
X157863954Y-122104768D01*
X157858039Y-122102973D01*
X157858035Y-122102972D01*
X157671859Y-122046497D01*
X157671856Y-122046496D01*
X157665934Y-122044700D01*
X157659774Y-122044093D01*
X157659768Y-122044092D01*
X157466163Y-122025024D01*
X157460000Y-122024417D01*
X157453837Y-122025024D01*
X157260231Y-122044092D01*
X157260223Y-122044093D01*
X157254066Y-122044700D01*
X157248145Y-122046495D01*
X157248140Y-122046497D01*
X157061964Y-122102972D01*
X157061956Y-122102975D01*
X157056046Y-122104768D01*
X157050600Y-122107678D01*
X157050590Y-122107683D01*
X156879006Y-122199398D01*
X156879000Y-122199401D01*
X156873550Y-122202315D01*
X156868773Y-122206235D01*
X156868769Y-122206238D01*
X156718369Y-122329667D01*
X156718363Y-122329672D01*
X156713590Y-122333590D01*
X156709672Y-122338363D01*
X156709667Y-122338369D01*
X156586238Y-122488769D01*
X156586235Y-122488773D01*
X156582315Y-122493550D01*
X156579401Y-122499000D01*
X156579398Y-122499006D01*
X156487683Y-122670590D01*
X156487678Y-122670600D01*
X156484768Y-122676046D01*
X156482975Y-122681956D01*
X156482972Y-122681964D01*
X156426497Y-122868140D01*
X156426495Y-122868145D01*
X156424700Y-122874066D01*
X156424093Y-122880223D01*
X156424092Y-122880231D01*
X156414888Y-122973687D01*
X156404417Y-123080000D01*
X100500500Y-123080000D01*
X100500500Y-120540000D01*
X156404417Y-120540000D01*
X156405024Y-120546163D01*
X156424092Y-120739768D01*
X156424093Y-120739774D01*
X156424700Y-120745934D01*
X156426496Y-120751856D01*
X156426497Y-120751859D01*
X156482972Y-120938035D01*
X156482973Y-120938039D01*
X156484768Y-120943954D01*
X156487680Y-120949402D01*
X156487683Y-120949409D01*
X156573716Y-121110363D01*
X156582315Y-121126450D01*
X156713590Y-121286410D01*
X156873550Y-121417685D01*
X156964798Y-121466458D01*
X157050590Y-121512316D01*
X157050592Y-121512317D01*
X157056046Y-121515232D01*
X157254066Y-121575300D01*
X157460000Y-121595583D01*
X157665934Y-121575300D01*
X157863954Y-121515232D01*
X158046450Y-121417685D01*
X158206410Y-121286410D01*
X158337685Y-121126450D01*
X158435232Y-120943954D01*
X158495300Y-120745934D01*
X158515583Y-120540000D01*
X158944417Y-120540000D01*
X158945024Y-120546163D01*
X158964092Y-120739768D01*
X158964093Y-120739774D01*
X158964700Y-120745934D01*
X158966496Y-120751856D01*
X158966497Y-120751859D01*
X159022972Y-120938035D01*
X159022973Y-120938039D01*
X159024768Y-120943954D01*
X159027680Y-120949402D01*
X159027683Y-120949409D01*
X159113716Y-121110363D01*
X159122315Y-121126450D01*
X159253590Y-121286410D01*
X159413550Y-121417685D01*
X159504798Y-121466458D01*
X159590590Y-121512316D01*
X159590592Y-121512317D01*
X159596046Y-121515232D01*
X159794066Y-121575300D01*
X160000000Y-121595583D01*
X160205934Y-121575300D01*
X160403954Y-121515232D01*
X160586450Y-121417685D01*
X160746410Y-121286410D01*
X160877685Y-121126450D01*
X160975232Y-120943954D01*
X161035300Y-120745934D01*
X161055583Y-120540000D01*
X161035300Y-120334066D01*
X160975232Y-120136046D01*
X160877685Y-119953550D01*
X160746410Y-119793590D01*
X160586450Y-119662315D01*
X160580993Y-119659398D01*
X160409409Y-119567683D01*
X160409402Y-119567680D01*
X160403954Y-119564768D01*
X160398039Y-119562973D01*
X160398035Y-119562972D01*
X160211859Y-119506497D01*
X160211856Y-119506496D01*
X160205934Y-119504700D01*
X160199774Y-119504093D01*
X160199768Y-119504092D01*
X160006163Y-119485024D01*
X160000000Y-119484417D01*
X159993837Y-119485024D01*
X159800231Y-119504092D01*
X159800223Y-119504093D01*
X159794066Y-119504700D01*
X159788145Y-119506495D01*
X159788140Y-119506497D01*
X159601964Y-119562972D01*
X159601956Y-119562975D01*
X159596046Y-119564768D01*
X159590600Y-119567678D01*
X159590590Y-119567683D01*
X159419006Y-119659398D01*
X159419000Y-119659401D01*
X159413550Y-119662315D01*
X159408773Y-119666235D01*
X159408769Y-119666238D01*
X159258369Y-119789667D01*
X159258363Y-119789672D01*
X159253590Y-119793590D01*
X159249672Y-119798363D01*
X159249667Y-119798369D01*
X159126238Y-119948769D01*
X159126235Y-119948773D01*
X159122315Y-119953550D01*
X159119401Y-119959000D01*
X159119398Y-119959006D01*
X159027683Y-120130590D01*
X159027678Y-120130600D01*
X159024768Y-120136046D01*
X159022975Y-120141956D01*
X159022972Y-120141964D01*
X158966497Y-120328140D01*
X158966495Y-120328145D01*
X158964700Y-120334066D01*
X158964093Y-120340223D01*
X158964092Y-120340231D01*
X158954193Y-120440744D01*
X158944417Y-120540000D01*
X158515583Y-120540000D01*
X158495300Y-120334066D01*
X158435232Y-120136046D01*
X158337685Y-119953550D01*
X158206410Y-119793590D01*
X158046450Y-119662315D01*
X158040993Y-119659398D01*
X157869409Y-119567683D01*
X157869402Y-119567680D01*
X157863954Y-119564768D01*
X157858039Y-119562973D01*
X157858035Y-119562972D01*
X157671859Y-119506497D01*
X157671856Y-119506496D01*
X157665934Y-119504700D01*
X157659774Y-119504093D01*
X157659768Y-119504092D01*
X157466163Y-119485024D01*
X157460000Y-119484417D01*
X157453837Y-119485024D01*
X157260231Y-119504092D01*
X157260223Y-119504093D01*
X157254066Y-119504700D01*
X157248145Y-119506495D01*
X157248140Y-119506497D01*
X157061964Y-119562972D01*
X157061956Y-119562975D01*
X157056046Y-119564768D01*
X157050600Y-119567678D01*
X157050590Y-119567683D01*
X156879006Y-119659398D01*
X156879000Y-119659401D01*
X156873550Y-119662315D01*
X156868773Y-119666235D01*
X156868769Y-119666238D01*
X156718369Y-119789667D01*
X156718363Y-119789672D01*
X156713590Y-119793590D01*
X156709672Y-119798363D01*
X156709667Y-119798369D01*
X156586238Y-119948769D01*
X156586235Y-119948773D01*
X156582315Y-119953550D01*
X156579401Y-119959000D01*
X156579398Y-119959006D01*
X156487683Y-120130590D01*
X156487678Y-120130600D01*
X156484768Y-120136046D01*
X156482975Y-120141956D01*
X156482972Y-120141964D01*
X156426497Y-120328140D01*
X156426495Y-120328145D01*
X156424700Y-120334066D01*
X156424093Y-120340223D01*
X156424092Y-120340231D01*
X156414193Y-120440744D01*
X156404417Y-120540000D01*
X100500500Y-120540000D01*
X100500500Y-88750000D01*
X107815027Y-88750000D01*
X107703624Y-88861403D01*
X107655031Y-88891621D01*
X107598084Y-88897230D01*
X107508190Y-88885396D01*
X107508188Y-88885396D01*
X107500000Y-88884318D01*
X107491812Y-88885396D01*
X107351426Y-88903877D01*
X107351418Y-88903879D01*
X107343238Y-88904956D01*
X107335611Y-88908115D01*
X107335608Y-88908116D01*
X107204788Y-88962303D01*
X107204782Y-88962306D01*
X107197159Y-88965464D01*
X107190611Y-88970487D01*
X107190608Y-88970490D01*
X107078263Y-89056695D01*
X107078259Y-89056698D01*
X107071718Y-89061718D01*
X107066698Y-89068259D01*
X107066695Y-89068263D01*
X106980490Y-89180608D01*
X106980487Y-89180611D01*
X106975464Y-89187159D01*
X106972306Y-89194782D01*
X106972303Y-89194788D01*
X106918116Y-89325608D01*
X106914956Y-89333238D01*
X106913879Y-89341418D01*
X106913877Y-89341426D01*
X106896001Y-89477215D01*
X106894318Y-89490000D01*
X106895396Y-89498188D01*
X106913877Y-89638573D01*
X106913878Y-89638579D01*
X106914956Y-89646762D01*
X106918115Y-89654390D01*
X106918116Y-89654391D01*
X106972303Y-89785211D01*
X106972304Y-89785214D01*
X106975464Y-89792841D01*
X107071718Y-89918282D01*
X107197159Y-90014536D01*
X107343238Y-90075044D01*
X107500000Y-90095682D01*
X107656762Y-90075044D01*
X107802841Y-90014536D01*
X107928282Y-89918282D01*
X108024536Y-89792841D01*
X108085044Y-89646762D01*
X108105682Y-89490000D01*
X108092768Y-89391911D01*
X108098377Y-89334968D01*
X108128593Y-89286376D01*
X108664969Y-88750000D01*
X108750000Y-88750000D01*
X108707484Y-88707484D01*
X109630290Y-87784679D01*
X109686775Y-87752067D01*
X109751997Y-87752067D01*
X109808481Y-87784679D01*
X113967894Y-91944092D01*
X114001507Y-92004575D01*
X113998112Y-92073688D01*
X113958733Y-92130586D01*
X113895246Y-92158109D01*
X113851425Y-92163878D01*
X113851423Y-92163878D01*
X113843238Y-92164956D01*
X113835611Y-92168115D01*
X113835608Y-92168116D01*
X113704788Y-92222303D01*
X113704782Y-92222306D01*
X113697159Y-92225464D01*
X113690611Y-92230487D01*
X113690608Y-92230490D01*
X113578263Y-92316695D01*
X113578259Y-92316698D01*
X113571718Y-92321718D01*
X113566698Y-92328259D01*
X113566695Y-92328263D01*
X113480490Y-92440608D01*
X113480487Y-92440611D01*
X113475464Y-92447159D01*
X113472306Y-92454782D01*
X113472303Y-92454788D01*
X113418116Y-92585608D01*
X113414956Y-92593238D01*
X113413879Y-92601418D01*
X113413877Y-92601426D01*
X113405723Y-92663369D01*
X113394318Y-92750000D01*
X113395396Y-92758188D01*
X113413877Y-92898573D01*
X113413878Y-92898579D01*
X113414956Y-92906762D01*
X113418115Y-92914390D01*
X113418116Y-92914391D01*
X113472303Y-93045211D01*
X113472304Y-93045214D01*
X113475464Y-93052841D01*
X113480490Y-93059391D01*
X113527805Y-93121054D01*
X113571718Y-93178282D01*
X113697159Y-93274536D01*
X113843238Y-93335044D01*
X113921410Y-93345335D01*
X113960691Y-93357251D01*
X113994058Y-93381162D01*
X119158547Y-98545650D01*
X119167962Y-98556185D01*
X119184231Y-98576585D01*
X119184233Y-98576587D01*
X119190121Y-98583970D01*
X119237329Y-98616156D01*
X119241157Y-98618873D01*
X119279518Y-98647185D01*
X119279523Y-98647187D01*
X119287118Y-98652793D01*
X119295224Y-98655629D01*
X119302327Y-98660472D01*
X119356927Y-98677313D01*
X119361407Y-98678787D01*
X119415301Y-98697646D01*
X119423887Y-98697967D01*
X119432098Y-98700500D01*
X119489198Y-98700500D01*
X119493910Y-98700588D01*
X119551010Y-98702725D01*
X119557736Y-98700922D01*
X119565266Y-98700500D01*
X149761206Y-98700500D01*
X149809424Y-98710091D01*
X149850301Y-98737405D01*
X153510265Y-102397368D01*
X153536069Y-102434750D01*
X153546940Y-102478854D01*
X153549270Y-102517366D01*
X153549500Y-102524975D01*
X153549500Y-116475025D01*
X153549269Y-116482633D01*
X153545642Y-116542606D01*
X153547015Y-116550097D01*
X153556474Y-116601716D01*
X153557618Y-116609236D01*
X153564860Y-116668872D01*
X153567561Y-116675995D01*
X153567562Y-116675998D01*
X153568388Y-116678176D01*
X153574508Y-116700129D01*
X153574930Y-116702435D01*
X153574932Y-116702442D01*
X153576305Y-116709932D01*
X153579430Y-116716875D01*
X153579433Y-116716885D01*
X153600968Y-116764735D01*
X153603879Y-116771763D01*
X153622476Y-116820799D01*
X153622481Y-116820809D01*
X153625182Y-116827930D01*
X153630837Y-116836123D01*
X153642036Y-116855979D01*
X153646122Y-116865057D01*
X153683194Y-116912376D01*
X153687672Y-116918462D01*
X153721817Y-116967929D01*
X153727522Y-116972983D01*
X153766793Y-117007774D01*
X153772335Y-117012992D01*
X155237014Y-118477671D01*
X155242217Y-118483197D01*
X155282071Y-118528183D01*
X155288343Y-118532512D01*
X155288344Y-118532513D01*
X155331526Y-118562319D01*
X155337637Y-118566815D01*
X155384943Y-118603877D01*
X155394003Y-118607954D01*
X155413875Y-118619161D01*
X155415795Y-118620487D01*
X155415798Y-118620488D01*
X155422070Y-118624818D01*
X155478243Y-118646121D01*
X155485275Y-118649033D01*
X155540068Y-118673694D01*
X155547569Y-118675068D01*
X155547571Y-118675069D01*
X155549854Y-118675488D01*
X155571822Y-118681611D01*
X155572920Y-118682027D01*
X155581128Y-118685140D01*
X155640777Y-118692382D01*
X155648275Y-118693523D01*
X155707394Y-118704357D01*
X155762321Y-118701034D01*
X155767358Y-118700730D01*
X155774965Y-118700500D01*
X156616347Y-118700500D01*
X156664565Y-118710091D01*
X156705442Y-118737405D01*
X156709667Y-118741630D01*
X156713590Y-118746410D01*
X156873550Y-118877685D01*
X156950182Y-118918646D01*
X157050590Y-118972316D01*
X157050592Y-118972317D01*
X157056046Y-118975232D01*
X157254066Y-119035300D01*
X157460000Y-119055583D01*
X157665934Y-119035300D01*
X157863954Y-118975232D01*
X158046450Y-118877685D01*
X158206410Y-118746410D01*
X158337685Y-118586450D01*
X158435232Y-118403954D01*
X158495300Y-118205934D01*
X158515583Y-118000000D01*
X158944417Y-118000000D01*
X158945024Y-118006163D01*
X158964092Y-118199768D01*
X158964093Y-118199774D01*
X158964700Y-118205934D01*
X158966496Y-118211856D01*
X158966497Y-118211859D01*
X159022972Y-118398035D01*
X159022973Y-118398039D01*
X159024768Y-118403954D01*
X159027680Y-118409402D01*
X159027683Y-118409409D01*
X159110571Y-118564479D01*
X159122315Y-118586450D01*
X159253590Y-118746410D01*
X159413550Y-118877685D01*
X159490182Y-118918646D01*
X159590590Y-118972316D01*
X159590592Y-118972317D01*
X159596046Y-118975232D01*
X159794066Y-119035300D01*
X160000000Y-119055583D01*
X160205934Y-119035300D01*
X160403954Y-118975232D01*
X160586450Y-118877685D01*
X160746410Y-118746410D01*
X160877685Y-118586450D01*
X160975232Y-118403954D01*
X161035300Y-118205934D01*
X161055583Y-118000000D01*
X161035300Y-117794066D01*
X160975232Y-117596046D01*
X160877685Y-117413550D01*
X160746410Y-117253590D01*
X160586450Y-117122315D01*
X160580993Y-117119398D01*
X160409409Y-117027683D01*
X160409402Y-117027680D01*
X160403954Y-117024768D01*
X160398039Y-117022973D01*
X160398035Y-117022972D01*
X160211859Y-116966497D01*
X160211856Y-116966496D01*
X160205934Y-116964700D01*
X160199774Y-116964093D01*
X160199768Y-116964092D01*
X160006163Y-116945024D01*
X160000000Y-116944417D01*
X159993837Y-116945024D01*
X159800231Y-116964092D01*
X159800223Y-116964093D01*
X159794066Y-116964700D01*
X159788145Y-116966495D01*
X159788140Y-116966497D01*
X159601964Y-117022972D01*
X159601956Y-117022975D01*
X159596046Y-117024768D01*
X159590600Y-117027678D01*
X159590590Y-117027683D01*
X159419006Y-117119398D01*
X159419000Y-117119401D01*
X159413550Y-117122315D01*
X159408773Y-117126235D01*
X159408769Y-117126238D01*
X159258369Y-117249667D01*
X159258363Y-117249672D01*
X159253590Y-117253590D01*
X159249672Y-117258363D01*
X159249667Y-117258369D01*
X159126238Y-117408769D01*
X159126235Y-117408773D01*
X159122315Y-117413550D01*
X159119401Y-117419000D01*
X159119398Y-117419006D01*
X159027683Y-117590590D01*
X159027678Y-117590600D01*
X159024768Y-117596046D01*
X159022975Y-117601956D01*
X159022972Y-117601964D01*
X158966497Y-117788140D01*
X158966495Y-117788145D01*
X158964700Y-117794066D01*
X158964093Y-117800223D01*
X158964092Y-117800231D01*
X158945024Y-117993837D01*
X158944417Y-118000000D01*
X158515583Y-118000000D01*
X158495300Y-117794066D01*
X158435232Y-117596046D01*
X158337685Y-117413550D01*
X158206410Y-117253590D01*
X158046450Y-117122315D01*
X158040993Y-117119398D01*
X157869409Y-117027683D01*
X157869402Y-117027680D01*
X157863954Y-117024768D01*
X157858039Y-117022973D01*
X157858035Y-117022972D01*
X157671859Y-116966497D01*
X157671856Y-116966496D01*
X157665934Y-116964700D01*
X157659774Y-116964093D01*
X157659768Y-116964092D01*
X157466163Y-116945024D01*
X157460000Y-116944417D01*
X157453837Y-116945024D01*
X157260231Y-116964092D01*
X157260223Y-116964093D01*
X157254066Y-116964700D01*
X157248145Y-116966495D01*
X157248140Y-116966497D01*
X157061964Y-117022972D01*
X157061956Y-117022975D01*
X157056046Y-117024768D01*
X157050600Y-117027678D01*
X157050590Y-117027683D01*
X156879006Y-117119398D01*
X156879000Y-117119401D01*
X156873550Y-117122315D01*
X156868773Y-117126235D01*
X156868769Y-117126238D01*
X156718369Y-117249667D01*
X156718363Y-117249672D01*
X156713590Y-117253590D01*
X156709669Y-117258367D01*
X156705442Y-117262595D01*
X156664565Y-117289909D01*
X156616347Y-117299500D01*
X156092347Y-117299500D01*
X156044129Y-117289909D01*
X156003252Y-117262595D01*
X154987405Y-116246748D01*
X154960091Y-116205871D01*
X154950500Y-116157653D01*
X154950500Y-115460000D01*
X156404417Y-115460000D01*
X156405024Y-115466163D01*
X156424092Y-115659768D01*
X156424093Y-115659774D01*
X156424700Y-115665934D01*
X156426496Y-115671856D01*
X156426497Y-115671859D01*
X156482972Y-115858035D01*
X156482973Y-115858039D01*
X156484768Y-115863954D01*
X156487680Y-115869402D01*
X156487683Y-115869409D01*
X156511727Y-115914391D01*
X156582315Y-116046450D01*
X156647952Y-116126429D01*
X156694627Y-116183304D01*
X156713590Y-116206410D01*
X156873550Y-116337685D01*
X156898307Y-116350918D01*
X157050590Y-116432316D01*
X157050592Y-116432317D01*
X157056046Y-116435232D01*
X157254066Y-116495300D01*
X157460000Y-116515583D01*
X157665934Y-116495300D01*
X157863954Y-116435232D01*
X158046450Y-116337685D01*
X158206410Y-116206410D01*
X158337685Y-116046450D01*
X158435232Y-115863954D01*
X158495300Y-115665934D01*
X158515583Y-115460000D01*
X158944417Y-115460000D01*
X158945024Y-115466163D01*
X158964092Y-115659768D01*
X158964093Y-115659774D01*
X158964700Y-115665934D01*
X158966496Y-115671856D01*
X158966497Y-115671859D01*
X159022972Y-115858035D01*
X159022973Y-115858039D01*
X159024768Y-115863954D01*
X159027680Y-115869402D01*
X159027683Y-115869409D01*
X159051727Y-115914391D01*
X159122315Y-116046450D01*
X159187952Y-116126429D01*
X159234627Y-116183304D01*
X159253590Y-116206410D01*
X159413550Y-116337685D01*
X159438307Y-116350918D01*
X159590590Y-116432316D01*
X159590592Y-116432317D01*
X159596046Y-116435232D01*
X159794066Y-116495300D01*
X160000000Y-116515583D01*
X160205934Y-116495300D01*
X160403954Y-116435232D01*
X160586450Y-116337685D01*
X160746410Y-116206410D01*
X160877685Y-116046450D01*
X160975232Y-115863954D01*
X161035300Y-115665934D01*
X161055583Y-115460000D01*
X161035300Y-115254066D01*
X160975232Y-115056046D01*
X160877685Y-114873550D01*
X160746410Y-114713590D01*
X160586450Y-114582315D01*
X160580993Y-114579398D01*
X160409409Y-114487683D01*
X160409402Y-114487680D01*
X160403954Y-114484768D01*
X160398039Y-114482973D01*
X160398035Y-114482972D01*
X160211859Y-114426497D01*
X160211856Y-114426496D01*
X160205934Y-114424700D01*
X160199774Y-114424093D01*
X160199768Y-114424092D01*
X160006163Y-114405024D01*
X160000000Y-114404417D01*
X159993837Y-114405024D01*
X159800231Y-114424092D01*
X159800223Y-114424093D01*
X159794066Y-114424700D01*
X159788145Y-114426495D01*
X159788140Y-114426497D01*
X159601964Y-114482972D01*
X159601956Y-114482975D01*
X159596046Y-114484768D01*
X159590600Y-114487678D01*
X159590590Y-114487683D01*
X159419006Y-114579398D01*
X159419000Y-114579401D01*
X159413550Y-114582315D01*
X159408773Y-114586235D01*
X159408769Y-114586238D01*
X159258369Y-114709667D01*
X159258363Y-114709672D01*
X159253590Y-114713590D01*
X159249672Y-114718363D01*
X159249667Y-114718369D01*
X159126238Y-114868769D01*
X159126235Y-114868773D01*
X159122315Y-114873550D01*
X159119401Y-114879000D01*
X159119398Y-114879006D01*
X159027683Y-115050590D01*
X159027678Y-115050600D01*
X159024768Y-115056046D01*
X159022975Y-115061956D01*
X159022972Y-115061964D01*
X158966497Y-115248140D01*
X158966495Y-115248145D01*
X158964700Y-115254066D01*
X158964093Y-115260223D01*
X158964092Y-115260231D01*
X158951843Y-115384605D01*
X158944417Y-115460000D01*
X158515583Y-115460000D01*
X158495300Y-115254066D01*
X158435232Y-115056046D01*
X158337685Y-114873550D01*
X158206410Y-114713590D01*
X158046450Y-114582315D01*
X158040993Y-114579398D01*
X157869409Y-114487683D01*
X157869402Y-114487680D01*
X157863954Y-114484768D01*
X157858039Y-114482973D01*
X157858035Y-114482972D01*
X157671859Y-114426497D01*
X157671856Y-114426496D01*
X157665934Y-114424700D01*
X157659774Y-114424093D01*
X157659768Y-114424092D01*
X157466163Y-114405024D01*
X157460000Y-114404417D01*
X157453837Y-114405024D01*
X157260231Y-114424092D01*
X157260223Y-114424093D01*
X157254066Y-114424700D01*
X157248145Y-114426495D01*
X157248140Y-114426497D01*
X157061964Y-114482972D01*
X157061956Y-114482975D01*
X157056046Y-114484768D01*
X157050600Y-114487678D01*
X157050590Y-114487683D01*
X156879006Y-114579398D01*
X156879000Y-114579401D01*
X156873550Y-114582315D01*
X156868773Y-114586235D01*
X156868769Y-114586238D01*
X156718369Y-114709667D01*
X156718363Y-114709672D01*
X156713590Y-114713590D01*
X156709672Y-114718363D01*
X156709667Y-114718369D01*
X156586238Y-114868769D01*
X156586235Y-114868773D01*
X156582315Y-114873550D01*
X156579401Y-114879000D01*
X156579398Y-114879006D01*
X156487683Y-115050590D01*
X156487678Y-115050600D01*
X156484768Y-115056046D01*
X156482975Y-115061956D01*
X156482972Y-115061964D01*
X156426497Y-115248140D01*
X156426495Y-115248145D01*
X156424700Y-115254066D01*
X156424093Y-115260223D01*
X156424092Y-115260231D01*
X156411843Y-115384605D01*
X156404417Y-115460000D01*
X154950500Y-115460000D01*
X154950500Y-112920000D01*
X156404417Y-112920000D01*
X156405024Y-112926163D01*
X156424092Y-113119768D01*
X156424093Y-113119774D01*
X156424700Y-113125934D01*
X156426496Y-113131856D01*
X156426497Y-113131859D01*
X156482972Y-113318035D01*
X156482973Y-113318039D01*
X156484768Y-113323954D01*
X156487680Y-113329402D01*
X156487683Y-113329409D01*
X156579398Y-113500993D01*
X156582315Y-113506450D01*
X156713590Y-113666410D01*
X156873550Y-113797685D01*
X156964797Y-113846458D01*
X157050590Y-113892316D01*
X157050592Y-113892317D01*
X157056046Y-113895232D01*
X157254066Y-113955300D01*
X157460000Y-113975583D01*
X157665934Y-113955300D01*
X157863954Y-113895232D01*
X158046450Y-113797685D01*
X158206410Y-113666410D01*
X158337685Y-113506450D01*
X158435232Y-113323954D01*
X158495300Y-113125934D01*
X158515583Y-112920000D01*
X158495300Y-112714066D01*
X158435232Y-112516046D01*
X158337685Y-112333550D01*
X158206410Y-112173590D01*
X158188757Y-112159103D01*
X158051230Y-112046238D01*
X158051231Y-112046238D01*
X158046450Y-112042315D01*
X158040993Y-112039398D01*
X157869409Y-111947683D01*
X157869402Y-111947680D01*
X157863954Y-111944768D01*
X157858039Y-111942973D01*
X157858035Y-111942972D01*
X157671859Y-111886497D01*
X157671856Y-111886496D01*
X157665934Y-111884700D01*
X157659774Y-111884093D01*
X157659768Y-111884092D01*
X157466163Y-111865024D01*
X157460000Y-111864417D01*
X157453837Y-111865024D01*
X157260231Y-111884092D01*
X157260223Y-111884093D01*
X157254066Y-111884700D01*
X157248145Y-111886495D01*
X157248140Y-111886497D01*
X157061964Y-111942972D01*
X157061956Y-111942975D01*
X157056046Y-111944768D01*
X157050600Y-111947678D01*
X157050590Y-111947683D01*
X156879006Y-112039398D01*
X156879000Y-112039401D01*
X156873550Y-112042315D01*
X156868773Y-112046235D01*
X156868769Y-112046238D01*
X156718369Y-112169667D01*
X156718363Y-112169672D01*
X156713590Y-112173590D01*
X156709672Y-112178363D01*
X156709667Y-112178369D01*
X156586238Y-112328769D01*
X156586235Y-112328773D01*
X156582315Y-112333550D01*
X156579401Y-112339000D01*
X156579398Y-112339006D01*
X156487683Y-112510590D01*
X156487678Y-112510600D01*
X156484768Y-112516046D01*
X156482975Y-112521956D01*
X156482972Y-112521964D01*
X156426497Y-112708140D01*
X156426495Y-112708145D01*
X156424700Y-112714066D01*
X156424093Y-112720223D01*
X156424092Y-112720231D01*
X156405024Y-112913837D01*
X156404417Y-112920000D01*
X154950500Y-112920000D01*
X154950500Y-110380000D01*
X156404417Y-110380000D01*
X156405024Y-110386163D01*
X156424092Y-110579768D01*
X156424093Y-110579774D01*
X156424700Y-110585934D01*
X156426496Y-110591856D01*
X156426497Y-110591859D01*
X156482972Y-110778035D01*
X156482973Y-110778039D01*
X156484768Y-110783954D01*
X156487680Y-110789402D01*
X156487683Y-110789409D01*
X156579398Y-110960993D01*
X156582315Y-110966450D01*
X156713590Y-111126410D01*
X156873550Y-111257685D01*
X156943756Y-111295211D01*
X157050590Y-111352316D01*
X157050592Y-111352317D01*
X157056046Y-111355232D01*
X157254066Y-111415300D01*
X157460000Y-111435583D01*
X157665934Y-111415300D01*
X157863954Y-111355232D01*
X158046450Y-111257685D01*
X158206410Y-111126410D01*
X158337685Y-110966450D01*
X158435232Y-110783954D01*
X158448806Y-110739204D01*
X158482900Y-110684145D01*
X158539840Y-110653292D01*
X158604583Y-110654797D01*
X158660028Y-110688263D01*
X158691525Y-110744849D01*
X158709896Y-110817396D01*
X158713270Y-110827223D01*
X158799488Y-111023778D01*
X158804431Y-111032913D01*
X158921822Y-111212593D01*
X158928210Y-111220799D01*
X159073567Y-111378700D01*
X159081211Y-111385737D01*
X159250588Y-111517568D01*
X159259281Y-111523247D01*
X159448042Y-111625400D01*
X159457559Y-111629575D01*
X159641230Y-111692629D01*
X159693634Y-111727137D01*
X159722897Y-111782641D01*
X159721763Y-111845376D01*
X159690512Y-111899785D01*
X159636894Y-111932376D01*
X159601971Y-111942969D01*
X159601955Y-111942975D01*
X159596046Y-111944768D01*
X159590600Y-111947678D01*
X159590590Y-111947683D01*
X159419006Y-112039398D01*
X159419000Y-112039401D01*
X159413550Y-112042315D01*
X159408773Y-112046235D01*
X159408769Y-112046238D01*
X159258369Y-112169667D01*
X159258363Y-112169672D01*
X159253590Y-112173590D01*
X159249672Y-112178363D01*
X159249667Y-112178369D01*
X159126238Y-112328769D01*
X159126235Y-112328773D01*
X159122315Y-112333550D01*
X159119401Y-112339000D01*
X159119398Y-112339006D01*
X159027683Y-112510590D01*
X159027678Y-112510600D01*
X159024768Y-112516046D01*
X159022975Y-112521956D01*
X159022972Y-112521964D01*
X158966497Y-112708140D01*
X158966495Y-112708145D01*
X158964700Y-112714066D01*
X158964093Y-112720223D01*
X158964092Y-112720231D01*
X158945024Y-112913837D01*
X158944417Y-112920000D01*
X158945024Y-112926163D01*
X158964092Y-113119768D01*
X158964093Y-113119774D01*
X158964700Y-113125934D01*
X158966496Y-113131856D01*
X158966497Y-113131859D01*
X159022972Y-113318035D01*
X159022973Y-113318039D01*
X159024768Y-113323954D01*
X159027680Y-113329402D01*
X159027683Y-113329409D01*
X159119398Y-113500993D01*
X159122315Y-113506450D01*
X159253590Y-113666410D01*
X159413550Y-113797685D01*
X159504797Y-113846458D01*
X159590590Y-113892316D01*
X159590592Y-113892317D01*
X159596046Y-113895232D01*
X159794066Y-113955300D01*
X160000000Y-113975583D01*
X160205934Y-113955300D01*
X160403954Y-113895232D01*
X160586450Y-113797685D01*
X160746410Y-113666410D01*
X160877685Y-113506450D01*
X160975232Y-113323954D01*
X161035300Y-113125934D01*
X161055583Y-112920000D01*
X161035300Y-112714066D01*
X160975232Y-112516046D01*
X160877685Y-112333550D01*
X160746410Y-112173590D01*
X160728757Y-112159103D01*
X160591230Y-112046238D01*
X160591231Y-112046238D01*
X160586450Y-112042315D01*
X160580993Y-112039398D01*
X160409409Y-111947683D01*
X160409402Y-111947680D01*
X160403954Y-111944768D01*
X160398041Y-111942974D01*
X160398038Y-111942973D01*
X160376485Y-111936435D01*
X160363104Y-111932376D01*
X160309488Y-111899786D01*
X160278237Y-111845376D01*
X160277102Y-111782641D01*
X160306365Y-111727137D01*
X160358769Y-111692629D01*
X160542440Y-111629575D01*
X160551957Y-111625400D01*
X160740718Y-111523247D01*
X160749411Y-111517568D01*
X160918788Y-111385737D01*
X160926432Y-111378700D01*
X161071789Y-111220799D01*
X161078177Y-111212593D01*
X161195568Y-111032913D01*
X161200511Y-111023778D01*
X161286729Y-110827223D01*
X161290099Y-110817408D01*
X161333013Y-110647943D01*
X161333248Y-110636565D01*
X161322160Y-110634000D01*
X159872000Y-110634000D01*
X159809000Y-110617119D01*
X159762881Y-110571000D01*
X159746000Y-110508000D01*
X159746000Y-110109410D01*
X160254000Y-110109410D01*
X160257506Y-110122493D01*
X160270590Y-110126000D01*
X161322160Y-110126000D01*
X161333248Y-110123434D01*
X161333013Y-110112056D01*
X161290099Y-109942591D01*
X161286729Y-109932776D01*
X161200511Y-109736221D01*
X161195568Y-109727086D01*
X161078177Y-109547406D01*
X161071789Y-109539200D01*
X160926432Y-109381299D01*
X160918788Y-109374262D01*
X160749411Y-109242431D01*
X160740718Y-109236752D01*
X160711267Y-109220814D01*
X160662995Y-109174498D01*
X160645236Y-109110000D01*
X160662995Y-109045502D01*
X160711267Y-108999186D01*
X160740718Y-108983247D01*
X160749411Y-108977568D01*
X160918788Y-108845737D01*
X160926432Y-108838700D01*
X161071789Y-108680799D01*
X161078177Y-108672593D01*
X161195568Y-108492913D01*
X161200511Y-108483778D01*
X161286729Y-108287223D01*
X161290099Y-108277408D01*
X161333013Y-108107943D01*
X161333248Y-108096565D01*
X161322160Y-108094000D01*
X160270590Y-108094000D01*
X160257506Y-108097506D01*
X160254000Y-108110590D01*
X160254000Y-110109410D01*
X159746000Y-110109410D01*
X159746000Y-107569410D01*
X160254000Y-107569410D01*
X160257506Y-107582493D01*
X160270590Y-107586000D01*
X161322160Y-107586000D01*
X161333248Y-107583434D01*
X161333013Y-107572056D01*
X161290099Y-107402591D01*
X161286729Y-107392776D01*
X161200511Y-107196221D01*
X161195568Y-107187086D01*
X161078177Y-107007406D01*
X161071789Y-106999200D01*
X160926432Y-106841299D01*
X160918788Y-106834262D01*
X160749411Y-106702431D01*
X160740718Y-106696752D01*
X160711267Y-106680814D01*
X160662995Y-106634498D01*
X160645236Y-106570000D01*
X160662995Y-106505502D01*
X160711267Y-106459186D01*
X160740718Y-106443247D01*
X160749411Y-106437568D01*
X160918788Y-106305737D01*
X160926432Y-106298700D01*
X161071789Y-106140799D01*
X161078177Y-106132593D01*
X161195568Y-105952913D01*
X161200511Y-105943778D01*
X161286729Y-105747223D01*
X161290099Y-105737408D01*
X161333013Y-105567943D01*
X161333248Y-105556565D01*
X161322160Y-105554000D01*
X160270590Y-105554000D01*
X160257506Y-105557506D01*
X160254000Y-105570590D01*
X160254000Y-107569410D01*
X159746000Y-107569410D01*
X159746000Y-105029410D01*
X160254000Y-105029410D01*
X160257506Y-105042493D01*
X160270590Y-105046000D01*
X161322160Y-105046000D01*
X161333248Y-105043434D01*
X161333013Y-105032056D01*
X161290099Y-104862591D01*
X161286729Y-104852776D01*
X161200511Y-104656221D01*
X161195568Y-104647086D01*
X161078177Y-104467406D01*
X161071789Y-104459200D01*
X160926432Y-104301299D01*
X160918788Y-104294262D01*
X160749411Y-104162431D01*
X160740718Y-104156752D01*
X160551957Y-104054599D01*
X160542440Y-104050424D01*
X160339442Y-103980735D01*
X160329372Y-103978185D01*
X160267538Y-103967867D01*
X160256401Y-103968443D01*
X160254000Y-103979336D01*
X160254000Y-105029410D01*
X159746000Y-105029410D01*
X159746000Y-103979336D01*
X159743598Y-103968443D01*
X159732461Y-103967867D01*
X159670627Y-103978185D01*
X159660557Y-103980735D01*
X159457559Y-104050424D01*
X159448042Y-104054599D01*
X159259281Y-104156752D01*
X159250588Y-104162431D01*
X159081211Y-104294262D01*
X159073567Y-104301299D01*
X158928210Y-104459200D01*
X158921822Y-104467406D01*
X158804431Y-104647086D01*
X158799487Y-104656221D01*
X158751887Y-104764740D01*
X158708865Y-104817273D01*
X158644827Y-104839851D01*
X158578371Y-104825916D01*
X158528796Y-104779516D01*
X158510500Y-104714126D01*
X158510500Y-104436439D01*
X158510500Y-104430252D01*
X158498867Y-104371769D01*
X158454552Y-104305448D01*
X158437811Y-104294262D01*
X158398547Y-104268026D01*
X158398546Y-104268025D01*
X158388231Y-104261133D01*
X158329748Y-104249500D01*
X156590252Y-104249500D01*
X156584184Y-104250706D01*
X156584183Y-104250707D01*
X156543939Y-104258712D01*
X156543937Y-104258712D01*
X156531769Y-104261133D01*
X156521454Y-104268024D01*
X156521452Y-104268026D01*
X156475761Y-104298556D01*
X156475758Y-104298558D01*
X156465448Y-104305448D01*
X156458558Y-104315758D01*
X156458556Y-104315761D01*
X156428026Y-104361452D01*
X156428024Y-104361454D01*
X156421133Y-104371769D01*
X156409500Y-104430252D01*
X156409500Y-106169748D01*
X156421133Y-106228231D01*
X156465448Y-106294552D01*
X156531769Y-106338867D01*
X156590252Y-106350500D01*
X158323561Y-106350500D01*
X158329748Y-106350500D01*
X158388231Y-106338867D01*
X158454552Y-106294552D01*
X158498867Y-106228231D01*
X158510500Y-106169748D01*
X158510500Y-105885874D01*
X158528796Y-105820484D01*
X158578371Y-105774084D01*
X158644827Y-105760149D01*
X158708865Y-105782727D01*
X158751887Y-105835260D01*
X158799487Y-105943778D01*
X158804431Y-105952913D01*
X158921822Y-106132593D01*
X158928210Y-106140799D01*
X159073567Y-106298700D01*
X159081211Y-106305737D01*
X159250588Y-106437568D01*
X159259285Y-106443250D01*
X159288733Y-106459187D01*
X159337004Y-106505503D01*
X159354763Y-106570000D01*
X159337004Y-106634497D01*
X159288733Y-106680813D01*
X159259285Y-106696749D01*
X159250588Y-106702431D01*
X159081211Y-106834262D01*
X159073567Y-106841299D01*
X158928210Y-106999200D01*
X158921822Y-107007406D01*
X158804431Y-107187086D01*
X158799488Y-107196221D01*
X158713270Y-107392776D01*
X158709897Y-107402600D01*
X158691525Y-107475151D01*
X158660028Y-107531736D01*
X158604584Y-107565202D01*
X158539840Y-107566707D01*
X158482900Y-107535855D01*
X158448806Y-107480794D01*
X158437027Y-107441964D01*
X158435232Y-107436046D01*
X158415803Y-107399698D01*
X158340601Y-107259006D01*
X158337685Y-107253550D01*
X158206410Y-107093590D01*
X158046450Y-106962315D01*
X158040993Y-106959398D01*
X157869409Y-106867683D01*
X157869402Y-106867680D01*
X157863954Y-106864768D01*
X157858039Y-106862973D01*
X157858035Y-106862972D01*
X157671859Y-106806497D01*
X157671856Y-106806496D01*
X157665934Y-106804700D01*
X157659774Y-106804093D01*
X157659768Y-106804092D01*
X157466163Y-106785024D01*
X157460000Y-106784417D01*
X157453837Y-106785024D01*
X157260231Y-106804092D01*
X157260223Y-106804093D01*
X157254066Y-106804700D01*
X157248145Y-106806495D01*
X157248140Y-106806497D01*
X157061964Y-106862972D01*
X157061956Y-106862975D01*
X157056046Y-106864768D01*
X157050600Y-106867678D01*
X157050590Y-106867683D01*
X156879006Y-106959398D01*
X156879000Y-106959401D01*
X156873550Y-106962315D01*
X156868773Y-106966235D01*
X156868769Y-106966238D01*
X156718369Y-107089667D01*
X156718363Y-107089672D01*
X156713590Y-107093590D01*
X156709672Y-107098363D01*
X156709667Y-107098369D01*
X156586238Y-107248769D01*
X156586235Y-107248773D01*
X156582315Y-107253550D01*
X156579401Y-107259000D01*
X156579398Y-107259006D01*
X156487683Y-107430590D01*
X156487678Y-107430600D01*
X156484768Y-107436046D01*
X156482975Y-107441956D01*
X156482972Y-107441964D01*
X156426497Y-107628140D01*
X156426495Y-107628145D01*
X156424700Y-107634066D01*
X156424093Y-107640223D01*
X156424092Y-107640231D01*
X156414883Y-107733737D01*
X156404417Y-107840000D01*
X156405024Y-107846163D01*
X156424092Y-108039768D01*
X156424093Y-108039774D01*
X156424700Y-108045934D01*
X156426496Y-108051856D01*
X156426497Y-108051859D01*
X156482972Y-108238035D01*
X156482973Y-108238039D01*
X156484768Y-108243954D01*
X156487680Y-108249402D01*
X156487683Y-108249409D01*
X156579381Y-108420961D01*
X156582315Y-108426450D01*
X156586238Y-108431230D01*
X156699162Y-108568830D01*
X156713590Y-108586410D01*
X156873550Y-108717685D01*
X156918688Y-108741812D01*
X157050590Y-108812316D01*
X157050592Y-108812317D01*
X157056046Y-108815232D01*
X157254066Y-108875300D01*
X157460000Y-108895583D01*
X157665934Y-108875300D01*
X157863954Y-108815232D01*
X158046450Y-108717685D01*
X158206410Y-108586410D01*
X158337685Y-108426450D01*
X158435232Y-108243954D01*
X158448806Y-108199204D01*
X158482900Y-108144145D01*
X158539840Y-108113292D01*
X158604583Y-108114797D01*
X158660028Y-108148263D01*
X158691525Y-108204849D01*
X158709896Y-108277396D01*
X158713270Y-108287223D01*
X158799488Y-108483778D01*
X158804431Y-108492913D01*
X158921822Y-108672593D01*
X158928210Y-108680799D01*
X159073567Y-108838700D01*
X159081211Y-108845737D01*
X159250588Y-108977568D01*
X159259285Y-108983250D01*
X159288733Y-108999187D01*
X159337004Y-109045503D01*
X159354763Y-109110000D01*
X159337004Y-109174497D01*
X159288733Y-109220813D01*
X159259285Y-109236749D01*
X159250588Y-109242431D01*
X159081211Y-109374262D01*
X159073567Y-109381299D01*
X158928210Y-109539200D01*
X158921822Y-109547406D01*
X158804431Y-109727086D01*
X158799488Y-109736221D01*
X158713270Y-109932776D01*
X158709897Y-109942600D01*
X158691525Y-110015151D01*
X158660028Y-110071736D01*
X158604584Y-110105202D01*
X158539840Y-110106707D01*
X158482900Y-110075855D01*
X158448806Y-110020794D01*
X158437027Y-109981964D01*
X158435232Y-109976046D01*
X158337685Y-109793550D01*
X158206410Y-109633590D01*
X158046450Y-109502315D01*
X158040993Y-109499398D01*
X157869409Y-109407683D01*
X157869402Y-109407680D01*
X157863954Y-109404768D01*
X157858039Y-109402973D01*
X157858035Y-109402972D01*
X157671859Y-109346497D01*
X157671856Y-109346496D01*
X157665934Y-109344700D01*
X157659774Y-109344093D01*
X157659768Y-109344092D01*
X157466163Y-109325024D01*
X157460000Y-109324417D01*
X157453837Y-109325024D01*
X157260231Y-109344092D01*
X157260223Y-109344093D01*
X157254066Y-109344700D01*
X157248145Y-109346495D01*
X157248140Y-109346497D01*
X157061964Y-109402972D01*
X157061956Y-109402975D01*
X157056046Y-109404768D01*
X157050600Y-109407678D01*
X157050590Y-109407683D01*
X156879006Y-109499398D01*
X156879000Y-109499401D01*
X156873550Y-109502315D01*
X156868773Y-109506235D01*
X156868769Y-109506238D01*
X156718369Y-109629667D01*
X156718363Y-109629672D01*
X156713590Y-109633590D01*
X156709672Y-109638363D01*
X156709667Y-109638369D01*
X156586238Y-109788769D01*
X156586235Y-109788773D01*
X156582315Y-109793550D01*
X156579401Y-109799000D01*
X156579398Y-109799006D01*
X156487683Y-109970590D01*
X156487678Y-109970600D01*
X156484768Y-109976046D01*
X156482975Y-109981956D01*
X156482972Y-109981964D01*
X156426497Y-110168140D01*
X156426495Y-110168145D01*
X156424700Y-110174066D01*
X156424093Y-110180223D01*
X156424092Y-110180231D01*
X156405024Y-110373837D01*
X156404417Y-110380000D01*
X154950500Y-110380000D01*
X154950500Y-102842347D01*
X154960091Y-102794129D01*
X154987405Y-102753252D01*
X158753252Y-98987405D01*
X158794129Y-98960091D01*
X158842347Y-98950500D01*
X165673500Y-98950500D01*
X165736500Y-98967381D01*
X165782619Y-99013500D01*
X165799500Y-99076500D01*
X165799500Y-102042372D01*
X165799958Y-102046149D01*
X165799959Y-102046155D01*
X165813940Y-102161303D01*
X165813941Y-102161310D01*
X165814860Y-102168872D01*
X165817562Y-102175998D01*
X165817563Y-102176000D01*
X165872477Y-102320799D01*
X165872479Y-102320803D01*
X165875182Y-102327930D01*
X165971817Y-102467929D01*
X166099148Y-102580734D01*
X166249775Y-102659790D01*
X166414944Y-102700500D01*
X166511206Y-102700500D01*
X166559424Y-102710091D01*
X166600301Y-102737405D01*
X171262595Y-107399698D01*
X171289909Y-107440575D01*
X171299500Y-107488793D01*
X171299500Y-108307901D01*
X171292813Y-108348402D01*
X171273463Y-108384605D01*
X171230490Y-108440607D01*
X171230485Y-108440614D01*
X171225464Y-108447159D01*
X171222306Y-108454782D01*
X171222303Y-108454788D01*
X171171722Y-108576903D01*
X171164956Y-108593238D01*
X171163879Y-108601418D01*
X171163877Y-108601426D01*
X171153428Y-108680799D01*
X171144318Y-108750000D01*
X171145396Y-108758188D01*
X171163877Y-108898573D01*
X171163878Y-108898579D01*
X171164956Y-108906762D01*
X171168115Y-108914390D01*
X171168116Y-108914391D01*
X171222303Y-109045211D01*
X171222304Y-109045214D01*
X171225464Y-109052841D01*
X171230490Y-109059391D01*
X171269323Y-109110000D01*
X171321718Y-109178282D01*
X171447159Y-109274536D01*
X171593238Y-109335044D01*
X171671410Y-109345335D01*
X171710691Y-109357251D01*
X171744058Y-109381162D01*
X172698126Y-110335230D01*
X173590439Y-111227542D01*
X173621918Y-111280061D01*
X173624923Y-111341218D01*
X173598744Y-111396570D01*
X173549563Y-111433045D01*
X173454793Y-111472301D01*
X173454787Y-111472304D01*
X173447159Y-111475464D01*
X173440611Y-111480487D01*
X173440608Y-111480490D01*
X173328263Y-111566695D01*
X173328259Y-111566698D01*
X173321718Y-111571718D01*
X173316698Y-111578259D01*
X173316695Y-111578263D01*
X173230490Y-111690608D01*
X173230487Y-111690611D01*
X173225464Y-111697159D01*
X173222306Y-111704782D01*
X173222303Y-111704788D01*
X173168116Y-111835608D01*
X173164956Y-111843238D01*
X173163879Y-111851418D01*
X173163877Y-111851426D01*
X173146001Y-111987215D01*
X173144318Y-112000000D01*
X173145396Y-112008188D01*
X173145396Y-112008190D01*
X173157230Y-112098084D01*
X173151621Y-112155031D01*
X173121403Y-112203624D01*
X171412431Y-113912597D01*
X171371557Y-113939909D01*
X171323339Y-113949500D01*
X166051751Y-113949500D01*
X166048303Y-113949260D01*
X166042235Y-113947227D01*
X166030572Y-113947766D01*
X165995964Y-113949366D01*
X165990146Y-113949500D01*
X165972156Y-113949500D01*
X165966427Y-113950570D01*
X165965873Y-113950622D01*
X165960069Y-113951025D01*
X165941670Y-113951875D01*
X165941665Y-113951876D01*
X165930008Y-113952415D01*
X165919332Y-113957128D01*
X165911272Y-113959024D01*
X165908753Y-113959804D01*
X165901032Y-113962795D01*
X165889567Y-113964939D01*
X165879647Y-113971080D01*
X165879641Y-113971083D01*
X165866968Y-113978929D01*
X165851547Y-113987058D01*
X165837913Y-113993078D01*
X165837909Y-113993080D01*
X165827235Y-113997794D01*
X165818981Y-114006046D01*
X165812154Y-114010724D01*
X165810084Y-114012364D01*
X165803972Y-114017935D01*
X165794048Y-114024081D01*
X165787013Y-114033395D01*
X165787010Y-114033399D01*
X165778029Y-114045291D01*
X165766577Y-114058450D01*
X165453624Y-114371403D01*
X165405031Y-114401621D01*
X165348084Y-114407230D01*
X165258190Y-114395396D01*
X165258188Y-114395396D01*
X165250000Y-114394318D01*
X165241812Y-114395396D01*
X165101426Y-114413877D01*
X165101418Y-114413879D01*
X165093238Y-114414956D01*
X165085611Y-114418115D01*
X165085608Y-114418116D01*
X164954788Y-114472303D01*
X164954782Y-114472306D01*
X164947159Y-114475464D01*
X164940611Y-114480487D01*
X164940608Y-114480490D01*
X164828263Y-114566695D01*
X164828259Y-114566698D01*
X164821718Y-114571718D01*
X164816698Y-114578259D01*
X164816695Y-114578263D01*
X164730490Y-114690608D01*
X164730487Y-114690611D01*
X164725464Y-114697159D01*
X164722306Y-114704782D01*
X164722303Y-114704788D01*
X164668116Y-114835608D01*
X164664956Y-114843238D01*
X164663879Y-114851418D01*
X164663877Y-114851426D01*
X164646001Y-114987215D01*
X164644318Y-115000000D01*
X164645396Y-115008188D01*
X164663877Y-115148573D01*
X164663878Y-115148579D01*
X164664956Y-115156762D01*
X164668115Y-115164390D01*
X164668116Y-115164391D01*
X164722303Y-115295211D01*
X164722304Y-115295214D01*
X164725464Y-115302841D01*
X164730490Y-115309391D01*
X164788203Y-115384605D01*
X164821718Y-115428282D01*
X164856261Y-115454788D01*
X164900204Y-115488506D01*
X164936506Y-115532740D01*
X164949500Y-115588469D01*
X164949500Y-124911531D01*
X164936506Y-124967260D01*
X164900204Y-125011494D01*
X164828263Y-125066695D01*
X164828259Y-125066698D01*
X164821718Y-125071718D01*
X164816698Y-125078259D01*
X164816695Y-125078263D01*
X164730490Y-125190608D01*
X164730487Y-125190611D01*
X164725464Y-125197159D01*
X164722306Y-125204782D01*
X164722303Y-125204788D01*
X164668116Y-125335608D01*
X164664956Y-125343238D01*
X164663879Y-125351418D01*
X164663877Y-125351426D01*
X164646001Y-125487215D01*
X164644318Y-125500000D01*
X164645396Y-125508188D01*
X164663877Y-125648573D01*
X164663878Y-125648579D01*
X164664956Y-125656762D01*
X164668115Y-125664390D01*
X164668116Y-125664391D01*
X164722303Y-125795211D01*
X164722304Y-125795214D01*
X164725464Y-125802841D01*
X164821718Y-125928282D01*
X164947159Y-126024536D01*
X165093238Y-126085044D01*
X165250000Y-126105682D01*
X165406762Y-126085044D01*
X165552841Y-126024536D01*
X165678282Y-125928282D01*
X165774536Y-125802841D01*
X165835044Y-125656762D01*
X165855682Y-125500000D01*
X165835044Y-125343238D01*
X165774536Y-125197159D01*
X165678282Y-125071718D01*
X165599795Y-125011493D01*
X165563494Y-124967260D01*
X165550500Y-124911531D01*
X165550500Y-120000000D01*
X166544357Y-120000000D01*
X166564885Y-120221536D01*
X166625771Y-120435528D01*
X166724942Y-120634689D01*
X166728452Y-120639337D01*
X166855506Y-120807585D01*
X166855510Y-120807589D01*
X166859019Y-120812236D01*
X166863321Y-120816158D01*
X166863324Y-120816161D01*
X166959428Y-120903771D01*
X167023438Y-120962124D01*
X167212599Y-121079247D01*
X167420060Y-121159618D01*
X167638757Y-121200500D01*
X167855416Y-121200500D01*
X167861243Y-121200500D01*
X168079940Y-121159618D01*
X168287401Y-121079247D01*
X168476562Y-120962124D01*
X168640981Y-120812236D01*
X168775058Y-120634689D01*
X168874229Y-120435528D01*
X168935115Y-120221536D01*
X168955643Y-120000000D01*
X168935115Y-119778464D01*
X168874229Y-119564472D01*
X168775058Y-119365311D01*
X168640981Y-119187764D01*
X168636677Y-119183841D01*
X168636675Y-119183838D01*
X168522371Y-119079637D01*
X168476562Y-119037876D01*
X168287401Y-118920753D01*
X168255129Y-118908251D01*
X168085375Y-118842487D01*
X168085369Y-118842485D01*
X168079940Y-118840382D01*
X168074220Y-118839312D01*
X168074214Y-118839311D01*
X167866967Y-118800570D01*
X167866966Y-118800569D01*
X167861243Y-118799500D01*
X167638757Y-118799500D01*
X167633034Y-118800569D01*
X167633032Y-118800570D01*
X167425785Y-118839311D01*
X167425776Y-118839313D01*
X167420060Y-118840382D01*
X167414632Y-118842484D01*
X167414624Y-118842487D01*
X167218037Y-118918646D01*
X167218034Y-118918647D01*
X167212599Y-118920753D01*
X167207643Y-118923821D01*
X167207638Y-118923824D01*
X167030502Y-119033502D01*
X167023438Y-119037876D01*
X167019139Y-119041794D01*
X167019135Y-119041798D01*
X166863324Y-119183838D01*
X166863316Y-119183846D01*
X166859019Y-119187764D01*
X166855514Y-119192404D01*
X166855506Y-119192414D01*
X166728452Y-119360662D01*
X166728448Y-119360667D01*
X166724942Y-119365311D01*
X166722347Y-119370521D01*
X166722344Y-119370527D01*
X166628368Y-119559255D01*
X166628365Y-119559261D01*
X166625771Y-119564472D01*
X166564885Y-119778464D01*
X166564348Y-119784256D01*
X166564348Y-119784258D01*
X166549104Y-119948769D01*
X166544357Y-120000000D01*
X165550500Y-120000000D01*
X165550500Y-115588469D01*
X165563494Y-115532740D01*
X165599796Y-115488506D01*
X165628914Y-115466163D01*
X165678282Y-115428282D01*
X165774536Y-115302841D01*
X165835044Y-115156762D01*
X165855682Y-115000000D01*
X165842769Y-114901915D01*
X165848378Y-114844968D01*
X165878596Y-114796374D01*
X166087567Y-114587404D01*
X166128444Y-114560091D01*
X166176662Y-114550500D01*
X171448249Y-114550500D01*
X171451696Y-114550739D01*
X171457765Y-114552773D01*
X171504036Y-114550633D01*
X171509854Y-114550500D01*
X171522014Y-114550500D01*
X171527844Y-114550500D01*
X171533579Y-114549426D01*
X171534097Y-114549379D01*
X171539910Y-114548974D01*
X171569992Y-114547585D01*
X171580673Y-114542868D01*
X171588754Y-114540968D01*
X171591197Y-114540211D01*
X171598950Y-114537207D01*
X171610433Y-114535061D01*
X171633027Y-114521071D01*
X171648449Y-114512942D01*
X171672765Y-114502206D01*
X171681023Y-114493946D01*
X171687883Y-114489248D01*
X171689890Y-114487657D01*
X171696022Y-114482066D01*
X171705952Y-114475919D01*
X171721968Y-114454708D01*
X171733415Y-114441554D01*
X173546376Y-112628594D01*
X173594968Y-112598378D01*
X173651915Y-112592769D01*
X173741812Y-112604604D01*
X173750000Y-112605682D01*
X173906762Y-112585044D01*
X174052841Y-112524536D01*
X174178282Y-112428282D01*
X174274536Y-112302841D01*
X174335044Y-112156762D01*
X174355682Y-112000000D01*
X174335044Y-111843238D01*
X174274536Y-111697159D01*
X174269509Y-111690608D01*
X174269506Y-111690602D01*
X174240809Y-111653204D01*
X174215378Y-111588850D01*
X174227765Y-111520772D01*
X174274234Y-111469501D01*
X174340771Y-111450500D01*
X175423500Y-111450500D01*
X175486500Y-111467381D01*
X175532619Y-111513500D01*
X175549500Y-111576500D01*
X175549500Y-115307901D01*
X175542813Y-115348402D01*
X175523463Y-115384605D01*
X175480490Y-115440607D01*
X175480485Y-115440614D01*
X175475464Y-115447159D01*
X175472306Y-115454782D01*
X175472303Y-115454788D01*
X175418116Y-115585608D01*
X175414956Y-115593238D01*
X175413879Y-115601418D01*
X175413877Y-115601426D01*
X175404605Y-115671859D01*
X175394318Y-115750000D01*
X175395396Y-115758188D01*
X175413877Y-115898573D01*
X175413878Y-115898579D01*
X175414956Y-115906762D01*
X175418115Y-115914390D01*
X175418116Y-115914391D01*
X175472303Y-116045211D01*
X175472304Y-116045214D01*
X175475464Y-116052841D01*
X175571718Y-116178282D01*
X175697159Y-116274536D01*
X175843238Y-116335044D01*
X175921410Y-116345335D01*
X175960691Y-116357251D01*
X175994058Y-116381162D01*
X182762595Y-123149698D01*
X182789909Y-123190575D01*
X182799500Y-123238793D01*
X182799500Y-124780821D01*
X182781574Y-124845598D01*
X182732896Y-124891942D01*
X182691462Y-124914090D01*
X182686683Y-124918011D01*
X182686677Y-124918016D01*
X182543896Y-125035194D01*
X182543890Y-125035199D01*
X182539117Y-125039117D01*
X182535199Y-125043890D01*
X182535194Y-125043896D01*
X182418016Y-125186677D01*
X182418011Y-125186683D01*
X182414090Y-125191462D01*
X182411172Y-125196920D01*
X182411172Y-125196921D01*
X182361122Y-125290558D01*
X182314777Y-125339236D01*
X182250000Y-125357162D01*
X182185223Y-125339236D01*
X182138878Y-125290558D01*
X182136948Y-125286948D01*
X182085910Y-125191462D01*
X181960883Y-125039117D01*
X181948274Y-125028769D01*
X181813322Y-124918016D01*
X181813321Y-124918015D01*
X181808538Y-124914090D01*
X181680399Y-124845598D01*
X181640185Y-124824103D01*
X181640181Y-124824101D01*
X181634727Y-124821186D01*
X181628807Y-124819390D01*
X181628802Y-124819388D01*
X181452061Y-124765774D01*
X181452055Y-124765772D01*
X181446132Y-124763976D01*
X181439973Y-124763369D01*
X181439966Y-124763368D01*
X181256163Y-124745266D01*
X181250000Y-124744659D01*
X181243837Y-124745266D01*
X181060033Y-124763368D01*
X181060024Y-124763369D01*
X181053868Y-124763976D01*
X181047946Y-124765772D01*
X181047938Y-124765774D01*
X180871197Y-124819388D01*
X180871188Y-124819391D01*
X180865273Y-124821186D01*
X180859821Y-124824099D01*
X180859814Y-124824103D01*
X180732896Y-124891943D01*
X180691462Y-124914090D01*
X180686683Y-124918011D01*
X180686677Y-124918016D01*
X180543896Y-125035194D01*
X180543890Y-125035199D01*
X180539117Y-125039117D01*
X180535199Y-125043890D01*
X180535194Y-125043896D01*
X180418016Y-125186677D01*
X180418011Y-125186683D01*
X180414090Y-125191462D01*
X180411172Y-125196920D01*
X180411172Y-125196921D01*
X180361122Y-125290558D01*
X180314777Y-125339236D01*
X180250000Y-125357162D01*
X180185223Y-125339236D01*
X180138878Y-125290558D01*
X180136948Y-125286948D01*
X180085910Y-125191462D01*
X179960883Y-125039117D01*
X179948274Y-125028769D01*
X179813322Y-124918016D01*
X179813321Y-124918015D01*
X179808538Y-124914090D01*
X179680399Y-124845598D01*
X179640185Y-124824103D01*
X179640181Y-124824101D01*
X179634727Y-124821186D01*
X179628807Y-124819390D01*
X179628802Y-124819388D01*
X179452061Y-124765774D01*
X179452055Y-124765772D01*
X179446132Y-124763976D01*
X179439973Y-124763369D01*
X179439966Y-124763368D01*
X179256163Y-124745266D01*
X179250000Y-124744659D01*
X179243837Y-124745266D01*
X179060033Y-124763368D01*
X179060024Y-124763369D01*
X179053868Y-124763976D01*
X179047946Y-124765772D01*
X179047938Y-124765774D01*
X178871197Y-124819388D01*
X178871188Y-124819391D01*
X178865273Y-124821186D01*
X178859821Y-124824099D01*
X178859814Y-124824103D01*
X178732896Y-124891943D01*
X178691462Y-124914090D01*
X178686683Y-124918011D01*
X178686677Y-124918016D01*
X178543896Y-125035194D01*
X178543890Y-125035199D01*
X178539117Y-125039117D01*
X178535199Y-125043890D01*
X178535194Y-125043896D01*
X178418016Y-125186677D01*
X178418011Y-125186683D01*
X178414090Y-125191462D01*
X178411172Y-125196920D01*
X178411172Y-125196921D01*
X178361122Y-125290558D01*
X178314777Y-125339236D01*
X178250000Y-125357162D01*
X178185223Y-125339236D01*
X178138878Y-125290558D01*
X178136948Y-125286948D01*
X178085910Y-125191462D01*
X177960883Y-125039117D01*
X177948274Y-125028769D01*
X177813322Y-124918016D01*
X177813321Y-124918015D01*
X177808538Y-124914090D01*
X177680399Y-124845598D01*
X177640185Y-124824103D01*
X177640181Y-124824101D01*
X177634727Y-124821186D01*
X177628807Y-124819390D01*
X177628802Y-124819388D01*
X177452061Y-124765774D01*
X177452055Y-124765772D01*
X177446132Y-124763976D01*
X177439973Y-124763369D01*
X177439966Y-124763368D01*
X177256163Y-124745266D01*
X177250000Y-124744659D01*
X177243837Y-124745266D01*
X177060033Y-124763368D01*
X177060024Y-124763369D01*
X177053868Y-124763976D01*
X177047946Y-124765772D01*
X177047938Y-124765774D01*
X176871197Y-124819388D01*
X176871188Y-124819391D01*
X176865273Y-124821186D01*
X176859821Y-124824099D01*
X176859814Y-124824103D01*
X176732896Y-124891943D01*
X176691462Y-124914090D01*
X176686683Y-124918011D01*
X176686677Y-124918016D01*
X176543896Y-125035194D01*
X176543890Y-125035199D01*
X176539117Y-125039117D01*
X176535199Y-125043890D01*
X176535194Y-125043896D01*
X176418016Y-125186677D01*
X176418011Y-125186683D01*
X176414090Y-125191462D01*
X176411172Y-125196920D01*
X176411172Y-125196921D01*
X176361122Y-125290558D01*
X176314777Y-125339236D01*
X176250000Y-125357162D01*
X176185223Y-125339236D01*
X176138878Y-125290558D01*
X176136948Y-125286948D01*
X176085910Y-125191462D01*
X175960883Y-125039117D01*
X175948274Y-125028769D01*
X175813322Y-124918016D01*
X175813321Y-124918015D01*
X175808538Y-124914090D01*
X175680399Y-124845598D01*
X175640185Y-124824103D01*
X175640181Y-124824101D01*
X175634727Y-124821186D01*
X175628807Y-124819390D01*
X175628802Y-124819388D01*
X175452061Y-124765774D01*
X175452055Y-124765772D01*
X175446132Y-124763976D01*
X175439973Y-124763369D01*
X175439966Y-124763368D01*
X175256163Y-124745266D01*
X175250000Y-124744659D01*
X175243837Y-124745266D01*
X175060033Y-124763368D01*
X175060024Y-124763369D01*
X175053868Y-124763976D01*
X175047946Y-124765772D01*
X175047938Y-124765774D01*
X174871197Y-124819388D01*
X174871188Y-124819391D01*
X174865273Y-124821186D01*
X174859821Y-124824099D01*
X174859814Y-124824103D01*
X174732896Y-124891943D01*
X174691462Y-124914090D01*
X174686683Y-124918011D01*
X174686677Y-124918016D01*
X174543896Y-125035194D01*
X174543890Y-125035199D01*
X174539117Y-125039117D01*
X174535199Y-125043890D01*
X174535194Y-125043896D01*
X174418016Y-125186677D01*
X174418011Y-125186683D01*
X174414090Y-125191462D01*
X174411172Y-125196920D01*
X174411172Y-125196921D01*
X174324103Y-125359814D01*
X174324099Y-125359821D01*
X174321186Y-125365273D01*
X174319391Y-125371188D01*
X174319388Y-125371197D01*
X174265774Y-125547938D01*
X174265772Y-125547946D01*
X174263976Y-125553868D01*
X174263369Y-125560024D01*
X174263368Y-125560033D01*
X174250000Y-125695771D01*
X174244659Y-125750000D01*
X174245266Y-125756163D01*
X174263368Y-125939966D01*
X174263369Y-125939973D01*
X174263976Y-125946132D01*
X174265772Y-125952055D01*
X174265774Y-125952061D01*
X174319388Y-126128802D01*
X174319390Y-126128807D01*
X174321186Y-126134727D01*
X174324101Y-126140181D01*
X174324103Y-126140185D01*
X174362078Y-126211230D01*
X174414090Y-126308538D01*
X174418015Y-126313321D01*
X174418016Y-126313322D01*
X174464803Y-126370332D01*
X174539117Y-126460883D01*
X174691462Y-126585910D01*
X174865273Y-126678814D01*
X175053868Y-126736024D01*
X175250000Y-126755341D01*
X175446132Y-126736024D01*
X175634727Y-126678814D01*
X175808538Y-126585910D01*
X175960883Y-126460883D01*
X176085910Y-126308538D01*
X176138879Y-126209439D01*
X176185223Y-126160763D01*
X176250000Y-126142837D01*
X176314777Y-126160763D01*
X176361122Y-126209441D01*
X176411171Y-126303078D01*
X176414090Y-126308538D01*
X176418015Y-126313321D01*
X176418016Y-126313322D01*
X176464803Y-126370332D01*
X176539117Y-126460883D01*
X176691462Y-126585910D01*
X176865273Y-126678814D01*
X177053868Y-126736024D01*
X177250000Y-126755341D01*
X177446132Y-126736024D01*
X177634727Y-126678814D01*
X177808538Y-126585910D01*
X177960883Y-126460883D01*
X178085910Y-126308538D01*
X178138879Y-126209439D01*
X178185223Y-126160763D01*
X178250000Y-126142837D01*
X178314777Y-126160763D01*
X178361122Y-126209441D01*
X178411171Y-126303078D01*
X178414090Y-126308538D01*
X178418015Y-126313321D01*
X178418016Y-126313322D01*
X178464803Y-126370332D01*
X178539117Y-126460883D01*
X178691462Y-126585910D01*
X178865273Y-126678814D01*
X179053868Y-126736024D01*
X179250000Y-126755341D01*
X179446132Y-126736024D01*
X179634727Y-126678814D01*
X179808538Y-126585910D01*
X179960883Y-126460883D01*
X180085910Y-126308538D01*
X180138879Y-126209439D01*
X180185223Y-126160763D01*
X180250000Y-126142837D01*
X180314777Y-126160763D01*
X180361122Y-126209441D01*
X180411171Y-126303078D01*
X180414090Y-126308538D01*
X180418015Y-126313321D01*
X180418016Y-126313322D01*
X180464803Y-126370332D01*
X180539117Y-126460883D01*
X180691462Y-126585910D01*
X180865273Y-126678814D01*
X181053868Y-126736024D01*
X181250000Y-126755341D01*
X181446132Y-126736024D01*
X181634727Y-126678814D01*
X181808538Y-126585910D01*
X181960883Y-126460883D01*
X182085910Y-126308538D01*
X182138879Y-126209439D01*
X182185223Y-126160763D01*
X182250000Y-126142837D01*
X182314777Y-126160763D01*
X182361122Y-126209441D01*
X182411171Y-126303078D01*
X182414090Y-126308538D01*
X182418015Y-126313321D01*
X182418016Y-126313322D01*
X182464803Y-126370332D01*
X182539117Y-126460883D01*
X182691462Y-126585910D01*
X182732896Y-126608057D01*
X182781574Y-126654402D01*
X182799500Y-126719179D01*
X182799500Y-129511206D01*
X182789909Y-129559424D01*
X182762595Y-129600302D01*
X182354337Y-130008558D01*
X182343810Y-130017966D01*
X182316030Y-130040121D01*
X182310714Y-130047917D01*
X182310710Y-130047922D01*
X182283840Y-130087332D01*
X182281117Y-130091170D01*
X182252810Y-130129524D01*
X182252806Y-130129531D01*
X182247207Y-130137118D01*
X182244370Y-130145224D01*
X182239528Y-130152327D01*
X182236748Y-130161337D01*
X182236747Y-130161341D01*
X182222690Y-130206914D01*
X182221218Y-130211387D01*
X182205470Y-130256392D01*
X182205468Y-130256400D01*
X182202354Y-130265301D01*
X182202032Y-130273886D01*
X182199500Y-130282098D01*
X182199500Y-130291534D01*
X182199500Y-130339215D01*
X182199412Y-130343925D01*
X182197276Y-130401010D01*
X182199077Y-130407733D01*
X182199500Y-130415257D01*
X182199500Y-133628891D01*
X182198707Y-133642998D01*
X182194730Y-133678305D01*
X182205352Y-133734447D01*
X182206135Y-133739053D01*
X182213245Y-133786226D01*
X182213246Y-133786229D01*
X182214652Y-133795557D01*
X182218379Y-133803296D01*
X182219977Y-133811742D01*
X182224387Y-133820087D01*
X182224388Y-133820088D01*
X182246674Y-133862255D01*
X182248797Y-133866460D01*
X182268395Y-133907157D01*
X182273575Y-133917912D01*
X182279417Y-133924209D01*
X182283434Y-133931808D01*
X182290113Y-133938486D01*
X182290113Y-133938487D01*
X182323819Y-133972193D01*
X182327065Y-133975561D01*
X182365945Y-134017464D01*
X182371974Y-134020944D01*
X182377587Y-134025961D01*
X183012595Y-134660968D01*
X183039909Y-134701846D01*
X183049500Y-134750064D01*
X183049500Y-139630746D01*
X183031835Y-139695085D01*
X182983793Y-139741384D01*
X182918844Y-139756660D01*
X182855202Y-139736630D01*
X182810710Y-139686910D01*
X182782743Y-139630746D01*
X182775058Y-139615311D01*
X182640981Y-139437764D01*
X182636677Y-139433841D01*
X182636675Y-139433838D01*
X182480864Y-139291798D01*
X182480865Y-139291798D01*
X182476562Y-139287876D01*
X182287401Y-139170753D01*
X182255129Y-139158251D01*
X182085375Y-139092487D01*
X182085369Y-139092485D01*
X182079940Y-139090382D01*
X182074220Y-139089312D01*
X182074214Y-139089311D01*
X181866967Y-139050570D01*
X181866966Y-139050569D01*
X181861243Y-139049500D01*
X181638757Y-139049500D01*
X181633034Y-139050569D01*
X181633032Y-139050570D01*
X181425785Y-139089311D01*
X181425776Y-139089313D01*
X181420060Y-139090382D01*
X181414632Y-139092484D01*
X181414624Y-139092487D01*
X181218037Y-139168646D01*
X181218034Y-139168647D01*
X181212599Y-139170753D01*
X181207643Y-139173821D01*
X181207638Y-139173824D01*
X181028391Y-139284809D01*
X181023438Y-139287876D01*
X181019139Y-139291794D01*
X181019135Y-139291798D01*
X180863324Y-139433838D01*
X180863316Y-139433846D01*
X180859019Y-139437764D01*
X180855512Y-139442406D01*
X180855510Y-139442410D01*
X180783755Y-139537429D01*
X180736615Y-139575616D01*
X180677095Y-139587348D01*
X180618990Y-139569905D01*
X180575772Y-139527331D01*
X180490565Y-139388286D01*
X180482619Y-139380183D01*
X180473000Y-139386208D01*
X179620938Y-140238271D01*
X179614167Y-140249999D01*
X179620939Y-140261729D01*
X180472997Y-141113787D01*
X180482619Y-141119814D01*
X180490565Y-141111710D01*
X180575772Y-140972667D01*
X180618991Y-140930093D01*
X180677095Y-140912650D01*
X180736616Y-140924383D01*
X180783755Y-140962570D01*
X180855506Y-141057585D01*
X180855510Y-141057589D01*
X180859019Y-141062236D01*
X180863321Y-141066158D01*
X180863324Y-141066161D01*
X180915572Y-141113791D01*
X181023438Y-141212124D01*
X181212599Y-141329247D01*
X181420060Y-141409618D01*
X181638757Y-141450500D01*
X181855416Y-141450500D01*
X181861243Y-141450500D01*
X182079940Y-141409618D01*
X182287401Y-141329247D01*
X182476562Y-141212124D01*
X182640981Y-141062236D01*
X182775058Y-140884689D01*
X182810710Y-140813089D01*
X182855202Y-140763370D01*
X182918844Y-140743340D01*
X182983793Y-140758616D01*
X183031835Y-140804915D01*
X183049500Y-140869254D01*
X183049500Y-143807901D01*
X183042813Y-143848402D01*
X183023463Y-143884605D01*
X182980490Y-143940607D01*
X182980485Y-143940614D01*
X182975464Y-143947159D01*
X182972306Y-143954782D01*
X182972303Y-143954788D01*
X182918116Y-144085608D01*
X182914956Y-144093238D01*
X182913879Y-144101418D01*
X182913877Y-144101426D01*
X182896001Y-144237215D01*
X182894318Y-144250000D01*
X182895396Y-144258188D01*
X182913877Y-144398573D01*
X182913878Y-144398579D01*
X182914956Y-144406762D01*
X182918115Y-144414390D01*
X182918116Y-144414391D01*
X182972303Y-144545211D01*
X182972304Y-144545214D01*
X182975464Y-144552841D01*
X183071718Y-144678282D01*
X183197159Y-144774536D01*
X183343238Y-144835044D01*
X183500000Y-144855682D01*
X183656762Y-144835044D01*
X183802841Y-144774536D01*
X183928282Y-144678282D01*
X184024536Y-144552841D01*
X184085044Y-144406762D01*
X184105682Y-144250000D01*
X184085044Y-144093238D01*
X184024536Y-143947159D01*
X184019510Y-143940609D01*
X184019509Y-143940607D01*
X183976537Y-143884605D01*
X183957187Y-143848402D01*
X183950500Y-143807901D01*
X183950500Y-134677733D01*
X183964852Y-134619331D01*
X184004639Y-134574234D01*
X184060797Y-134552715D01*
X184120529Y-134559676D01*
X184299077Y-134626271D01*
X184571706Y-134685578D01*
X184850000Y-134705482D01*
X185128294Y-134685578D01*
X185400923Y-134626271D01*
X185662337Y-134528769D01*
X185907213Y-134395056D01*
X186100986Y-134250000D01*
X195469435Y-134250000D01*
X195470227Y-134257029D01*
X195485474Y-134392356D01*
X195489632Y-134429255D01*
X195491967Y-134435928D01*
X195491968Y-134435932D01*
X195546873Y-134592842D01*
X195546875Y-134592846D01*
X195549211Y-134599522D01*
X195552973Y-134605510D01*
X195552975Y-134605513D01*
X195627687Y-134724417D01*
X195645184Y-134752262D01*
X195772738Y-134879816D01*
X195778732Y-134883582D01*
X195778733Y-134883583D01*
X195808545Y-134902315D01*
X195925478Y-134975789D01*
X196095745Y-135035368D01*
X196230046Y-135050500D01*
X196866418Y-135050500D01*
X196869954Y-135050500D01*
X197004255Y-135035368D01*
X197174522Y-134975789D01*
X197327262Y-134879816D01*
X197454816Y-134752262D01*
X197550789Y-134599522D01*
X197610368Y-134429255D01*
X197630565Y-134250000D01*
X197610368Y-134070745D01*
X197550789Y-133900478D01*
X197494559Y-133810988D01*
X197458583Y-133753733D01*
X197458582Y-133753732D01*
X197454816Y-133747738D01*
X197327262Y-133620184D01*
X197321268Y-133616418D01*
X197321266Y-133616416D01*
X197180513Y-133527975D01*
X197180510Y-133527973D01*
X197174522Y-133524211D01*
X197167846Y-133521875D01*
X197167842Y-133521873D01*
X197010932Y-133466968D01*
X197010928Y-133466967D01*
X197004255Y-133464632D01*
X196997226Y-133463840D01*
X196873466Y-133449895D01*
X196873453Y-133449894D01*
X196869954Y-133449500D01*
X196230046Y-133449500D01*
X196226547Y-133449894D01*
X196226533Y-133449895D01*
X196102773Y-133463840D01*
X196102771Y-133463840D01*
X196095745Y-133464632D01*
X196089073Y-133466966D01*
X196089067Y-133466968D01*
X195932157Y-133521873D01*
X195932150Y-133521876D01*
X195925478Y-133524211D01*
X195919492Y-133527971D01*
X195919486Y-133527975D01*
X195778733Y-133616416D01*
X195778726Y-133616421D01*
X195772738Y-133620184D01*
X195767733Y-133625188D01*
X195767729Y-133625192D01*
X195650192Y-133742729D01*
X195650188Y-133742733D01*
X195645184Y-133747738D01*
X195641421Y-133753726D01*
X195641416Y-133753733D01*
X195552975Y-133894486D01*
X195552971Y-133894492D01*
X195549211Y-133900478D01*
X195546876Y-133907150D01*
X195546873Y-133907157D01*
X195491968Y-134064067D01*
X195491966Y-134064073D01*
X195489632Y-134070745D01*
X195488840Y-134077769D01*
X195488840Y-134077772D01*
X195473681Y-134212316D01*
X195469435Y-134250000D01*
X186100986Y-134250000D01*
X186130568Y-134227855D01*
X186327855Y-134030568D01*
X186495056Y-133807213D01*
X186628769Y-133562337D01*
X186726271Y-133300923D01*
X186785578Y-133028294D01*
X186805482Y-132750000D01*
X186798635Y-132654266D01*
X195474500Y-132654266D01*
X195474774Y-132657195D01*
X195474775Y-132657201D01*
X195476638Y-132677066D01*
X195477354Y-132684699D01*
X195522207Y-132812882D01*
X195527812Y-132820477D01*
X195527814Y-132820480D01*
X195543670Y-132841964D01*
X195602850Y-132922150D01*
X195712118Y-133002793D01*
X195840301Y-133047646D01*
X195870734Y-133050500D01*
X197226313Y-133050500D01*
X197229266Y-133050500D01*
X197259699Y-133047646D01*
X197387882Y-133002793D01*
X197497150Y-132922150D01*
X197577793Y-132812882D01*
X197622646Y-132684699D01*
X197625500Y-132654266D01*
X197625500Y-131845734D01*
X197622646Y-131815301D01*
X197577793Y-131687118D01*
X197497150Y-131577850D01*
X197484281Y-131568352D01*
X197395480Y-131502814D01*
X197395477Y-131502812D01*
X197387882Y-131497207D01*
X197259699Y-131452354D01*
X197252067Y-131451638D01*
X197252066Y-131451638D01*
X197232201Y-131449775D01*
X197232195Y-131449774D01*
X197229266Y-131449500D01*
X195870734Y-131449500D01*
X195867805Y-131449774D01*
X195867798Y-131449775D01*
X195847933Y-131451638D01*
X195847930Y-131451638D01*
X195840301Y-131452354D01*
X195833063Y-131454886D01*
X195833061Y-131454887D01*
X195721034Y-131494087D01*
X195712118Y-131497207D01*
X195704525Y-131502810D01*
X195704519Y-131502814D01*
X195610442Y-131572246D01*
X195610438Y-131572249D01*
X195602850Y-131577850D01*
X195597249Y-131585438D01*
X195597246Y-131585442D01*
X195527814Y-131679519D01*
X195527810Y-131679525D01*
X195522207Y-131687118D01*
X195519087Y-131696033D01*
X195519087Y-131696034D01*
X195498463Y-131754976D01*
X195477354Y-131815301D01*
X195474500Y-131845734D01*
X195474500Y-132654266D01*
X186798635Y-132654266D01*
X186785578Y-132471706D01*
X186726271Y-132199077D01*
X186628769Y-131937663D01*
X186495056Y-131692787D01*
X186327855Y-131469432D01*
X186130568Y-131272145D01*
X185913178Y-131109409D01*
X185910819Y-131107643D01*
X185910815Y-131107640D01*
X185907213Y-131104944D01*
X185879531Y-131089828D01*
X185666290Y-130973389D01*
X185666284Y-130973386D01*
X185662337Y-130971231D01*
X185658128Y-130969661D01*
X185658119Y-130969657D01*
X185405143Y-130875303D01*
X185400923Y-130873729D01*
X185396520Y-130872771D01*
X185396516Y-130872770D01*
X185132698Y-130815380D01*
X185132697Y-130815379D01*
X185128294Y-130814422D01*
X185123812Y-130814101D01*
X185123802Y-130814100D01*
X184854488Y-130794839D01*
X184850000Y-130794518D01*
X184845512Y-130794839D01*
X184576197Y-130814100D01*
X184576185Y-130814101D01*
X184571706Y-130814422D01*
X184567304Y-130815379D01*
X184567301Y-130815380D01*
X184303483Y-130872770D01*
X184303476Y-130872772D01*
X184299077Y-130873729D01*
X184294860Y-130875301D01*
X184294856Y-130875303D01*
X184041880Y-130969657D01*
X184041866Y-130969663D01*
X184037663Y-130971231D01*
X184033720Y-130973383D01*
X184033709Y-130973389D01*
X183796740Y-131102785D01*
X183796734Y-131102788D01*
X183792787Y-131104944D01*
X183789190Y-131107635D01*
X183789180Y-131107643D01*
X183573035Y-131269447D01*
X183573027Y-131269453D01*
X183569432Y-131272145D01*
X183566253Y-131275323D01*
X183566246Y-131275330D01*
X183375330Y-131466246D01*
X183375323Y-131466253D01*
X183372145Y-131469432D01*
X183369453Y-131473027D01*
X183369447Y-131473035D01*
X183327368Y-131529247D01*
X183278842Y-131568352D01*
X183217511Y-131579417D01*
X183158379Y-131559736D01*
X183115912Y-131514123D01*
X183100500Y-131453738D01*
X183100500Y-130588795D01*
X183110091Y-130540577D01*
X183137404Y-130499700D01*
X183341057Y-130296046D01*
X183545665Y-130091436D01*
X183556182Y-130082038D01*
X183583970Y-130059879D01*
X183616191Y-130012618D01*
X183618837Y-130008888D01*
X183652793Y-129962882D01*
X183655629Y-129954775D01*
X183660472Y-129947673D01*
X183677313Y-129893069D01*
X183678785Y-129888598D01*
X183694526Y-129843614D01*
X183697646Y-129834699D01*
X183697967Y-129826113D01*
X183700500Y-129817902D01*
X183700500Y-129760785D01*
X183700588Y-129756074D01*
X183701759Y-129724768D01*
X183702724Y-129698990D01*
X183700922Y-129692266D01*
X183700500Y-129684743D01*
X183700500Y-126719179D01*
X183718426Y-126654402D01*
X183767104Y-126608057D01*
X183808538Y-126585910D01*
X183960883Y-126460883D01*
X184085910Y-126308538D01*
X184178814Y-126134727D01*
X184236024Y-125946132D01*
X184255341Y-125750000D01*
X184236024Y-125553868D01*
X184178814Y-125365273D01*
X184085910Y-125191462D01*
X183960883Y-125039117D01*
X183948274Y-125028769D01*
X183813322Y-124918016D01*
X183813321Y-124918015D01*
X183808538Y-124914090D01*
X183767103Y-124891942D01*
X183718426Y-124845598D01*
X183700500Y-124780821D01*
X183700500Y-123032379D01*
X183701292Y-123018272D01*
X183701435Y-123017001D01*
X183705270Y-122982965D01*
X183694643Y-122926805D01*
X183693860Y-122922194D01*
X183686755Y-122875051D01*
X183685348Y-122865713D01*
X183681620Y-122857973D01*
X183680023Y-122849528D01*
X183653315Y-122798996D01*
X183651209Y-122794824D01*
X183630524Y-122751869D01*
X183630522Y-122751866D01*
X183626425Y-122743358D01*
X183620579Y-122737058D01*
X183616565Y-122729462D01*
X183576191Y-122689088D01*
X183572921Y-122685694D01*
X183563969Y-122676046D01*
X183534055Y-122643806D01*
X183528024Y-122640324D01*
X183522401Y-122635298D01*
X177584913Y-116697810D01*
X184544500Y-116697810D01*
X184544802Y-116700881D01*
X184544803Y-116700892D01*
X184548143Y-116734812D01*
X184548145Y-116734830D01*
X184548448Y-116737900D01*
X184549050Y-116740929D01*
X184549052Y-116740939D01*
X184556831Y-116780047D01*
X184558039Y-116786118D01*
X184560405Y-116791830D01*
X184560407Y-116791836D01*
X184586354Y-116854476D01*
X184586358Y-116854483D01*
X184588726Y-116860200D01*
X184616040Y-116901077D01*
X184641595Y-116932215D01*
X188817785Y-121108405D01*
X188848923Y-121133960D01*
X188889800Y-121161274D01*
X188895520Y-121163643D01*
X188895523Y-121163645D01*
X188955246Y-121188383D01*
X188963882Y-121191961D01*
X189012100Y-121201552D01*
X189052190Y-121205500D01*
X191944716Y-121205500D01*
X191947810Y-121205500D01*
X191987900Y-121201552D01*
X192036118Y-121191961D01*
X192110200Y-121161274D01*
X192151077Y-121133960D01*
X192182215Y-121108405D01*
X192858405Y-120432215D01*
X192883960Y-120401077D01*
X192911274Y-120360200D01*
X192941961Y-120286118D01*
X192951552Y-120237900D01*
X192955500Y-120197810D01*
X192955500Y-111137310D01*
X192965091Y-111089092D01*
X192992405Y-111048215D01*
X193548215Y-110492405D01*
X193589092Y-110465091D01*
X193637310Y-110455500D01*
X194619878Y-110455500D01*
X194624000Y-110455500D01*
X194677188Y-110448498D01*
X194740188Y-110431617D01*
X194789750Y-110411087D01*
X194832310Y-110378429D01*
X194878429Y-110332310D01*
X194911087Y-110289750D01*
X194931617Y-110240188D01*
X194948498Y-110177188D01*
X194955500Y-110124000D01*
X194955500Y-108626000D01*
X194948498Y-108572812D01*
X194931617Y-108509812D01*
X194911087Y-108460250D01*
X194878429Y-108417690D01*
X194832310Y-108371571D01*
X194789750Y-108338913D01*
X194782121Y-108335753D01*
X194782118Y-108335751D01*
X194743993Y-108319959D01*
X194743991Y-108319958D01*
X194740188Y-108318383D01*
X194736225Y-108317321D01*
X194736213Y-108317317D01*
X194681169Y-108302568D01*
X194681158Y-108302565D01*
X194677188Y-108301502D01*
X194673100Y-108300963D01*
X194673096Y-108300963D01*
X194628087Y-108295038D01*
X194628086Y-108295037D01*
X194624000Y-108294500D01*
X194619878Y-108294500D01*
X193637310Y-108294500D01*
X193589092Y-108284909D01*
X193548215Y-108257595D01*
X193242405Y-107951785D01*
X193215091Y-107910908D01*
X193205500Y-107862690D01*
X193205500Y-106555284D01*
X193205500Y-106552190D01*
X193201552Y-106512100D01*
X193191961Y-106463882D01*
X193161274Y-106389800D01*
X193133960Y-106348923D01*
X193108405Y-106317785D01*
X192932215Y-106141595D01*
X192911374Y-106124491D01*
X192903480Y-106118012D01*
X192903478Y-106118010D01*
X192901077Y-106116040D01*
X192860200Y-106088726D01*
X192854483Y-106086358D01*
X192854476Y-106086354D01*
X192791836Y-106060407D01*
X192791830Y-106060405D01*
X192786118Y-106058039D01*
X192780051Y-106056832D01*
X192780047Y-106056831D01*
X192740939Y-106049052D01*
X192740929Y-106049050D01*
X192737900Y-106048448D01*
X192734830Y-106048145D01*
X192734812Y-106048143D01*
X192700892Y-106044803D01*
X192700881Y-106044802D01*
X192697810Y-106044500D01*
X184876000Y-106044500D01*
X184871914Y-106045037D01*
X184871912Y-106045038D01*
X184826903Y-106050963D01*
X184826896Y-106050964D01*
X184822812Y-106051502D01*
X184818844Y-106052565D01*
X184818830Y-106052568D01*
X184763786Y-106067317D01*
X184763769Y-106067322D01*
X184759812Y-106068383D01*
X184756013Y-106069956D01*
X184756006Y-106069959D01*
X184717881Y-106085751D01*
X184717874Y-106085754D01*
X184710250Y-106088913D01*
X184703699Y-106093939D01*
X184703697Y-106093941D01*
X184670961Y-106119060D01*
X184670951Y-106119068D01*
X184667690Y-106121571D01*
X184664777Y-106124483D01*
X184664769Y-106124491D01*
X184624491Y-106164769D01*
X184624483Y-106164777D01*
X184621571Y-106167690D01*
X184619068Y-106170951D01*
X184619060Y-106170961D01*
X184593941Y-106203697D01*
X184588913Y-106210250D01*
X184585754Y-106217874D01*
X184585751Y-106217881D01*
X184569959Y-106256006D01*
X184569956Y-106256013D01*
X184568383Y-106259812D01*
X184567322Y-106263769D01*
X184567317Y-106263786D01*
X184552568Y-106318830D01*
X184552565Y-106318844D01*
X184551502Y-106322812D01*
X184550964Y-106326896D01*
X184550963Y-106326903D01*
X184548016Y-106349292D01*
X184544500Y-106376000D01*
X184544500Y-116697810D01*
X177584913Y-116697810D01*
X176631162Y-115744059D01*
X176607251Y-115710692D01*
X176595335Y-115671409D01*
X176593802Y-115659768D01*
X176585044Y-115593238D01*
X176524536Y-115447159D01*
X176519510Y-115440609D01*
X176519509Y-115440607D01*
X176476537Y-115384605D01*
X176457187Y-115348402D01*
X176450500Y-115307901D01*
X176450500Y-111442099D01*
X176457187Y-111401598D01*
X176476537Y-111365395D01*
X176519509Y-111309392D01*
X176524536Y-111302841D01*
X176585044Y-111156762D01*
X176605682Y-111000000D01*
X176585044Y-110843238D01*
X176524536Y-110697159D01*
X176428282Y-110571718D01*
X176302841Y-110475464D01*
X176295214Y-110472304D01*
X176295211Y-110472303D01*
X176164391Y-110418116D01*
X176164390Y-110418115D01*
X176156762Y-110414956D01*
X176148579Y-110413878D01*
X176148573Y-110413877D01*
X176008188Y-110395396D01*
X176000000Y-110394318D01*
X175991812Y-110395396D01*
X175851426Y-110413877D01*
X175851418Y-110413879D01*
X175843238Y-110414956D01*
X175835611Y-110418115D01*
X175835608Y-110418116D01*
X175704788Y-110472303D01*
X175704782Y-110472306D01*
X175697159Y-110475464D01*
X175690614Y-110480485D01*
X175690607Y-110480490D01*
X175634605Y-110523463D01*
X175598402Y-110542813D01*
X175557901Y-110549500D01*
X174238793Y-110549500D01*
X174190575Y-110539909D01*
X174149698Y-110512595D01*
X172381162Y-108744059D01*
X172357251Y-108710692D01*
X172345335Y-108671409D01*
X172336122Y-108601427D01*
X172336122Y-108601426D01*
X172335044Y-108593238D01*
X172274536Y-108447159D01*
X172269510Y-108440609D01*
X172269509Y-108440607D01*
X172226537Y-108384605D01*
X172207187Y-108348402D01*
X172200500Y-108307901D01*
X172200500Y-107975706D01*
X172216222Y-107914757D01*
X172259463Y-107869019D01*
X172297175Y-107845324D01*
X172385758Y-107742388D01*
X172440065Y-107617916D01*
X172455270Y-107482965D01*
X172430024Y-107349529D01*
X172366566Y-107229463D01*
X167237405Y-102100301D01*
X167210091Y-102059425D01*
X167200500Y-102011207D01*
X167200500Y-101500000D01*
X167794357Y-101500000D01*
X167814885Y-101721536D01*
X167875771Y-101935528D01*
X167878367Y-101940741D01*
X167878368Y-101940744D01*
X167928973Y-102042372D01*
X167974942Y-102134689D01*
X167978452Y-102139337D01*
X168105506Y-102307585D01*
X168105510Y-102307589D01*
X168109019Y-102312236D01*
X168113321Y-102316158D01*
X168113324Y-102316161D01*
X168202404Y-102397368D01*
X168273438Y-102462124D01*
X168462599Y-102579247D01*
X168670060Y-102659618D01*
X168888757Y-102700500D01*
X169105416Y-102700500D01*
X169111243Y-102700500D01*
X169329940Y-102659618D01*
X169537401Y-102579247D01*
X169726562Y-102462124D01*
X169890981Y-102312236D01*
X170025058Y-102134689D01*
X170124229Y-101935528D01*
X170185115Y-101721536D01*
X170205643Y-101500000D01*
X171544357Y-101500000D01*
X171564885Y-101721536D01*
X171625771Y-101935528D01*
X171628367Y-101940741D01*
X171628368Y-101940744D01*
X171678973Y-102042372D01*
X171724942Y-102134689D01*
X171728452Y-102139337D01*
X171855506Y-102307585D01*
X171855510Y-102307589D01*
X171859019Y-102312236D01*
X171863321Y-102316158D01*
X171863324Y-102316161D01*
X171952404Y-102397368D01*
X172023438Y-102462124D01*
X172212599Y-102579247D01*
X172420060Y-102659618D01*
X172638757Y-102700500D01*
X172855416Y-102700500D01*
X172861243Y-102700500D01*
X173079940Y-102659618D01*
X173287401Y-102579247D01*
X173476562Y-102462124D01*
X173640981Y-102312236D01*
X173775058Y-102134689D01*
X173874229Y-101935528D01*
X173935115Y-101721536D01*
X173955643Y-101500000D01*
X175294357Y-101500000D01*
X175314885Y-101721536D01*
X175375771Y-101935528D01*
X175378367Y-101940741D01*
X175378368Y-101940744D01*
X175428973Y-102042372D01*
X175474942Y-102134689D01*
X175478452Y-102139337D01*
X175605506Y-102307585D01*
X175605510Y-102307589D01*
X175609019Y-102312236D01*
X175613321Y-102316158D01*
X175613324Y-102316161D01*
X175702404Y-102397368D01*
X175773438Y-102462124D01*
X175962599Y-102579247D01*
X176170060Y-102659618D01*
X176388757Y-102700500D01*
X176605416Y-102700500D01*
X176611243Y-102700500D01*
X176829940Y-102659618D01*
X177037401Y-102579247D01*
X177226562Y-102462124D01*
X177390981Y-102312236D01*
X177525058Y-102134689D01*
X177624229Y-101935528D01*
X177685115Y-101721536D01*
X177705643Y-101500000D01*
X179044357Y-101500000D01*
X179064885Y-101721536D01*
X179125771Y-101935528D01*
X179128367Y-101940741D01*
X179128368Y-101940744D01*
X179178973Y-102042372D01*
X179224942Y-102134689D01*
X179228452Y-102139337D01*
X179355506Y-102307585D01*
X179355510Y-102307589D01*
X179359019Y-102312236D01*
X179363321Y-102316158D01*
X179363324Y-102316161D01*
X179452404Y-102397368D01*
X179523438Y-102462124D01*
X179712599Y-102579247D01*
X179920060Y-102659618D01*
X180138757Y-102700500D01*
X180355416Y-102700500D01*
X180361243Y-102700500D01*
X180579940Y-102659618D01*
X180787401Y-102579247D01*
X180976562Y-102462124D01*
X181140981Y-102312236D01*
X181275058Y-102134689D01*
X181374229Y-101935528D01*
X181435115Y-101721536D01*
X181455643Y-101500000D01*
X181435115Y-101278464D01*
X181374229Y-101064472D01*
X181275058Y-100865311D01*
X181140981Y-100687764D01*
X181136677Y-100683841D01*
X181136675Y-100683838D01*
X180980864Y-100541798D01*
X180980865Y-100541798D01*
X180976562Y-100537876D01*
X180787401Y-100420753D01*
X180755129Y-100408251D01*
X180585375Y-100342487D01*
X180585369Y-100342485D01*
X180579940Y-100340382D01*
X180574220Y-100339312D01*
X180574214Y-100339311D01*
X180366967Y-100300570D01*
X180366966Y-100300569D01*
X180361243Y-100299500D01*
X180138757Y-100299500D01*
X180133034Y-100300569D01*
X180133032Y-100300570D01*
X179925785Y-100339311D01*
X179925776Y-100339313D01*
X179920060Y-100340382D01*
X179914632Y-100342484D01*
X179914624Y-100342487D01*
X179718037Y-100418646D01*
X179718034Y-100418647D01*
X179712599Y-100420753D01*
X179707643Y-100423821D01*
X179707638Y-100423824D01*
X179528391Y-100534809D01*
X179523438Y-100537876D01*
X179519139Y-100541794D01*
X179519135Y-100541798D01*
X179363324Y-100683838D01*
X179363316Y-100683846D01*
X179359019Y-100687764D01*
X179355514Y-100692404D01*
X179355506Y-100692414D01*
X179228452Y-100860662D01*
X179228448Y-100860667D01*
X179224942Y-100865311D01*
X179222347Y-100870521D01*
X179222344Y-100870527D01*
X179128368Y-101059255D01*
X179128365Y-101059261D01*
X179125771Y-101064472D01*
X179064885Y-101278464D01*
X179044357Y-101500000D01*
X177705643Y-101500000D01*
X177685115Y-101278464D01*
X177624229Y-101064472D01*
X177525058Y-100865311D01*
X177390981Y-100687764D01*
X177386677Y-100683841D01*
X177386675Y-100683838D01*
X177230864Y-100541798D01*
X177230865Y-100541798D01*
X177226562Y-100537876D01*
X177037401Y-100420753D01*
X177005129Y-100408251D01*
X176835375Y-100342487D01*
X176835369Y-100342485D01*
X176829940Y-100340382D01*
X176824220Y-100339312D01*
X176824214Y-100339311D01*
X176616967Y-100300570D01*
X176616966Y-100300569D01*
X176611243Y-100299500D01*
X176388757Y-100299500D01*
X176383034Y-100300569D01*
X176383032Y-100300570D01*
X176175785Y-100339311D01*
X176175776Y-100339313D01*
X176170060Y-100340382D01*
X176164632Y-100342484D01*
X176164624Y-100342487D01*
X175968037Y-100418646D01*
X175968034Y-100418647D01*
X175962599Y-100420753D01*
X175957643Y-100423821D01*
X175957638Y-100423824D01*
X175778391Y-100534809D01*
X175773438Y-100537876D01*
X175769139Y-100541794D01*
X175769135Y-100541798D01*
X175613324Y-100683838D01*
X175613316Y-100683846D01*
X175609019Y-100687764D01*
X175605514Y-100692404D01*
X175605506Y-100692414D01*
X175478452Y-100860662D01*
X175478448Y-100860667D01*
X175474942Y-100865311D01*
X175472347Y-100870521D01*
X175472344Y-100870527D01*
X175378368Y-101059255D01*
X175378365Y-101059261D01*
X175375771Y-101064472D01*
X175314885Y-101278464D01*
X175294357Y-101500000D01*
X173955643Y-101500000D01*
X173935115Y-101278464D01*
X173874229Y-101064472D01*
X173775058Y-100865311D01*
X173640981Y-100687764D01*
X173636677Y-100683841D01*
X173636675Y-100683838D01*
X173480864Y-100541798D01*
X173480865Y-100541798D01*
X173476562Y-100537876D01*
X173287401Y-100420753D01*
X173255129Y-100408251D01*
X173085375Y-100342487D01*
X173085369Y-100342485D01*
X173079940Y-100340382D01*
X173074220Y-100339312D01*
X173074214Y-100339311D01*
X172866967Y-100300570D01*
X172866966Y-100300569D01*
X172861243Y-100299500D01*
X172638757Y-100299500D01*
X172633034Y-100300569D01*
X172633032Y-100300570D01*
X172425785Y-100339311D01*
X172425776Y-100339313D01*
X172420060Y-100340382D01*
X172414632Y-100342484D01*
X172414624Y-100342487D01*
X172218037Y-100418646D01*
X172218034Y-100418647D01*
X172212599Y-100420753D01*
X172207643Y-100423821D01*
X172207638Y-100423824D01*
X172028391Y-100534809D01*
X172023438Y-100537876D01*
X172019139Y-100541794D01*
X172019135Y-100541798D01*
X171863324Y-100683838D01*
X171863316Y-100683846D01*
X171859019Y-100687764D01*
X171855514Y-100692404D01*
X171855506Y-100692414D01*
X171728452Y-100860662D01*
X171728448Y-100860667D01*
X171724942Y-100865311D01*
X171722347Y-100870521D01*
X171722344Y-100870527D01*
X171628368Y-101059255D01*
X171628365Y-101059261D01*
X171625771Y-101064472D01*
X171564885Y-101278464D01*
X171544357Y-101500000D01*
X170205643Y-101500000D01*
X170185115Y-101278464D01*
X170124229Y-101064472D01*
X170025058Y-100865311D01*
X169890981Y-100687764D01*
X169886677Y-100683841D01*
X169886675Y-100683838D01*
X169730864Y-100541798D01*
X169730865Y-100541798D01*
X169726562Y-100537876D01*
X169537401Y-100420753D01*
X169505129Y-100408251D01*
X169335375Y-100342487D01*
X169335369Y-100342485D01*
X169329940Y-100340382D01*
X169324220Y-100339312D01*
X169324214Y-100339311D01*
X169116967Y-100300570D01*
X169116966Y-100300569D01*
X169111243Y-100299500D01*
X168888757Y-100299500D01*
X168883034Y-100300569D01*
X168883032Y-100300570D01*
X168675785Y-100339311D01*
X168675776Y-100339313D01*
X168670060Y-100340382D01*
X168664632Y-100342484D01*
X168664624Y-100342487D01*
X168468037Y-100418646D01*
X168468034Y-100418647D01*
X168462599Y-100420753D01*
X168457643Y-100423821D01*
X168457638Y-100423824D01*
X168278391Y-100534809D01*
X168273438Y-100537876D01*
X168269139Y-100541794D01*
X168269135Y-100541798D01*
X168113324Y-100683838D01*
X168113316Y-100683846D01*
X168109019Y-100687764D01*
X168105514Y-100692404D01*
X168105506Y-100692414D01*
X167978452Y-100860662D01*
X167978448Y-100860667D01*
X167974942Y-100865311D01*
X167972347Y-100870521D01*
X167972344Y-100870527D01*
X167878368Y-101059255D01*
X167878365Y-101059261D01*
X167875771Y-101064472D01*
X167814885Y-101278464D01*
X167794357Y-101500000D01*
X167200500Y-101500000D01*
X167200500Y-98592347D01*
X167210091Y-98544129D01*
X167237405Y-98503252D01*
X172948051Y-92792606D01*
X176295642Y-92792606D01*
X176297014Y-92800096D01*
X176297015Y-92800103D01*
X176324930Y-92952434D01*
X176324932Y-92952441D01*
X176326305Y-92959932D01*
X176329433Y-92966882D01*
X176392994Y-93108109D01*
X176392997Y-93108114D01*
X176396122Y-93115057D01*
X176400818Y-93121052D01*
X176400820Y-93121054D01*
X176449590Y-93183304D01*
X176474710Y-93215367D01*
X176477412Y-93218069D01*
X180237014Y-96977671D01*
X180242217Y-96983197D01*
X180282071Y-97028183D01*
X180288339Y-97032509D01*
X180288343Y-97032513D01*
X180331520Y-97062316D01*
X180337648Y-97066824D01*
X180384943Y-97103878D01*
X180391892Y-97107005D01*
X180391895Y-97107007D01*
X180394015Y-97107961D01*
X180413879Y-97119165D01*
X180415790Y-97120484D01*
X180415796Y-97120487D01*
X180422070Y-97124818D01*
X180429196Y-97127520D01*
X180429197Y-97127521D01*
X180478242Y-97146121D01*
X180485274Y-97149034D01*
X180540068Y-97173695D01*
X180547567Y-97175069D01*
X180549860Y-97175490D01*
X180571826Y-97181613D01*
X180573998Y-97182436D01*
X180581128Y-97185140D01*
X180640808Y-97192386D01*
X180648265Y-97193521D01*
X180707394Y-97204357D01*
X180762321Y-97201034D01*
X180767358Y-97200730D01*
X180774965Y-97200500D01*
X184473500Y-97200500D01*
X184536500Y-97217381D01*
X184582619Y-97263500D01*
X184599500Y-97326500D01*
X184599500Y-98769748D01*
X184611133Y-98828231D01*
X184618025Y-98838546D01*
X184618026Y-98838547D01*
X184635228Y-98864292D01*
X184655448Y-98894552D01*
X184721769Y-98938867D01*
X184780252Y-98950500D01*
X186813561Y-98950500D01*
X186819748Y-98950500D01*
X186878231Y-98938867D01*
X186944552Y-98894552D01*
X186988867Y-98828231D01*
X187000500Y-98769748D01*
X187000500Y-97558221D01*
X190492000Y-97558221D01*
X190492205Y-97563318D01*
X190506277Y-97737624D01*
X190507900Y-97747613D01*
X190563740Y-97974164D01*
X190566941Y-97983754D01*
X190658399Y-98198414D01*
X190663102Y-98207375D01*
X190787803Y-98404574D01*
X190793886Y-98412669D01*
X190948600Y-98587305D01*
X190955910Y-98594326D01*
X191136630Y-98741879D01*
X191144975Y-98747640D01*
X191347023Y-98864292D01*
X191356183Y-98868639D01*
X191574329Y-98951371D01*
X191584061Y-98954190D01*
X191732273Y-98984447D01*
X191743526Y-98984221D01*
X191746000Y-98973237D01*
X191746000Y-98970356D01*
X192254000Y-98970356D01*
X192257902Y-98983828D01*
X192271752Y-98986079D01*
X192297580Y-98982942D01*
X192307497Y-98980918D01*
X192531606Y-98916004D01*
X192541068Y-98912416D01*
X192751862Y-98812393D01*
X192760635Y-98807328D01*
X192952652Y-98674787D01*
X192960489Y-98668388D01*
X193128765Y-98506757D01*
X193135473Y-98499186D01*
X193275648Y-98312648D01*
X193281048Y-98304109D01*
X193389483Y-98097503D01*
X193393449Y-98088193D01*
X193467335Y-97866880D01*
X193469759Y-97857043D01*
X193507185Y-97626749D01*
X193508000Y-97616662D01*
X193508000Y-96770590D01*
X193504493Y-96757506D01*
X193491410Y-96754000D01*
X192270590Y-96754000D01*
X192257506Y-96757506D01*
X192254000Y-96770590D01*
X192254000Y-98970356D01*
X191746000Y-98970356D01*
X191746000Y-96770590D01*
X191742493Y-96757506D01*
X191729410Y-96754000D01*
X190508590Y-96754000D01*
X190495506Y-96757506D01*
X190492000Y-96770590D01*
X190492000Y-97558221D01*
X187000500Y-97558221D01*
X187000500Y-96229410D01*
X190492000Y-96229410D01*
X190495506Y-96242493D01*
X190508590Y-96246000D01*
X191729410Y-96246000D01*
X191742493Y-96242493D01*
X191746000Y-96229410D01*
X192254000Y-96229410D01*
X192257506Y-96242493D01*
X192270590Y-96246000D01*
X193491410Y-96246000D01*
X193504493Y-96242493D01*
X193508000Y-96229410D01*
X193508000Y-95441779D01*
X193507794Y-95436681D01*
X193493722Y-95262375D01*
X193492099Y-95252386D01*
X193436259Y-95025835D01*
X193433058Y-95016245D01*
X193341600Y-94801585D01*
X193336897Y-94792624D01*
X193212196Y-94595425D01*
X193206113Y-94587330D01*
X193051399Y-94412694D01*
X193044089Y-94405673D01*
X192863369Y-94258120D01*
X192855024Y-94252359D01*
X192652976Y-94135707D01*
X192643816Y-94131360D01*
X192425670Y-94048628D01*
X192415938Y-94045809D01*
X192267726Y-94015552D01*
X192256473Y-94015778D01*
X192254000Y-94026763D01*
X192254000Y-96229410D01*
X191746000Y-96229410D01*
X191746000Y-94029644D01*
X191742097Y-94016171D01*
X191728247Y-94013920D01*
X191702419Y-94017057D01*
X191692502Y-94019081D01*
X191468393Y-94083995D01*
X191458931Y-94087583D01*
X191248137Y-94187606D01*
X191239364Y-94192671D01*
X191047347Y-94325212D01*
X191039510Y-94331611D01*
X190871234Y-94493242D01*
X190864526Y-94500813D01*
X190724351Y-94687351D01*
X190718951Y-94695890D01*
X190610516Y-94902496D01*
X190606550Y-94911806D01*
X190532664Y-95133119D01*
X190530240Y-95142956D01*
X190492814Y-95373250D01*
X190492000Y-95383338D01*
X190492000Y-96229410D01*
X187000500Y-96229410D01*
X187000500Y-94230252D01*
X186988867Y-94171769D01*
X186944552Y-94105448D01*
X186878231Y-94061133D01*
X186819748Y-94049500D01*
X184780252Y-94049500D01*
X184774184Y-94050706D01*
X184774183Y-94050707D01*
X184733939Y-94058712D01*
X184733937Y-94058712D01*
X184721769Y-94061133D01*
X184711454Y-94068024D01*
X184711452Y-94068026D01*
X184665761Y-94098556D01*
X184665758Y-94098558D01*
X184655448Y-94105448D01*
X184648558Y-94115758D01*
X184648556Y-94115761D01*
X184618026Y-94161452D01*
X184618024Y-94161454D01*
X184611133Y-94171769D01*
X184608712Y-94183937D01*
X184608712Y-94183939D01*
X184600707Y-94224183D01*
X184599500Y-94230252D01*
X184599500Y-94236439D01*
X184599500Y-95673500D01*
X184582619Y-95736500D01*
X184536500Y-95782619D01*
X184473500Y-95799500D01*
X181092347Y-95799500D01*
X181044129Y-95789909D01*
X181003252Y-95762595D01*
X177468069Y-92227412D01*
X177465367Y-92224710D01*
X177462295Y-92222303D01*
X177371054Y-92150820D01*
X177371052Y-92150818D01*
X177365057Y-92146122D01*
X177358114Y-92142997D01*
X177358109Y-92142994D01*
X177216882Y-92079433D01*
X177209932Y-92076305D01*
X177202441Y-92074932D01*
X177202434Y-92074930D01*
X177185092Y-92071752D01*
X186513920Y-92071752D01*
X186517057Y-92097580D01*
X186519081Y-92107497D01*
X186583995Y-92331606D01*
X186587583Y-92341068D01*
X186687606Y-92551862D01*
X186692671Y-92560635D01*
X186825212Y-92752652D01*
X186831611Y-92760489D01*
X186993242Y-92928765D01*
X187000813Y-92935473D01*
X187187351Y-93075648D01*
X187195890Y-93081048D01*
X187402496Y-93189483D01*
X187411806Y-93193449D01*
X187633119Y-93267335D01*
X187642956Y-93269759D01*
X187873250Y-93307185D01*
X187883338Y-93308000D01*
X188729410Y-93308000D01*
X188742493Y-93304493D01*
X188746000Y-93291410D01*
X189254000Y-93291410D01*
X189257506Y-93304493D01*
X189270590Y-93308000D01*
X190058221Y-93308000D01*
X190063318Y-93307794D01*
X190237624Y-93293722D01*
X190247613Y-93292099D01*
X190474164Y-93236259D01*
X190483754Y-93233058D01*
X190698414Y-93141600D01*
X190707375Y-93136897D01*
X190904574Y-93012196D01*
X190912669Y-93006113D01*
X191087305Y-92851399D01*
X191094326Y-92844089D01*
X191241879Y-92663369D01*
X191247640Y-92655024D01*
X191364292Y-92452976D01*
X191368639Y-92443816D01*
X191451371Y-92225670D01*
X191454190Y-92215938D01*
X191484447Y-92067726D01*
X191484221Y-92056473D01*
X191473237Y-92054000D01*
X189270590Y-92054000D01*
X189257506Y-92057506D01*
X189254000Y-92070590D01*
X189254000Y-93291410D01*
X188746000Y-93291410D01*
X188746000Y-92070590D01*
X188742493Y-92057506D01*
X188729410Y-92054000D01*
X186529644Y-92054000D01*
X186516171Y-92057902D01*
X186513920Y-92071752D01*
X177185092Y-92071752D01*
X177050103Y-92047015D01*
X177050096Y-92047014D01*
X177042606Y-92045642D01*
X177034999Y-92046102D01*
X176880409Y-92055453D01*
X176880401Y-92055454D01*
X176872804Y-92055914D01*
X176865534Y-92058179D01*
X176865530Y-92058180D01*
X176717671Y-92104254D01*
X176717667Y-92104255D01*
X176710394Y-92106522D01*
X176703875Y-92110462D01*
X176703870Y-92110465D01*
X176576308Y-92187580D01*
X176564815Y-92194528D01*
X176559426Y-92199916D01*
X176559422Y-92199920D01*
X176449920Y-92309422D01*
X176449916Y-92309426D01*
X176444528Y-92314815D01*
X176440584Y-92321338D01*
X176440584Y-92321339D01*
X176360465Y-92453870D01*
X176360462Y-92453875D01*
X176356522Y-92460394D01*
X176354255Y-92467667D01*
X176354254Y-92467671D01*
X176308180Y-92615530D01*
X176308179Y-92615534D01*
X176305914Y-92622804D01*
X176305454Y-92630401D01*
X176305453Y-92630409D01*
X176298219Y-92750000D01*
X176295642Y-92792606D01*
X172948051Y-92792606D01*
X174208384Y-91532273D01*
X186515552Y-91532273D01*
X186515778Y-91543526D01*
X186526763Y-91546000D01*
X188729410Y-91546000D01*
X188742493Y-91542493D01*
X188746000Y-91529410D01*
X189254000Y-91529410D01*
X189257506Y-91542493D01*
X189270590Y-91546000D01*
X191470356Y-91546000D01*
X191483828Y-91542097D01*
X191486079Y-91528247D01*
X191482942Y-91502419D01*
X191480918Y-91492502D01*
X191416004Y-91268393D01*
X191412416Y-91258931D01*
X191312393Y-91048137D01*
X191307328Y-91039364D01*
X191174787Y-90847347D01*
X191168388Y-90839510D01*
X191006757Y-90671234D01*
X190999186Y-90664526D01*
X190812648Y-90524351D01*
X190804109Y-90518951D01*
X190597503Y-90410516D01*
X190588193Y-90406550D01*
X190366880Y-90332664D01*
X190357043Y-90330240D01*
X190126749Y-90292814D01*
X190116662Y-90292000D01*
X189270590Y-90292000D01*
X189257506Y-90295506D01*
X189254000Y-90308590D01*
X189254000Y-91529410D01*
X188746000Y-91529410D01*
X188746000Y-90308590D01*
X188742493Y-90295506D01*
X188729410Y-90292000D01*
X187941779Y-90292000D01*
X187936681Y-90292205D01*
X187762375Y-90306277D01*
X187752386Y-90307900D01*
X187525835Y-90363740D01*
X187516245Y-90366941D01*
X187301585Y-90458399D01*
X187292624Y-90463102D01*
X187095425Y-90587803D01*
X187087330Y-90593886D01*
X186912694Y-90748600D01*
X186905673Y-90755910D01*
X186758120Y-90936630D01*
X186752359Y-90944975D01*
X186635707Y-91147023D01*
X186631360Y-91156183D01*
X186548628Y-91374329D01*
X186545809Y-91384061D01*
X186515552Y-91532273D01*
X174208384Y-91532273D01*
X178203752Y-87536905D01*
X178244629Y-87509591D01*
X178292847Y-87500000D01*
X199373500Y-87500000D01*
X199436500Y-87516881D01*
G37*
%TD.AperFunction*%
%TA.AperFunction,Conductor*%
G36*
X176012355Y-87513733D02*
G01*
X176057088Y-87551939D01*
X176079601Y-87606289D01*
X176074985Y-87664936D01*
X176044247Y-87715095D01*
X166246748Y-97512595D01*
X166205871Y-97539909D01*
X166157653Y-97549500D01*
X158524975Y-97549500D01*
X158517367Y-97549270D01*
X158465001Y-97546102D01*
X158464999Y-97546102D01*
X158457394Y-97545642D01*
X158449901Y-97547014D01*
X158449900Y-97547015D01*
X158398282Y-97556474D01*
X158390763Y-97557618D01*
X158338695Y-97563941D01*
X158338694Y-97563941D01*
X158331128Y-97564860D01*
X158324003Y-97567561D01*
X158323998Y-97567563D01*
X158321818Y-97568390D01*
X158299867Y-97574509D01*
X158298849Y-97574695D01*
X158297563Y-97574931D01*
X158297559Y-97574932D01*
X158290069Y-97576305D01*
X158283124Y-97579430D01*
X158283116Y-97579433D01*
X158235276Y-97600964D01*
X158228248Y-97603875D01*
X158179195Y-97622479D01*
X158179189Y-97622481D01*
X158172070Y-97625182D01*
X158165803Y-97629506D01*
X158165798Y-97629510D01*
X158163870Y-97630841D01*
X158144029Y-97642032D01*
X158141892Y-97642993D01*
X158141881Y-97642999D01*
X158134944Y-97646122D01*
X158128954Y-97650814D01*
X158128945Y-97650820D01*
X158087643Y-97683177D01*
X158081519Y-97687683D01*
X158038339Y-97717489D01*
X158038332Y-97717494D01*
X158032071Y-97721817D01*
X158027027Y-97727510D01*
X158027024Y-97727513D01*
X157992223Y-97766795D01*
X157987007Y-97772334D01*
X154162317Y-101597024D01*
X154105833Y-101629636D01*
X154040611Y-101629636D01*
X153984127Y-101597024D01*
X150341451Y-97954348D01*
X150332035Y-97943812D01*
X150315766Y-97923411D01*
X150315762Y-97923407D01*
X150309879Y-97916030D01*
X150302079Y-97910712D01*
X150302076Y-97910709D01*
X150262657Y-97883833D01*
X150258815Y-97881107D01*
X150220480Y-97852814D01*
X150220477Y-97852812D01*
X150212882Y-97847207D01*
X150204775Y-97844370D01*
X150197673Y-97839528D01*
X150143069Y-97822685D01*
X150138606Y-97821216D01*
X150118111Y-97814045D01*
X150093605Y-97805470D01*
X150093603Y-97805469D01*
X150084699Y-97802354D01*
X150076113Y-97802032D01*
X150067902Y-97799500D01*
X150058464Y-97799500D01*
X150010785Y-97799500D01*
X150006074Y-97799412D01*
X149958424Y-97797629D01*
X149948990Y-97797276D01*
X149942266Y-97799077D01*
X149934743Y-97799500D01*
X119738793Y-97799500D01*
X119690575Y-97789909D01*
X119649698Y-97762595D01*
X116355733Y-94468630D01*
X116324254Y-94416111D01*
X116321249Y-94354954D01*
X116347429Y-94299601D01*
X116396610Y-94263126D01*
X116457175Y-94254142D01*
X116552190Y-94263500D01*
X156187009Y-94263500D01*
X156190477Y-94263500D01*
X156302875Y-94251048D01*
X156356694Y-94238975D01*
X156463631Y-94202227D01*
X156559933Y-94142965D01*
X156603440Y-94109061D01*
X156684443Y-94030150D01*
X159376596Y-90755910D01*
X162015875Y-87545977D01*
X162059382Y-87512073D01*
X162113201Y-87500000D01*
X175955152Y-87500000D01*
X176012355Y-87513733D01*
G37*
%TD.AperFunction*%
%TA.AperFunction,Conductor*%
G36*
X108818041Y-87513733D02*
G01*
X108862774Y-87551939D01*
X108885287Y-87606289D01*
X108880671Y-87664936D01*
X108849933Y-87715095D01*
X108282513Y-88282513D01*
X107500000Y-87500000D01*
X107512410Y-87500000D01*
X108760838Y-87500000D01*
X108818041Y-87513733D01*
G37*
%TD.AperFunction*%
%TD*%
%TA.AperFunction,Conductor*%
%TO.N,+5V*%
G36*
X192746028Y-106259591D02*
G01*
X192786905Y-106286905D01*
X192963095Y-106463095D01*
X192990409Y-106503972D01*
X193000000Y-106552190D01*
X193000000Y-108000000D01*
X193500000Y-108500000D01*
X194624000Y-108500000D01*
X194687000Y-108516881D01*
X194733119Y-108563000D01*
X194750000Y-108626000D01*
X194750000Y-110124000D01*
X194733119Y-110187000D01*
X194687000Y-110233119D01*
X194624000Y-110250000D01*
X193500000Y-110250000D01*
X193491227Y-110258772D01*
X193491224Y-110258775D01*
X192758775Y-110991224D01*
X192758772Y-110991227D01*
X192750000Y-111000000D01*
X192750000Y-111012410D01*
X192750000Y-120197810D01*
X192740409Y-120246028D01*
X192713095Y-120286905D01*
X192036905Y-120963095D01*
X191996028Y-120990409D01*
X191947810Y-121000000D01*
X189052190Y-121000000D01*
X189003972Y-120990409D01*
X188963095Y-120963095D01*
X184786905Y-116786905D01*
X184759591Y-116746028D01*
X184750000Y-116697810D01*
X184750000Y-106376000D01*
X184766881Y-106313000D01*
X184813000Y-106266881D01*
X184876000Y-106250000D01*
X192697810Y-106250000D01*
X192746028Y-106259591D01*
G37*
%TD.AperFunction*%
%TD*%
%TA.AperFunction,Conductor*%
%TO.N,/Vin*%
G36*
X128988869Y-62765951D02*
G01*
X129034694Y-62809764D01*
X129053381Y-62870347D01*
X129040200Y-62932361D01*
X128998486Y-62980106D01*
X128904729Y-63044028D01*
X128897375Y-63049891D01*
X128711130Y-63222702D01*
X128704746Y-63229583D01*
X128546334Y-63428225D01*
X128541043Y-63435986D01*
X128414014Y-63656005D01*
X128409931Y-63664485D01*
X128317116Y-63900973D01*
X128314342Y-63909966D01*
X128257810Y-64157647D01*
X128256407Y-64166954D01*
X128242175Y-64356869D01*
X128242000Y-64361565D01*
X128242000Y-64908410D01*
X128245506Y-64921493D01*
X128258590Y-64925000D01*
X131741410Y-64925000D01*
X131754493Y-64921493D01*
X131758000Y-64908410D01*
X131758000Y-64361565D01*
X131757824Y-64356869D01*
X131743592Y-64166954D01*
X131742189Y-64157647D01*
X131685657Y-63909966D01*
X131682883Y-63900973D01*
X131590068Y-63664485D01*
X131585985Y-63656005D01*
X131458956Y-63435986D01*
X131453665Y-63428225D01*
X131295253Y-63229583D01*
X131288869Y-63222702D01*
X131102624Y-63049891D01*
X131095270Y-63044028D01*
X131001514Y-62980106D01*
X130959800Y-62932361D01*
X130946619Y-62870347D01*
X130965306Y-62809764D01*
X131011131Y-62765951D01*
X131072492Y-62750000D01*
X131947810Y-62750000D01*
X131996028Y-62759591D01*
X132036905Y-62786905D01*
X132963095Y-63713095D01*
X132990409Y-63753972D01*
X133000000Y-63802190D01*
X133000000Y-67500000D01*
X135000000Y-69500000D01*
X135012410Y-69500000D01*
X152737590Y-69500000D01*
X152750000Y-69500000D01*
X154250000Y-68000000D01*
X154250000Y-66563435D01*
X154962000Y-66563435D01*
X154962175Y-66568130D01*
X154976407Y-66758045D01*
X154977810Y-66767352D01*
X155034342Y-67015033D01*
X155037116Y-67024026D01*
X155129931Y-67260514D01*
X155134014Y-67268994D01*
X155261043Y-67489013D01*
X155266334Y-67496774D01*
X155424746Y-67695416D01*
X155431130Y-67702297D01*
X155617375Y-67875108D01*
X155624729Y-67880971D01*
X155834638Y-68024085D01*
X155842783Y-68028787D01*
X156071679Y-68139018D01*
X156080435Y-68142455D01*
X156205863Y-68181144D01*
X156217337Y-68181896D01*
X156220000Y-68170713D01*
X157220000Y-68170713D01*
X157222662Y-68181896D01*
X157234136Y-68181144D01*
X157359564Y-68142455D01*
X157368320Y-68139018D01*
X157597216Y-68028787D01*
X157605361Y-68024085D01*
X157815270Y-67880971D01*
X157822624Y-67875108D01*
X158008869Y-67702297D01*
X158015253Y-67695416D01*
X158173665Y-67496774D01*
X158178956Y-67489013D01*
X158305985Y-67268994D01*
X158310068Y-67260514D01*
X158402883Y-67024026D01*
X158405657Y-67015033D01*
X158462189Y-66767352D01*
X158463592Y-66758045D01*
X158477824Y-66568130D01*
X158478000Y-66563435D01*
X158478000Y-66016590D01*
X158474493Y-66003506D01*
X158461410Y-66000000D01*
X157236590Y-66000000D01*
X157223506Y-66003506D01*
X157220000Y-66016590D01*
X157220000Y-68170713D01*
X156220000Y-68170713D01*
X156220000Y-66016590D01*
X156216493Y-66003506D01*
X156203410Y-66000000D01*
X154978590Y-66000000D01*
X154965506Y-66003506D01*
X154962000Y-66016590D01*
X154962000Y-66563435D01*
X154250000Y-66563435D01*
X154250000Y-64052190D01*
X154259591Y-64003972D01*
X154286905Y-63963095D01*
X155463095Y-62786905D01*
X155503972Y-62759591D01*
X155552190Y-62750000D01*
X155757513Y-62750000D01*
X155818874Y-62765951D01*
X155864699Y-62809764D01*
X155883386Y-62870347D01*
X155870205Y-62932362D01*
X155828491Y-62980106D01*
X155624729Y-63119028D01*
X155617375Y-63124891D01*
X155431130Y-63297702D01*
X155424746Y-63304583D01*
X155266334Y-63503225D01*
X155261043Y-63510986D01*
X155134014Y-63731005D01*
X155129931Y-63739485D01*
X155037116Y-63975973D01*
X155034342Y-63984966D01*
X154977810Y-64232647D01*
X154976407Y-64241954D01*
X154962175Y-64431869D01*
X154962000Y-64436565D01*
X154962000Y-64983410D01*
X154965506Y-64996493D01*
X154978590Y-65000000D01*
X158461410Y-65000000D01*
X158474493Y-64996493D01*
X158478000Y-64983410D01*
X158478000Y-64436565D01*
X158477824Y-64431869D01*
X158463592Y-64241954D01*
X158462189Y-64232647D01*
X158405657Y-63984966D01*
X158402883Y-63975973D01*
X158310068Y-63739485D01*
X158305985Y-63731005D01*
X158178956Y-63510986D01*
X158173665Y-63503225D01*
X158015253Y-63304583D01*
X158008869Y-63297702D01*
X157822624Y-63124891D01*
X157815270Y-63119028D01*
X157611509Y-62980106D01*
X157569795Y-62932362D01*
X157556614Y-62870347D01*
X157575301Y-62809764D01*
X157621126Y-62765951D01*
X157682487Y-62750000D01*
X158697810Y-62750000D01*
X158746028Y-62759591D01*
X158786905Y-62786905D01*
X159463095Y-63463095D01*
X159490409Y-63503972D01*
X159500000Y-63552190D01*
X159500000Y-67500000D01*
X161500000Y-69500000D01*
X161512410Y-69500000D01*
X179487590Y-69500000D01*
X179500000Y-69500000D01*
X180750000Y-68250000D01*
X180750000Y-66563435D01*
X181492000Y-66563435D01*
X181492175Y-66568130D01*
X181506407Y-66758045D01*
X181507810Y-66767352D01*
X181564342Y-67015033D01*
X181567116Y-67024026D01*
X181659931Y-67260514D01*
X181664014Y-67268994D01*
X181791043Y-67489013D01*
X181796334Y-67496774D01*
X181954746Y-67695416D01*
X181961130Y-67702297D01*
X182147375Y-67875108D01*
X182154729Y-67880971D01*
X182364638Y-68024085D01*
X182372783Y-68028787D01*
X182601679Y-68139018D01*
X182610435Y-68142455D01*
X182735863Y-68181144D01*
X182747337Y-68181896D01*
X182750000Y-68170713D01*
X183750000Y-68170713D01*
X183752662Y-68181896D01*
X183764136Y-68181144D01*
X183889564Y-68142455D01*
X183898320Y-68139018D01*
X184127216Y-68028787D01*
X184135361Y-68024085D01*
X184345270Y-67880971D01*
X184352624Y-67875108D01*
X184538869Y-67702297D01*
X184545253Y-67695416D01*
X184703665Y-67496774D01*
X184708956Y-67489013D01*
X184835985Y-67268994D01*
X184840068Y-67260514D01*
X184932883Y-67024026D01*
X184935657Y-67015033D01*
X184992189Y-66767352D01*
X184993592Y-66758045D01*
X185007824Y-66568130D01*
X185008000Y-66563435D01*
X185008000Y-66016590D01*
X185004493Y-66003506D01*
X184991410Y-66000000D01*
X183766590Y-66000000D01*
X183753506Y-66003506D01*
X183750000Y-66016590D01*
X183750000Y-68170713D01*
X182750000Y-68170713D01*
X182750000Y-66016590D01*
X182746493Y-66003506D01*
X182733410Y-66000000D01*
X181508590Y-66000000D01*
X181495506Y-66003506D01*
X181492000Y-66016590D01*
X181492000Y-66563435D01*
X180750000Y-66563435D01*
X180750000Y-64302190D01*
X180759591Y-64253972D01*
X180786901Y-64213098D01*
X181526882Y-63473117D01*
X181578084Y-63442048D01*
X181637852Y-63438130D01*
X181692677Y-63462253D01*
X181730168Y-63508966D01*
X181741853Y-63567712D01*
X181725092Y-63625216D01*
X181664014Y-63731005D01*
X181659931Y-63739485D01*
X181567116Y-63975973D01*
X181564342Y-63984966D01*
X181507810Y-64232647D01*
X181506407Y-64241954D01*
X181492175Y-64431869D01*
X181492000Y-64436565D01*
X181492000Y-64983410D01*
X181495506Y-64996493D01*
X181508590Y-65000000D01*
X184991410Y-65000000D01*
X185004493Y-64996493D01*
X185008000Y-64983410D01*
X185008000Y-64436565D01*
X185007824Y-64431869D01*
X184993592Y-64241954D01*
X184992189Y-64232647D01*
X184935657Y-63984966D01*
X184932883Y-63975973D01*
X184840068Y-63739485D01*
X184835985Y-63731005D01*
X184708956Y-63510986D01*
X184703665Y-63503225D01*
X184545253Y-63304583D01*
X184538869Y-63297702D01*
X184352624Y-63124891D01*
X184345270Y-63119028D01*
X184141509Y-62980106D01*
X184099795Y-62932362D01*
X184086614Y-62870347D01*
X184105301Y-62809764D01*
X184151126Y-62765951D01*
X184212487Y-62750000D01*
X185197810Y-62750000D01*
X185246028Y-62759591D01*
X185286905Y-62786905D01*
X185963095Y-63463095D01*
X185990409Y-63503972D01*
X186000000Y-63552190D01*
X186000000Y-68500000D01*
X187000000Y-69500000D01*
X189947810Y-69500000D01*
X189996028Y-69509591D01*
X190036905Y-69536905D01*
X191463095Y-70963095D01*
X191490409Y-71003972D01*
X191500000Y-71052190D01*
X191500000Y-75699196D01*
X191490858Y-75746314D01*
X191464760Y-75786595D01*
X185037171Y-82461399D01*
X184995725Y-82489949D01*
X184946411Y-82500000D01*
X165500000Y-82500000D01*
X165491136Y-82510779D01*
X165491135Y-82510781D01*
X156287803Y-93704023D01*
X156244296Y-93737927D01*
X156190477Y-93750000D01*
X116552190Y-93750000D01*
X116503972Y-93740409D01*
X116463095Y-93713095D01*
X108536905Y-85786905D01*
X108509591Y-85746028D01*
X108500000Y-85697810D01*
X108500000Y-82671048D01*
X110664921Y-82671048D01*
X110673862Y-82678386D01*
X110851679Y-82764018D01*
X110860436Y-82767455D01*
X111103209Y-82842341D01*
X111112366Y-82844431D01*
X111363594Y-82882297D01*
X111372972Y-82883000D01*
X111627028Y-82883000D01*
X111636405Y-82882297D01*
X111887633Y-82844431D01*
X111896790Y-82842341D01*
X112139563Y-82767455D01*
X112148320Y-82764018D01*
X112326136Y-82678386D01*
X112335077Y-82671048D01*
X112329059Y-82661165D01*
X111511729Y-81843835D01*
X111499999Y-81837063D01*
X111488271Y-81843834D01*
X110670939Y-82661165D01*
X110664921Y-82671048D01*
X108500000Y-82671048D01*
X108500000Y-81129697D01*
X109737422Y-81129697D01*
X109756407Y-81383045D01*
X109757810Y-81392352D01*
X109814342Y-81640033D01*
X109817116Y-81649026D01*
X109909931Y-81885514D01*
X109914014Y-81893994D01*
X109946988Y-81951105D01*
X109954790Y-81959436D01*
X109964485Y-81953407D01*
X110781163Y-81136729D01*
X110787935Y-81124999D01*
X112212063Y-81124999D01*
X112218835Y-81136729D01*
X113035511Y-81953405D01*
X113045208Y-81959435D01*
X113053011Y-81951104D01*
X113085990Y-81893985D01*
X113090066Y-81885520D01*
X113182883Y-81649026D01*
X113185657Y-81640033D01*
X113242189Y-81392352D01*
X113243592Y-81383045D01*
X113262578Y-81129697D01*
X113262578Y-81120303D01*
X113243592Y-80866954D01*
X113242189Y-80857647D01*
X113185657Y-80609966D01*
X113182883Y-80600973D01*
X113090068Y-80364485D01*
X113085985Y-80356005D01*
X113053011Y-80298893D01*
X113045208Y-80290562D01*
X113035514Y-80296590D01*
X112218834Y-81113271D01*
X112212063Y-81124999D01*
X110787935Y-81124999D01*
X110781164Y-81113271D01*
X109964485Y-80296591D01*
X109954790Y-80290562D01*
X109946988Y-80298892D01*
X109914009Y-80356014D01*
X109909933Y-80364479D01*
X109817116Y-80600973D01*
X109814342Y-80609966D01*
X109757810Y-80857647D01*
X109756407Y-80866954D01*
X109737422Y-81120303D01*
X109737422Y-81129697D01*
X108500000Y-81129697D01*
X108500000Y-80052190D01*
X108509591Y-80003972D01*
X108536905Y-79963095D01*
X108921050Y-79578950D01*
X110664921Y-79578950D01*
X110670939Y-79588833D01*
X111488271Y-80406164D01*
X111499999Y-80412935D01*
X111511729Y-80406163D01*
X112329059Y-79588833D01*
X112335077Y-79578950D01*
X112326136Y-79571612D01*
X112148320Y-79485981D01*
X112139563Y-79482544D01*
X111896790Y-79407658D01*
X111887633Y-79405568D01*
X111636405Y-79367702D01*
X111627028Y-79367000D01*
X111372972Y-79367000D01*
X111363594Y-79367702D01*
X111112366Y-79405568D01*
X111103209Y-79407658D01*
X110860436Y-79482544D01*
X110851679Y-79485981D01*
X110673862Y-79571612D01*
X110664921Y-79578950D01*
X108921050Y-79578950D01*
X109713095Y-78786905D01*
X109753972Y-78759591D01*
X109802190Y-78750000D01*
X122947810Y-78750000D01*
X122996028Y-78759591D01*
X123036905Y-78786905D01*
X125250000Y-81000000D01*
X125262410Y-81000000D01*
X142203410Y-81000000D01*
X142220000Y-81000000D01*
X142220000Y-80750000D01*
X142203410Y-80750000D01*
X125802190Y-80750000D01*
X125753972Y-80740409D01*
X125713095Y-80713095D01*
X123036905Y-78036905D01*
X123009591Y-77996028D01*
X123000000Y-77947810D01*
X123000000Y-72552190D01*
X123009591Y-72503972D01*
X123036905Y-72463095D01*
X124536905Y-70963095D01*
X127250000Y-68250000D01*
X127250000Y-66488435D01*
X128242000Y-66488435D01*
X128242175Y-66493130D01*
X128256407Y-66683045D01*
X128257810Y-66692352D01*
X128314342Y-66940033D01*
X128317116Y-66949026D01*
X128409931Y-67185514D01*
X128414014Y-67193994D01*
X128541043Y-67414013D01*
X128546334Y-67421774D01*
X128704746Y-67620416D01*
X128711130Y-67627297D01*
X128897375Y-67800108D01*
X128904729Y-67805971D01*
X129114638Y-67949085D01*
X129122783Y-67953787D01*
X129351679Y-68064018D01*
X129360435Y-68067455D01*
X129485863Y-68106144D01*
X129497337Y-68106896D01*
X129500000Y-68095713D01*
X130500000Y-68095713D01*
X130502662Y-68106896D01*
X130514136Y-68106144D01*
X130639564Y-68067455D01*
X130648320Y-68064018D01*
X130877216Y-67953787D01*
X130885361Y-67949085D01*
X131095270Y-67805971D01*
X131102624Y-67800108D01*
X131288869Y-67627297D01*
X131295253Y-67620416D01*
X131453665Y-67421774D01*
X131458956Y-67414013D01*
X131585985Y-67193994D01*
X131590068Y-67185514D01*
X131682883Y-66949026D01*
X131685657Y-66940033D01*
X131742189Y-66692352D01*
X131743592Y-66683045D01*
X131757824Y-66493130D01*
X131758000Y-66488435D01*
X131758000Y-65941590D01*
X131754493Y-65928506D01*
X131741410Y-65925000D01*
X130516590Y-65925000D01*
X130503506Y-65928506D01*
X130500000Y-65941590D01*
X130500000Y-68095713D01*
X129500000Y-68095713D01*
X129500000Y-65941590D01*
X129496493Y-65928506D01*
X129483410Y-65925000D01*
X128258590Y-65925000D01*
X128245506Y-65928506D01*
X128242000Y-65941590D01*
X128242000Y-66488435D01*
X127250000Y-66488435D01*
X127250000Y-64302190D01*
X127259591Y-64253972D01*
X127286905Y-64213095D01*
X128713095Y-62786905D01*
X128753972Y-62759591D01*
X128802190Y-62750000D01*
X128927508Y-62750000D01*
X128988869Y-62765951D01*
G37*
%TD.AperFunction*%
%TD*%
M02*
