%TF.GenerationSoftware,KiCad,Pcbnew,(7.0.0-rc1-56-g82a1175d72)*%
%TF.CreationDate,2023-05-08T22:11:16+09:00*%
%TF.ProjectId,E_Load,455f4c6f-6164-42e6-9b69-6361645f7063,rev?*%
%TF.SameCoordinates,Original*%
%TF.FileFunction,Legend,Top*%
%TF.FilePolarity,Positive*%
%FSLAX46Y46*%
G04 Gerber Fmt 4.6, Leading zero omitted, Abs format (unit mm)*
G04 Created by KiCad (PCBNEW (7.0.0-rc1-56-g82a1175d72)) date 2023-05-08 22:11:16*
%MOMM*%
%LPD*%
G01*
G04 APERTURE LIST*
%ADD10C,0.150000*%
%ADD11C,0.300000*%
%ADD12C,0.120000*%
G04 APERTURE END LIST*
D10*
X109500000Y-96000000D02*
X164000000Y-96000000D01*
X164000000Y-96000000D02*
X164000000Y-150000000D01*
X164000000Y-150000000D02*
X109500000Y-150000000D01*
X109500000Y-150000000D02*
X109500000Y-96000000D01*
X195321428Y-137508571D02*
X194988095Y-137508571D01*
X194988095Y-138032380D02*
X194988095Y-137032380D01*
X194988095Y-137032380D02*
X195464285Y-137032380D01*
X196273809Y-138032380D02*
X196273809Y-137508571D01*
X196273809Y-137508571D02*
X196226190Y-137413333D01*
X196226190Y-137413333D02*
X196130952Y-137365714D01*
X196130952Y-137365714D02*
X195940476Y-137365714D01*
X195940476Y-137365714D02*
X195845238Y-137413333D01*
X196273809Y-137984761D02*
X196178571Y-138032380D01*
X196178571Y-138032380D02*
X195940476Y-138032380D01*
X195940476Y-138032380D02*
X195845238Y-137984761D01*
X195845238Y-137984761D02*
X195797619Y-137889523D01*
X195797619Y-137889523D02*
X195797619Y-137794285D01*
X195797619Y-137794285D02*
X195845238Y-137699047D01*
X195845238Y-137699047D02*
X195940476Y-137651428D01*
X195940476Y-137651428D02*
X196178571Y-137651428D01*
X196178571Y-137651428D02*
X196273809Y-137603809D01*
X196750000Y-137365714D02*
X196750000Y-138032380D01*
X196750000Y-137460952D02*
X196797619Y-137413333D01*
X196797619Y-137413333D02*
X196892857Y-137365714D01*
X196892857Y-137365714D02*
X197035714Y-137365714D01*
X197035714Y-137365714D02*
X197130952Y-137413333D01*
X197130952Y-137413333D02*
X197178571Y-137508571D01*
X197178571Y-137508571D02*
X197178571Y-138032380D01*
X103587619Y-86642857D02*
X103587619Y-87261904D01*
X103587619Y-87261904D02*
X103206666Y-86928571D01*
X103206666Y-86928571D02*
X103206666Y-87071428D01*
X103206666Y-87071428D02*
X103159047Y-87166666D01*
X103159047Y-87166666D02*
X103111428Y-87214285D01*
X103111428Y-87214285D02*
X103016190Y-87261904D01*
X103016190Y-87261904D02*
X102778095Y-87261904D01*
X102778095Y-87261904D02*
X102682857Y-87214285D01*
X102682857Y-87214285D02*
X102635238Y-87166666D01*
X102635238Y-87166666D02*
X102587619Y-87071428D01*
X102587619Y-87071428D02*
X102587619Y-86785714D01*
X102587619Y-86785714D02*
X102635238Y-86690476D01*
X102635238Y-86690476D02*
X102682857Y-86642857D01*
X103587619Y-87880952D02*
X103587619Y-87976190D01*
X103587619Y-87976190D02*
X103540000Y-88071428D01*
X103540000Y-88071428D02*
X103492380Y-88119047D01*
X103492380Y-88119047D02*
X103397142Y-88166666D01*
X103397142Y-88166666D02*
X103206666Y-88214285D01*
X103206666Y-88214285D02*
X102968571Y-88214285D01*
X102968571Y-88214285D02*
X102778095Y-88166666D01*
X102778095Y-88166666D02*
X102682857Y-88119047D01*
X102682857Y-88119047D02*
X102635238Y-88071428D01*
X102635238Y-88071428D02*
X102587619Y-87976190D01*
X102587619Y-87976190D02*
X102587619Y-87880952D01*
X102587619Y-87880952D02*
X102635238Y-87785714D01*
X102635238Y-87785714D02*
X102682857Y-87738095D01*
X102682857Y-87738095D02*
X102778095Y-87690476D01*
X102778095Y-87690476D02*
X102968571Y-87642857D01*
X102968571Y-87642857D02*
X103206666Y-87642857D01*
X103206666Y-87642857D02*
X103397142Y-87690476D01*
X103397142Y-87690476D02*
X103492380Y-87738095D01*
X103492380Y-87738095D02*
X103540000Y-87785714D01*
X103540000Y-87785714D02*
X103587619Y-87880952D01*
X103587619Y-88833333D02*
X103587619Y-88928571D01*
X103587619Y-88928571D02*
X103540000Y-89023809D01*
X103540000Y-89023809D02*
X103492380Y-89071428D01*
X103492380Y-89071428D02*
X103397142Y-89119047D01*
X103397142Y-89119047D02*
X103206666Y-89166666D01*
X103206666Y-89166666D02*
X102968571Y-89166666D01*
X102968571Y-89166666D02*
X102778095Y-89119047D01*
X102778095Y-89119047D02*
X102682857Y-89071428D01*
X102682857Y-89071428D02*
X102635238Y-89023809D01*
X102635238Y-89023809D02*
X102587619Y-88928571D01*
X102587619Y-88928571D02*
X102587619Y-88833333D01*
X102587619Y-88833333D02*
X102635238Y-88738095D01*
X102635238Y-88738095D02*
X102682857Y-88690476D01*
X102682857Y-88690476D02*
X102778095Y-88642857D01*
X102778095Y-88642857D02*
X102968571Y-88595238D01*
X102968571Y-88595238D02*
X103206666Y-88595238D01*
X103206666Y-88595238D02*
X103397142Y-88642857D01*
X103397142Y-88642857D02*
X103492380Y-88690476D01*
X103492380Y-88690476D02*
X103540000Y-88738095D01*
X103540000Y-88738095D02*
X103587619Y-88833333D01*
X103587619Y-90100000D02*
X102587619Y-90338095D01*
X102587619Y-90338095D02*
X103301904Y-90528571D01*
X103301904Y-90528571D02*
X102587619Y-90719047D01*
X102587619Y-90719047D02*
X103587619Y-90957143D01*
X101967619Y-87214285D02*
X101967619Y-86738095D01*
X101967619Y-86738095D02*
X101491428Y-86690476D01*
X101491428Y-86690476D02*
X101539047Y-86738095D01*
X101539047Y-86738095D02*
X101586666Y-86833333D01*
X101586666Y-86833333D02*
X101586666Y-87071428D01*
X101586666Y-87071428D02*
X101539047Y-87166666D01*
X101539047Y-87166666D02*
X101491428Y-87214285D01*
X101491428Y-87214285D02*
X101396190Y-87261904D01*
X101396190Y-87261904D02*
X101158095Y-87261904D01*
X101158095Y-87261904D02*
X101062857Y-87214285D01*
X101062857Y-87214285D02*
X101015238Y-87166666D01*
X101015238Y-87166666D02*
X100967619Y-87071428D01*
X100967619Y-87071428D02*
X100967619Y-86833333D01*
X100967619Y-86833333D02*
X101015238Y-86738095D01*
X101015238Y-86738095D02*
X101062857Y-86690476D01*
X101967619Y-87880952D02*
X101967619Y-87976190D01*
X101967619Y-87976190D02*
X101920000Y-88071428D01*
X101920000Y-88071428D02*
X101872380Y-88119047D01*
X101872380Y-88119047D02*
X101777142Y-88166666D01*
X101777142Y-88166666D02*
X101586666Y-88214285D01*
X101586666Y-88214285D02*
X101348571Y-88214285D01*
X101348571Y-88214285D02*
X101158095Y-88166666D01*
X101158095Y-88166666D02*
X101062857Y-88119047D01*
X101062857Y-88119047D02*
X101015238Y-88071428D01*
X101015238Y-88071428D02*
X100967619Y-87976190D01*
X100967619Y-87976190D02*
X100967619Y-87880952D01*
X100967619Y-87880952D02*
X101015238Y-87785714D01*
X101015238Y-87785714D02*
X101062857Y-87738095D01*
X101062857Y-87738095D02*
X101158095Y-87690476D01*
X101158095Y-87690476D02*
X101348571Y-87642857D01*
X101348571Y-87642857D02*
X101586666Y-87642857D01*
X101586666Y-87642857D02*
X101777142Y-87690476D01*
X101777142Y-87690476D02*
X101872380Y-87738095D01*
X101872380Y-87738095D02*
X101920000Y-87785714D01*
X101920000Y-87785714D02*
X101967619Y-87880952D01*
X101967619Y-88500000D02*
X100967619Y-88833333D01*
X100967619Y-88833333D02*
X101967619Y-89166666D01*
X101872380Y-90052381D02*
X101920000Y-90100000D01*
X101920000Y-90100000D02*
X101967619Y-90195238D01*
X101967619Y-90195238D02*
X101967619Y-90433333D01*
X101967619Y-90433333D02*
X101920000Y-90528571D01*
X101920000Y-90528571D02*
X101872380Y-90576190D01*
X101872380Y-90576190D02*
X101777142Y-90623809D01*
X101777142Y-90623809D02*
X101681904Y-90623809D01*
X101681904Y-90623809D02*
X101539047Y-90576190D01*
X101539047Y-90576190D02*
X100967619Y-90004762D01*
X100967619Y-90004762D02*
X100967619Y-90623809D01*
X101967619Y-91242857D02*
X101967619Y-91338095D01*
X101967619Y-91338095D02*
X101920000Y-91433333D01*
X101920000Y-91433333D02*
X101872380Y-91480952D01*
X101872380Y-91480952D02*
X101777142Y-91528571D01*
X101777142Y-91528571D02*
X101586666Y-91576190D01*
X101586666Y-91576190D02*
X101348571Y-91576190D01*
X101348571Y-91576190D02*
X101158095Y-91528571D01*
X101158095Y-91528571D02*
X101062857Y-91480952D01*
X101062857Y-91480952D02*
X101015238Y-91433333D01*
X101015238Y-91433333D02*
X100967619Y-91338095D01*
X100967619Y-91338095D02*
X100967619Y-91242857D01*
X100967619Y-91242857D02*
X101015238Y-91147619D01*
X101015238Y-91147619D02*
X101062857Y-91100000D01*
X101062857Y-91100000D02*
X101158095Y-91052381D01*
X101158095Y-91052381D02*
X101348571Y-91004762D01*
X101348571Y-91004762D02*
X101586666Y-91004762D01*
X101586666Y-91004762D02*
X101777142Y-91052381D01*
X101777142Y-91052381D02*
X101872380Y-91100000D01*
X101872380Y-91100000D02*
X101920000Y-91147619D01*
X101920000Y-91147619D02*
X101967619Y-91242857D01*
X101253333Y-91957143D02*
X101253333Y-92433333D01*
X100967619Y-91861905D02*
X101967619Y-92195238D01*
X101967619Y-92195238D02*
X100967619Y-92528571D01*
D11*
X198814761Y-112523809D02*
X196814761Y-112523809D01*
X196814761Y-112523809D02*
X196814761Y-112047619D01*
X196814761Y-112047619D02*
X196910000Y-111761904D01*
X196910000Y-111761904D02*
X197100476Y-111571428D01*
X197100476Y-111571428D02*
X197290952Y-111476190D01*
X197290952Y-111476190D02*
X197671904Y-111380952D01*
X197671904Y-111380952D02*
X197957619Y-111380952D01*
X197957619Y-111380952D02*
X198338571Y-111476190D01*
X198338571Y-111476190D02*
X198529047Y-111571428D01*
X198529047Y-111571428D02*
X198719523Y-111761904D01*
X198719523Y-111761904D02*
X198814761Y-112047619D01*
X198814761Y-112047619D02*
X198814761Y-112523809D01*
X198624285Y-109380952D02*
X198719523Y-109476190D01*
X198719523Y-109476190D02*
X198814761Y-109761904D01*
X198814761Y-109761904D02*
X198814761Y-109952380D01*
X198814761Y-109952380D02*
X198719523Y-110238095D01*
X198719523Y-110238095D02*
X198529047Y-110428571D01*
X198529047Y-110428571D02*
X198338571Y-110523809D01*
X198338571Y-110523809D02*
X197957619Y-110619047D01*
X197957619Y-110619047D02*
X197671904Y-110619047D01*
X197671904Y-110619047D02*
X197290952Y-110523809D01*
X197290952Y-110523809D02*
X197100476Y-110428571D01*
X197100476Y-110428571D02*
X196910000Y-110238095D01*
X196910000Y-110238095D02*
X196814761Y-109952380D01*
X196814761Y-109952380D02*
X196814761Y-109761904D01*
X196814761Y-109761904D02*
X196910000Y-109476190D01*
X196910000Y-109476190D02*
X197005238Y-109380952D01*
X198814761Y-106276190D02*
X198814761Y-107419047D01*
X198814761Y-106847619D02*
X196814761Y-106847619D01*
X196814761Y-106847619D02*
X197100476Y-107038095D01*
X197100476Y-107038095D02*
X197290952Y-107228571D01*
X197290952Y-107228571D02*
X197386190Y-107419047D01*
X197005238Y-105514285D02*
X196910000Y-105419047D01*
X196910000Y-105419047D02*
X196814761Y-105228571D01*
X196814761Y-105228571D02*
X196814761Y-104752380D01*
X196814761Y-104752380D02*
X196910000Y-104561904D01*
X196910000Y-104561904D02*
X197005238Y-104466666D01*
X197005238Y-104466666D02*
X197195714Y-104371428D01*
X197195714Y-104371428D02*
X197386190Y-104371428D01*
X197386190Y-104371428D02*
X197671904Y-104466666D01*
X197671904Y-104466666D02*
X198814761Y-105609523D01*
X198814761Y-105609523D02*
X198814761Y-104371428D01*
X196814761Y-103799999D02*
X198814761Y-103133333D01*
X198814761Y-103133333D02*
X196814761Y-102466666D01*
D10*
X168988095Y-146888571D02*
X169321428Y-146888571D01*
X169464285Y-147412380D02*
X168988095Y-147412380D01*
X168988095Y-147412380D02*
X168988095Y-146412380D01*
X168988095Y-146412380D02*
X169464285Y-146412380D01*
X170035714Y-147412380D02*
X169940476Y-147364761D01*
X169940476Y-147364761D02*
X169892857Y-147269523D01*
X169892857Y-147269523D02*
X169892857Y-146412380D01*
X170797619Y-147364761D02*
X170702381Y-147412380D01*
X170702381Y-147412380D02*
X170511905Y-147412380D01*
X170511905Y-147412380D02*
X170416667Y-147364761D01*
X170416667Y-147364761D02*
X170369048Y-147269523D01*
X170369048Y-147269523D02*
X170369048Y-146888571D01*
X170369048Y-146888571D02*
X170416667Y-146793333D01*
X170416667Y-146793333D02*
X170511905Y-146745714D01*
X170511905Y-146745714D02*
X170702381Y-146745714D01*
X170702381Y-146745714D02*
X170797619Y-146793333D01*
X170797619Y-146793333D02*
X170845238Y-146888571D01*
X170845238Y-146888571D02*
X170845238Y-146983809D01*
X170845238Y-146983809D02*
X170369048Y-147079047D01*
X171702381Y-147364761D02*
X171607143Y-147412380D01*
X171607143Y-147412380D02*
X171416667Y-147412380D01*
X171416667Y-147412380D02*
X171321429Y-147364761D01*
X171321429Y-147364761D02*
X171273810Y-147317142D01*
X171273810Y-147317142D02*
X171226191Y-147221904D01*
X171226191Y-147221904D02*
X171226191Y-146936190D01*
X171226191Y-146936190D02*
X171273810Y-146840952D01*
X171273810Y-146840952D02*
X171321429Y-146793333D01*
X171321429Y-146793333D02*
X171416667Y-146745714D01*
X171416667Y-146745714D02*
X171607143Y-146745714D01*
X171607143Y-146745714D02*
X171702381Y-146793333D01*
X171988096Y-146745714D02*
X172369048Y-146745714D01*
X172130953Y-146412380D02*
X172130953Y-147269523D01*
X172130953Y-147269523D02*
X172178572Y-147364761D01*
X172178572Y-147364761D02*
X172273810Y-147412380D01*
X172273810Y-147412380D02*
X172369048Y-147412380D01*
X172702382Y-147412380D02*
X172702382Y-146745714D01*
X172702382Y-146936190D02*
X172750001Y-146840952D01*
X172750001Y-146840952D02*
X172797620Y-146793333D01*
X172797620Y-146793333D02*
X172892858Y-146745714D01*
X172892858Y-146745714D02*
X172988096Y-146745714D01*
X173464287Y-147412380D02*
X173369049Y-147364761D01*
X173369049Y-147364761D02*
X173321430Y-147317142D01*
X173321430Y-147317142D02*
X173273811Y-147221904D01*
X173273811Y-147221904D02*
X173273811Y-146936190D01*
X173273811Y-146936190D02*
X173321430Y-146840952D01*
X173321430Y-146840952D02*
X173369049Y-146793333D01*
X173369049Y-146793333D02*
X173464287Y-146745714D01*
X173464287Y-146745714D02*
X173607144Y-146745714D01*
X173607144Y-146745714D02*
X173702382Y-146793333D01*
X173702382Y-146793333D02*
X173750001Y-146840952D01*
X173750001Y-146840952D02*
X173797620Y-146936190D01*
X173797620Y-146936190D02*
X173797620Y-147221904D01*
X173797620Y-147221904D02*
X173750001Y-147317142D01*
X173750001Y-147317142D02*
X173702382Y-147364761D01*
X173702382Y-147364761D02*
X173607144Y-147412380D01*
X173607144Y-147412380D02*
X173464287Y-147412380D01*
X174226192Y-146745714D02*
X174226192Y-147412380D01*
X174226192Y-146840952D02*
X174273811Y-146793333D01*
X174273811Y-146793333D02*
X174369049Y-146745714D01*
X174369049Y-146745714D02*
X174511906Y-146745714D01*
X174511906Y-146745714D02*
X174607144Y-146793333D01*
X174607144Y-146793333D02*
X174654763Y-146888571D01*
X174654763Y-146888571D02*
X174654763Y-147412380D01*
X175130954Y-147412380D02*
X175130954Y-146745714D01*
X175130954Y-146412380D02*
X175083335Y-146460000D01*
X175083335Y-146460000D02*
X175130954Y-146507619D01*
X175130954Y-146507619D02*
X175178573Y-146460000D01*
X175178573Y-146460000D02*
X175130954Y-146412380D01*
X175130954Y-146412380D02*
X175130954Y-146507619D01*
X176035715Y-147364761D02*
X175940477Y-147412380D01*
X175940477Y-147412380D02*
X175750001Y-147412380D01*
X175750001Y-147412380D02*
X175654763Y-147364761D01*
X175654763Y-147364761D02*
X175607144Y-147317142D01*
X175607144Y-147317142D02*
X175559525Y-147221904D01*
X175559525Y-147221904D02*
X175559525Y-146936190D01*
X175559525Y-146936190D02*
X175607144Y-146840952D01*
X175607144Y-146840952D02*
X175654763Y-146793333D01*
X175654763Y-146793333D02*
X175750001Y-146745714D01*
X175750001Y-146745714D02*
X175940477Y-146745714D01*
X175940477Y-146745714D02*
X176035715Y-146793333D01*
X177207144Y-147412380D02*
X177111906Y-147364761D01*
X177111906Y-147364761D02*
X177064287Y-147269523D01*
X177064287Y-147269523D02*
X177064287Y-146412380D01*
X177730954Y-147412380D02*
X177635716Y-147364761D01*
X177635716Y-147364761D02*
X177588097Y-147317142D01*
X177588097Y-147317142D02*
X177540478Y-147221904D01*
X177540478Y-147221904D02*
X177540478Y-146936190D01*
X177540478Y-146936190D02*
X177588097Y-146840952D01*
X177588097Y-146840952D02*
X177635716Y-146793333D01*
X177635716Y-146793333D02*
X177730954Y-146745714D01*
X177730954Y-146745714D02*
X177873811Y-146745714D01*
X177873811Y-146745714D02*
X177969049Y-146793333D01*
X177969049Y-146793333D02*
X178016668Y-146840952D01*
X178016668Y-146840952D02*
X178064287Y-146936190D01*
X178064287Y-146936190D02*
X178064287Y-147221904D01*
X178064287Y-147221904D02*
X178016668Y-147317142D01*
X178016668Y-147317142D02*
X177969049Y-147364761D01*
X177969049Y-147364761D02*
X177873811Y-147412380D01*
X177873811Y-147412380D02*
X177730954Y-147412380D01*
X178921430Y-147412380D02*
X178921430Y-146888571D01*
X178921430Y-146888571D02*
X178873811Y-146793333D01*
X178873811Y-146793333D02*
X178778573Y-146745714D01*
X178778573Y-146745714D02*
X178588097Y-146745714D01*
X178588097Y-146745714D02*
X178492859Y-146793333D01*
X178921430Y-147364761D02*
X178826192Y-147412380D01*
X178826192Y-147412380D02*
X178588097Y-147412380D01*
X178588097Y-147412380D02*
X178492859Y-147364761D01*
X178492859Y-147364761D02*
X178445240Y-147269523D01*
X178445240Y-147269523D02*
X178445240Y-147174285D01*
X178445240Y-147174285D02*
X178492859Y-147079047D01*
X178492859Y-147079047D02*
X178588097Y-147031428D01*
X178588097Y-147031428D02*
X178826192Y-147031428D01*
X178826192Y-147031428D02*
X178921430Y-146983809D01*
X179826192Y-147412380D02*
X179826192Y-146412380D01*
X179826192Y-147364761D02*
X179730954Y-147412380D01*
X179730954Y-147412380D02*
X179540478Y-147412380D01*
X179540478Y-147412380D02*
X179445240Y-147364761D01*
X179445240Y-147364761D02*
X179397621Y-147317142D01*
X179397621Y-147317142D02*
X179350002Y-147221904D01*
X179350002Y-147221904D02*
X179350002Y-146936190D01*
X179350002Y-146936190D02*
X179397621Y-146840952D01*
X179397621Y-146840952D02*
X179445240Y-146793333D01*
X179445240Y-146793333D02*
X179540478Y-146745714D01*
X179540478Y-146745714D02*
X179730954Y-146745714D01*
X179730954Y-146745714D02*
X179826192Y-146793333D01*
X180254764Y-147364761D02*
X180350002Y-147412380D01*
X180350002Y-147412380D02*
X180540478Y-147412380D01*
X180540478Y-147412380D02*
X180635716Y-147364761D01*
X180635716Y-147364761D02*
X180683335Y-147269523D01*
X180683335Y-147269523D02*
X180683335Y-147221904D01*
X180683335Y-147221904D02*
X180635716Y-147126666D01*
X180635716Y-147126666D02*
X180540478Y-147079047D01*
X180540478Y-147079047D02*
X180397621Y-147079047D01*
X180397621Y-147079047D02*
X180302383Y-147031428D01*
X180302383Y-147031428D02*
X180254764Y-146936190D01*
X180254764Y-146936190D02*
X180254764Y-146888571D01*
X180254764Y-146888571D02*
X180302383Y-146793333D01*
X180302383Y-146793333D02*
X180397621Y-146745714D01*
X180397621Y-146745714D02*
X180540478Y-146745714D01*
X180540478Y-146745714D02*
X180635716Y-146793333D01*
X181616669Y-146745714D02*
X181854764Y-147412380D01*
X181854764Y-147412380D02*
X182092859Y-146745714D01*
X182997621Y-147412380D02*
X182426193Y-147412380D01*
X182711907Y-147412380D02*
X182711907Y-146412380D01*
X182711907Y-146412380D02*
X182616669Y-146555238D01*
X182616669Y-146555238D02*
X182521431Y-146650476D01*
X182521431Y-146650476D02*
X182426193Y-146698095D01*
X183426193Y-147317142D02*
X183473812Y-147364761D01*
X183473812Y-147364761D02*
X183426193Y-147412380D01*
X183426193Y-147412380D02*
X183378574Y-147364761D01*
X183378574Y-147364761D02*
X183426193Y-147317142D01*
X183426193Y-147317142D02*
X183426193Y-147412380D01*
X184092859Y-146412380D02*
X184188097Y-146412380D01*
X184188097Y-146412380D02*
X184283335Y-146460000D01*
X184283335Y-146460000D02*
X184330954Y-146507619D01*
X184330954Y-146507619D02*
X184378573Y-146602857D01*
X184378573Y-146602857D02*
X184426192Y-146793333D01*
X184426192Y-146793333D02*
X184426192Y-147031428D01*
X184426192Y-147031428D02*
X184378573Y-147221904D01*
X184378573Y-147221904D02*
X184330954Y-147317142D01*
X184330954Y-147317142D02*
X184283335Y-147364761D01*
X184283335Y-147364761D02*
X184188097Y-147412380D01*
X184188097Y-147412380D02*
X184092859Y-147412380D01*
X184092859Y-147412380D02*
X183997621Y-147364761D01*
X183997621Y-147364761D02*
X183950002Y-147317142D01*
X183950002Y-147317142D02*
X183902383Y-147221904D01*
X183902383Y-147221904D02*
X183854764Y-147031428D01*
X183854764Y-147031428D02*
X183854764Y-146793333D01*
X183854764Y-146793333D02*
X183902383Y-146602857D01*
X183902383Y-146602857D02*
X183950002Y-146507619D01*
X183950002Y-146507619D02*
X183997621Y-146460000D01*
X183997621Y-146460000D02*
X184092859Y-146412380D01*
X169416666Y-149032380D02*
X169416666Y-148032380D01*
X169416666Y-148984761D02*
X169321428Y-149032380D01*
X169321428Y-149032380D02*
X169130952Y-149032380D01*
X169130952Y-149032380D02*
X169035714Y-148984761D01*
X169035714Y-148984761D02*
X168988095Y-148937142D01*
X168988095Y-148937142D02*
X168940476Y-148841904D01*
X168940476Y-148841904D02*
X168940476Y-148556190D01*
X168940476Y-148556190D02*
X168988095Y-148460952D01*
X168988095Y-148460952D02*
X169035714Y-148413333D01*
X169035714Y-148413333D02*
X169130952Y-148365714D01*
X169130952Y-148365714D02*
X169321428Y-148365714D01*
X169321428Y-148365714D02*
X169416666Y-148413333D01*
X170273809Y-148984761D02*
X170178571Y-149032380D01*
X170178571Y-149032380D02*
X169988095Y-149032380D01*
X169988095Y-149032380D02*
X169892857Y-148984761D01*
X169892857Y-148984761D02*
X169845238Y-148889523D01*
X169845238Y-148889523D02*
X169845238Y-148508571D01*
X169845238Y-148508571D02*
X169892857Y-148413333D01*
X169892857Y-148413333D02*
X169988095Y-148365714D01*
X169988095Y-148365714D02*
X170178571Y-148365714D01*
X170178571Y-148365714D02*
X170273809Y-148413333D01*
X170273809Y-148413333D02*
X170321428Y-148508571D01*
X170321428Y-148508571D02*
X170321428Y-148603809D01*
X170321428Y-148603809D02*
X169845238Y-148699047D01*
X170702381Y-148984761D02*
X170797619Y-149032380D01*
X170797619Y-149032380D02*
X170988095Y-149032380D01*
X170988095Y-149032380D02*
X171083333Y-148984761D01*
X171083333Y-148984761D02*
X171130952Y-148889523D01*
X171130952Y-148889523D02*
X171130952Y-148841904D01*
X171130952Y-148841904D02*
X171083333Y-148746666D01*
X171083333Y-148746666D02*
X170988095Y-148699047D01*
X170988095Y-148699047D02*
X170845238Y-148699047D01*
X170845238Y-148699047D02*
X170750000Y-148651428D01*
X170750000Y-148651428D02*
X170702381Y-148556190D01*
X170702381Y-148556190D02*
X170702381Y-148508571D01*
X170702381Y-148508571D02*
X170750000Y-148413333D01*
X170750000Y-148413333D02*
X170845238Y-148365714D01*
X170845238Y-148365714D02*
X170988095Y-148365714D01*
X170988095Y-148365714D02*
X171083333Y-148413333D01*
X171559524Y-149032380D02*
X171559524Y-148365714D01*
X171559524Y-148032380D02*
X171511905Y-148080000D01*
X171511905Y-148080000D02*
X171559524Y-148127619D01*
X171559524Y-148127619D02*
X171607143Y-148080000D01*
X171607143Y-148080000D02*
X171559524Y-148032380D01*
X171559524Y-148032380D02*
X171559524Y-148127619D01*
X172464285Y-148365714D02*
X172464285Y-149175238D01*
X172464285Y-149175238D02*
X172416666Y-149270476D01*
X172416666Y-149270476D02*
X172369047Y-149318095D01*
X172369047Y-149318095D02*
X172273809Y-149365714D01*
X172273809Y-149365714D02*
X172130952Y-149365714D01*
X172130952Y-149365714D02*
X172035714Y-149318095D01*
X172464285Y-148984761D02*
X172369047Y-149032380D01*
X172369047Y-149032380D02*
X172178571Y-149032380D01*
X172178571Y-149032380D02*
X172083333Y-148984761D01*
X172083333Y-148984761D02*
X172035714Y-148937142D01*
X172035714Y-148937142D02*
X171988095Y-148841904D01*
X171988095Y-148841904D02*
X171988095Y-148556190D01*
X171988095Y-148556190D02*
X172035714Y-148460952D01*
X172035714Y-148460952D02*
X172083333Y-148413333D01*
X172083333Y-148413333D02*
X172178571Y-148365714D01*
X172178571Y-148365714D02*
X172369047Y-148365714D01*
X172369047Y-148365714D02*
X172464285Y-148413333D01*
X172940476Y-148365714D02*
X172940476Y-149032380D01*
X172940476Y-148460952D02*
X172988095Y-148413333D01*
X172988095Y-148413333D02*
X173083333Y-148365714D01*
X173083333Y-148365714D02*
X173226190Y-148365714D01*
X173226190Y-148365714D02*
X173321428Y-148413333D01*
X173321428Y-148413333D02*
X173369047Y-148508571D01*
X173369047Y-148508571D02*
X173369047Y-149032380D01*
X174226190Y-148984761D02*
X174130952Y-149032380D01*
X174130952Y-149032380D02*
X173940476Y-149032380D01*
X173940476Y-149032380D02*
X173845238Y-148984761D01*
X173845238Y-148984761D02*
X173797619Y-148889523D01*
X173797619Y-148889523D02*
X173797619Y-148508571D01*
X173797619Y-148508571D02*
X173845238Y-148413333D01*
X173845238Y-148413333D02*
X173940476Y-148365714D01*
X173940476Y-148365714D02*
X174130952Y-148365714D01*
X174130952Y-148365714D02*
X174226190Y-148413333D01*
X174226190Y-148413333D02*
X174273809Y-148508571D01*
X174273809Y-148508571D02*
X174273809Y-148603809D01*
X174273809Y-148603809D02*
X173797619Y-148699047D01*
X175130952Y-149032380D02*
X175130952Y-148032380D01*
X175130952Y-148984761D02*
X175035714Y-149032380D01*
X175035714Y-149032380D02*
X174845238Y-149032380D01*
X174845238Y-149032380D02*
X174750000Y-148984761D01*
X174750000Y-148984761D02*
X174702381Y-148937142D01*
X174702381Y-148937142D02*
X174654762Y-148841904D01*
X174654762Y-148841904D02*
X174654762Y-148556190D01*
X174654762Y-148556190D02*
X174702381Y-148460952D01*
X174702381Y-148460952D02*
X174750000Y-148413333D01*
X174750000Y-148413333D02*
X174845238Y-148365714D01*
X174845238Y-148365714D02*
X175035714Y-148365714D01*
X175035714Y-148365714D02*
X175130952Y-148413333D01*
X176207143Y-149032380D02*
X176207143Y-148032380D01*
X176207143Y-148413333D02*
X176302381Y-148365714D01*
X176302381Y-148365714D02*
X176492857Y-148365714D01*
X176492857Y-148365714D02*
X176588095Y-148413333D01*
X176588095Y-148413333D02*
X176635714Y-148460952D01*
X176635714Y-148460952D02*
X176683333Y-148556190D01*
X176683333Y-148556190D02*
X176683333Y-148841904D01*
X176683333Y-148841904D02*
X176635714Y-148937142D01*
X176635714Y-148937142D02*
X176588095Y-148984761D01*
X176588095Y-148984761D02*
X176492857Y-149032380D01*
X176492857Y-149032380D02*
X176302381Y-149032380D01*
X176302381Y-149032380D02*
X176207143Y-148984761D01*
X177016667Y-148365714D02*
X177254762Y-149032380D01*
X177492857Y-148365714D02*
X177254762Y-149032380D01*
X177254762Y-149032380D02*
X177159524Y-149270476D01*
X177159524Y-149270476D02*
X177111905Y-149318095D01*
X177111905Y-149318095D02*
X177016667Y-149365714D01*
X178473810Y-149032380D02*
X178473810Y-148365714D01*
X178473810Y-148460952D02*
X178521429Y-148413333D01*
X178521429Y-148413333D02*
X178616667Y-148365714D01*
X178616667Y-148365714D02*
X178759524Y-148365714D01*
X178759524Y-148365714D02*
X178854762Y-148413333D01*
X178854762Y-148413333D02*
X178902381Y-148508571D01*
X178902381Y-148508571D02*
X178902381Y-149032380D01*
X178902381Y-148508571D02*
X178950000Y-148413333D01*
X178950000Y-148413333D02*
X179045238Y-148365714D01*
X179045238Y-148365714D02*
X179188095Y-148365714D01*
X179188095Y-148365714D02*
X179283334Y-148413333D01*
X179283334Y-148413333D02*
X179330953Y-148508571D01*
X179330953Y-148508571D02*
X179330953Y-149032380D01*
X179807143Y-149032380D02*
X179807143Y-148365714D01*
X179807143Y-148460952D02*
X179854762Y-148413333D01*
X179854762Y-148413333D02*
X179950000Y-148365714D01*
X179950000Y-148365714D02*
X180092857Y-148365714D01*
X180092857Y-148365714D02*
X180188095Y-148413333D01*
X180188095Y-148413333D02*
X180235714Y-148508571D01*
X180235714Y-148508571D02*
X180235714Y-149032380D01*
X180235714Y-148508571D02*
X180283333Y-148413333D01*
X180283333Y-148413333D02*
X180378571Y-148365714D01*
X180378571Y-148365714D02*
X180521428Y-148365714D01*
X180521428Y-148365714D02*
X180616667Y-148413333D01*
X180616667Y-148413333D02*
X180664286Y-148508571D01*
X180664286Y-148508571D02*
X180664286Y-149032380D01*
X181569047Y-149032380D02*
X181569047Y-148508571D01*
X181569047Y-148508571D02*
X181521428Y-148413333D01*
X181521428Y-148413333D02*
X181426190Y-148365714D01*
X181426190Y-148365714D02*
X181235714Y-148365714D01*
X181235714Y-148365714D02*
X181140476Y-148413333D01*
X181569047Y-148984761D02*
X181473809Y-149032380D01*
X181473809Y-149032380D02*
X181235714Y-149032380D01*
X181235714Y-149032380D02*
X181140476Y-148984761D01*
X181140476Y-148984761D02*
X181092857Y-148889523D01*
X181092857Y-148889523D02*
X181092857Y-148794285D01*
X181092857Y-148794285D02*
X181140476Y-148699047D01*
X181140476Y-148699047D02*
X181235714Y-148651428D01*
X181235714Y-148651428D02*
X181473809Y-148651428D01*
X181473809Y-148651428D02*
X181569047Y-148603809D01*
X182473809Y-149032380D02*
X182473809Y-148508571D01*
X182473809Y-148508571D02*
X182426190Y-148413333D01*
X182426190Y-148413333D02*
X182330952Y-148365714D01*
X182330952Y-148365714D02*
X182140476Y-148365714D01*
X182140476Y-148365714D02*
X182045238Y-148413333D01*
X182473809Y-148984761D02*
X182378571Y-149032380D01*
X182378571Y-149032380D02*
X182140476Y-149032380D01*
X182140476Y-149032380D02*
X182045238Y-148984761D01*
X182045238Y-148984761D02*
X181997619Y-148889523D01*
X181997619Y-148889523D02*
X181997619Y-148794285D01*
X181997619Y-148794285D02*
X182045238Y-148699047D01*
X182045238Y-148699047D02*
X182140476Y-148651428D01*
X182140476Y-148651428D02*
X182378571Y-148651428D01*
X182378571Y-148651428D02*
X182473809Y-148603809D01*
X182950000Y-149032380D02*
X182950000Y-148032380D01*
X183045238Y-148651428D02*
X183330952Y-149032380D01*
X183330952Y-148365714D02*
X182950000Y-148746666D01*
X183759524Y-149032380D02*
X183759524Y-148032380D01*
X183854762Y-148651428D02*
X184140476Y-149032380D01*
X184140476Y-148365714D02*
X183759524Y-148746666D01*
X184473810Y-148365714D02*
X184711905Y-149032380D01*
X184950000Y-148365714D02*
X184711905Y-149032380D01*
X184711905Y-149032380D02*
X184616667Y-149270476D01*
X184616667Y-149270476D02*
X184569048Y-149318095D01*
X184569048Y-149318095D02*
X184473810Y-149365714D01*
X185235715Y-148365714D02*
X185473810Y-149032380D01*
X185711905Y-148365714D02*
X185473810Y-149032380D01*
X185473810Y-149032380D02*
X185378572Y-149270476D01*
X185378572Y-149270476D02*
X185330953Y-149318095D01*
X185330953Y-149318095D02*
X185235715Y-149365714D01*
X186092858Y-149032380D02*
X186092858Y-148365714D01*
X186092858Y-148032380D02*
X186045239Y-148080000D01*
X186045239Y-148080000D02*
X186092858Y-148127619D01*
X186092858Y-148127619D02*
X186140477Y-148080000D01*
X186140477Y-148080000D02*
X186092858Y-148032380D01*
X186092858Y-148032380D02*
X186092858Y-148127619D01*
X186569048Y-149032380D02*
X186569048Y-148365714D01*
X186569048Y-148032380D02*
X186521429Y-148080000D01*
X186521429Y-148080000D02*
X186569048Y-148127619D01*
X186569048Y-148127619D02*
X186616667Y-148080000D01*
X186616667Y-148080000D02*
X186569048Y-148032380D01*
X186569048Y-148032380D02*
X186569048Y-148127619D01*
%TO.C,U5*%
X173988095Y-110227380D02*
X173988095Y-111036904D01*
X173988095Y-111036904D02*
X174035714Y-111132142D01*
X174035714Y-111132142D02*
X174083333Y-111179761D01*
X174083333Y-111179761D02*
X174178571Y-111227380D01*
X174178571Y-111227380D02*
X174369047Y-111227380D01*
X174369047Y-111227380D02*
X174464285Y-111179761D01*
X174464285Y-111179761D02*
X174511904Y-111132142D01*
X174511904Y-111132142D02*
X174559523Y-111036904D01*
X174559523Y-111036904D02*
X174559523Y-110227380D01*
X175511904Y-110227380D02*
X175035714Y-110227380D01*
X175035714Y-110227380D02*
X174988095Y-110703571D01*
X174988095Y-110703571D02*
X175035714Y-110655952D01*
X175035714Y-110655952D02*
X175130952Y-110608333D01*
X175130952Y-110608333D02*
X175369047Y-110608333D01*
X175369047Y-110608333D02*
X175464285Y-110655952D01*
X175464285Y-110655952D02*
X175511904Y-110703571D01*
X175511904Y-110703571D02*
X175559523Y-110798809D01*
X175559523Y-110798809D02*
X175559523Y-111036904D01*
X175559523Y-111036904D02*
X175511904Y-111132142D01*
X175511904Y-111132142D02*
X175464285Y-111179761D01*
X175464285Y-111179761D02*
X175369047Y-111227380D01*
X175369047Y-111227380D02*
X175130952Y-111227380D01*
X175130952Y-111227380D02*
X175035714Y-111179761D01*
X175035714Y-111179761D02*
X174988095Y-111132142D01*
%TO.C,C15*%
X179032142Y-120892857D02*
X179079761Y-120940476D01*
X179079761Y-120940476D02*
X179127380Y-121083333D01*
X179127380Y-121083333D02*
X179127380Y-121178571D01*
X179127380Y-121178571D02*
X179079761Y-121321428D01*
X179079761Y-121321428D02*
X178984523Y-121416666D01*
X178984523Y-121416666D02*
X178889285Y-121464285D01*
X178889285Y-121464285D02*
X178698809Y-121511904D01*
X178698809Y-121511904D02*
X178555952Y-121511904D01*
X178555952Y-121511904D02*
X178365476Y-121464285D01*
X178365476Y-121464285D02*
X178270238Y-121416666D01*
X178270238Y-121416666D02*
X178175000Y-121321428D01*
X178175000Y-121321428D02*
X178127380Y-121178571D01*
X178127380Y-121178571D02*
X178127380Y-121083333D01*
X178127380Y-121083333D02*
X178175000Y-120940476D01*
X178175000Y-120940476D02*
X178222619Y-120892857D01*
X179127380Y-119940476D02*
X179127380Y-120511904D01*
X179127380Y-120226190D02*
X178127380Y-120226190D01*
X178127380Y-120226190D02*
X178270238Y-120321428D01*
X178270238Y-120321428D02*
X178365476Y-120416666D01*
X178365476Y-120416666D02*
X178413095Y-120511904D01*
X178127380Y-119035714D02*
X178127380Y-119511904D01*
X178127380Y-119511904D02*
X178603571Y-119559523D01*
X178603571Y-119559523D02*
X178555952Y-119511904D01*
X178555952Y-119511904D02*
X178508333Y-119416666D01*
X178508333Y-119416666D02*
X178508333Y-119178571D01*
X178508333Y-119178571D02*
X178555952Y-119083333D01*
X178555952Y-119083333D02*
X178603571Y-119035714D01*
X178603571Y-119035714D02*
X178698809Y-118988095D01*
X178698809Y-118988095D02*
X178936904Y-118988095D01*
X178936904Y-118988095D02*
X179032142Y-119035714D01*
X179032142Y-119035714D02*
X179079761Y-119083333D01*
X179079761Y-119083333D02*
X179127380Y-119178571D01*
X179127380Y-119178571D02*
X179127380Y-119416666D01*
X179127380Y-119416666D02*
X179079761Y-119511904D01*
X179079761Y-119511904D02*
X179032142Y-119559523D01*
%TO.C,J4*%
X158396666Y-102337380D02*
X158396666Y-103051666D01*
X158396666Y-103051666D02*
X158349047Y-103194523D01*
X158349047Y-103194523D02*
X158253809Y-103289761D01*
X158253809Y-103289761D02*
X158110952Y-103337380D01*
X158110952Y-103337380D02*
X158015714Y-103337380D01*
X159301428Y-102670714D02*
X159301428Y-103337380D01*
X159063333Y-102289761D02*
X158825238Y-103004047D01*
X158825238Y-103004047D02*
X159444285Y-103004047D01*
%TO.C,R3*%
X106833333Y-94107380D02*
X106500000Y-93631190D01*
X106261905Y-94107380D02*
X106261905Y-93107380D01*
X106261905Y-93107380D02*
X106642857Y-93107380D01*
X106642857Y-93107380D02*
X106738095Y-93155000D01*
X106738095Y-93155000D02*
X106785714Y-93202619D01*
X106785714Y-93202619D02*
X106833333Y-93297857D01*
X106833333Y-93297857D02*
X106833333Y-93440714D01*
X106833333Y-93440714D02*
X106785714Y-93535952D01*
X106785714Y-93535952D02*
X106738095Y-93583571D01*
X106738095Y-93583571D02*
X106642857Y-93631190D01*
X106642857Y-93631190D02*
X106261905Y-93631190D01*
X107166667Y-93107380D02*
X107785714Y-93107380D01*
X107785714Y-93107380D02*
X107452381Y-93488333D01*
X107452381Y-93488333D02*
X107595238Y-93488333D01*
X107595238Y-93488333D02*
X107690476Y-93535952D01*
X107690476Y-93535952D02*
X107738095Y-93583571D01*
X107738095Y-93583571D02*
X107785714Y-93678809D01*
X107785714Y-93678809D02*
X107785714Y-93916904D01*
X107785714Y-93916904D02*
X107738095Y-94012142D01*
X107738095Y-94012142D02*
X107690476Y-94059761D01*
X107690476Y-94059761D02*
X107595238Y-94107380D01*
X107595238Y-94107380D02*
X107309524Y-94107380D01*
X107309524Y-94107380D02*
X107214286Y-94059761D01*
X107214286Y-94059761D02*
X107166667Y-94012142D01*
%TO.C,R23*%
X180107142Y-144617380D02*
X179773809Y-144141190D01*
X179535714Y-144617380D02*
X179535714Y-143617380D01*
X179535714Y-143617380D02*
X179916666Y-143617380D01*
X179916666Y-143617380D02*
X180011904Y-143665000D01*
X180011904Y-143665000D02*
X180059523Y-143712619D01*
X180059523Y-143712619D02*
X180107142Y-143807857D01*
X180107142Y-143807857D02*
X180107142Y-143950714D01*
X180107142Y-143950714D02*
X180059523Y-144045952D01*
X180059523Y-144045952D02*
X180011904Y-144093571D01*
X180011904Y-144093571D02*
X179916666Y-144141190D01*
X179916666Y-144141190D02*
X179535714Y-144141190D01*
X180488095Y-143712619D02*
X180535714Y-143665000D01*
X180535714Y-143665000D02*
X180630952Y-143617380D01*
X180630952Y-143617380D02*
X180869047Y-143617380D01*
X180869047Y-143617380D02*
X180964285Y-143665000D01*
X180964285Y-143665000D02*
X181011904Y-143712619D01*
X181011904Y-143712619D02*
X181059523Y-143807857D01*
X181059523Y-143807857D02*
X181059523Y-143903095D01*
X181059523Y-143903095D02*
X181011904Y-144045952D01*
X181011904Y-144045952D02*
X180440476Y-144617380D01*
X180440476Y-144617380D02*
X181059523Y-144617380D01*
X181392857Y-143617380D02*
X182011904Y-143617380D01*
X182011904Y-143617380D02*
X181678571Y-143998333D01*
X181678571Y-143998333D02*
X181821428Y-143998333D01*
X181821428Y-143998333D02*
X181916666Y-144045952D01*
X181916666Y-144045952D02*
X181964285Y-144093571D01*
X181964285Y-144093571D02*
X182011904Y-144188809D01*
X182011904Y-144188809D02*
X182011904Y-144426904D01*
X182011904Y-144426904D02*
X181964285Y-144522142D01*
X181964285Y-144522142D02*
X181916666Y-144569761D01*
X181916666Y-144569761D02*
X181821428Y-144617380D01*
X181821428Y-144617380D02*
X181535714Y-144617380D01*
X181535714Y-144617380D02*
X181440476Y-144569761D01*
X181440476Y-144569761D02*
X181392857Y-144522142D01*
%TO.C,R1*%
X106697380Y-89656666D02*
X106221190Y-89989999D01*
X106697380Y-90228094D02*
X105697380Y-90228094D01*
X105697380Y-90228094D02*
X105697380Y-89847142D01*
X105697380Y-89847142D02*
X105745000Y-89751904D01*
X105745000Y-89751904D02*
X105792619Y-89704285D01*
X105792619Y-89704285D02*
X105887857Y-89656666D01*
X105887857Y-89656666D02*
X106030714Y-89656666D01*
X106030714Y-89656666D02*
X106125952Y-89704285D01*
X106125952Y-89704285D02*
X106173571Y-89751904D01*
X106173571Y-89751904D02*
X106221190Y-89847142D01*
X106221190Y-89847142D02*
X106221190Y-90228094D01*
X106697380Y-88704285D02*
X106697380Y-89275713D01*
X106697380Y-88989999D02*
X105697380Y-88989999D01*
X105697380Y-88989999D02*
X105840238Y-89085237D01*
X105840238Y-89085237D02*
X105935476Y-89180475D01*
X105935476Y-89180475D02*
X105983095Y-89275713D01*
%TO.C,C12*%
X165107142Y-106772142D02*
X165059523Y-106819761D01*
X165059523Y-106819761D02*
X164916666Y-106867380D01*
X164916666Y-106867380D02*
X164821428Y-106867380D01*
X164821428Y-106867380D02*
X164678571Y-106819761D01*
X164678571Y-106819761D02*
X164583333Y-106724523D01*
X164583333Y-106724523D02*
X164535714Y-106629285D01*
X164535714Y-106629285D02*
X164488095Y-106438809D01*
X164488095Y-106438809D02*
X164488095Y-106295952D01*
X164488095Y-106295952D02*
X164535714Y-106105476D01*
X164535714Y-106105476D02*
X164583333Y-106010238D01*
X164583333Y-106010238D02*
X164678571Y-105915000D01*
X164678571Y-105915000D02*
X164821428Y-105867380D01*
X164821428Y-105867380D02*
X164916666Y-105867380D01*
X164916666Y-105867380D02*
X165059523Y-105915000D01*
X165059523Y-105915000D02*
X165107142Y-105962619D01*
X166059523Y-106867380D02*
X165488095Y-106867380D01*
X165773809Y-106867380D02*
X165773809Y-105867380D01*
X165773809Y-105867380D02*
X165678571Y-106010238D01*
X165678571Y-106010238D02*
X165583333Y-106105476D01*
X165583333Y-106105476D02*
X165488095Y-106153095D01*
X166440476Y-105962619D02*
X166488095Y-105915000D01*
X166488095Y-105915000D02*
X166583333Y-105867380D01*
X166583333Y-105867380D02*
X166821428Y-105867380D01*
X166821428Y-105867380D02*
X166916666Y-105915000D01*
X166916666Y-105915000D02*
X166964285Y-105962619D01*
X166964285Y-105962619D02*
X167011904Y-106057857D01*
X167011904Y-106057857D02*
X167011904Y-106153095D01*
X167011904Y-106153095D02*
X166964285Y-106295952D01*
X166964285Y-106295952D02*
X166392857Y-106867380D01*
X166392857Y-106867380D02*
X167011904Y-106867380D01*
%TO.C,R16*%
X178617380Y-113642857D02*
X178141190Y-113976190D01*
X178617380Y-114214285D02*
X177617380Y-114214285D01*
X177617380Y-114214285D02*
X177617380Y-113833333D01*
X177617380Y-113833333D02*
X177665000Y-113738095D01*
X177665000Y-113738095D02*
X177712619Y-113690476D01*
X177712619Y-113690476D02*
X177807857Y-113642857D01*
X177807857Y-113642857D02*
X177950714Y-113642857D01*
X177950714Y-113642857D02*
X178045952Y-113690476D01*
X178045952Y-113690476D02*
X178093571Y-113738095D01*
X178093571Y-113738095D02*
X178141190Y-113833333D01*
X178141190Y-113833333D02*
X178141190Y-114214285D01*
X178617380Y-112690476D02*
X178617380Y-113261904D01*
X178617380Y-112976190D02*
X177617380Y-112976190D01*
X177617380Y-112976190D02*
X177760238Y-113071428D01*
X177760238Y-113071428D02*
X177855476Y-113166666D01*
X177855476Y-113166666D02*
X177903095Y-113261904D01*
X177617380Y-111833333D02*
X177617380Y-112023809D01*
X177617380Y-112023809D02*
X177665000Y-112119047D01*
X177665000Y-112119047D02*
X177712619Y-112166666D01*
X177712619Y-112166666D02*
X177855476Y-112261904D01*
X177855476Y-112261904D02*
X178045952Y-112309523D01*
X178045952Y-112309523D02*
X178426904Y-112309523D01*
X178426904Y-112309523D02*
X178522142Y-112261904D01*
X178522142Y-112261904D02*
X178569761Y-112214285D01*
X178569761Y-112214285D02*
X178617380Y-112119047D01*
X178617380Y-112119047D02*
X178617380Y-111928571D01*
X178617380Y-111928571D02*
X178569761Y-111833333D01*
X178569761Y-111833333D02*
X178522142Y-111785714D01*
X178522142Y-111785714D02*
X178426904Y-111738095D01*
X178426904Y-111738095D02*
X178188809Y-111738095D01*
X178188809Y-111738095D02*
X178093571Y-111785714D01*
X178093571Y-111785714D02*
X178045952Y-111833333D01*
X178045952Y-111833333D02*
X177998333Y-111928571D01*
X177998333Y-111928571D02*
X177998333Y-112119047D01*
X177998333Y-112119047D02*
X178045952Y-112214285D01*
X178045952Y-112214285D02*
X178093571Y-112261904D01*
X178093571Y-112261904D02*
X178188809Y-112309523D01*
%TO.C,C13*%
X172107142Y-143272142D02*
X172059523Y-143319761D01*
X172059523Y-143319761D02*
X171916666Y-143367380D01*
X171916666Y-143367380D02*
X171821428Y-143367380D01*
X171821428Y-143367380D02*
X171678571Y-143319761D01*
X171678571Y-143319761D02*
X171583333Y-143224523D01*
X171583333Y-143224523D02*
X171535714Y-143129285D01*
X171535714Y-143129285D02*
X171488095Y-142938809D01*
X171488095Y-142938809D02*
X171488095Y-142795952D01*
X171488095Y-142795952D02*
X171535714Y-142605476D01*
X171535714Y-142605476D02*
X171583333Y-142510238D01*
X171583333Y-142510238D02*
X171678571Y-142415000D01*
X171678571Y-142415000D02*
X171821428Y-142367380D01*
X171821428Y-142367380D02*
X171916666Y-142367380D01*
X171916666Y-142367380D02*
X172059523Y-142415000D01*
X172059523Y-142415000D02*
X172107142Y-142462619D01*
X173059523Y-143367380D02*
X172488095Y-143367380D01*
X172773809Y-143367380D02*
X172773809Y-142367380D01*
X172773809Y-142367380D02*
X172678571Y-142510238D01*
X172678571Y-142510238D02*
X172583333Y-142605476D01*
X172583333Y-142605476D02*
X172488095Y-142653095D01*
X173392857Y-142367380D02*
X174011904Y-142367380D01*
X174011904Y-142367380D02*
X173678571Y-142748333D01*
X173678571Y-142748333D02*
X173821428Y-142748333D01*
X173821428Y-142748333D02*
X173916666Y-142795952D01*
X173916666Y-142795952D02*
X173964285Y-142843571D01*
X173964285Y-142843571D02*
X174011904Y-142938809D01*
X174011904Y-142938809D02*
X174011904Y-143176904D01*
X174011904Y-143176904D02*
X173964285Y-143272142D01*
X173964285Y-143272142D02*
X173916666Y-143319761D01*
X173916666Y-143319761D02*
X173821428Y-143367380D01*
X173821428Y-143367380D02*
X173535714Y-143367380D01*
X173535714Y-143367380D02*
X173440476Y-143319761D01*
X173440476Y-143319761D02*
X173392857Y-143272142D01*
%TO.C,U3*%
X116738095Y-67342380D02*
X116738095Y-68151904D01*
X116738095Y-68151904D02*
X116785714Y-68247142D01*
X116785714Y-68247142D02*
X116833333Y-68294761D01*
X116833333Y-68294761D02*
X116928571Y-68342380D01*
X116928571Y-68342380D02*
X117119047Y-68342380D01*
X117119047Y-68342380D02*
X117214285Y-68294761D01*
X117214285Y-68294761D02*
X117261904Y-68247142D01*
X117261904Y-68247142D02*
X117309523Y-68151904D01*
X117309523Y-68151904D02*
X117309523Y-67342380D01*
X117690476Y-67342380D02*
X118309523Y-67342380D01*
X118309523Y-67342380D02*
X117976190Y-67723333D01*
X117976190Y-67723333D02*
X118119047Y-67723333D01*
X118119047Y-67723333D02*
X118214285Y-67770952D01*
X118214285Y-67770952D02*
X118261904Y-67818571D01*
X118261904Y-67818571D02*
X118309523Y-67913809D01*
X118309523Y-67913809D02*
X118309523Y-68151904D01*
X118309523Y-68151904D02*
X118261904Y-68247142D01*
X118261904Y-68247142D02*
X118214285Y-68294761D01*
X118214285Y-68294761D02*
X118119047Y-68342380D01*
X118119047Y-68342380D02*
X117833333Y-68342380D01*
X117833333Y-68342380D02*
X117738095Y-68294761D01*
X117738095Y-68294761D02*
X117690476Y-68247142D01*
%TO.C,TP5*%
X164617380Y-121261904D02*
X164617380Y-120690476D01*
X165617380Y-120976190D02*
X164617380Y-120976190D01*
X165617380Y-120357142D02*
X164617380Y-120357142D01*
X164617380Y-120357142D02*
X164617380Y-119976190D01*
X164617380Y-119976190D02*
X164665000Y-119880952D01*
X164665000Y-119880952D02*
X164712619Y-119833333D01*
X164712619Y-119833333D02*
X164807857Y-119785714D01*
X164807857Y-119785714D02*
X164950714Y-119785714D01*
X164950714Y-119785714D02*
X165045952Y-119833333D01*
X165045952Y-119833333D02*
X165093571Y-119880952D01*
X165093571Y-119880952D02*
X165141190Y-119976190D01*
X165141190Y-119976190D02*
X165141190Y-120357142D01*
X164617380Y-118880952D02*
X164617380Y-119357142D01*
X164617380Y-119357142D02*
X165093571Y-119404761D01*
X165093571Y-119404761D02*
X165045952Y-119357142D01*
X165045952Y-119357142D02*
X164998333Y-119261904D01*
X164998333Y-119261904D02*
X164998333Y-119023809D01*
X164998333Y-119023809D02*
X165045952Y-118928571D01*
X165045952Y-118928571D02*
X165093571Y-118880952D01*
X165093571Y-118880952D02*
X165188809Y-118833333D01*
X165188809Y-118833333D02*
X165426904Y-118833333D01*
X165426904Y-118833333D02*
X165522142Y-118880952D01*
X165522142Y-118880952D02*
X165569761Y-118928571D01*
X165569761Y-118928571D02*
X165617380Y-119023809D01*
X165617380Y-119023809D02*
X165617380Y-119261904D01*
X165617380Y-119261904D02*
X165569761Y-119357142D01*
X165569761Y-119357142D02*
X165522142Y-119404761D01*
%TO.C,C8*%
X170833333Y-105362142D02*
X170785714Y-105409761D01*
X170785714Y-105409761D02*
X170642857Y-105457380D01*
X170642857Y-105457380D02*
X170547619Y-105457380D01*
X170547619Y-105457380D02*
X170404762Y-105409761D01*
X170404762Y-105409761D02*
X170309524Y-105314523D01*
X170309524Y-105314523D02*
X170261905Y-105219285D01*
X170261905Y-105219285D02*
X170214286Y-105028809D01*
X170214286Y-105028809D02*
X170214286Y-104885952D01*
X170214286Y-104885952D02*
X170261905Y-104695476D01*
X170261905Y-104695476D02*
X170309524Y-104600238D01*
X170309524Y-104600238D02*
X170404762Y-104505000D01*
X170404762Y-104505000D02*
X170547619Y-104457380D01*
X170547619Y-104457380D02*
X170642857Y-104457380D01*
X170642857Y-104457380D02*
X170785714Y-104505000D01*
X170785714Y-104505000D02*
X170833333Y-104552619D01*
X171404762Y-104885952D02*
X171309524Y-104838333D01*
X171309524Y-104838333D02*
X171261905Y-104790714D01*
X171261905Y-104790714D02*
X171214286Y-104695476D01*
X171214286Y-104695476D02*
X171214286Y-104647857D01*
X171214286Y-104647857D02*
X171261905Y-104552619D01*
X171261905Y-104552619D02*
X171309524Y-104505000D01*
X171309524Y-104505000D02*
X171404762Y-104457380D01*
X171404762Y-104457380D02*
X171595238Y-104457380D01*
X171595238Y-104457380D02*
X171690476Y-104505000D01*
X171690476Y-104505000D02*
X171738095Y-104552619D01*
X171738095Y-104552619D02*
X171785714Y-104647857D01*
X171785714Y-104647857D02*
X171785714Y-104695476D01*
X171785714Y-104695476D02*
X171738095Y-104790714D01*
X171738095Y-104790714D02*
X171690476Y-104838333D01*
X171690476Y-104838333D02*
X171595238Y-104885952D01*
X171595238Y-104885952D02*
X171404762Y-104885952D01*
X171404762Y-104885952D02*
X171309524Y-104933571D01*
X171309524Y-104933571D02*
X171261905Y-104981190D01*
X171261905Y-104981190D02*
X171214286Y-105076428D01*
X171214286Y-105076428D02*
X171214286Y-105266904D01*
X171214286Y-105266904D02*
X171261905Y-105362142D01*
X171261905Y-105362142D02*
X171309524Y-105409761D01*
X171309524Y-105409761D02*
X171404762Y-105457380D01*
X171404762Y-105457380D02*
X171595238Y-105457380D01*
X171595238Y-105457380D02*
X171690476Y-105409761D01*
X171690476Y-105409761D02*
X171738095Y-105362142D01*
X171738095Y-105362142D02*
X171785714Y-105266904D01*
X171785714Y-105266904D02*
X171785714Y-105076428D01*
X171785714Y-105076428D02*
X171738095Y-104981190D01*
X171738095Y-104981190D02*
X171690476Y-104933571D01*
X171690476Y-104933571D02*
X171595238Y-104885952D01*
%TO.C,R10*%
X197607142Y-62617380D02*
X197273809Y-62141190D01*
X197035714Y-62617380D02*
X197035714Y-61617380D01*
X197035714Y-61617380D02*
X197416666Y-61617380D01*
X197416666Y-61617380D02*
X197511904Y-61665000D01*
X197511904Y-61665000D02*
X197559523Y-61712619D01*
X197559523Y-61712619D02*
X197607142Y-61807857D01*
X197607142Y-61807857D02*
X197607142Y-61950714D01*
X197607142Y-61950714D02*
X197559523Y-62045952D01*
X197559523Y-62045952D02*
X197511904Y-62093571D01*
X197511904Y-62093571D02*
X197416666Y-62141190D01*
X197416666Y-62141190D02*
X197035714Y-62141190D01*
X198559523Y-62617380D02*
X197988095Y-62617380D01*
X198273809Y-62617380D02*
X198273809Y-61617380D01*
X198273809Y-61617380D02*
X198178571Y-61760238D01*
X198178571Y-61760238D02*
X198083333Y-61855476D01*
X198083333Y-61855476D02*
X197988095Y-61903095D01*
X199178571Y-61617380D02*
X199273809Y-61617380D01*
X199273809Y-61617380D02*
X199369047Y-61665000D01*
X199369047Y-61665000D02*
X199416666Y-61712619D01*
X199416666Y-61712619D02*
X199464285Y-61807857D01*
X199464285Y-61807857D02*
X199511904Y-61998333D01*
X199511904Y-61998333D02*
X199511904Y-62236428D01*
X199511904Y-62236428D02*
X199464285Y-62426904D01*
X199464285Y-62426904D02*
X199416666Y-62522142D01*
X199416666Y-62522142D02*
X199369047Y-62569761D01*
X199369047Y-62569761D02*
X199273809Y-62617380D01*
X199273809Y-62617380D02*
X199178571Y-62617380D01*
X199178571Y-62617380D02*
X199083333Y-62569761D01*
X199083333Y-62569761D02*
X199035714Y-62522142D01*
X199035714Y-62522142D02*
X198988095Y-62426904D01*
X198988095Y-62426904D02*
X198940476Y-62236428D01*
X198940476Y-62236428D02*
X198940476Y-61998333D01*
X198940476Y-61998333D02*
X198988095Y-61807857D01*
X198988095Y-61807857D02*
X199035714Y-61712619D01*
X199035714Y-61712619D02*
X199083333Y-61665000D01*
X199083333Y-61665000D02*
X199178571Y-61617380D01*
%TO.C,R2*%
X138447380Y-68416666D02*
X137971190Y-68749999D01*
X138447380Y-68988094D02*
X137447380Y-68988094D01*
X137447380Y-68988094D02*
X137447380Y-68607142D01*
X137447380Y-68607142D02*
X137495000Y-68511904D01*
X137495000Y-68511904D02*
X137542619Y-68464285D01*
X137542619Y-68464285D02*
X137637857Y-68416666D01*
X137637857Y-68416666D02*
X137780714Y-68416666D01*
X137780714Y-68416666D02*
X137875952Y-68464285D01*
X137875952Y-68464285D02*
X137923571Y-68511904D01*
X137923571Y-68511904D02*
X137971190Y-68607142D01*
X137971190Y-68607142D02*
X137971190Y-68988094D01*
X137542619Y-68035713D02*
X137495000Y-67988094D01*
X137495000Y-67988094D02*
X137447380Y-67892856D01*
X137447380Y-67892856D02*
X137447380Y-67654761D01*
X137447380Y-67654761D02*
X137495000Y-67559523D01*
X137495000Y-67559523D02*
X137542619Y-67511904D01*
X137542619Y-67511904D02*
X137637857Y-67464285D01*
X137637857Y-67464285D02*
X137733095Y-67464285D01*
X137733095Y-67464285D02*
X137875952Y-67511904D01*
X137875952Y-67511904D02*
X138447380Y-68083332D01*
X138447380Y-68083332D02*
X138447380Y-67464285D01*
%TO.C,R8*%
X175197380Y-98166666D02*
X174721190Y-98499999D01*
X175197380Y-98738094D02*
X174197380Y-98738094D01*
X174197380Y-98738094D02*
X174197380Y-98357142D01*
X174197380Y-98357142D02*
X174245000Y-98261904D01*
X174245000Y-98261904D02*
X174292619Y-98214285D01*
X174292619Y-98214285D02*
X174387857Y-98166666D01*
X174387857Y-98166666D02*
X174530714Y-98166666D01*
X174530714Y-98166666D02*
X174625952Y-98214285D01*
X174625952Y-98214285D02*
X174673571Y-98261904D01*
X174673571Y-98261904D02*
X174721190Y-98357142D01*
X174721190Y-98357142D02*
X174721190Y-98738094D01*
X174625952Y-97595237D02*
X174578333Y-97690475D01*
X174578333Y-97690475D02*
X174530714Y-97738094D01*
X174530714Y-97738094D02*
X174435476Y-97785713D01*
X174435476Y-97785713D02*
X174387857Y-97785713D01*
X174387857Y-97785713D02*
X174292619Y-97738094D01*
X174292619Y-97738094D02*
X174245000Y-97690475D01*
X174245000Y-97690475D02*
X174197380Y-97595237D01*
X174197380Y-97595237D02*
X174197380Y-97404761D01*
X174197380Y-97404761D02*
X174245000Y-97309523D01*
X174245000Y-97309523D02*
X174292619Y-97261904D01*
X174292619Y-97261904D02*
X174387857Y-97214285D01*
X174387857Y-97214285D02*
X174435476Y-97214285D01*
X174435476Y-97214285D02*
X174530714Y-97261904D01*
X174530714Y-97261904D02*
X174578333Y-97309523D01*
X174578333Y-97309523D02*
X174625952Y-97404761D01*
X174625952Y-97404761D02*
X174625952Y-97595237D01*
X174625952Y-97595237D02*
X174673571Y-97690475D01*
X174673571Y-97690475D02*
X174721190Y-97738094D01*
X174721190Y-97738094D02*
X174816428Y-97785713D01*
X174816428Y-97785713D02*
X175006904Y-97785713D01*
X175006904Y-97785713D02*
X175102142Y-97738094D01*
X175102142Y-97738094D02*
X175149761Y-97690475D01*
X175149761Y-97690475D02*
X175197380Y-97595237D01*
X175197380Y-97595237D02*
X175197380Y-97404761D01*
X175197380Y-97404761D02*
X175149761Y-97309523D01*
X175149761Y-97309523D02*
X175102142Y-97261904D01*
X175102142Y-97261904D02*
X175006904Y-97214285D01*
X175006904Y-97214285D02*
X174816428Y-97214285D01*
X174816428Y-97214285D02*
X174721190Y-97261904D01*
X174721190Y-97261904D02*
X174673571Y-97309523D01*
X174673571Y-97309523D02*
X174625952Y-97404761D01*
%TO.C,R22*%
X181867380Y-120892857D02*
X181391190Y-121226190D01*
X181867380Y-121464285D02*
X180867380Y-121464285D01*
X180867380Y-121464285D02*
X180867380Y-121083333D01*
X180867380Y-121083333D02*
X180915000Y-120988095D01*
X180915000Y-120988095D02*
X180962619Y-120940476D01*
X180962619Y-120940476D02*
X181057857Y-120892857D01*
X181057857Y-120892857D02*
X181200714Y-120892857D01*
X181200714Y-120892857D02*
X181295952Y-120940476D01*
X181295952Y-120940476D02*
X181343571Y-120988095D01*
X181343571Y-120988095D02*
X181391190Y-121083333D01*
X181391190Y-121083333D02*
X181391190Y-121464285D01*
X180962619Y-120511904D02*
X180915000Y-120464285D01*
X180915000Y-120464285D02*
X180867380Y-120369047D01*
X180867380Y-120369047D02*
X180867380Y-120130952D01*
X180867380Y-120130952D02*
X180915000Y-120035714D01*
X180915000Y-120035714D02*
X180962619Y-119988095D01*
X180962619Y-119988095D02*
X181057857Y-119940476D01*
X181057857Y-119940476D02*
X181153095Y-119940476D01*
X181153095Y-119940476D02*
X181295952Y-119988095D01*
X181295952Y-119988095D02*
X181867380Y-120559523D01*
X181867380Y-120559523D02*
X181867380Y-119940476D01*
X180962619Y-119559523D02*
X180915000Y-119511904D01*
X180915000Y-119511904D02*
X180867380Y-119416666D01*
X180867380Y-119416666D02*
X180867380Y-119178571D01*
X180867380Y-119178571D02*
X180915000Y-119083333D01*
X180915000Y-119083333D02*
X180962619Y-119035714D01*
X180962619Y-119035714D02*
X181057857Y-118988095D01*
X181057857Y-118988095D02*
X181153095Y-118988095D01*
X181153095Y-118988095D02*
X181295952Y-119035714D01*
X181295952Y-119035714D02*
X181867380Y-119607142D01*
X181867380Y-119607142D02*
X181867380Y-118988095D01*
%TO.C,R7*%
X190947380Y-69166666D02*
X190471190Y-69499999D01*
X190947380Y-69738094D02*
X189947380Y-69738094D01*
X189947380Y-69738094D02*
X189947380Y-69357142D01*
X189947380Y-69357142D02*
X189995000Y-69261904D01*
X189995000Y-69261904D02*
X190042619Y-69214285D01*
X190042619Y-69214285D02*
X190137857Y-69166666D01*
X190137857Y-69166666D02*
X190280714Y-69166666D01*
X190280714Y-69166666D02*
X190375952Y-69214285D01*
X190375952Y-69214285D02*
X190423571Y-69261904D01*
X190423571Y-69261904D02*
X190471190Y-69357142D01*
X190471190Y-69357142D02*
X190471190Y-69738094D01*
X189947380Y-68833332D02*
X189947380Y-68166666D01*
X189947380Y-68166666D02*
X190947380Y-68595237D01*
%TO.C,TP6*%
X164617380Y-129011904D02*
X164617380Y-128440476D01*
X165617380Y-128726190D02*
X164617380Y-128726190D01*
X165617380Y-128107142D02*
X164617380Y-128107142D01*
X164617380Y-128107142D02*
X164617380Y-127726190D01*
X164617380Y-127726190D02*
X164665000Y-127630952D01*
X164665000Y-127630952D02*
X164712619Y-127583333D01*
X164712619Y-127583333D02*
X164807857Y-127535714D01*
X164807857Y-127535714D02*
X164950714Y-127535714D01*
X164950714Y-127535714D02*
X165045952Y-127583333D01*
X165045952Y-127583333D02*
X165093571Y-127630952D01*
X165093571Y-127630952D02*
X165141190Y-127726190D01*
X165141190Y-127726190D02*
X165141190Y-128107142D01*
X164617380Y-126678571D02*
X164617380Y-126869047D01*
X164617380Y-126869047D02*
X164665000Y-126964285D01*
X164665000Y-126964285D02*
X164712619Y-127011904D01*
X164712619Y-127011904D02*
X164855476Y-127107142D01*
X164855476Y-127107142D02*
X165045952Y-127154761D01*
X165045952Y-127154761D02*
X165426904Y-127154761D01*
X165426904Y-127154761D02*
X165522142Y-127107142D01*
X165522142Y-127107142D02*
X165569761Y-127059523D01*
X165569761Y-127059523D02*
X165617380Y-126964285D01*
X165617380Y-126964285D02*
X165617380Y-126773809D01*
X165617380Y-126773809D02*
X165569761Y-126678571D01*
X165569761Y-126678571D02*
X165522142Y-126630952D01*
X165522142Y-126630952D02*
X165426904Y-126583333D01*
X165426904Y-126583333D02*
X165188809Y-126583333D01*
X165188809Y-126583333D02*
X165093571Y-126630952D01*
X165093571Y-126630952D02*
X165045952Y-126678571D01*
X165045952Y-126678571D02*
X164998333Y-126773809D01*
X164998333Y-126773809D02*
X164998333Y-126964285D01*
X164998333Y-126964285D02*
X165045952Y-127059523D01*
X165045952Y-127059523D02*
X165093571Y-127107142D01*
X165093571Y-127107142D02*
X165188809Y-127154761D01*
%TO.C,TP2*%
X171488095Y-98617380D02*
X172059523Y-98617380D01*
X171773809Y-99617380D02*
X171773809Y-98617380D01*
X172392857Y-99617380D02*
X172392857Y-98617380D01*
X172392857Y-98617380D02*
X172773809Y-98617380D01*
X172773809Y-98617380D02*
X172869047Y-98665000D01*
X172869047Y-98665000D02*
X172916666Y-98712619D01*
X172916666Y-98712619D02*
X172964285Y-98807857D01*
X172964285Y-98807857D02*
X172964285Y-98950714D01*
X172964285Y-98950714D02*
X172916666Y-99045952D01*
X172916666Y-99045952D02*
X172869047Y-99093571D01*
X172869047Y-99093571D02*
X172773809Y-99141190D01*
X172773809Y-99141190D02*
X172392857Y-99141190D01*
X173345238Y-98712619D02*
X173392857Y-98665000D01*
X173392857Y-98665000D02*
X173488095Y-98617380D01*
X173488095Y-98617380D02*
X173726190Y-98617380D01*
X173726190Y-98617380D02*
X173821428Y-98665000D01*
X173821428Y-98665000D02*
X173869047Y-98712619D01*
X173869047Y-98712619D02*
X173916666Y-98807857D01*
X173916666Y-98807857D02*
X173916666Y-98903095D01*
X173916666Y-98903095D02*
X173869047Y-99045952D01*
X173869047Y-99045952D02*
X173297619Y-99617380D01*
X173297619Y-99617380D02*
X173916666Y-99617380D01*
%TO.C,TP4*%
X178988095Y-103367380D02*
X179559523Y-103367380D01*
X179273809Y-104367380D02*
X179273809Y-103367380D01*
X179892857Y-104367380D02*
X179892857Y-103367380D01*
X179892857Y-103367380D02*
X180273809Y-103367380D01*
X180273809Y-103367380D02*
X180369047Y-103415000D01*
X180369047Y-103415000D02*
X180416666Y-103462619D01*
X180416666Y-103462619D02*
X180464285Y-103557857D01*
X180464285Y-103557857D02*
X180464285Y-103700714D01*
X180464285Y-103700714D02*
X180416666Y-103795952D01*
X180416666Y-103795952D02*
X180369047Y-103843571D01*
X180369047Y-103843571D02*
X180273809Y-103891190D01*
X180273809Y-103891190D02*
X179892857Y-103891190D01*
X181321428Y-103700714D02*
X181321428Y-104367380D01*
X181083333Y-103319761D02*
X180845238Y-104034047D01*
X180845238Y-104034047D02*
X181464285Y-104034047D01*
%TO.C,U1*%
X169238095Y-90967380D02*
X169238095Y-91776904D01*
X169238095Y-91776904D02*
X169285714Y-91872142D01*
X169285714Y-91872142D02*
X169333333Y-91919761D01*
X169333333Y-91919761D02*
X169428571Y-91967380D01*
X169428571Y-91967380D02*
X169619047Y-91967380D01*
X169619047Y-91967380D02*
X169714285Y-91919761D01*
X169714285Y-91919761D02*
X169761904Y-91872142D01*
X169761904Y-91872142D02*
X169809523Y-91776904D01*
X169809523Y-91776904D02*
X169809523Y-90967380D01*
X170809523Y-91967380D02*
X170238095Y-91967380D01*
X170523809Y-91967380D02*
X170523809Y-90967380D01*
X170523809Y-90967380D02*
X170428571Y-91110238D01*
X170428571Y-91110238D02*
X170333333Y-91205476D01*
X170333333Y-91205476D02*
X170238095Y-91253095D01*
%TO.C,J2*%
X186133333Y-103132619D02*
X186133333Y-102418333D01*
X186133333Y-102418333D02*
X186180952Y-102275476D01*
X186180952Y-102275476D02*
X186276190Y-102180238D01*
X186276190Y-102180238D02*
X186419047Y-102132619D01*
X186419047Y-102132619D02*
X186514285Y-102132619D01*
X185704761Y-103037380D02*
X185657142Y-103085000D01*
X185657142Y-103085000D02*
X185561904Y-103132619D01*
X185561904Y-103132619D02*
X185323809Y-103132619D01*
X185323809Y-103132619D02*
X185228571Y-103085000D01*
X185228571Y-103085000D02*
X185180952Y-103037380D01*
X185180952Y-103037380D02*
X185133333Y-102942142D01*
X185133333Y-102942142D02*
X185133333Y-102846904D01*
X185133333Y-102846904D02*
X185180952Y-102704047D01*
X185180952Y-102704047D02*
X185752380Y-102132619D01*
X185752380Y-102132619D02*
X185133333Y-102132619D01*
%TO.C,Q3*%
X165904761Y-65962619D02*
X165809523Y-65915000D01*
X165809523Y-65915000D02*
X165714285Y-65819761D01*
X165714285Y-65819761D02*
X165571428Y-65676904D01*
X165571428Y-65676904D02*
X165476190Y-65629285D01*
X165476190Y-65629285D02*
X165380952Y-65629285D01*
X165428571Y-65867380D02*
X165333333Y-65819761D01*
X165333333Y-65819761D02*
X165238095Y-65724523D01*
X165238095Y-65724523D02*
X165190476Y-65534047D01*
X165190476Y-65534047D02*
X165190476Y-65200714D01*
X165190476Y-65200714D02*
X165238095Y-65010238D01*
X165238095Y-65010238D02*
X165333333Y-64915000D01*
X165333333Y-64915000D02*
X165428571Y-64867380D01*
X165428571Y-64867380D02*
X165619047Y-64867380D01*
X165619047Y-64867380D02*
X165714285Y-64915000D01*
X165714285Y-64915000D02*
X165809523Y-65010238D01*
X165809523Y-65010238D02*
X165857142Y-65200714D01*
X165857142Y-65200714D02*
X165857142Y-65534047D01*
X165857142Y-65534047D02*
X165809523Y-65724523D01*
X165809523Y-65724523D02*
X165714285Y-65819761D01*
X165714285Y-65819761D02*
X165619047Y-65867380D01*
X165619047Y-65867380D02*
X165428571Y-65867380D01*
X166190476Y-64867380D02*
X166809523Y-64867380D01*
X166809523Y-64867380D02*
X166476190Y-65248333D01*
X166476190Y-65248333D02*
X166619047Y-65248333D01*
X166619047Y-65248333D02*
X166714285Y-65295952D01*
X166714285Y-65295952D02*
X166761904Y-65343571D01*
X166761904Y-65343571D02*
X166809523Y-65438809D01*
X166809523Y-65438809D02*
X166809523Y-65676904D01*
X166809523Y-65676904D02*
X166761904Y-65772142D01*
X166761904Y-65772142D02*
X166714285Y-65819761D01*
X166714285Y-65819761D02*
X166619047Y-65867380D01*
X166619047Y-65867380D02*
X166333333Y-65867380D01*
X166333333Y-65867380D02*
X166238095Y-65819761D01*
X166238095Y-65819761D02*
X166190476Y-65772142D01*
%TO.C,C2*%
X197022142Y-115416666D02*
X197069761Y-115464285D01*
X197069761Y-115464285D02*
X197117380Y-115607142D01*
X197117380Y-115607142D02*
X197117380Y-115702380D01*
X197117380Y-115702380D02*
X197069761Y-115845237D01*
X197069761Y-115845237D02*
X196974523Y-115940475D01*
X196974523Y-115940475D02*
X196879285Y-115988094D01*
X196879285Y-115988094D02*
X196688809Y-116035713D01*
X196688809Y-116035713D02*
X196545952Y-116035713D01*
X196545952Y-116035713D02*
X196355476Y-115988094D01*
X196355476Y-115988094D02*
X196260238Y-115940475D01*
X196260238Y-115940475D02*
X196165000Y-115845237D01*
X196165000Y-115845237D02*
X196117380Y-115702380D01*
X196117380Y-115702380D02*
X196117380Y-115607142D01*
X196117380Y-115607142D02*
X196165000Y-115464285D01*
X196165000Y-115464285D02*
X196212619Y-115416666D01*
X196212619Y-115035713D02*
X196165000Y-114988094D01*
X196165000Y-114988094D02*
X196117380Y-114892856D01*
X196117380Y-114892856D02*
X196117380Y-114654761D01*
X196117380Y-114654761D02*
X196165000Y-114559523D01*
X196165000Y-114559523D02*
X196212619Y-114511904D01*
X196212619Y-114511904D02*
X196307857Y-114464285D01*
X196307857Y-114464285D02*
X196403095Y-114464285D01*
X196403095Y-114464285D02*
X196545952Y-114511904D01*
X196545952Y-114511904D02*
X197117380Y-115083332D01*
X197117380Y-115083332D02*
X197117380Y-114464285D01*
%TO.C,SW1*%
X187069761Y-139833332D02*
X187117380Y-139690475D01*
X187117380Y-139690475D02*
X187117380Y-139452380D01*
X187117380Y-139452380D02*
X187069761Y-139357142D01*
X187069761Y-139357142D02*
X187022142Y-139309523D01*
X187022142Y-139309523D02*
X186926904Y-139261904D01*
X186926904Y-139261904D02*
X186831666Y-139261904D01*
X186831666Y-139261904D02*
X186736428Y-139309523D01*
X186736428Y-139309523D02*
X186688809Y-139357142D01*
X186688809Y-139357142D02*
X186641190Y-139452380D01*
X186641190Y-139452380D02*
X186593571Y-139642856D01*
X186593571Y-139642856D02*
X186545952Y-139738094D01*
X186545952Y-139738094D02*
X186498333Y-139785713D01*
X186498333Y-139785713D02*
X186403095Y-139833332D01*
X186403095Y-139833332D02*
X186307857Y-139833332D01*
X186307857Y-139833332D02*
X186212619Y-139785713D01*
X186212619Y-139785713D02*
X186165000Y-139738094D01*
X186165000Y-139738094D02*
X186117380Y-139642856D01*
X186117380Y-139642856D02*
X186117380Y-139404761D01*
X186117380Y-139404761D02*
X186165000Y-139261904D01*
X186117380Y-138928570D02*
X187117380Y-138690475D01*
X187117380Y-138690475D02*
X186403095Y-138499999D01*
X186403095Y-138499999D02*
X187117380Y-138309523D01*
X187117380Y-138309523D02*
X186117380Y-138071428D01*
X187117380Y-137166666D02*
X187117380Y-137738094D01*
X187117380Y-137452380D02*
X186117380Y-137452380D01*
X186117380Y-137452380D02*
X186260238Y-137547618D01*
X186260238Y-137547618D02*
X186355476Y-137642856D01*
X186355476Y-137642856D02*
X186403095Y-137738094D01*
%TO.C,R14*%
X169107142Y-123117380D02*
X168773809Y-122641190D01*
X168535714Y-123117380D02*
X168535714Y-122117380D01*
X168535714Y-122117380D02*
X168916666Y-122117380D01*
X168916666Y-122117380D02*
X169011904Y-122165000D01*
X169011904Y-122165000D02*
X169059523Y-122212619D01*
X169059523Y-122212619D02*
X169107142Y-122307857D01*
X169107142Y-122307857D02*
X169107142Y-122450714D01*
X169107142Y-122450714D02*
X169059523Y-122545952D01*
X169059523Y-122545952D02*
X169011904Y-122593571D01*
X169011904Y-122593571D02*
X168916666Y-122641190D01*
X168916666Y-122641190D02*
X168535714Y-122641190D01*
X170059523Y-123117380D02*
X169488095Y-123117380D01*
X169773809Y-123117380D02*
X169773809Y-122117380D01*
X169773809Y-122117380D02*
X169678571Y-122260238D01*
X169678571Y-122260238D02*
X169583333Y-122355476D01*
X169583333Y-122355476D02*
X169488095Y-122403095D01*
X170916666Y-122450714D02*
X170916666Y-123117380D01*
X170678571Y-122069761D02*
X170440476Y-122784047D01*
X170440476Y-122784047D02*
X171059523Y-122784047D01*
%TO.C,R19*%
X175617380Y-120892857D02*
X175141190Y-121226190D01*
X175617380Y-121464285D02*
X174617380Y-121464285D01*
X174617380Y-121464285D02*
X174617380Y-121083333D01*
X174617380Y-121083333D02*
X174665000Y-120988095D01*
X174665000Y-120988095D02*
X174712619Y-120940476D01*
X174712619Y-120940476D02*
X174807857Y-120892857D01*
X174807857Y-120892857D02*
X174950714Y-120892857D01*
X174950714Y-120892857D02*
X175045952Y-120940476D01*
X175045952Y-120940476D02*
X175093571Y-120988095D01*
X175093571Y-120988095D02*
X175141190Y-121083333D01*
X175141190Y-121083333D02*
X175141190Y-121464285D01*
X175617380Y-119940476D02*
X175617380Y-120511904D01*
X175617380Y-120226190D02*
X174617380Y-120226190D01*
X174617380Y-120226190D02*
X174760238Y-120321428D01*
X174760238Y-120321428D02*
X174855476Y-120416666D01*
X174855476Y-120416666D02*
X174903095Y-120511904D01*
X175617380Y-119464285D02*
X175617380Y-119273809D01*
X175617380Y-119273809D02*
X175569761Y-119178571D01*
X175569761Y-119178571D02*
X175522142Y-119130952D01*
X175522142Y-119130952D02*
X175379285Y-119035714D01*
X175379285Y-119035714D02*
X175188809Y-118988095D01*
X175188809Y-118988095D02*
X174807857Y-118988095D01*
X174807857Y-118988095D02*
X174712619Y-119035714D01*
X174712619Y-119035714D02*
X174665000Y-119083333D01*
X174665000Y-119083333D02*
X174617380Y-119178571D01*
X174617380Y-119178571D02*
X174617380Y-119369047D01*
X174617380Y-119369047D02*
X174665000Y-119464285D01*
X174665000Y-119464285D02*
X174712619Y-119511904D01*
X174712619Y-119511904D02*
X174807857Y-119559523D01*
X174807857Y-119559523D02*
X175045952Y-119559523D01*
X175045952Y-119559523D02*
X175141190Y-119511904D01*
X175141190Y-119511904D02*
X175188809Y-119464285D01*
X175188809Y-119464285D02*
X175236428Y-119369047D01*
X175236428Y-119369047D02*
X175236428Y-119178571D01*
X175236428Y-119178571D02*
X175188809Y-119083333D01*
X175188809Y-119083333D02*
X175141190Y-119035714D01*
X175141190Y-119035714D02*
X175045952Y-118988095D01*
%TO.C,R17*%
X188117380Y-131142857D02*
X187641190Y-131476190D01*
X188117380Y-131714285D02*
X187117380Y-131714285D01*
X187117380Y-131714285D02*
X187117380Y-131333333D01*
X187117380Y-131333333D02*
X187165000Y-131238095D01*
X187165000Y-131238095D02*
X187212619Y-131190476D01*
X187212619Y-131190476D02*
X187307857Y-131142857D01*
X187307857Y-131142857D02*
X187450714Y-131142857D01*
X187450714Y-131142857D02*
X187545952Y-131190476D01*
X187545952Y-131190476D02*
X187593571Y-131238095D01*
X187593571Y-131238095D02*
X187641190Y-131333333D01*
X187641190Y-131333333D02*
X187641190Y-131714285D01*
X188117380Y-130190476D02*
X188117380Y-130761904D01*
X188117380Y-130476190D02*
X187117380Y-130476190D01*
X187117380Y-130476190D02*
X187260238Y-130571428D01*
X187260238Y-130571428D02*
X187355476Y-130666666D01*
X187355476Y-130666666D02*
X187403095Y-130761904D01*
X187117380Y-129857142D02*
X187117380Y-129190476D01*
X187117380Y-129190476D02*
X188117380Y-129619047D01*
%TO.C,U4*%
X166617380Y-110761904D02*
X167426904Y-110761904D01*
X167426904Y-110761904D02*
X167522142Y-110714285D01*
X167522142Y-110714285D02*
X167569761Y-110666666D01*
X167569761Y-110666666D02*
X167617380Y-110571428D01*
X167617380Y-110571428D02*
X167617380Y-110380952D01*
X167617380Y-110380952D02*
X167569761Y-110285714D01*
X167569761Y-110285714D02*
X167522142Y-110238095D01*
X167522142Y-110238095D02*
X167426904Y-110190476D01*
X167426904Y-110190476D02*
X166617380Y-110190476D01*
X166950714Y-109285714D02*
X167617380Y-109285714D01*
X166569761Y-109523809D02*
X167284047Y-109761904D01*
X167284047Y-109761904D02*
X167284047Y-109142857D01*
%TO.C,Q2*%
X139154761Y-65962619D02*
X139059523Y-65915000D01*
X139059523Y-65915000D02*
X138964285Y-65819761D01*
X138964285Y-65819761D02*
X138821428Y-65676904D01*
X138821428Y-65676904D02*
X138726190Y-65629285D01*
X138726190Y-65629285D02*
X138630952Y-65629285D01*
X138678571Y-65867380D02*
X138583333Y-65819761D01*
X138583333Y-65819761D02*
X138488095Y-65724523D01*
X138488095Y-65724523D02*
X138440476Y-65534047D01*
X138440476Y-65534047D02*
X138440476Y-65200714D01*
X138440476Y-65200714D02*
X138488095Y-65010238D01*
X138488095Y-65010238D02*
X138583333Y-64915000D01*
X138583333Y-64915000D02*
X138678571Y-64867380D01*
X138678571Y-64867380D02*
X138869047Y-64867380D01*
X138869047Y-64867380D02*
X138964285Y-64915000D01*
X138964285Y-64915000D02*
X139059523Y-65010238D01*
X139059523Y-65010238D02*
X139107142Y-65200714D01*
X139107142Y-65200714D02*
X139107142Y-65534047D01*
X139107142Y-65534047D02*
X139059523Y-65724523D01*
X139059523Y-65724523D02*
X138964285Y-65819761D01*
X138964285Y-65819761D02*
X138869047Y-65867380D01*
X138869047Y-65867380D02*
X138678571Y-65867380D01*
X139488095Y-64962619D02*
X139535714Y-64915000D01*
X139535714Y-64915000D02*
X139630952Y-64867380D01*
X139630952Y-64867380D02*
X139869047Y-64867380D01*
X139869047Y-64867380D02*
X139964285Y-64915000D01*
X139964285Y-64915000D02*
X140011904Y-64962619D01*
X140011904Y-64962619D02*
X140059523Y-65057857D01*
X140059523Y-65057857D02*
X140059523Y-65153095D01*
X140059523Y-65153095D02*
X140011904Y-65295952D01*
X140011904Y-65295952D02*
X139440476Y-65867380D01*
X139440476Y-65867380D02*
X140059523Y-65867380D01*
%TO.C,C14*%
X184857142Y-143272142D02*
X184809523Y-143319761D01*
X184809523Y-143319761D02*
X184666666Y-143367380D01*
X184666666Y-143367380D02*
X184571428Y-143367380D01*
X184571428Y-143367380D02*
X184428571Y-143319761D01*
X184428571Y-143319761D02*
X184333333Y-143224523D01*
X184333333Y-143224523D02*
X184285714Y-143129285D01*
X184285714Y-143129285D02*
X184238095Y-142938809D01*
X184238095Y-142938809D02*
X184238095Y-142795952D01*
X184238095Y-142795952D02*
X184285714Y-142605476D01*
X184285714Y-142605476D02*
X184333333Y-142510238D01*
X184333333Y-142510238D02*
X184428571Y-142415000D01*
X184428571Y-142415000D02*
X184571428Y-142367380D01*
X184571428Y-142367380D02*
X184666666Y-142367380D01*
X184666666Y-142367380D02*
X184809523Y-142415000D01*
X184809523Y-142415000D02*
X184857142Y-142462619D01*
X185809523Y-143367380D02*
X185238095Y-143367380D01*
X185523809Y-143367380D02*
X185523809Y-142367380D01*
X185523809Y-142367380D02*
X185428571Y-142510238D01*
X185428571Y-142510238D02*
X185333333Y-142605476D01*
X185333333Y-142605476D02*
X185238095Y-142653095D01*
X186666666Y-142700714D02*
X186666666Y-143367380D01*
X186428571Y-142319761D02*
X186190476Y-143034047D01*
X186190476Y-143034047D02*
X186809523Y-143034047D01*
%TO.C,Q4*%
X192404761Y-65962619D02*
X192309523Y-65915000D01*
X192309523Y-65915000D02*
X192214285Y-65819761D01*
X192214285Y-65819761D02*
X192071428Y-65676904D01*
X192071428Y-65676904D02*
X191976190Y-65629285D01*
X191976190Y-65629285D02*
X191880952Y-65629285D01*
X191928571Y-65867380D02*
X191833333Y-65819761D01*
X191833333Y-65819761D02*
X191738095Y-65724523D01*
X191738095Y-65724523D02*
X191690476Y-65534047D01*
X191690476Y-65534047D02*
X191690476Y-65200714D01*
X191690476Y-65200714D02*
X191738095Y-65010238D01*
X191738095Y-65010238D02*
X191833333Y-64915000D01*
X191833333Y-64915000D02*
X191928571Y-64867380D01*
X191928571Y-64867380D02*
X192119047Y-64867380D01*
X192119047Y-64867380D02*
X192214285Y-64915000D01*
X192214285Y-64915000D02*
X192309523Y-65010238D01*
X192309523Y-65010238D02*
X192357142Y-65200714D01*
X192357142Y-65200714D02*
X192357142Y-65534047D01*
X192357142Y-65534047D02*
X192309523Y-65724523D01*
X192309523Y-65724523D02*
X192214285Y-65819761D01*
X192214285Y-65819761D02*
X192119047Y-65867380D01*
X192119047Y-65867380D02*
X191928571Y-65867380D01*
X193214285Y-65200714D02*
X193214285Y-65867380D01*
X192976190Y-64819761D02*
X192738095Y-65534047D01*
X192738095Y-65534047D02*
X193357142Y-65534047D01*
%TO.C,U2*%
X185617380Y-111011904D02*
X186426904Y-111011904D01*
X186426904Y-111011904D02*
X186522142Y-110964285D01*
X186522142Y-110964285D02*
X186569761Y-110916666D01*
X186569761Y-110916666D02*
X186617380Y-110821428D01*
X186617380Y-110821428D02*
X186617380Y-110630952D01*
X186617380Y-110630952D02*
X186569761Y-110535714D01*
X186569761Y-110535714D02*
X186522142Y-110488095D01*
X186522142Y-110488095D02*
X186426904Y-110440476D01*
X186426904Y-110440476D02*
X185617380Y-110440476D01*
X185712619Y-110011904D02*
X185665000Y-109964285D01*
X185665000Y-109964285D02*
X185617380Y-109869047D01*
X185617380Y-109869047D02*
X185617380Y-109630952D01*
X185617380Y-109630952D02*
X185665000Y-109535714D01*
X185665000Y-109535714D02*
X185712619Y-109488095D01*
X185712619Y-109488095D02*
X185807857Y-109440476D01*
X185807857Y-109440476D02*
X185903095Y-109440476D01*
X185903095Y-109440476D02*
X186045952Y-109488095D01*
X186045952Y-109488095D02*
X186617380Y-110059523D01*
X186617380Y-110059523D02*
X186617380Y-109440476D01*
%TO.C,R5*%
X193083333Y-122367380D02*
X192750000Y-121891190D01*
X192511905Y-122367380D02*
X192511905Y-121367380D01*
X192511905Y-121367380D02*
X192892857Y-121367380D01*
X192892857Y-121367380D02*
X192988095Y-121415000D01*
X192988095Y-121415000D02*
X193035714Y-121462619D01*
X193035714Y-121462619D02*
X193083333Y-121557857D01*
X193083333Y-121557857D02*
X193083333Y-121700714D01*
X193083333Y-121700714D02*
X193035714Y-121795952D01*
X193035714Y-121795952D02*
X192988095Y-121843571D01*
X192988095Y-121843571D02*
X192892857Y-121891190D01*
X192892857Y-121891190D02*
X192511905Y-121891190D01*
X193988095Y-121367380D02*
X193511905Y-121367380D01*
X193511905Y-121367380D02*
X193464286Y-121843571D01*
X193464286Y-121843571D02*
X193511905Y-121795952D01*
X193511905Y-121795952D02*
X193607143Y-121748333D01*
X193607143Y-121748333D02*
X193845238Y-121748333D01*
X193845238Y-121748333D02*
X193940476Y-121795952D01*
X193940476Y-121795952D02*
X193988095Y-121843571D01*
X193988095Y-121843571D02*
X194035714Y-121938809D01*
X194035714Y-121938809D02*
X194035714Y-122176904D01*
X194035714Y-122176904D02*
X193988095Y-122272142D01*
X193988095Y-122272142D02*
X193940476Y-122319761D01*
X193940476Y-122319761D02*
X193845238Y-122367380D01*
X193845238Y-122367380D02*
X193607143Y-122367380D01*
X193607143Y-122367380D02*
X193511905Y-122319761D01*
X193511905Y-122319761D02*
X193464286Y-122272142D01*
%TO.C,Q5*%
X189212619Y-134095238D02*
X189165000Y-134190476D01*
X189165000Y-134190476D02*
X189069761Y-134285714D01*
X189069761Y-134285714D02*
X188926904Y-134428571D01*
X188926904Y-134428571D02*
X188879285Y-134523809D01*
X188879285Y-134523809D02*
X188879285Y-134619047D01*
X189117380Y-134571428D02*
X189069761Y-134666666D01*
X189069761Y-134666666D02*
X188974523Y-134761904D01*
X188974523Y-134761904D02*
X188784047Y-134809523D01*
X188784047Y-134809523D02*
X188450714Y-134809523D01*
X188450714Y-134809523D02*
X188260238Y-134761904D01*
X188260238Y-134761904D02*
X188165000Y-134666666D01*
X188165000Y-134666666D02*
X188117380Y-134571428D01*
X188117380Y-134571428D02*
X188117380Y-134380952D01*
X188117380Y-134380952D02*
X188165000Y-134285714D01*
X188165000Y-134285714D02*
X188260238Y-134190476D01*
X188260238Y-134190476D02*
X188450714Y-134142857D01*
X188450714Y-134142857D02*
X188784047Y-134142857D01*
X188784047Y-134142857D02*
X188974523Y-134190476D01*
X188974523Y-134190476D02*
X189069761Y-134285714D01*
X189069761Y-134285714D02*
X189117380Y-134380952D01*
X189117380Y-134380952D02*
X189117380Y-134571428D01*
X188117380Y-133238095D02*
X188117380Y-133714285D01*
X188117380Y-133714285D02*
X188593571Y-133761904D01*
X188593571Y-133761904D02*
X188545952Y-133714285D01*
X188545952Y-133714285D02*
X188498333Y-133619047D01*
X188498333Y-133619047D02*
X188498333Y-133380952D01*
X188498333Y-133380952D02*
X188545952Y-133285714D01*
X188545952Y-133285714D02*
X188593571Y-133238095D01*
X188593571Y-133238095D02*
X188688809Y-133190476D01*
X188688809Y-133190476D02*
X188926904Y-133190476D01*
X188926904Y-133190476D02*
X189022142Y-133238095D01*
X189022142Y-133238095D02*
X189069761Y-133285714D01*
X189069761Y-133285714D02*
X189117380Y-133380952D01*
X189117380Y-133380952D02*
X189117380Y-133619047D01*
X189117380Y-133619047D02*
X189069761Y-133714285D01*
X189069761Y-133714285D02*
X189022142Y-133761904D01*
%TO.C,C1*%
X191833333Y-103022142D02*
X191785714Y-103069761D01*
X191785714Y-103069761D02*
X191642857Y-103117380D01*
X191642857Y-103117380D02*
X191547619Y-103117380D01*
X191547619Y-103117380D02*
X191404762Y-103069761D01*
X191404762Y-103069761D02*
X191309524Y-102974523D01*
X191309524Y-102974523D02*
X191261905Y-102879285D01*
X191261905Y-102879285D02*
X191214286Y-102688809D01*
X191214286Y-102688809D02*
X191214286Y-102545952D01*
X191214286Y-102545952D02*
X191261905Y-102355476D01*
X191261905Y-102355476D02*
X191309524Y-102260238D01*
X191309524Y-102260238D02*
X191404762Y-102165000D01*
X191404762Y-102165000D02*
X191547619Y-102117380D01*
X191547619Y-102117380D02*
X191642857Y-102117380D01*
X191642857Y-102117380D02*
X191785714Y-102165000D01*
X191785714Y-102165000D02*
X191833333Y-102212619D01*
X192785714Y-103117380D02*
X192214286Y-103117380D01*
X192500000Y-103117380D02*
X192500000Y-102117380D01*
X192500000Y-102117380D02*
X192404762Y-102260238D01*
X192404762Y-102260238D02*
X192309524Y-102355476D01*
X192309524Y-102355476D02*
X192214286Y-102403095D01*
%TO.C,R12*%
X120617380Y-70892857D02*
X120141190Y-71226190D01*
X120617380Y-71464285D02*
X119617380Y-71464285D01*
X119617380Y-71464285D02*
X119617380Y-71083333D01*
X119617380Y-71083333D02*
X119665000Y-70988095D01*
X119665000Y-70988095D02*
X119712619Y-70940476D01*
X119712619Y-70940476D02*
X119807857Y-70892857D01*
X119807857Y-70892857D02*
X119950714Y-70892857D01*
X119950714Y-70892857D02*
X120045952Y-70940476D01*
X120045952Y-70940476D02*
X120093571Y-70988095D01*
X120093571Y-70988095D02*
X120141190Y-71083333D01*
X120141190Y-71083333D02*
X120141190Y-71464285D01*
X120617380Y-69940476D02*
X120617380Y-70511904D01*
X120617380Y-70226190D02*
X119617380Y-70226190D01*
X119617380Y-70226190D02*
X119760238Y-70321428D01*
X119760238Y-70321428D02*
X119855476Y-70416666D01*
X119855476Y-70416666D02*
X119903095Y-70511904D01*
X119712619Y-69559523D02*
X119665000Y-69511904D01*
X119665000Y-69511904D02*
X119617380Y-69416666D01*
X119617380Y-69416666D02*
X119617380Y-69178571D01*
X119617380Y-69178571D02*
X119665000Y-69083333D01*
X119665000Y-69083333D02*
X119712619Y-69035714D01*
X119712619Y-69035714D02*
X119807857Y-68988095D01*
X119807857Y-68988095D02*
X119903095Y-68988095D01*
X119903095Y-68988095D02*
X120045952Y-69035714D01*
X120045952Y-69035714D02*
X120617380Y-69607142D01*
X120617380Y-69607142D02*
X120617380Y-68988095D01*
%TO.C,C7*%
X173022142Y-106666666D02*
X173069761Y-106714285D01*
X173069761Y-106714285D02*
X173117380Y-106857142D01*
X173117380Y-106857142D02*
X173117380Y-106952380D01*
X173117380Y-106952380D02*
X173069761Y-107095237D01*
X173069761Y-107095237D02*
X172974523Y-107190475D01*
X172974523Y-107190475D02*
X172879285Y-107238094D01*
X172879285Y-107238094D02*
X172688809Y-107285713D01*
X172688809Y-107285713D02*
X172545952Y-107285713D01*
X172545952Y-107285713D02*
X172355476Y-107238094D01*
X172355476Y-107238094D02*
X172260238Y-107190475D01*
X172260238Y-107190475D02*
X172165000Y-107095237D01*
X172165000Y-107095237D02*
X172117380Y-106952380D01*
X172117380Y-106952380D02*
X172117380Y-106857142D01*
X172117380Y-106857142D02*
X172165000Y-106714285D01*
X172165000Y-106714285D02*
X172212619Y-106666666D01*
X172117380Y-106333332D02*
X172117380Y-105666666D01*
X172117380Y-105666666D02*
X173117380Y-106095237D01*
%TO.C,C9*%
X172022142Y-112666666D02*
X172069761Y-112714285D01*
X172069761Y-112714285D02*
X172117380Y-112857142D01*
X172117380Y-112857142D02*
X172117380Y-112952380D01*
X172117380Y-112952380D02*
X172069761Y-113095237D01*
X172069761Y-113095237D02*
X171974523Y-113190475D01*
X171974523Y-113190475D02*
X171879285Y-113238094D01*
X171879285Y-113238094D02*
X171688809Y-113285713D01*
X171688809Y-113285713D02*
X171545952Y-113285713D01*
X171545952Y-113285713D02*
X171355476Y-113238094D01*
X171355476Y-113238094D02*
X171260238Y-113190475D01*
X171260238Y-113190475D02*
X171165000Y-113095237D01*
X171165000Y-113095237D02*
X171117380Y-112952380D01*
X171117380Y-112952380D02*
X171117380Y-112857142D01*
X171117380Y-112857142D02*
X171165000Y-112714285D01*
X171165000Y-112714285D02*
X171212619Y-112666666D01*
X172117380Y-112190475D02*
X172117380Y-111999999D01*
X172117380Y-111999999D02*
X172069761Y-111904761D01*
X172069761Y-111904761D02*
X172022142Y-111857142D01*
X172022142Y-111857142D02*
X171879285Y-111761904D01*
X171879285Y-111761904D02*
X171688809Y-111714285D01*
X171688809Y-111714285D02*
X171307857Y-111714285D01*
X171307857Y-111714285D02*
X171212619Y-111761904D01*
X171212619Y-111761904D02*
X171165000Y-111809523D01*
X171165000Y-111809523D02*
X171117380Y-111904761D01*
X171117380Y-111904761D02*
X171117380Y-112095237D01*
X171117380Y-112095237D02*
X171165000Y-112190475D01*
X171165000Y-112190475D02*
X171212619Y-112238094D01*
X171212619Y-112238094D02*
X171307857Y-112285713D01*
X171307857Y-112285713D02*
X171545952Y-112285713D01*
X171545952Y-112285713D02*
X171641190Y-112238094D01*
X171641190Y-112238094D02*
X171688809Y-112190475D01*
X171688809Y-112190475D02*
X171736428Y-112095237D01*
X171736428Y-112095237D02*
X171736428Y-111904761D01*
X171736428Y-111904761D02*
X171688809Y-111809523D01*
X171688809Y-111809523D02*
X171641190Y-111761904D01*
X171641190Y-111761904D02*
X171545952Y-111714285D01*
%TO.C,D1*%
X197261905Y-120687380D02*
X197261905Y-119687380D01*
X197261905Y-119687380D02*
X197500000Y-119687380D01*
X197500000Y-119687380D02*
X197642857Y-119735000D01*
X197642857Y-119735000D02*
X197738095Y-119830238D01*
X197738095Y-119830238D02*
X197785714Y-119925476D01*
X197785714Y-119925476D02*
X197833333Y-120115952D01*
X197833333Y-120115952D02*
X197833333Y-120258809D01*
X197833333Y-120258809D02*
X197785714Y-120449285D01*
X197785714Y-120449285D02*
X197738095Y-120544523D01*
X197738095Y-120544523D02*
X197642857Y-120639761D01*
X197642857Y-120639761D02*
X197500000Y-120687380D01*
X197500000Y-120687380D02*
X197261905Y-120687380D01*
X198785714Y-120687380D02*
X198214286Y-120687380D01*
X198500000Y-120687380D02*
X198500000Y-119687380D01*
X198500000Y-119687380D02*
X198404762Y-119830238D01*
X198404762Y-119830238D02*
X198309524Y-119925476D01*
X198309524Y-119925476D02*
X198214286Y-119973095D01*
%TO.C,R20*%
X177617380Y-120892857D02*
X177141190Y-121226190D01*
X177617380Y-121464285D02*
X176617380Y-121464285D01*
X176617380Y-121464285D02*
X176617380Y-121083333D01*
X176617380Y-121083333D02*
X176665000Y-120988095D01*
X176665000Y-120988095D02*
X176712619Y-120940476D01*
X176712619Y-120940476D02*
X176807857Y-120892857D01*
X176807857Y-120892857D02*
X176950714Y-120892857D01*
X176950714Y-120892857D02*
X177045952Y-120940476D01*
X177045952Y-120940476D02*
X177093571Y-120988095D01*
X177093571Y-120988095D02*
X177141190Y-121083333D01*
X177141190Y-121083333D02*
X177141190Y-121464285D01*
X176712619Y-120511904D02*
X176665000Y-120464285D01*
X176665000Y-120464285D02*
X176617380Y-120369047D01*
X176617380Y-120369047D02*
X176617380Y-120130952D01*
X176617380Y-120130952D02*
X176665000Y-120035714D01*
X176665000Y-120035714D02*
X176712619Y-119988095D01*
X176712619Y-119988095D02*
X176807857Y-119940476D01*
X176807857Y-119940476D02*
X176903095Y-119940476D01*
X176903095Y-119940476D02*
X177045952Y-119988095D01*
X177045952Y-119988095D02*
X177617380Y-120559523D01*
X177617380Y-120559523D02*
X177617380Y-119940476D01*
X176617380Y-119321428D02*
X176617380Y-119226190D01*
X176617380Y-119226190D02*
X176665000Y-119130952D01*
X176665000Y-119130952D02*
X176712619Y-119083333D01*
X176712619Y-119083333D02*
X176807857Y-119035714D01*
X176807857Y-119035714D02*
X176998333Y-118988095D01*
X176998333Y-118988095D02*
X177236428Y-118988095D01*
X177236428Y-118988095D02*
X177426904Y-119035714D01*
X177426904Y-119035714D02*
X177522142Y-119083333D01*
X177522142Y-119083333D02*
X177569761Y-119130952D01*
X177569761Y-119130952D02*
X177617380Y-119226190D01*
X177617380Y-119226190D02*
X177617380Y-119321428D01*
X177617380Y-119321428D02*
X177569761Y-119416666D01*
X177569761Y-119416666D02*
X177522142Y-119464285D01*
X177522142Y-119464285D02*
X177426904Y-119511904D01*
X177426904Y-119511904D02*
X177236428Y-119559523D01*
X177236428Y-119559523D02*
X176998333Y-119559523D01*
X176998333Y-119559523D02*
X176807857Y-119511904D01*
X176807857Y-119511904D02*
X176712619Y-119464285D01*
X176712619Y-119464285D02*
X176665000Y-119416666D01*
X176665000Y-119416666D02*
X176617380Y-119321428D01*
%TO.C,R18*%
X176857142Y-144617380D02*
X176523809Y-144141190D01*
X176285714Y-144617380D02*
X176285714Y-143617380D01*
X176285714Y-143617380D02*
X176666666Y-143617380D01*
X176666666Y-143617380D02*
X176761904Y-143665000D01*
X176761904Y-143665000D02*
X176809523Y-143712619D01*
X176809523Y-143712619D02*
X176857142Y-143807857D01*
X176857142Y-143807857D02*
X176857142Y-143950714D01*
X176857142Y-143950714D02*
X176809523Y-144045952D01*
X176809523Y-144045952D02*
X176761904Y-144093571D01*
X176761904Y-144093571D02*
X176666666Y-144141190D01*
X176666666Y-144141190D02*
X176285714Y-144141190D01*
X177809523Y-144617380D02*
X177238095Y-144617380D01*
X177523809Y-144617380D02*
X177523809Y-143617380D01*
X177523809Y-143617380D02*
X177428571Y-143760238D01*
X177428571Y-143760238D02*
X177333333Y-143855476D01*
X177333333Y-143855476D02*
X177238095Y-143903095D01*
X178380952Y-144045952D02*
X178285714Y-143998333D01*
X178285714Y-143998333D02*
X178238095Y-143950714D01*
X178238095Y-143950714D02*
X178190476Y-143855476D01*
X178190476Y-143855476D02*
X178190476Y-143807857D01*
X178190476Y-143807857D02*
X178238095Y-143712619D01*
X178238095Y-143712619D02*
X178285714Y-143665000D01*
X178285714Y-143665000D02*
X178380952Y-143617380D01*
X178380952Y-143617380D02*
X178571428Y-143617380D01*
X178571428Y-143617380D02*
X178666666Y-143665000D01*
X178666666Y-143665000D02*
X178714285Y-143712619D01*
X178714285Y-143712619D02*
X178761904Y-143807857D01*
X178761904Y-143807857D02*
X178761904Y-143855476D01*
X178761904Y-143855476D02*
X178714285Y-143950714D01*
X178714285Y-143950714D02*
X178666666Y-143998333D01*
X178666666Y-143998333D02*
X178571428Y-144045952D01*
X178571428Y-144045952D02*
X178380952Y-144045952D01*
X178380952Y-144045952D02*
X178285714Y-144093571D01*
X178285714Y-144093571D02*
X178238095Y-144141190D01*
X178238095Y-144141190D02*
X178190476Y-144236428D01*
X178190476Y-144236428D02*
X178190476Y-144426904D01*
X178190476Y-144426904D02*
X178238095Y-144522142D01*
X178238095Y-144522142D02*
X178285714Y-144569761D01*
X178285714Y-144569761D02*
X178380952Y-144617380D01*
X178380952Y-144617380D02*
X178571428Y-144617380D01*
X178571428Y-144617380D02*
X178666666Y-144569761D01*
X178666666Y-144569761D02*
X178714285Y-144522142D01*
X178714285Y-144522142D02*
X178761904Y-144426904D01*
X178761904Y-144426904D02*
X178761904Y-144236428D01*
X178761904Y-144236428D02*
X178714285Y-144141190D01*
X178714285Y-144141190D02*
X178666666Y-144093571D01*
X178666666Y-144093571D02*
X178571428Y-144045952D01*
%TO.C,C5*%
X120022142Y-63916666D02*
X120069761Y-63964285D01*
X120069761Y-63964285D02*
X120117380Y-64107142D01*
X120117380Y-64107142D02*
X120117380Y-64202380D01*
X120117380Y-64202380D02*
X120069761Y-64345237D01*
X120069761Y-64345237D02*
X119974523Y-64440475D01*
X119974523Y-64440475D02*
X119879285Y-64488094D01*
X119879285Y-64488094D02*
X119688809Y-64535713D01*
X119688809Y-64535713D02*
X119545952Y-64535713D01*
X119545952Y-64535713D02*
X119355476Y-64488094D01*
X119355476Y-64488094D02*
X119260238Y-64440475D01*
X119260238Y-64440475D02*
X119165000Y-64345237D01*
X119165000Y-64345237D02*
X119117380Y-64202380D01*
X119117380Y-64202380D02*
X119117380Y-64107142D01*
X119117380Y-64107142D02*
X119165000Y-63964285D01*
X119165000Y-63964285D02*
X119212619Y-63916666D01*
X119117380Y-63011904D02*
X119117380Y-63488094D01*
X119117380Y-63488094D02*
X119593571Y-63535713D01*
X119593571Y-63535713D02*
X119545952Y-63488094D01*
X119545952Y-63488094D02*
X119498333Y-63392856D01*
X119498333Y-63392856D02*
X119498333Y-63154761D01*
X119498333Y-63154761D02*
X119545952Y-63059523D01*
X119545952Y-63059523D02*
X119593571Y-63011904D01*
X119593571Y-63011904D02*
X119688809Y-62964285D01*
X119688809Y-62964285D02*
X119926904Y-62964285D01*
X119926904Y-62964285D02*
X120022142Y-63011904D01*
X120022142Y-63011904D02*
X120069761Y-63059523D01*
X120069761Y-63059523D02*
X120117380Y-63154761D01*
X120117380Y-63154761D02*
X120117380Y-63392856D01*
X120117380Y-63392856D02*
X120069761Y-63488094D01*
X120069761Y-63488094D02*
X120022142Y-63535713D01*
%TO.C,R9*%
X115117380Y-65666666D02*
X114641190Y-65999999D01*
X115117380Y-66238094D02*
X114117380Y-66238094D01*
X114117380Y-66238094D02*
X114117380Y-65857142D01*
X114117380Y-65857142D02*
X114165000Y-65761904D01*
X114165000Y-65761904D02*
X114212619Y-65714285D01*
X114212619Y-65714285D02*
X114307857Y-65666666D01*
X114307857Y-65666666D02*
X114450714Y-65666666D01*
X114450714Y-65666666D02*
X114545952Y-65714285D01*
X114545952Y-65714285D02*
X114593571Y-65761904D01*
X114593571Y-65761904D02*
X114641190Y-65857142D01*
X114641190Y-65857142D02*
X114641190Y-66238094D01*
X115117380Y-65190475D02*
X115117380Y-64999999D01*
X115117380Y-64999999D02*
X115069761Y-64904761D01*
X115069761Y-64904761D02*
X115022142Y-64857142D01*
X115022142Y-64857142D02*
X114879285Y-64761904D01*
X114879285Y-64761904D02*
X114688809Y-64714285D01*
X114688809Y-64714285D02*
X114307857Y-64714285D01*
X114307857Y-64714285D02*
X114212619Y-64761904D01*
X114212619Y-64761904D02*
X114165000Y-64809523D01*
X114165000Y-64809523D02*
X114117380Y-64904761D01*
X114117380Y-64904761D02*
X114117380Y-65095237D01*
X114117380Y-65095237D02*
X114165000Y-65190475D01*
X114165000Y-65190475D02*
X114212619Y-65238094D01*
X114212619Y-65238094D02*
X114307857Y-65285713D01*
X114307857Y-65285713D02*
X114545952Y-65285713D01*
X114545952Y-65285713D02*
X114641190Y-65238094D01*
X114641190Y-65238094D02*
X114688809Y-65190475D01*
X114688809Y-65190475D02*
X114736428Y-65095237D01*
X114736428Y-65095237D02*
X114736428Y-64904761D01*
X114736428Y-64904761D02*
X114688809Y-64809523D01*
X114688809Y-64809523D02*
X114641190Y-64761904D01*
X114641190Y-64761904D02*
X114545952Y-64714285D01*
%TO.C,R6*%
X175197380Y-95666666D02*
X174721190Y-95999999D01*
X175197380Y-96238094D02*
X174197380Y-96238094D01*
X174197380Y-96238094D02*
X174197380Y-95857142D01*
X174197380Y-95857142D02*
X174245000Y-95761904D01*
X174245000Y-95761904D02*
X174292619Y-95714285D01*
X174292619Y-95714285D02*
X174387857Y-95666666D01*
X174387857Y-95666666D02*
X174530714Y-95666666D01*
X174530714Y-95666666D02*
X174625952Y-95714285D01*
X174625952Y-95714285D02*
X174673571Y-95761904D01*
X174673571Y-95761904D02*
X174721190Y-95857142D01*
X174721190Y-95857142D02*
X174721190Y-96238094D01*
X174197380Y-94809523D02*
X174197380Y-94999999D01*
X174197380Y-94999999D02*
X174245000Y-95095237D01*
X174245000Y-95095237D02*
X174292619Y-95142856D01*
X174292619Y-95142856D02*
X174435476Y-95238094D01*
X174435476Y-95238094D02*
X174625952Y-95285713D01*
X174625952Y-95285713D02*
X175006904Y-95285713D01*
X175006904Y-95285713D02*
X175102142Y-95238094D01*
X175102142Y-95238094D02*
X175149761Y-95190475D01*
X175149761Y-95190475D02*
X175197380Y-95095237D01*
X175197380Y-95095237D02*
X175197380Y-94904761D01*
X175197380Y-94904761D02*
X175149761Y-94809523D01*
X175149761Y-94809523D02*
X175102142Y-94761904D01*
X175102142Y-94761904D02*
X175006904Y-94714285D01*
X175006904Y-94714285D02*
X174768809Y-94714285D01*
X174768809Y-94714285D02*
X174673571Y-94761904D01*
X174673571Y-94761904D02*
X174625952Y-94809523D01*
X174625952Y-94809523D02*
X174578333Y-94904761D01*
X174578333Y-94904761D02*
X174578333Y-95095237D01*
X174578333Y-95095237D02*
X174625952Y-95190475D01*
X174625952Y-95190475D02*
X174673571Y-95238094D01*
X174673571Y-95238094D02*
X174768809Y-95285713D01*
%TO.C,J3*%
X197117380Y-129083333D02*
X197831666Y-129083333D01*
X197831666Y-129083333D02*
X197974523Y-129130952D01*
X197974523Y-129130952D02*
X198069761Y-129226190D01*
X198069761Y-129226190D02*
X198117380Y-129369047D01*
X198117380Y-129369047D02*
X198117380Y-129464285D01*
X197117380Y-128702380D02*
X197117380Y-128083333D01*
X197117380Y-128083333D02*
X197498333Y-128416666D01*
X197498333Y-128416666D02*
X197498333Y-128273809D01*
X197498333Y-128273809D02*
X197545952Y-128178571D01*
X197545952Y-128178571D02*
X197593571Y-128130952D01*
X197593571Y-128130952D02*
X197688809Y-128083333D01*
X197688809Y-128083333D02*
X197926904Y-128083333D01*
X197926904Y-128083333D02*
X198022142Y-128130952D01*
X198022142Y-128130952D02*
X198069761Y-128178571D01*
X198069761Y-128178571D02*
X198117380Y-128273809D01*
X198117380Y-128273809D02*
X198117380Y-128559523D01*
X198117380Y-128559523D02*
X198069761Y-128654761D01*
X198069761Y-128654761D02*
X198022142Y-128702380D01*
%TO.C,TH1*%
X195414286Y-57867380D02*
X195985714Y-57867380D01*
X195700000Y-58867380D02*
X195700000Y-57867380D01*
X196319048Y-58867380D02*
X196319048Y-57867380D01*
X196319048Y-58343571D02*
X196890476Y-58343571D01*
X196890476Y-58867380D02*
X196890476Y-57867380D01*
X197890476Y-58867380D02*
X197319048Y-58867380D01*
X197604762Y-58867380D02*
X197604762Y-57867380D01*
X197604762Y-57867380D02*
X197509524Y-58010238D01*
X197509524Y-58010238D02*
X197414286Y-58105476D01*
X197414286Y-58105476D02*
X197319048Y-58153095D01*
%TO.C,TP1*%
X167738095Y-98617380D02*
X168309523Y-98617380D01*
X168023809Y-99617380D02*
X168023809Y-98617380D01*
X168642857Y-99617380D02*
X168642857Y-98617380D01*
X168642857Y-98617380D02*
X169023809Y-98617380D01*
X169023809Y-98617380D02*
X169119047Y-98665000D01*
X169119047Y-98665000D02*
X169166666Y-98712619D01*
X169166666Y-98712619D02*
X169214285Y-98807857D01*
X169214285Y-98807857D02*
X169214285Y-98950714D01*
X169214285Y-98950714D02*
X169166666Y-99045952D01*
X169166666Y-99045952D02*
X169119047Y-99093571D01*
X169119047Y-99093571D02*
X169023809Y-99141190D01*
X169023809Y-99141190D02*
X168642857Y-99141190D01*
X170166666Y-99617380D02*
X169595238Y-99617380D01*
X169880952Y-99617380D02*
X169880952Y-98617380D01*
X169880952Y-98617380D02*
X169785714Y-98760238D01*
X169785714Y-98760238D02*
X169690476Y-98855476D01*
X169690476Y-98855476D02*
X169595238Y-98903095D01*
%TO.C,C6*%
X197583333Y-63772142D02*
X197535714Y-63819761D01*
X197535714Y-63819761D02*
X197392857Y-63867380D01*
X197392857Y-63867380D02*
X197297619Y-63867380D01*
X197297619Y-63867380D02*
X197154762Y-63819761D01*
X197154762Y-63819761D02*
X197059524Y-63724523D01*
X197059524Y-63724523D02*
X197011905Y-63629285D01*
X197011905Y-63629285D02*
X196964286Y-63438809D01*
X196964286Y-63438809D02*
X196964286Y-63295952D01*
X196964286Y-63295952D02*
X197011905Y-63105476D01*
X197011905Y-63105476D02*
X197059524Y-63010238D01*
X197059524Y-63010238D02*
X197154762Y-62915000D01*
X197154762Y-62915000D02*
X197297619Y-62867380D01*
X197297619Y-62867380D02*
X197392857Y-62867380D01*
X197392857Y-62867380D02*
X197535714Y-62915000D01*
X197535714Y-62915000D02*
X197583333Y-62962619D01*
X198440476Y-62867380D02*
X198250000Y-62867380D01*
X198250000Y-62867380D02*
X198154762Y-62915000D01*
X198154762Y-62915000D02*
X198107143Y-62962619D01*
X198107143Y-62962619D02*
X198011905Y-63105476D01*
X198011905Y-63105476D02*
X197964286Y-63295952D01*
X197964286Y-63295952D02*
X197964286Y-63676904D01*
X197964286Y-63676904D02*
X198011905Y-63772142D01*
X198011905Y-63772142D02*
X198059524Y-63819761D01*
X198059524Y-63819761D02*
X198154762Y-63867380D01*
X198154762Y-63867380D02*
X198345238Y-63867380D01*
X198345238Y-63867380D02*
X198440476Y-63819761D01*
X198440476Y-63819761D02*
X198488095Y-63772142D01*
X198488095Y-63772142D02*
X198535714Y-63676904D01*
X198535714Y-63676904D02*
X198535714Y-63438809D01*
X198535714Y-63438809D02*
X198488095Y-63343571D01*
X198488095Y-63343571D02*
X198440476Y-63295952D01*
X198440476Y-63295952D02*
X198345238Y-63248333D01*
X198345238Y-63248333D02*
X198154762Y-63248333D01*
X198154762Y-63248333D02*
X198059524Y-63295952D01*
X198059524Y-63295952D02*
X198011905Y-63343571D01*
X198011905Y-63343571D02*
X197964286Y-63438809D01*
%TO.C,R4*%
X164697380Y-68666666D02*
X164221190Y-68999999D01*
X164697380Y-69238094D02*
X163697380Y-69238094D01*
X163697380Y-69238094D02*
X163697380Y-68857142D01*
X163697380Y-68857142D02*
X163745000Y-68761904D01*
X163745000Y-68761904D02*
X163792619Y-68714285D01*
X163792619Y-68714285D02*
X163887857Y-68666666D01*
X163887857Y-68666666D02*
X164030714Y-68666666D01*
X164030714Y-68666666D02*
X164125952Y-68714285D01*
X164125952Y-68714285D02*
X164173571Y-68761904D01*
X164173571Y-68761904D02*
X164221190Y-68857142D01*
X164221190Y-68857142D02*
X164221190Y-69238094D01*
X164030714Y-67809523D02*
X164697380Y-67809523D01*
X163649761Y-68047618D02*
X164364047Y-68285713D01*
X164364047Y-68285713D02*
X164364047Y-67666666D01*
%TO.C,C3*%
X110022142Y-92156666D02*
X110069761Y-92204285D01*
X110069761Y-92204285D02*
X110117380Y-92347142D01*
X110117380Y-92347142D02*
X110117380Y-92442380D01*
X110117380Y-92442380D02*
X110069761Y-92585237D01*
X110069761Y-92585237D02*
X109974523Y-92680475D01*
X109974523Y-92680475D02*
X109879285Y-92728094D01*
X109879285Y-92728094D02*
X109688809Y-92775713D01*
X109688809Y-92775713D02*
X109545952Y-92775713D01*
X109545952Y-92775713D02*
X109355476Y-92728094D01*
X109355476Y-92728094D02*
X109260238Y-92680475D01*
X109260238Y-92680475D02*
X109165000Y-92585237D01*
X109165000Y-92585237D02*
X109117380Y-92442380D01*
X109117380Y-92442380D02*
X109117380Y-92347142D01*
X109117380Y-92347142D02*
X109165000Y-92204285D01*
X109165000Y-92204285D02*
X109212619Y-92156666D01*
X109117380Y-91823332D02*
X109117380Y-91204285D01*
X109117380Y-91204285D02*
X109498333Y-91537618D01*
X109498333Y-91537618D02*
X109498333Y-91394761D01*
X109498333Y-91394761D02*
X109545952Y-91299523D01*
X109545952Y-91299523D02*
X109593571Y-91251904D01*
X109593571Y-91251904D02*
X109688809Y-91204285D01*
X109688809Y-91204285D02*
X109926904Y-91204285D01*
X109926904Y-91204285D02*
X110022142Y-91251904D01*
X110022142Y-91251904D02*
X110069761Y-91299523D01*
X110069761Y-91299523D02*
X110117380Y-91394761D01*
X110117380Y-91394761D02*
X110117380Y-91680475D01*
X110117380Y-91680475D02*
X110069761Y-91775713D01*
X110069761Y-91775713D02*
X110022142Y-91823332D01*
%TO.C,TP3*%
X175238095Y-103367380D02*
X175809523Y-103367380D01*
X175523809Y-104367380D02*
X175523809Y-103367380D01*
X176142857Y-104367380D02*
X176142857Y-103367380D01*
X176142857Y-103367380D02*
X176523809Y-103367380D01*
X176523809Y-103367380D02*
X176619047Y-103415000D01*
X176619047Y-103415000D02*
X176666666Y-103462619D01*
X176666666Y-103462619D02*
X176714285Y-103557857D01*
X176714285Y-103557857D02*
X176714285Y-103700714D01*
X176714285Y-103700714D02*
X176666666Y-103795952D01*
X176666666Y-103795952D02*
X176619047Y-103843571D01*
X176619047Y-103843571D02*
X176523809Y-103891190D01*
X176523809Y-103891190D02*
X176142857Y-103891190D01*
X177047619Y-103367380D02*
X177666666Y-103367380D01*
X177666666Y-103367380D02*
X177333333Y-103748333D01*
X177333333Y-103748333D02*
X177476190Y-103748333D01*
X177476190Y-103748333D02*
X177571428Y-103795952D01*
X177571428Y-103795952D02*
X177619047Y-103843571D01*
X177619047Y-103843571D02*
X177666666Y-103938809D01*
X177666666Y-103938809D02*
X177666666Y-104176904D01*
X177666666Y-104176904D02*
X177619047Y-104272142D01*
X177619047Y-104272142D02*
X177571428Y-104319761D01*
X177571428Y-104319761D02*
X177476190Y-104367380D01*
X177476190Y-104367380D02*
X177190476Y-104367380D01*
X177190476Y-104367380D02*
X177095238Y-104319761D01*
X177095238Y-104319761D02*
X177047619Y-104272142D01*
%TO.C,R13*%
X177367380Y-113632857D02*
X176891190Y-113966190D01*
X177367380Y-114204285D02*
X176367380Y-114204285D01*
X176367380Y-114204285D02*
X176367380Y-113823333D01*
X176367380Y-113823333D02*
X176415000Y-113728095D01*
X176415000Y-113728095D02*
X176462619Y-113680476D01*
X176462619Y-113680476D02*
X176557857Y-113632857D01*
X176557857Y-113632857D02*
X176700714Y-113632857D01*
X176700714Y-113632857D02*
X176795952Y-113680476D01*
X176795952Y-113680476D02*
X176843571Y-113728095D01*
X176843571Y-113728095D02*
X176891190Y-113823333D01*
X176891190Y-113823333D02*
X176891190Y-114204285D01*
X177367380Y-112680476D02*
X177367380Y-113251904D01*
X177367380Y-112966190D02*
X176367380Y-112966190D01*
X176367380Y-112966190D02*
X176510238Y-113061428D01*
X176510238Y-113061428D02*
X176605476Y-113156666D01*
X176605476Y-113156666D02*
X176653095Y-113251904D01*
X176367380Y-112347142D02*
X176367380Y-111728095D01*
X176367380Y-111728095D02*
X176748333Y-112061428D01*
X176748333Y-112061428D02*
X176748333Y-111918571D01*
X176748333Y-111918571D02*
X176795952Y-111823333D01*
X176795952Y-111823333D02*
X176843571Y-111775714D01*
X176843571Y-111775714D02*
X176938809Y-111728095D01*
X176938809Y-111728095D02*
X177176904Y-111728095D01*
X177176904Y-111728095D02*
X177272142Y-111775714D01*
X177272142Y-111775714D02*
X177319761Y-111823333D01*
X177319761Y-111823333D02*
X177367380Y-111918571D01*
X177367380Y-111918571D02*
X177367380Y-112204285D01*
X177367380Y-112204285D02*
X177319761Y-112299523D01*
X177319761Y-112299523D02*
X177272142Y-112347142D01*
%TO.C,C11*%
X165522142Y-102392857D02*
X165569761Y-102440476D01*
X165569761Y-102440476D02*
X165617380Y-102583333D01*
X165617380Y-102583333D02*
X165617380Y-102678571D01*
X165617380Y-102678571D02*
X165569761Y-102821428D01*
X165569761Y-102821428D02*
X165474523Y-102916666D01*
X165474523Y-102916666D02*
X165379285Y-102964285D01*
X165379285Y-102964285D02*
X165188809Y-103011904D01*
X165188809Y-103011904D02*
X165045952Y-103011904D01*
X165045952Y-103011904D02*
X164855476Y-102964285D01*
X164855476Y-102964285D02*
X164760238Y-102916666D01*
X164760238Y-102916666D02*
X164665000Y-102821428D01*
X164665000Y-102821428D02*
X164617380Y-102678571D01*
X164617380Y-102678571D02*
X164617380Y-102583333D01*
X164617380Y-102583333D02*
X164665000Y-102440476D01*
X164665000Y-102440476D02*
X164712619Y-102392857D01*
X165617380Y-101440476D02*
X165617380Y-102011904D01*
X165617380Y-101726190D02*
X164617380Y-101726190D01*
X164617380Y-101726190D02*
X164760238Y-101821428D01*
X164760238Y-101821428D02*
X164855476Y-101916666D01*
X164855476Y-101916666D02*
X164903095Y-102011904D01*
X165617380Y-100488095D02*
X165617380Y-101059523D01*
X165617380Y-100773809D02*
X164617380Y-100773809D01*
X164617380Y-100773809D02*
X164760238Y-100869047D01*
X164760238Y-100869047D02*
X164855476Y-100964285D01*
X164855476Y-100964285D02*
X164903095Y-101059523D01*
%TO.C,R11*%
X121367380Y-63892857D02*
X120891190Y-64226190D01*
X121367380Y-64464285D02*
X120367380Y-64464285D01*
X120367380Y-64464285D02*
X120367380Y-64083333D01*
X120367380Y-64083333D02*
X120415000Y-63988095D01*
X120415000Y-63988095D02*
X120462619Y-63940476D01*
X120462619Y-63940476D02*
X120557857Y-63892857D01*
X120557857Y-63892857D02*
X120700714Y-63892857D01*
X120700714Y-63892857D02*
X120795952Y-63940476D01*
X120795952Y-63940476D02*
X120843571Y-63988095D01*
X120843571Y-63988095D02*
X120891190Y-64083333D01*
X120891190Y-64083333D02*
X120891190Y-64464285D01*
X121367380Y-62940476D02*
X121367380Y-63511904D01*
X121367380Y-63226190D02*
X120367380Y-63226190D01*
X120367380Y-63226190D02*
X120510238Y-63321428D01*
X120510238Y-63321428D02*
X120605476Y-63416666D01*
X120605476Y-63416666D02*
X120653095Y-63511904D01*
X121367380Y-61988095D02*
X121367380Y-62559523D01*
X121367380Y-62273809D02*
X120367380Y-62273809D01*
X120367380Y-62273809D02*
X120510238Y-62369047D01*
X120510238Y-62369047D02*
X120605476Y-62464285D01*
X120605476Y-62464285D02*
X120653095Y-62559523D01*
%TO.C,R21*%
X180367380Y-120892857D02*
X179891190Y-121226190D01*
X180367380Y-121464285D02*
X179367380Y-121464285D01*
X179367380Y-121464285D02*
X179367380Y-121083333D01*
X179367380Y-121083333D02*
X179415000Y-120988095D01*
X179415000Y-120988095D02*
X179462619Y-120940476D01*
X179462619Y-120940476D02*
X179557857Y-120892857D01*
X179557857Y-120892857D02*
X179700714Y-120892857D01*
X179700714Y-120892857D02*
X179795952Y-120940476D01*
X179795952Y-120940476D02*
X179843571Y-120988095D01*
X179843571Y-120988095D02*
X179891190Y-121083333D01*
X179891190Y-121083333D02*
X179891190Y-121464285D01*
X179462619Y-120511904D02*
X179415000Y-120464285D01*
X179415000Y-120464285D02*
X179367380Y-120369047D01*
X179367380Y-120369047D02*
X179367380Y-120130952D01*
X179367380Y-120130952D02*
X179415000Y-120035714D01*
X179415000Y-120035714D02*
X179462619Y-119988095D01*
X179462619Y-119988095D02*
X179557857Y-119940476D01*
X179557857Y-119940476D02*
X179653095Y-119940476D01*
X179653095Y-119940476D02*
X179795952Y-119988095D01*
X179795952Y-119988095D02*
X180367380Y-120559523D01*
X180367380Y-120559523D02*
X180367380Y-119940476D01*
X180367380Y-118988095D02*
X180367380Y-119559523D01*
X180367380Y-119273809D02*
X179367380Y-119273809D01*
X179367380Y-119273809D02*
X179510238Y-119369047D01*
X179510238Y-119369047D02*
X179605476Y-119464285D01*
X179605476Y-119464285D02*
X179653095Y-119559523D01*
%TO.C,R15*%
X169107142Y-124867380D02*
X168773809Y-124391190D01*
X168535714Y-124867380D02*
X168535714Y-123867380D01*
X168535714Y-123867380D02*
X168916666Y-123867380D01*
X168916666Y-123867380D02*
X169011904Y-123915000D01*
X169011904Y-123915000D02*
X169059523Y-123962619D01*
X169059523Y-123962619D02*
X169107142Y-124057857D01*
X169107142Y-124057857D02*
X169107142Y-124200714D01*
X169107142Y-124200714D02*
X169059523Y-124295952D01*
X169059523Y-124295952D02*
X169011904Y-124343571D01*
X169011904Y-124343571D02*
X168916666Y-124391190D01*
X168916666Y-124391190D02*
X168535714Y-124391190D01*
X170059523Y-124867380D02*
X169488095Y-124867380D01*
X169773809Y-124867380D02*
X169773809Y-123867380D01*
X169773809Y-123867380D02*
X169678571Y-124010238D01*
X169678571Y-124010238D02*
X169583333Y-124105476D01*
X169583333Y-124105476D02*
X169488095Y-124153095D01*
X170964285Y-123867380D02*
X170488095Y-123867380D01*
X170488095Y-123867380D02*
X170440476Y-124343571D01*
X170440476Y-124343571D02*
X170488095Y-124295952D01*
X170488095Y-124295952D02*
X170583333Y-124248333D01*
X170583333Y-124248333D02*
X170821428Y-124248333D01*
X170821428Y-124248333D02*
X170916666Y-124295952D01*
X170916666Y-124295952D02*
X170964285Y-124343571D01*
X170964285Y-124343571D02*
X171011904Y-124438809D01*
X171011904Y-124438809D02*
X171011904Y-124676904D01*
X171011904Y-124676904D02*
X170964285Y-124772142D01*
X170964285Y-124772142D02*
X170916666Y-124819761D01*
X170916666Y-124819761D02*
X170821428Y-124867380D01*
X170821428Y-124867380D02*
X170583333Y-124867380D01*
X170583333Y-124867380D02*
X170488095Y-124819761D01*
X170488095Y-124819761D02*
X170440476Y-124772142D01*
%TO.C,C4*%
X173333333Y-90612142D02*
X173285714Y-90659761D01*
X173285714Y-90659761D02*
X173142857Y-90707380D01*
X173142857Y-90707380D02*
X173047619Y-90707380D01*
X173047619Y-90707380D02*
X172904762Y-90659761D01*
X172904762Y-90659761D02*
X172809524Y-90564523D01*
X172809524Y-90564523D02*
X172761905Y-90469285D01*
X172761905Y-90469285D02*
X172714286Y-90278809D01*
X172714286Y-90278809D02*
X172714286Y-90135952D01*
X172714286Y-90135952D02*
X172761905Y-89945476D01*
X172761905Y-89945476D02*
X172809524Y-89850238D01*
X172809524Y-89850238D02*
X172904762Y-89755000D01*
X172904762Y-89755000D02*
X173047619Y-89707380D01*
X173047619Y-89707380D02*
X173142857Y-89707380D01*
X173142857Y-89707380D02*
X173285714Y-89755000D01*
X173285714Y-89755000D02*
X173333333Y-89802619D01*
X174190476Y-90040714D02*
X174190476Y-90707380D01*
X173952381Y-89659761D02*
X173714286Y-90374047D01*
X173714286Y-90374047D02*
X174333333Y-90374047D01*
%TO.C,Q1*%
X169962619Y-89595238D02*
X169915000Y-89690476D01*
X169915000Y-89690476D02*
X169819761Y-89785714D01*
X169819761Y-89785714D02*
X169676904Y-89928571D01*
X169676904Y-89928571D02*
X169629285Y-90023809D01*
X169629285Y-90023809D02*
X169629285Y-90119047D01*
X169867380Y-90071428D02*
X169819761Y-90166666D01*
X169819761Y-90166666D02*
X169724523Y-90261904D01*
X169724523Y-90261904D02*
X169534047Y-90309523D01*
X169534047Y-90309523D02*
X169200714Y-90309523D01*
X169200714Y-90309523D02*
X169010238Y-90261904D01*
X169010238Y-90261904D02*
X168915000Y-90166666D01*
X168915000Y-90166666D02*
X168867380Y-90071428D01*
X168867380Y-90071428D02*
X168867380Y-89880952D01*
X168867380Y-89880952D02*
X168915000Y-89785714D01*
X168915000Y-89785714D02*
X169010238Y-89690476D01*
X169010238Y-89690476D02*
X169200714Y-89642857D01*
X169200714Y-89642857D02*
X169534047Y-89642857D01*
X169534047Y-89642857D02*
X169724523Y-89690476D01*
X169724523Y-89690476D02*
X169819761Y-89785714D01*
X169819761Y-89785714D02*
X169867380Y-89880952D01*
X169867380Y-89880952D02*
X169867380Y-90071428D01*
X169867380Y-88690476D02*
X169867380Y-89261904D01*
X169867380Y-88976190D02*
X168867380Y-88976190D01*
X168867380Y-88976190D02*
X169010238Y-89071428D01*
X169010238Y-89071428D02*
X169105476Y-89166666D01*
X169105476Y-89166666D02*
X169153095Y-89261904D01*
%TO.C,C10*%
X188272142Y-123892857D02*
X188319761Y-123940476D01*
X188319761Y-123940476D02*
X188367380Y-124083333D01*
X188367380Y-124083333D02*
X188367380Y-124178571D01*
X188367380Y-124178571D02*
X188319761Y-124321428D01*
X188319761Y-124321428D02*
X188224523Y-124416666D01*
X188224523Y-124416666D02*
X188129285Y-124464285D01*
X188129285Y-124464285D02*
X187938809Y-124511904D01*
X187938809Y-124511904D02*
X187795952Y-124511904D01*
X187795952Y-124511904D02*
X187605476Y-124464285D01*
X187605476Y-124464285D02*
X187510238Y-124416666D01*
X187510238Y-124416666D02*
X187415000Y-124321428D01*
X187415000Y-124321428D02*
X187367380Y-124178571D01*
X187367380Y-124178571D02*
X187367380Y-124083333D01*
X187367380Y-124083333D02*
X187415000Y-123940476D01*
X187415000Y-123940476D02*
X187462619Y-123892857D01*
X188367380Y-122940476D02*
X188367380Y-123511904D01*
X188367380Y-123226190D02*
X187367380Y-123226190D01*
X187367380Y-123226190D02*
X187510238Y-123321428D01*
X187510238Y-123321428D02*
X187605476Y-123416666D01*
X187605476Y-123416666D02*
X187653095Y-123511904D01*
X187367380Y-122321428D02*
X187367380Y-122226190D01*
X187367380Y-122226190D02*
X187415000Y-122130952D01*
X187415000Y-122130952D02*
X187462619Y-122083333D01*
X187462619Y-122083333D02*
X187557857Y-122035714D01*
X187557857Y-122035714D02*
X187748333Y-121988095D01*
X187748333Y-121988095D02*
X187986428Y-121988095D01*
X187986428Y-121988095D02*
X188176904Y-122035714D01*
X188176904Y-122035714D02*
X188272142Y-122083333D01*
X188272142Y-122083333D02*
X188319761Y-122130952D01*
X188319761Y-122130952D02*
X188367380Y-122226190D01*
X188367380Y-122226190D02*
X188367380Y-122321428D01*
X188367380Y-122321428D02*
X188319761Y-122416666D01*
X188319761Y-122416666D02*
X188272142Y-122464285D01*
X188272142Y-122464285D02*
X188176904Y-122511904D01*
X188176904Y-122511904D02*
X187986428Y-122559523D01*
X187986428Y-122559523D02*
X187748333Y-122559523D01*
X187748333Y-122559523D02*
X187557857Y-122511904D01*
X187557857Y-122511904D02*
X187462619Y-122464285D01*
X187462619Y-122464285D02*
X187415000Y-122416666D01*
X187415000Y-122416666D02*
X187367380Y-122321428D01*
%TO.C,J1*%
X113407380Y-78998333D02*
X114121666Y-78998333D01*
X114121666Y-78998333D02*
X114264523Y-79045952D01*
X114264523Y-79045952D02*
X114359761Y-79141190D01*
X114359761Y-79141190D02*
X114407380Y-79284047D01*
X114407380Y-79284047D02*
X114407380Y-79379285D01*
X114407380Y-77998333D02*
X114407380Y-78569761D01*
X114407380Y-78284047D02*
X113407380Y-78284047D01*
X113407380Y-78284047D02*
X113550238Y-78379285D01*
X113550238Y-78379285D02*
X113645476Y-78474523D01*
X113645476Y-78474523D02*
X113693095Y-78569761D01*
D12*
%TO.C,U5*%
X175250000Y-107660000D02*
X175650000Y-107660000D01*
X173850000Y-110060000D02*
X174250000Y-110060000D01*
X173850000Y-107660000D02*
X174250000Y-107660000D01*
%TO.C,C15*%
X178390000Y-122857836D02*
X178390000Y-122642164D01*
X179110000Y-122857836D02*
X179110000Y-122642164D01*
%TO.C,J4*%
X156130000Y-103970000D02*
X157460000Y-103970000D01*
X156130000Y-105300000D02*
X156130000Y-103970000D01*
X156130000Y-106570000D02*
X156130000Y-142190000D01*
X156130000Y-106570000D02*
X158730000Y-106570000D01*
X156130000Y-142190000D02*
X161330000Y-142190000D01*
X158730000Y-103970000D02*
X161330000Y-103970000D01*
X158730000Y-106570000D02*
X158730000Y-103970000D01*
X161330000Y-103970000D02*
X161330000Y-142190000D01*
%TO.C,R3*%
X106846359Y-92110000D02*
X107153641Y-92110000D01*
X106846359Y-92870000D02*
X107153641Y-92870000D01*
%TO.C,R23*%
X180596359Y-142620000D02*
X180903641Y-142620000D01*
X180596359Y-143380000D02*
X180903641Y-143380000D01*
%TO.C,R1*%
X107120000Y-91143641D02*
X107120000Y-90836359D01*
X107880000Y-91143641D02*
X107880000Y-90836359D01*
%TO.C,C12*%
X168107836Y-106610000D02*
X167892164Y-106610000D01*
X168107836Y-105890000D02*
X167892164Y-105890000D01*
%TO.C,R16*%
X178380000Y-110356359D02*
X178380000Y-110663641D01*
X177620000Y-110356359D02*
X177620000Y-110663641D01*
%TO.C,C13*%
X175357836Y-143360000D02*
X175142164Y-143360000D01*
X175357836Y-142640000D02*
X175142164Y-142640000D01*
%TO.C,U3*%
X118200000Y-64815000D02*
X116800000Y-64815000D01*
X116800000Y-67135000D02*
X118700000Y-67135000D01*
%TO.C,TP5*%
X169250000Y-120000000D02*
G75*
G03*
X169250000Y-120000000I-1500000J0D01*
G01*
%TO.C,C8*%
X170892164Y-105890000D02*
X171107836Y-105890000D01*
X170892164Y-106610000D02*
X171107836Y-106610000D01*
%TO.C,R10*%
X195596359Y-61620000D02*
X195903641Y-61620000D01*
X195596359Y-62380000D02*
X195903641Y-62380000D01*
%TO.C,R2*%
X138870000Y-68403641D02*
X138870000Y-68096359D01*
X139630000Y-68403641D02*
X139630000Y-68096359D01*
%TO.C,R8*%
X175620000Y-98153641D02*
X175620000Y-97846359D01*
X176380000Y-98153641D02*
X176380000Y-97846359D01*
%TO.C,R22*%
X180870000Y-122903641D02*
X180870000Y-122596359D01*
X181630000Y-122903641D02*
X181630000Y-122596359D01*
%TO.C,R7*%
X191370000Y-69153641D02*
X191370000Y-68846359D01*
X192130000Y-69153641D02*
X192130000Y-68846359D01*
%TO.C,TP6*%
X169250000Y-126750000D02*
G75*
G03*
X169250000Y-126750000I-1500000J0D01*
G01*
%TO.C,TP2*%
X174250000Y-101500000D02*
G75*
G03*
X174250000Y-101500000I-1500000J0D01*
G01*
%TO.C,TP4*%
X181750000Y-101500000D02*
G75*
G03*
X181750000Y-101500000I-1500000J0D01*
G01*
%TO.C,U1*%
X170000000Y-92440000D02*
X166550000Y-92440000D01*
X170000000Y-92440000D02*
X171950000Y-92440000D01*
X170000000Y-97560000D02*
X168050000Y-97560000D01*
X170000000Y-97560000D02*
X171950000Y-97560000D01*
%TO.C,J2*%
X199820000Y-101120000D02*
X199820000Y-91880000D01*
X199820000Y-91880000D02*
X191700000Y-91880000D01*
X186300000Y-91880000D02*
X185080000Y-91880000D01*
X185080000Y-101120000D02*
X199820000Y-101120000D01*
X185080000Y-99450000D02*
X185080000Y-101120000D01*
X185080000Y-91880000D02*
X185080000Y-93550000D01*
%TO.C,Q3*%
X164590000Y-62620000D02*
X164590000Y-43080000D01*
X164590000Y-62620000D02*
X148850000Y-62620000D01*
X164590000Y-43080000D02*
X148850000Y-43080000D01*
X164590000Y-42840000D02*
X164590000Y-42380000D01*
X164590000Y-42380000D02*
X163390000Y-42380000D01*
X162191000Y-42380000D02*
X160990000Y-42380000D01*
X162170000Y-63100000D02*
X162170000Y-62620000D01*
X159790000Y-42380000D02*
X158590000Y-42380000D01*
X157390000Y-42380000D02*
X156190000Y-42380000D01*
X156720000Y-63100000D02*
X156720000Y-62620000D01*
X154990000Y-42380000D02*
X153790000Y-42380000D01*
X152590000Y-42380000D02*
X151390000Y-42380000D01*
X151270000Y-63100000D02*
X151270000Y-62620000D01*
X150190000Y-42380000D02*
X148990000Y-42380000D01*
X148850000Y-62620000D02*
X148850000Y-43080000D01*
X148850000Y-42840000D02*
X148850000Y-42380000D01*
%TO.C,C2*%
X187562500Y-115652500D02*
X188350000Y-115652500D01*
X187956250Y-115258750D02*
X187956250Y-116046250D01*
X188590000Y-115154437D02*
X188590000Y-116440000D01*
X188590000Y-115154437D02*
X189654437Y-114090000D01*
X188590000Y-119845563D02*
X188590000Y-118560000D01*
X188590000Y-119845563D02*
X189654437Y-120910000D01*
X189654437Y-114090000D02*
X195410000Y-114090000D01*
X189654437Y-120910000D02*
X195410000Y-120910000D01*
X195410000Y-114090000D02*
X195410000Y-116440000D01*
X195410000Y-120910000D02*
X195410000Y-118560000D01*
%TO.C,SW1*%
X173050000Y-126150000D02*
X174170000Y-126150000D01*
X173050000Y-130750000D02*
X173050000Y-126150000D01*
X173050000Y-140250000D02*
X173050000Y-134750000D01*
X175250000Y-140250000D02*
X173050000Y-140250000D01*
X184330000Y-126150000D02*
X185450000Y-126150000D01*
X185450000Y-126150000D02*
X185450000Y-130750000D01*
X185450000Y-134750000D02*
X185450000Y-140250000D01*
X185450000Y-140250000D02*
X183250000Y-140250000D01*
%TO.C,R14*%
X167153641Y-123130000D02*
X166846359Y-123130000D01*
X167153641Y-122370000D02*
X166846359Y-122370000D01*
%TO.C,R19*%
X174870000Y-122903641D02*
X174870000Y-122596359D01*
X175630000Y-122903641D02*
X175630000Y-122596359D01*
%TO.C,R17*%
X189356359Y-130870000D02*
X189663641Y-130870000D01*
X189356359Y-131630000D02*
X189663641Y-131630000D01*
%TO.C,U4*%
X171060000Y-109000000D02*
X171060000Y-107200000D01*
X171060000Y-109000000D02*
X171060000Y-109800000D01*
X167940000Y-109000000D02*
X167940000Y-108200000D01*
X167940000Y-109000000D02*
X167940000Y-109800000D01*
%TO.C,Q2*%
X137870000Y-62545000D02*
X137870000Y-43005000D01*
X137870000Y-62545000D02*
X122130000Y-62545000D01*
X137870000Y-43005000D02*
X122130000Y-43005000D01*
X137870000Y-42765000D02*
X137870000Y-42305000D01*
X137870000Y-42305000D02*
X136670000Y-42305000D01*
X135471000Y-42305000D02*
X134270000Y-42305000D01*
X135450000Y-63025000D02*
X135450000Y-62545000D01*
X133070000Y-42305000D02*
X131870000Y-42305000D01*
X130670000Y-42305000D02*
X129470000Y-42305000D01*
X130000000Y-63025000D02*
X130000000Y-62545000D01*
X128270000Y-42305000D02*
X127070000Y-42305000D01*
X125870000Y-42305000D02*
X124670000Y-42305000D01*
X124550000Y-63025000D02*
X124550000Y-62545000D01*
X123470000Y-42305000D02*
X122270000Y-42305000D01*
X122130000Y-62545000D02*
X122130000Y-43005000D01*
X122130000Y-42765000D02*
X122130000Y-42305000D01*
%TO.C,C14*%
X182892164Y-142640000D02*
X183107836Y-142640000D01*
X182892164Y-143360000D02*
X183107836Y-143360000D01*
%TO.C,Q4*%
X191120000Y-62620000D02*
X191120000Y-43080000D01*
X191120000Y-62620000D02*
X175380000Y-62620000D01*
X191120000Y-43080000D02*
X175380000Y-43080000D01*
X191120000Y-42840000D02*
X191120000Y-42380000D01*
X191120000Y-42380000D02*
X189920000Y-42380000D01*
X188721000Y-42380000D02*
X187520000Y-42380000D01*
X188700000Y-63100000D02*
X188700000Y-62620000D01*
X186320000Y-42380000D02*
X185120000Y-42380000D01*
X183920000Y-42380000D02*
X182720000Y-42380000D01*
X183250000Y-63100000D02*
X183250000Y-62620000D01*
X181520000Y-42380000D02*
X180320000Y-42380000D01*
X179120000Y-42380000D02*
X177920000Y-42380000D01*
X177800000Y-63100000D02*
X177800000Y-62620000D01*
X176720000Y-42380000D02*
X175520000Y-42380000D01*
X175380000Y-62620000D02*
X175380000Y-43080000D01*
X175380000Y-42840000D02*
X175380000Y-42380000D01*
%TO.C,U2*%
X195600000Y-112910000D02*
X189590000Y-112910000D01*
X193350000Y-106090000D02*
X189590000Y-106090000D01*
X189590000Y-112910000D02*
X189590000Y-111650000D01*
X189590000Y-106090000D02*
X189590000Y-107350000D01*
%TO.C,R5*%
X195403641Y-122130000D02*
X195096359Y-122130000D01*
X195403641Y-121370000D02*
X195096359Y-121370000D01*
%TO.C,Q5*%
X191250000Y-131940000D02*
X189575000Y-131940000D01*
X191250000Y-131940000D02*
X191900000Y-131940000D01*
X191250000Y-135060000D02*
X190600000Y-135060000D01*
X191250000Y-135060000D02*
X191900000Y-135060000D01*
%TO.C,C1*%
X192736252Y-105410000D02*
X191313748Y-105410000D01*
X192736252Y-103590000D02*
X191313748Y-103590000D01*
%TO.C,R12*%
X120380000Y-67596359D02*
X120380000Y-67903641D01*
X119620000Y-67596359D02*
X119620000Y-67903641D01*
%TO.C,C7*%
X172390000Y-108607836D02*
X172390000Y-108392164D01*
X173110000Y-108607836D02*
X173110000Y-108392164D01*
%TO.C,C9*%
X172110000Y-110392164D02*
X172110000Y-110607836D01*
X171390000Y-110392164D02*
X171390000Y-110607836D01*
%TO.C,D1*%
X196515000Y-121015000D02*
X196515000Y-122485000D01*
X196515000Y-122485000D02*
X198800000Y-122485000D01*
X198800000Y-121015000D02*
X196515000Y-121015000D01*
%TO.C,R20*%
X176870000Y-122903641D02*
X176870000Y-122596359D01*
X177630000Y-122903641D02*
X177630000Y-122596359D01*
%TO.C,R18*%
X177596359Y-142620000D02*
X177903641Y-142620000D01*
X177596359Y-143380000D02*
X177903641Y-143380000D01*
%TO.C,C5*%
X120360000Y-65642164D02*
X120360000Y-65857836D01*
X119640000Y-65642164D02*
X119640000Y-65857836D01*
%TO.C,R9*%
X113610000Y-65138748D02*
X113610000Y-65861252D01*
X108390000Y-65138748D02*
X108390000Y-65861252D01*
%TO.C,R6*%
X175620000Y-95653641D02*
X175620000Y-95346359D01*
X176380000Y-95653641D02*
X176380000Y-95346359D01*
%TO.C,J3*%
X198660000Y-129890000D02*
X197410000Y-129890000D01*
X198360000Y-130190000D02*
X193640000Y-130190000D01*
X197050000Y-130190000D02*
X197050000Y-130800000D01*
X195750000Y-130190000D02*
X195750000Y-130800000D01*
X193640000Y-130190000D02*
X193640000Y-136310000D01*
X197750000Y-130800000D02*
X194250000Y-130800000D01*
X194250000Y-130800000D02*
X194250000Y-135700000D01*
X198660000Y-131140000D02*
X198660000Y-129890000D01*
X198560000Y-131650000D02*
X198360000Y-131650000D01*
X198560000Y-131950000D02*
X198560000Y-131650000D01*
X198460000Y-131950000D02*
X198460000Y-131650000D01*
X198360000Y-131950000D02*
X198560000Y-131950000D01*
X198360000Y-132750000D02*
X197750000Y-132750000D01*
X197750000Y-132750000D02*
X197750000Y-130800000D01*
X194750000Y-133150000D02*
X194750000Y-133350000D01*
X194250000Y-133150000D02*
X194750000Y-133150000D01*
X194250000Y-133250000D02*
X194750000Y-133250000D01*
X194750000Y-133350000D02*
X194250000Y-133350000D01*
X197750000Y-133750000D02*
X198360000Y-133750000D01*
X197750000Y-135700000D02*
X197750000Y-133750000D01*
X194250000Y-135700000D02*
X197750000Y-135700000D01*
X198360000Y-136310000D02*
X198360000Y-130190000D01*
X197050000Y-136310000D02*
X197050000Y-135700000D01*
X195750000Y-136310000D02*
X195750000Y-135700000D01*
X193640000Y-136310000D02*
X198360000Y-136310000D01*
%TO.C,TH1*%
X197050000Y-60250000D02*
X196430000Y-60250000D01*
X198890000Y-60250000D02*
G75*
G03*
X198890000Y-60250000I-920000J0D01*
G01*
%TO.C,TP1*%
X170500000Y-101500000D02*
G75*
G03*
X170500000Y-101500000I-1500000J0D01*
G01*
%TO.C,C6*%
X195642164Y-62640000D02*
X195857836Y-62640000D01*
X195642164Y-63360000D02*
X195857836Y-63360000D01*
%TO.C,R4*%
X165120000Y-68653641D02*
X165120000Y-68346359D01*
X165880000Y-68653641D02*
X165880000Y-68346359D01*
%TO.C,C3*%
X108140000Y-92097836D02*
X108140000Y-91882164D01*
X108860000Y-92097836D02*
X108860000Y-91882164D01*
%TO.C,TP3*%
X178000000Y-101500000D02*
G75*
G03*
X178000000Y-101500000I-1500000J0D01*
G01*
%TO.C,R13*%
X177380000Y-110346359D02*
X177380000Y-110653641D01*
X176620000Y-110346359D02*
X176620000Y-110653641D01*
%TO.C,C11*%
X167711252Y-105410000D02*
X166288748Y-105410000D01*
X167711252Y-103590000D02*
X166288748Y-103590000D01*
%TO.C,R11*%
X121380000Y-65596359D02*
X121380000Y-65903641D01*
X120620000Y-65596359D02*
X120620000Y-65903641D01*
%TO.C,R21*%
X179370000Y-122903641D02*
X179370000Y-122596359D01*
X180130000Y-122903641D02*
X180130000Y-122596359D01*
%TO.C,R15*%
X167153641Y-124630000D02*
X166846359Y-124630000D01*
X167153641Y-123870000D02*
X166846359Y-123870000D01*
%TO.C,C4*%
X173392164Y-91140000D02*
X173607836Y-91140000D01*
X173392164Y-91860000D02*
X173607836Y-91860000D01*
%TO.C,Q1*%
X166340000Y-88800000D02*
X166340000Y-90200000D01*
X168660000Y-90200000D02*
X168660000Y-88300000D01*
%TO.C,C10*%
X196687500Y-127847500D02*
X195900000Y-127847500D01*
X196293750Y-128241250D02*
X196293750Y-127453750D01*
X195660000Y-128345563D02*
X195660000Y-127060000D01*
X195660000Y-128345563D02*
X194595563Y-129410000D01*
X195660000Y-123654437D02*
X195660000Y-124940000D01*
X195660000Y-123654437D02*
X194595563Y-122590000D01*
X194595563Y-129410000D02*
X188840000Y-129410000D01*
X194595563Y-122590000D02*
X188840000Y-122590000D01*
X188840000Y-129410000D02*
X188840000Y-127060000D01*
X188840000Y-122590000D02*
X188840000Y-124940000D01*
%TO.C,J1*%
X100500000Y-85275000D02*
X100500000Y-83575000D01*
X102500000Y-85275000D02*
X100500000Y-85275000D01*
X98750000Y-83575000D02*
X98750000Y-73675000D01*
X100500000Y-83575000D02*
X98750000Y-83575000D01*
X102500000Y-83575000D02*
X102500000Y-85275000D01*
X107250000Y-83575000D02*
X102500000Y-83575000D01*
X98750000Y-73675000D02*
X100500000Y-73675000D01*
X100500000Y-73675000D02*
X100500000Y-71975000D01*
X102500000Y-73675000D02*
X107250000Y-73675000D01*
X107250000Y-73675000D02*
X107250000Y-83575000D01*
X100500000Y-71975000D02*
X102500000Y-71975000D01*
X102500000Y-71975000D02*
X102500000Y-73675000D01*
%TD*%
M02*
