M48
; DRILL file {KiCad (7.0.0-rc1-56-g82a1175d72)} date Mon May  8 22:11:51 2023
; FORMAT={-:-/ absolute / inch / decimal}
; #@! TF.CreationDate,2023-05-08T22:11:51+09:00
; #@! TF.GenerationSoftware,Kicad,Pcbnew,(7.0.0-rc1-56-g82a1175d72)
; #@! TF.FileFunction,MixedPlating,1,2
FMAT,2
INCH
; #@! TA.AperFunction,Plated,PTH,ViaDrill
T1C0.0157
; #@! TA.AperFunction,Plated,PTH,ComponentDrill
T2C0.0276
; #@! TA.AperFunction,Plated,PTH,ComponentDrill
T3C0.0295
; #@! TA.AperFunction,Plated,PTH,ComponentDrill
T4C0.0394
; #@! TA.AperFunction,Plated,PTH,ComponentDrill
T5C0.0433
; #@! TA.AperFunction,Plated,PTH,ComponentDrill
T6C0.0591
; #@! TA.AperFunction,Plated,PTH,ComponentDrill
T7C0.0669
; #@! TA.AperFunction,Plated,PTH,ComponentDrill
T8C0.0984
; #@! TA.AperFunction,NonPlated,NPTH,ComponentDrill
T9C0.1339
%
G90
G05
T1
X3.9764Y-2.6476
X3.9862Y-3.0906
X3.9862Y-3.7402
X3.9862Y-4.0256
X3.9862Y-4.3209
X3.9862Y-4.6063
X3.9862Y-4.9016
X3.9862Y-5.2165
X3.9862Y-5.4823
X4.1535Y-2.6476
X4.1732Y-2.687
X4.1929Y-2.6476
X4.1929Y-2.7264
X4.1929Y-3.4744
X4.2126Y-2.3917
X4.2126Y-2.4705
X4.2126Y-2.687
X4.2126Y-2.7657
X4.2323Y-2.4311
X4.2323Y-2.6476
X4.2323Y-2.7264
X4.2323Y-3.5232
X4.252Y-2.3917
X4.252Y-2.4705
X4.252Y-2.687
X4.252Y-2.7657
X4.2717Y-2.4311
X4.2717Y-2.7264
X4.2815Y-3.5433
X4.2913Y-2.3917
X4.2913Y-2.4705
X4.2913Y-2.687
X4.2913Y-2.7657
X4.311Y-2.4311
X4.311Y-2.7264
X4.3307Y-2.3917
X4.3307Y-2.4705
X4.3307Y-2.687
X4.3307Y-2.7657
X4.3504Y-2.4311
X4.3504Y-2.7264
X4.3701Y-2.3917
X4.3701Y-2.4705
X4.3701Y-2.687
X4.3701Y-2.7657
X4.3701Y-5.8366
X4.3898Y-2.4311
X4.3898Y-2.7264
X4.4094Y-2.3917
X4.4094Y-2.4705
X4.4094Y-2.687
X4.4094Y-2.7657
X4.4094Y-3.6909
X4.4291Y-2.4311
X4.4291Y-2.7264
X4.4488Y-2.3917
X4.4488Y-2.4705
X4.4488Y-2.687
X4.4488Y-2.7657
X4.4685Y-2.4311
X4.4685Y-2.7264
X4.4882Y-2.3917
X4.4882Y-2.4705
X4.4882Y-2.687
X4.4882Y-2.7657
X4.4882Y-3.6516
X4.5079Y-2.4311
X4.5079Y-2.7264
X4.5276Y-2.3917
X4.5276Y-2.4705
X4.5276Y-2.687
X4.5276Y-2.7657
X4.5472Y-2.4311
X4.5472Y-2.7264
X4.5669Y-2.4705
X4.5866Y-3.937
X4.6897Y-2.6823
X4.7244Y-5.8366
X4.7539Y-3.7992
X4.9606Y-3.937
X5.0984Y-5.8366
X5.2264Y-3.7992
X5.4232Y-3.9272
X5.4823Y-5.8366
X5.6299Y-3.7992
X5.8661Y-3.9272
X5.8858Y-5.8366
X5.9843Y-4.065
X6.0039Y-4.2913
X6.0039Y-4.5079
X6.0236Y-3.7992
X6.0728Y-3.937
X6.1024Y-5.374
X6.1122Y-4.7244
X6.1122Y-5.0
X6.1319Y-4.3012
X6.1319Y-4.5079
X6.25Y-3.9469
X6.2697Y-5.6693
X6.2795Y-3.6319
X6.2992Y-5.8366
X6.378Y-5.3543
X6.378Y-5.4429
X6.3878Y-3.7795
X6.4173Y-3.9469
X6.4173Y-4.2028
X6.4173Y-4.498
X6.4173Y-4.8031
X6.4173Y-5.0098
X6.4272Y-3.4843
X6.4961Y-3.6319
X6.5059Y-4.5276
X6.5059Y-4.9409
X6.5256Y-4.1929
X6.5453Y-3.4843
X6.5551Y-4.0157
X6.565Y-4.2618
X6.6043Y-4.5768
X6.6043Y-5.8366
X6.6142Y-3.8878
X6.6535Y-5.3543
X6.6535Y-5.4429
X6.6634Y-4.9016
X6.6732Y-3.6713
X6.6732Y-4.1831
X6.6732Y-4.4587
X6.6831Y-4.0748
X6.7028Y-4.7047
X6.7421Y-3.6024
X6.752Y-4.0846
X6.7618Y-4.2815
X6.7618Y-4.4193
X6.7913Y-5.6988
X6.8209Y-4.0846
X6.8209Y-4.1831
X6.8307Y-3.8583
X6.8406Y-4.4094
X6.8701Y-4.5079
X6.8701Y-4.7146
X6.8799Y-3.6516
X6.8799Y-3.7697
X6.9094Y-5.187
X6.9094Y-5.2657
X6.9291Y-4.3701
X6.9291Y-4.5571
X6.9291Y-4.6457
X6.939Y-4.1142
X6.9685Y-3.563
X6.9685Y-3.6516
X6.9783Y-4.2717
X6.9783Y-5.4331
X6.998Y-5.6988
X7.0079Y-4.4291
X7.0079Y-4.5374
X7.0177Y-3.8878
X7.0472Y-4.7736
X7.0669Y-5.0984
X7.0866Y-3.6713
X7.1358Y-4.1535
X7.1358Y-4.3701
X7.1358Y-4.6358
X7.1358Y-5.187
X7.1358Y-5.2756
X7.1555Y-5.4134
X7.1654Y-3.7303
X7.1654Y-5.0098
X7.185Y-3.8878
X7.2244Y-5.6791
X7.2736Y-5.3248
X7.2736Y-5.4232
X7.2835Y-5.7185
X7.3031Y-3.4744
X7.313Y-3.9961
X7.313Y-4.1339
X7.3228Y-4.2717
X7.3228Y-4.4291
X7.3228Y-4.5866
X7.372Y-5.0591
X7.4114Y-4.4291
X7.4213Y-4.1142
X7.4409Y-5.8563
X7.4606Y-5.7185
X7.4803Y-5.374
X7.4902Y-4.5374
X7.5197Y-4.7933
X7.5394Y-4.2224
X7.5394Y-4.3209
X7.5394Y-4.4291
X7.5492Y-5.0591
X7.5984Y-4.7933
X7.6378Y-5.2067
X7.6772Y-3.5039
X7.687Y-5.4921
X7.7657Y-4.8819
X7.7756Y-5.0886
X7.8051Y-3.5039
X7.8051Y-3.7894
X7.8051Y-3.9862
X7.8051Y-4.626
T2
X7.6941Y-2.372
X7.7941Y-2.372
T3
X7.7382Y-5.2067
X7.7382Y-5.2854
T4
X3.9961Y-2.8789
X3.9961Y-3.312
X6.1992Y-4.1457
X6.1992Y-4.2457
X6.1992Y-4.3457
X6.1992Y-4.4457
X6.1992Y-4.5457
X6.1992Y-4.6457
X6.1992Y-4.7457
X6.1992Y-4.8457
X6.1992Y-4.9457
X6.1992Y-5.0457
X6.1992Y-5.1457
X6.1992Y-5.2457
X6.1992Y-5.3457
X6.1992Y-5.4457
X6.1992Y-5.5457
X6.2992Y-4.1457
X6.2992Y-4.2457
X6.2992Y-4.3457
X6.2992Y-4.4457
X6.2992Y-4.5457
X6.2992Y-4.6457
X6.2992Y-4.7457
X6.2992Y-4.8457
X6.2992Y-4.9457
X6.2992Y-5.0457
X6.2992Y-5.1457
X6.2992Y-5.2457
X6.2992Y-5.3457
X6.2992Y-5.4457
X6.2992Y-5.5457
X6.6043Y-4.7244
X6.6043Y-4.9902
X6.6535Y-3.9961
X6.8012Y-3.9961
X6.8996Y-4.9508
X6.9488Y-3.9961
X6.9783Y-4.9508
X7.0571Y-4.9508
X7.0965Y-3.9961
X7.1358Y-4.9508
X7.2146Y-4.9508
T5
X6.9587Y-5.5217
X7.0571Y-5.5217
X7.1555Y-5.5217
T6
X4.9035Y-2.5758
X5.1181Y-2.5758
X5.3327Y-2.5758
X5.9555Y-2.5787
X6.1701Y-2.5787
X6.3846Y-2.5787
X7.0Y-2.5787
X7.2146Y-2.5787
X7.4291Y-2.5787
T7
X4.3898Y-2.997
X4.3898Y-3.1939
T8
X6.7972Y-5.2264
X7.2776Y-5.2264
T9
X5.1181Y-1.8356
X6.1701Y-1.8386
X7.2146Y-1.8386
T4
G00X7.315Y-3.8484
M15
G01X7.315Y-3.75
M16
G05
G00X7.4803Y-3.6142
M15
G01X7.4016Y-3.6142
M16
G05
G00X7.5591Y-3.8386
M15
G01X7.5591Y-3.7598
M16
G05
T0
M30
