%TF.GenerationSoftware,KiCad,Pcbnew,(7.0.0-rc1-56-g82a1175d72)*%
%TF.CreationDate,2023-05-08T22:11:16+09:00*%
%TF.ProjectId,E_Load,455f4c6f-6164-42e6-9b69-6361645f7063,rev?*%
%TF.SameCoordinates,Original*%
%TF.FileFunction,Soldermask,Bot*%
%TF.FilePolarity,Negative*%
%FSLAX46Y46*%
G04 Gerber Fmt 4.6, Leading zero omitted, Abs format (unit mm)*
G04 Created by KiCad (PCBNEW (7.0.0-rc1-56-g82a1175d72)) date 2023-05-08 22:11:16*
%MOMM*%
%LPD*%
G01*
G04 APERTURE LIST*
G04 Aperture macros list*
%AMRoundRect*
0 Rectangle with rounded corners*
0 $1 Rounding radius*
0 $2 $3 $4 $5 $6 $7 $8 $9 X,Y pos of 4 corners*
0 Add a 4 corners polygon primitive as box body*
4,1,4,$2,$3,$4,$5,$6,$7,$8,$9,$2,$3,0*
0 Add four circle primitives for the rounded corners*
1,1,$1+$1,$2,$3*
1,1,$1+$1,$4,$5*
1,1,$1+$1,$6,$7*
1,1,$1+$1,$8,$9*
0 Add four rect primitives between the rounded corners*
20,1,$1+$1,$2,$3,$4,$5,0*
20,1,$1+$1,$4,$5,$6,$7,0*
20,1,$1+$1,$6,$7,$8,$9,0*
20,1,$1+$1,$8,$9,$2,$3,0*%
G04 Aperture macros list end*
%ADD10R,1.700000X1.700000*%
%ADD11O,1.700000X1.700000*%
%ADD12C,2.000000*%
%ADD13R,2.000000X4.500000*%
%ADD14O,2.000000X4.000000*%
%ADD15O,4.000000X2.000000*%
%ADD16O,3.400000X3.400000*%
%ADD17R,2.500000X4.500000*%
%ADD18O,2.500000X4.500000*%
%ADD19C,1.600000*%
%ADD20C,3.500000*%
%ADD21RoundRect,0.250000X-0.625000X0.350000X-0.625000X-0.350000X0.625000X-0.350000X0.625000X0.350000X0*%
%ADD22O,1.750000X1.200000*%
%ADD23C,1.400000*%
%ADD24O,1.400000X1.400000*%
%ADD25C,2.500000*%
G04 APERTURE END LIST*
D10*
%TO.C,J4*%
X157459999Y-105299999D03*
D11*
X159999999Y-105299999D03*
X157459999Y-107839999D03*
X159999999Y-107839999D03*
X157459999Y-110379999D03*
X159999999Y-110379999D03*
X157459999Y-112919999D03*
X159999999Y-112919999D03*
X157459999Y-115459999D03*
X159999999Y-115459999D03*
X157459999Y-117999999D03*
X159999999Y-117999999D03*
X157459999Y-120539999D03*
X159999999Y-120539999D03*
X157459999Y-123079999D03*
X159999999Y-123079999D03*
X157459999Y-125619999D03*
X159999999Y-125619999D03*
X157459999Y-128159999D03*
X159999999Y-128159999D03*
X157459999Y-130699999D03*
X159999999Y-130699999D03*
X157459999Y-133239999D03*
X159999999Y-133239999D03*
X157459999Y-135779999D03*
X159999999Y-135779999D03*
X157459999Y-138319999D03*
X159999999Y-138319999D03*
X157459999Y-140859999D03*
X159999999Y-140859999D03*
%TD*%
D12*
%TO.C,TP5*%
X167750000Y-120000000D03*
%TD*%
%TO.C,TP6*%
X167750000Y-126750000D03*
%TD*%
%TO.C,TP2*%
X172750000Y-101500000D03*
%TD*%
%TO.C,TP4*%
X180250000Y-101500000D03*
%TD*%
D13*
%TO.C,J2*%
X185799999Y-96499999D03*
D14*
X191999999Y-96499999D03*
D15*
X188999999Y-91799999D03*
%TD*%
D16*
%TO.C,Q3*%
X156719999Y-46699999D03*
D17*
X162169999Y-65499999D03*
D18*
X156719999Y-65499999D03*
X151269999Y-65499999D03*
%TD*%
D19*
%TO.C,SW1*%
X175250000Y-125750000D03*
X177250000Y-125750000D03*
X179250000Y-125750000D03*
X181250000Y-125750000D03*
X183250000Y-125750000D03*
D12*
X176750000Y-140250000D03*
X181750000Y-140250000D03*
X179250000Y-140250000D03*
D20*
X172650000Y-132750000D03*
X184850000Y-132750000D03*
%TD*%
D16*
%TO.C,Q2*%
X129999999Y-46624999D03*
D17*
X135449999Y-65424999D03*
D18*
X129999999Y-65424999D03*
X124549999Y-65424999D03*
%TD*%
D16*
%TO.C,Q4*%
X183249999Y-46699999D03*
D17*
X188699999Y-65499999D03*
D18*
X183249999Y-65499999D03*
X177799999Y-65499999D03*
%TD*%
D21*
%TO.C,J3*%
X196550000Y-132250000D03*
D22*
X196549999Y-134249999D03*
%TD*%
D23*
%TO.C,TH1*%
X197970000Y-60250000D03*
D24*
X195429999Y-60249999D03*
%TD*%
D12*
%TO.C,TP1*%
X169000000Y-101500000D03*
%TD*%
%TO.C,TP3*%
X176500000Y-101500000D03*
%TD*%
%TO.C,J1*%
X101500000Y-84125000D03*
X101500000Y-73125000D03*
D25*
X111500000Y-81125000D03*
X111500000Y-76125000D03*
%TD*%
M02*
