%TF.GenerationSoftware,KiCad,Pcbnew,(7.0.0-rc1-56-g82a1175d72)*%
%TF.CreationDate,2023-05-08T22:11:16+09:00*%
%TF.ProjectId,E_Load,455f4c6f-6164-42e6-9b69-6361645f7063,rev?*%
%TF.SameCoordinates,Original*%
%TF.FileFunction,Paste,Top*%
%TF.FilePolarity,Positive*%
%FSLAX46Y46*%
G04 Gerber Fmt 4.6, Leading zero omitted, Abs format (unit mm)*
G04 Created by KiCad (PCBNEW (7.0.0-rc1-56-g82a1175d72)) date 2023-05-08 22:11:16*
%MOMM*%
%LPD*%
G01*
G04 APERTURE LIST*
G04 Aperture macros list*
%AMRoundRect*
0 Rectangle with rounded corners*
0 $1 Rounding radius*
0 $2 $3 $4 $5 $6 $7 $8 $9 X,Y pos of 4 corners*
0 Add a 4 corners polygon primitive as box body*
4,1,4,$2,$3,$4,$5,$6,$7,$8,$9,$2,$3,0*
0 Add four circle primitives for the rounded corners*
1,1,$1+$1,$2,$3*
1,1,$1+$1,$4,$5*
1,1,$1+$1,$6,$7*
1,1,$1+$1,$8,$9*
0 Add four rect primitives between the rounded corners*
20,1,$1+$1,$2,$3,$4,$5,0*
20,1,$1+$1,$4,$5,$6,$7,0*
20,1,$1+$1,$6,$7,$8,$9,0*
20,1,$1+$1,$8,$9,$2,$3,0*%
G04 Aperture macros list end*
%ADD10R,0.975000X0.300000*%
%ADD11R,0.975000X0.250000*%
%ADD12R,0.350000X1.030000*%
%ADD13RoundRect,0.140000X0.170000X-0.140000X0.170000X0.140000X-0.170000X0.140000X-0.170000X-0.140000X0*%
%ADD14RoundRect,0.135000X-0.135000X-0.185000X0.135000X-0.185000X0.135000X0.185000X-0.135000X0.185000X0*%
%ADD15RoundRect,0.135000X0.185000X-0.135000X0.185000X0.135000X-0.185000X0.135000X-0.185000X-0.135000X0*%
%ADD16RoundRect,0.140000X0.140000X0.170000X-0.140000X0.170000X-0.140000X-0.170000X0.140000X-0.170000X0*%
%ADD17RoundRect,0.135000X-0.185000X0.135000X-0.185000X-0.135000X0.185000X-0.135000X0.185000X0.135000X0*%
%ADD18R,0.650000X0.400000*%
%ADD19RoundRect,0.140000X-0.140000X-0.170000X0.140000X-0.170000X0.140000X0.170000X-0.140000X0.170000X0*%
%ADD20RoundRect,0.150000X-0.825000X-0.150000X0.825000X-0.150000X0.825000X0.150000X-0.825000X0.150000X0*%
%ADD21RoundRect,0.250000X-1.500000X-0.550000X1.500000X-0.550000X1.500000X0.550000X-1.500000X0.550000X0*%
%ADD22RoundRect,0.135000X0.135000X0.185000X-0.135000X0.185000X-0.135000X-0.185000X0.135000X-0.185000X0*%
%ADD23RoundRect,0.150000X-0.150000X0.512500X-0.150000X-0.512500X0.150000X-0.512500X0.150000X0.512500X0*%
%ADD24R,2.000000X1.500000*%
%ADD25R,2.000000X3.800000*%
%ADD26RoundRect,0.150000X-0.587500X-0.150000X0.587500X-0.150000X0.587500X0.150000X-0.587500X0.150000X0*%
%ADD27RoundRect,0.250000X0.325000X0.650000X-0.325000X0.650000X-0.325000X-0.650000X0.325000X-0.650000X0*%
%ADD28RoundRect,0.140000X-0.170000X0.140000X-0.170000X-0.140000X0.170000X-0.140000X0.170000X0.140000X0*%
%ADD29RoundRect,0.218750X-0.218750X-0.256250X0.218750X-0.256250X0.218750X0.256250X-0.218750X0.256250X0*%
%ADD30RoundRect,0.250000X-2.350000X0.325000X-2.350000X-0.325000X2.350000X-0.325000X2.350000X0.325000X0*%
%ADD31R,0.400000X0.650000*%
%ADD32RoundRect,0.250000X1.500000X0.550000X-1.500000X0.550000X-1.500000X-0.550000X1.500000X-0.550000X0*%
G04 APERTURE END LIST*
D10*
%TO.C,U5*%
X175587499Y-109609999D03*
D11*
X175587499Y-109109999D03*
X175587499Y-108609999D03*
D10*
X175587499Y-108109999D03*
D12*
X174749999Y-107799999D03*
D10*
X173912499Y-108109999D03*
D11*
X173912499Y-108609999D03*
X173912499Y-109109999D03*
D10*
X173912499Y-109609999D03*
D12*
X174749999Y-109919999D03*
%TD*%
D13*
%TO.C,C15*%
X178750000Y-123230000D03*
X178750000Y-122270000D03*
%TD*%
D14*
%TO.C,R3*%
X106490000Y-92490000D03*
X107510000Y-92490000D03*
%TD*%
%TO.C,R23*%
X180240000Y-143000000D03*
X181260000Y-143000000D03*
%TD*%
D15*
%TO.C,R1*%
X107500000Y-91500000D03*
X107500000Y-90480000D03*
%TD*%
D16*
%TO.C,C12*%
X168480000Y-106250000D03*
X167520000Y-106250000D03*
%TD*%
D17*
%TO.C,R16*%
X178000000Y-110000000D03*
X178000000Y-111020000D03*
%TD*%
D16*
%TO.C,C13*%
X175730000Y-143000000D03*
X174770000Y-143000000D03*
%TD*%
D18*
%TO.C,U3*%
X118449999Y-66624999D03*
X118449999Y-65974999D03*
X118449999Y-65324999D03*
X116549999Y-65324999D03*
X116549999Y-65974999D03*
X116549999Y-66624999D03*
%TD*%
D19*
%TO.C,C8*%
X170520000Y-106250000D03*
X171480000Y-106250000D03*
%TD*%
D14*
%TO.C,R10*%
X195240000Y-62000000D03*
X196260000Y-62000000D03*
%TD*%
D15*
%TO.C,R2*%
X139250000Y-68760000D03*
X139250000Y-67740000D03*
%TD*%
%TO.C,R8*%
X176000000Y-98510000D03*
X176000000Y-97490000D03*
%TD*%
%TO.C,R22*%
X181250000Y-123260000D03*
X181250000Y-122240000D03*
%TD*%
%TO.C,R7*%
X191750000Y-69510000D03*
X191750000Y-68490000D03*
%TD*%
D20*
%TO.C,U1*%
X167525000Y-93095000D03*
X167525000Y-94365000D03*
X167525000Y-95635000D03*
X167525000Y-96905000D03*
X172475000Y-96905000D03*
X172475000Y-95635000D03*
X172475000Y-94365000D03*
X172475000Y-93095000D03*
%TD*%
D21*
%TO.C,C2*%
X189200000Y-117500000D03*
X194800000Y-117500000D03*
%TD*%
D22*
%TO.C,R14*%
X167510000Y-122750000D03*
X166490000Y-122750000D03*
%TD*%
D15*
%TO.C,R19*%
X175250000Y-123260000D03*
X175250000Y-122240000D03*
%TD*%
D14*
%TO.C,R17*%
X189000000Y-131250000D03*
X190020000Y-131250000D03*
%TD*%
D23*
%TO.C,U4*%
X170450000Y-107862500D03*
X169500000Y-107862500D03*
X168550000Y-107862500D03*
X168550000Y-110137500D03*
X169500000Y-110137500D03*
X170450000Y-110137500D03*
%TD*%
D19*
%TO.C,C14*%
X182520000Y-143000000D03*
X183480000Y-143000000D03*
%TD*%
D24*
%TO.C,U2*%
X194649999Y-111799999D03*
X194649999Y-109499999D03*
D25*
X188349999Y-109499999D03*
D24*
X194649999Y-107199999D03*
%TD*%
D22*
%TO.C,R5*%
X195760000Y-121750000D03*
X194740000Y-121750000D03*
%TD*%
D26*
%TO.C,Q5*%
X190312500Y-132550000D03*
X190312500Y-134450000D03*
X192187500Y-133500000D03*
%TD*%
D27*
%TO.C,C1*%
X193500000Y-104500000D03*
X190550000Y-104500000D03*
%TD*%
D17*
%TO.C,R12*%
X120000000Y-67240000D03*
X120000000Y-68260000D03*
%TD*%
D13*
%TO.C,C7*%
X172750000Y-108980000D03*
X172750000Y-108020000D03*
%TD*%
D28*
%TO.C,C9*%
X171750000Y-110020000D03*
X171750000Y-110980000D03*
%TD*%
D29*
%TO.C,D1*%
X197212500Y-121750000D03*
X198787500Y-121750000D03*
%TD*%
D15*
%TO.C,R20*%
X177250000Y-123260000D03*
X177250000Y-122240000D03*
%TD*%
D14*
%TO.C,R18*%
X177240000Y-143000000D03*
X178260000Y-143000000D03*
%TD*%
D28*
%TO.C,C5*%
X120000000Y-65270000D03*
X120000000Y-66230000D03*
%TD*%
D30*
%TO.C,R9*%
X111000000Y-64375000D03*
X111000000Y-66625000D03*
%TD*%
D15*
%TO.C,R6*%
X176000000Y-96010000D03*
X176000000Y-94990000D03*
%TD*%
D19*
%TO.C,C6*%
X195270000Y-63000000D03*
X196230000Y-63000000D03*
%TD*%
D15*
%TO.C,R4*%
X165500000Y-69010000D03*
X165500000Y-67990000D03*
%TD*%
D13*
%TO.C,C3*%
X108500000Y-92470000D03*
X108500000Y-91510000D03*
%TD*%
D17*
%TO.C,R13*%
X177000000Y-109990000D03*
X177000000Y-111010000D03*
%TD*%
D27*
%TO.C,C11*%
X168475000Y-104500000D03*
X165525000Y-104500000D03*
%TD*%
D17*
%TO.C,R11*%
X121000000Y-65240000D03*
X121000000Y-66260000D03*
%TD*%
D15*
%TO.C,R21*%
X179750000Y-123260000D03*
X179750000Y-122240000D03*
%TD*%
D22*
%TO.C,R15*%
X167510000Y-124250000D03*
X166490000Y-124250000D03*
%TD*%
D19*
%TO.C,C4*%
X173020000Y-91500000D03*
X173980000Y-91500000D03*
%TD*%
D31*
%TO.C,Q1*%
X168149999Y-88549999D03*
X167499999Y-88549999D03*
X166849999Y-88549999D03*
X166849999Y-90449999D03*
X167499999Y-90449999D03*
X168149999Y-90449999D03*
%TD*%
D32*
%TO.C,C10*%
X195050000Y-126000000D03*
X189450000Y-126000000D03*
%TD*%
M02*
